G04 DipTrace 2.3.1.0*
%INamp_tas5631.gbl*%
%MOIN*%
%ADD14C,0.013*%
%ADD15C,0.1181*%
%ADD16C,0.0787*%
%ADD17C,0.0394*%
%ADD19C,0.0197*%
%ADD20C,0.026*%
%ADD21C,0.1575*%
%ADD22C,0.1378*%
%ADD23C,0.1969*%
%ADD24C,0.0236*%
%ADD25C,0.2756*%
%ADD26C,0.025*%
%ADD30C,0.052*%
%ADD31C,0.124*%
%ADD32C,0.063*%
%ADD34C,0.05*%
%ADD35R,0.05X0.05*%
%ADD36R,0.0591X0.0591*%
%ADD37C,0.0591*%
%ADD38R,0.1772X0.1772*%
%ADD44R,0.0748X0.0748*%
%ADD45C,0.0748*%
%ADD47R,0.0787X0.1181*%
%ADD48O,0.0787X0.1181*%
%ADD49R,0.1575X0.1181*%
%ADD50O,0.1575X0.1181*%
%ADD52C,0.04*%
%FSLAX44Y44*%
G04*
G70*
G90*
G75*
G01*
%LNBottom*%
%LPD*%
X17870Y-3621D2*
D15*
X17996D1*
X19562Y-5188D1*
X21309Y-6934D1*
X21496D1*
X10120Y-6952D2*
D14*
Y-6495D1*
X9875Y-6250D1*
X17870Y-19810D2*
D15*
X18169D1*
X21382Y-16597D1*
X21559Y-16622D1*
X10250Y-10500D2*
D14*
Y-10625D1*
X10710D1*
X10960Y-10875D1*
X10250Y-11250D2*
Y-11125D1*
X10710D1*
X10960Y-10875D1*
X806Y-8746D2*
Y-11746D1*
X3869Y-14935D2*
Y-15935D1*
X10960Y-13313D2*
Y-10875D1*
X6000Y-14937D2*
Y-14875D1*
X5124D1*
Y-14935D1*
X3869D1*
X26812Y-17687D2*
D16*
X25747Y-16622D1*
X25188D1*
X21559D1*
X21496Y-6934D2*
X25753D1*
X26750Y-5937D1*
X33563Y-13727D2*
D17*
X34165D1*
X34688Y-14250D1*
X35437D1*
X35875Y-14688D1*
X36500D1*
Y-14406D1*
X806Y-11746D2*
D14*
Y-12806D1*
X875Y-12875D1*
X5124D1*
Y-13063D1*
Y-13437D1*
X4750D1*
Y-14875D1*
X5124D1*
X4625Y-13063D2*
X5124D1*
X7313Y-7627D2*
X6500D1*
Y-6875D1*
X3500Y-813D2*
Y-500D1*
X7500D1*
X6562Y-1438D1*
X6438D1*
X9313Y-3393D2*
Y-2750D1*
X8125D1*
X8250Y-2875D1*
X9313Y-3393D2*
Y-2500D1*
X10000D1*
X7375Y-5875D2*
Y-7564D1*
X7313Y-7627D1*
X5125Y-4925D2*
X7500D1*
X5125D2*
Y-5250D1*
X6313D1*
X16813Y-8875D2*
X16188D1*
X16813D2*
Y-9148D1*
X16500Y-9460D1*
X16188Y-8875D2*
Y-9148D1*
X16500Y-9460D1*
X16813Y-15063D2*
X16250D1*
X10625Y-17500D2*
X11375D1*
Y-17625D1*
X10625Y-14875D2*
X10750D1*
X11500Y-14125D1*
X25188Y-16750D2*
D16*
Y-16622D1*
X19438Y-5313D2*
D15*
X19562Y-5188D1*
X16500Y-14415D2*
D14*
X16813Y-14563D1*
Y-15063D1*
X16250D2*
Y-14665D1*
X16500Y-14415D1*
X5750Y-7688D2*
X4250D1*
X3938Y-7375D1*
X8750Y-11563D2*
X9937D1*
X10250Y-11250D1*
X21250Y-32063D2*
X20897D1*
X20272Y-31437D1*
X10688Y-31500D2*
Y-29000D1*
X10875Y-28813D1*
D19*
X13768D1*
X13956Y-28625D1*
X20272Y-31437D2*
D14*
Y-30125D1*
X19147D1*
X19000Y-29978D1*
Y-29875D1*
X21375D1*
X22688Y-28562D1*
Y-28125D1*
X21857D1*
X15312Y-26956D2*
D19*
X17706D1*
X18250Y-27500D1*
X18875Y-28813D2*
D14*
Y-28875D1*
X17375D1*
X16143D1*
X16125Y-28893D1*
X18875Y-29313D2*
Y-29875D1*
X19000D1*
X10688Y-30813D2*
Y-29000D1*
X9688Y-29375D2*
Y-28938D1*
X10750D1*
X10875Y-28813D1*
X18062Y-28750D2*
D19*
Y-28938D1*
X16169D1*
X16125Y-28893D1*
X6437Y-23313D2*
D14*
Y-24500D1*
X6312Y-24625D1*
X17500Y-28875D2*
X17375D1*
X10250Y-13437D2*
X10835D1*
X10960Y-13313D1*
X10250Y-12687D2*
X10335D1*
X10960Y-13313D1*
X33375Y-9188D2*
D17*
X34063D1*
X34750Y-9875D1*
X36875D1*
X37000Y-10000D1*
X35102Y-1969D2*
D14*
X38531D1*
X38625Y-2063D1*
Y-10000D1*
D16*
Y-14677D1*
X37000D2*
D21*
X38052D1*
D14*
X38063Y-14688D1*
X37000Y-10000D2*
D22*
X38062D1*
X18500Y-38500D2*
D14*
X18625D1*
X19063Y-38938D1*
X23750D1*
X23938Y-38750D1*
X14063Y-31625D2*
D19*
X15103D1*
X15728Y-32250D1*
X13978Y-29625D2*
X11687D1*
X10875Y-28813D1*
X14063Y-31625D2*
X14103D1*
X15728Y-33250D1*
X2143Y-6125D2*
D20*
Y-5956D1*
X1750Y-5563D1*
Y-4125D1*
X1813Y-4187D1*
X7313Y-8375D2*
D14*
Y-9063D1*
X5750Y-9000D2*
Y-8357D1*
X9245Y-10192D2*
X8875Y-10563D1*
X8750Y-10893D1*
X4311Y-8812D2*
Y-8873D1*
X5687Y-10250D1*
X7312D1*
X7438Y-10375D1*
X6875Y-10687D2*
X5375D1*
X4372Y-9684D1*
X4245D1*
X4311Y-9750D1*
Y-10687D2*
X4373D1*
X5998Y-12313D1*
X7500D1*
X4311Y-11625D2*
X4810D1*
X6122Y-12937D1*
X7500D1*
X3563Y-8812D2*
X1806D1*
Y-8746D1*
X3563Y-9750D2*
X1810D1*
X1806Y-9746D1*
X3563Y-10687D2*
X1865D1*
X1806Y-10746D1*
Y-11746D2*
X3441D1*
X3563Y-11625D1*
X10125Y-16625D2*
X10750D1*
X11250Y-16125D1*
Y-16956D1*
X11375D1*
X11250Y-16250D2*
Y-16956D1*
X9375Y-15625D2*
X10544D1*
X10625Y-15544D1*
X11625Y-15750D2*
Y-15875D1*
X11294Y-15544D1*
X10625D1*
X14500Y-11250D2*
X14687D1*
X15312Y-11875D1*
X12500Y-18250D2*
Y-17625D1*
X12625D1*
Y-17544D1*
X11375Y-8250D2*
X11250Y-8125D1*
Y-7625D1*
X11063D1*
X10124D1*
X10120Y-7621D1*
X11938Y-16312D2*
X12500Y-16875D1*
X12625D1*
X12125Y-5562D2*
Y-6268D1*
X12063Y-6331D1*
X25827Y-2308D2*
D23*
X27268Y-3750D1*
X31102D1*
Y-1969D1*
X37000Y-5000D2*
D21*
Y-4750D1*
D23*
X36125Y-3875D1*
X32312D1*
D21*
X30875Y-2438D1*
Y-1969D1*
X31102D1*
X14500Y-12268D2*
D14*
Y-11938D1*
X13500D1*
X31456Y-9687D2*
Y-6643D1*
X30750Y-5937D1*
X37000Y-6559D2*
X31372D1*
X30750Y-5937D1*
X13625Y-13250D2*
Y-12997D1*
X14500D1*
Y-12937D1*
Y-10581D2*
X13669D1*
X13625Y-10625D1*
X31456Y-13937D2*
Y-17044D1*
X30812Y-17687D1*
X11812Y-7562D2*
Y-7250D1*
X12063Y-7000D1*
X31102Y-22047D2*
D23*
Y-21352D1*
X30125Y-20375D1*
X26768D1*
X25706Y-21437D1*
X37000Y-19059D2*
D21*
Y-19688D1*
D23*
X31102D1*
Y-21352D1*
X8182Y-8559D2*
D24*
Y-6809D1*
X9000Y-5991D1*
Y-4875D1*
X11063Y-6877D2*
Y-6688D1*
X9875Y-5500D1*
X9000D1*
Y-4875D1*
X9377Y-16625D2*
X8688D1*
Y-14877D1*
X9375D1*
X9313Y-4063D2*
X7562D1*
X7500Y-4125D1*
X9313Y-4063D2*
X9000D1*
Y-4875D1*
X7500Y-4125D2*
D17*
Y-1500D1*
X7438Y-1438D1*
X8182Y-8559D2*
D24*
Y-13557D1*
X8688Y-14063D1*
Y-14877D1*
X9312Y-1875D2*
D14*
X7875D1*
X7438Y-1438D1*
X21496Y-9934D2*
D23*
X21559Y-13622D1*
X12313Y-14188D2*
D17*
X12187Y-13938D1*
X12063Y-13313D1*
Y-10875D1*
X12375Y-10000D2*
X12250Y-10063D1*
X12197Y-10552D1*
X12063Y-10875D1*
X14870Y-3621D2*
D23*
X15183D1*
X21496Y-9934D1*
X14870Y-19810D2*
X15370D1*
X21559Y-13622D1*
X22125Y-11875D2*
D25*
X34688D1*
D17*
X35062D1*
X33375Y-10188D1*
X16500Y-11188D2*
D16*
Y-11900D1*
Y-12625D1*
Y-11900D2*
D15*
X22125Y-11875D1*
X16500Y-12625D2*
D16*
Y-13313D1*
Y-11188D2*
Y-10563D1*
X12875Y-21875D2*
D14*
Y-21806D1*
X14870Y-19810D1*
X5125Y-4125D2*
D17*
Y-1750D1*
X5438Y-1438D1*
X5125Y-4125D2*
X2875D1*
X2813Y-4187D1*
Y-6125D2*
D20*
Y-4187D1*
X7000Y-20500D2*
D14*
Y-19500D1*
Y-18500D1*
Y-14000D1*
X7438Y-13563D1*
X18919Y-27500D2*
D19*
X19000D1*
Y-28125D1*
X18938Y-28188D1*
X19000Y-31438D2*
Y-30647D1*
Y-31438D2*
X19603Y-31437D1*
X15312Y-27625D2*
D20*
Y-28063D1*
Y-28500D1*
Y-28063D2*
X18938D1*
Y-28188D1*
X16125Y-29563D2*
Y-29625D1*
X17313D1*
X18335Y-30647D1*
X19000D1*
X8750Y-28063D2*
X8563D1*
X7938Y-28688D1*
X15312Y-28500D2*
X14625D1*
Y-28625D1*
X15312Y-29625D2*
X16063D1*
X16125Y-29563D1*
X15312Y-29625D2*
Y-28500D1*
X19000Y-31438D2*
D14*
X18937D1*
Y-33500D1*
X18625Y-33813D1*
X17062D1*
X16688Y-34187D1*
Y-34250D1*
Y-34687D1*
X15437Y-35938D1*
X15250D1*
X8750Y-28063D2*
D20*
X15312D1*
X14647Y-29625D2*
X15312D1*
X17063Y-33000D2*
D19*
X16938D1*
X16688Y-33250D1*
X16397D1*
X17063Y-33000D2*
Y-32915D1*
X16397Y-32250D1*
X20563Y-28125D2*
D14*
X21188D1*
X22500Y-34500D2*
Y-34750D1*
X22000Y-35250D1*
Y-36500D1*
X21500Y-37000D1*
Y-38500D1*
Y-34500D2*
Y-34688D1*
X21000Y-35188D1*
Y-36500D1*
X20500Y-37000D1*
Y-38500D1*
X25500Y-36000D2*
X26125Y-35375D1*
Y-33687D1*
X25813Y-33375D1*
X22625D1*
X21500Y-34500D1*
X22500Y-37000D2*
Y-38500D1*
Y-35500D2*
Y-37000D1*
Y-35500D2*
X24000D1*
X25500Y-34000D1*
X19500Y-37000D2*
Y-35500D1*
Y-38500D2*
Y-37813D1*
X20000Y-37313D1*
Y-36000D1*
X20500Y-35500D1*
X21625Y-31063D2*
Y-31375D1*
X22000Y-31750D1*
Y-32688D1*
X21750Y-32938D1*
X20437D1*
X18937Y-34438D1*
Y-34813D1*
X18750Y-35000D1*
X17313D1*
X15625Y-36688D1*
X12438D1*
X12000Y-36250D1*
X21062Y-31313D2*
X21688Y-31938D1*
Y-32500D1*
X21562Y-32625D1*
X20375D1*
X18937Y-34063D1*
X17250D1*
X17063Y-34250D1*
Y-34875D1*
X15625Y-36313D1*
X13250D1*
X12687Y-35750D1*
X11625D1*
X11500Y-35875D1*
Y-36750D1*
X11000Y-37250D1*
X10061Y-1875D2*
X11250D1*
X11500Y-2125D1*
X12875Y-22623D2*
X12123D1*
X11688Y-22188D1*
D52*
X9688Y-29375D3*
X9245Y-10192D3*
X12500Y-18250D3*
X11375Y-8250D3*
X11938Y-16312D3*
X13625Y-13250D3*
X12375Y-10000D3*
X15312Y-11875D3*
X13500Y-11938D3*
X7438Y-10375D3*
X6875Y-10687D3*
X7500Y-12313D3*
Y-12937D3*
X7313Y-9063D3*
X11250Y-16250D3*
X11625Y-15750D3*
X8182Y-8559D3*
X9000Y-4875D3*
X9875Y-6250D3*
X12313Y-14188D3*
X10250Y-12687D3*
Y-13437D3*
X12125Y-11813D3*
X9250Y-14000D3*
X10250Y-10500D3*
Y-11250D3*
X11500Y-14125D3*
X15688Y-3188D3*
X10625Y-17500D3*
X20750Y-11875D3*
X7000Y-11563D3*
X13625Y-10625D3*
X11812Y-7562D3*
X12125Y-5562D3*
X10000Y-2500D3*
X3500Y-2625D3*
X25188Y-16750D3*
Y-17938D3*
X21813Y-20250D3*
X25000Y-11125D3*
X10062Y-4438D3*
X3500Y-813D3*
X10375Y-625D3*
X8250Y-2875D3*
X25000Y-12500D3*
X31750D3*
X28000Y-11750D3*
X22125Y-11875D3*
X15875Y-17938D3*
X15938Y-5625D3*
X3875Y-5875D3*
X22750Y-22188D3*
X6313Y-5250D3*
X6500Y-6875D3*
X7375Y-5875D3*
X1063Y-7000D3*
X3938Y-7375D3*
X19625Y-18375D3*
X16688Y-34250D3*
X15250Y-35938D3*
X7438Y-13563D3*
X6000Y-15937D3*
Y-14937D3*
X6437Y-23313D3*
X8938D3*
X11000Y-22937D3*
X5500Y-21062D3*
X14312Y-32813D3*
X10875Y-12062D3*
X19438Y-5313D3*
X27938Y-15875D3*
X21062Y-31313D3*
X4625Y-13063D3*
X5750Y-9000D3*
X16250Y-20125D3*
X28188Y-18313D3*
X16813Y-15063D3*
X16250D3*
X16813Y-8875D3*
X16188D3*
X28563Y-10688D3*
X29125Y-13063D3*
X28250Y-9000D3*
Y-5688D3*
X26813Y-7500D3*
X24063Y-1063D3*
X33750D3*
X38188Y-2000D3*
X18875Y-813D3*
X17500Y-23000D3*
X787Y-2362D3*
X1181Y-21654D3*
X5687Y-16938D3*
X5375Y-16438D3*
Y-15500D3*
X5687Y-13938D3*
X5375Y-14438D3*
X26563Y-34500D3*
X23438Y-4875D3*
X24813Y-6437D3*
X23563Y-18625D3*
X8063Y-14875D3*
X12125Y-12500D3*
X16500Y-12625D3*
Y-11188D3*
X16625Y-16188D3*
X14813D3*
X16438Y-7625D3*
X14688Y-7813D3*
X5750Y-9688D3*
X6500D3*
X26625Y-35500D3*
X13875Y-688D3*
X22062Y-1438D3*
X22188Y-2938D3*
X38438Y-12375D3*
X22500Y-17500D3*
X24000Y-21500D3*
X26688Y-23000D3*
X20000D3*
X13313Y-23250D3*
X10375Y-20875D3*
X3375Y-17875D3*
X4813Y-22438D3*
X6000Y-17500D3*
X1000Y-15000D3*
Y-16500D3*
Y-18500D3*
Y-20000D3*
X14313Y-33375D3*
X13438Y-33875D3*
Y-34438D3*
X15375Y-34938D3*
X15312Y-28500D3*
X17500Y-28875D3*
X20563Y-28125D3*
X18938Y-28188D3*
X19000Y-31438D3*
X17063Y-33000D3*
X10688Y-31500D3*
X10875Y-28813D3*
X15312Y-29625D3*
X28500Y-35563D3*
X30500D3*
X12313Y-30438D3*
X14063Y-31625D3*
X18875Y-28813D3*
X21625Y-31063D3*
X17875Y-33313D3*
X21250Y-32063D3*
X8750Y-28063D3*
X18875Y-29313D3*
X16062Y-26938D3*
X18062Y-28750D3*
X15750Y-26250D3*
X6312Y-24625D3*
X11813Y-26688D3*
X8688Y-24625D3*
X23062Y-31437D3*
X10688Y-30813D3*
X23938Y-38750D3*
X24312Y-35875D3*
X28500Y-37063D3*
X28563Y-34563D3*
X27500Y-32938D3*
X30500Y-37063D3*
X26500D3*
X31313Y-31938D3*
X1625Y-33000D3*
X3500Y-31750D3*
X7062Y-32687D3*
X1625Y-35563D3*
X38438Y-33688D3*
X33688Y-29563D3*
X23813Y-36938D3*
X24000Y-33813D3*
X13500Y-24688D3*
X15500D3*
X9813Y-36375D3*
X3938Y-33500D3*
X9313Y-38250D3*
X1313Y-30313D3*
X625Y-28063D3*
X1500Y-26875D3*
X18437Y-31438D3*
X13625Y-35750D3*
X32500Y-25375D3*
X34500D3*
X30438D3*
X28500D3*
X26563D3*
X24438D3*
X22500Y-25000D3*
X20750Y-24688D3*
X18125Y-24625D3*
X36625Y-25375D3*
X35563Y-28313D3*
X33625Y-23063D3*
X32813Y-38688D3*
X38500Y-15875D3*
X38000Y-22688D3*
X37563Y-28313D3*
X30500Y-34500D3*
X37250Y-36188D3*
X7250Y-30313D3*
X32812Y-35500D3*
X5938Y-28625D3*
X5563Y-26250D3*
X3375Y-29688D3*
X8188Y-34375D3*
X34438Y-32938D3*
X35750Y-37875D3*
X37250Y-31813D3*
X23688Y-34563D3*
X14438Y-35563D3*
X13313Y-37625D3*
X11687Y-38750D3*
X6563Y-38313D3*
X2500Y-37625D3*
X7563Y-35938D3*
X400Y-686D2*
D26*
X38914D1*
X400Y-935D2*
X4774D1*
X6101D2*
X7020D1*
X7855D2*
X30375D1*
X31828D2*
X38914D1*
X400Y-1184D2*
X4774D1*
X6101D2*
X6825D1*
X8050D2*
X25258D1*
X26394D2*
X30106D1*
X32097D2*
X38914D1*
X400Y-1432D2*
X4766D1*
X6101D2*
X6774D1*
X8101D2*
X8692D1*
X10679D2*
X24911D1*
X26742D2*
X29946D1*
X32254D2*
X38914D1*
X400Y-1681D2*
X4645D1*
X6101D2*
X6821D1*
X11785D2*
X20075D1*
X20918D2*
X24723D1*
X26992D2*
X29836D1*
X32343D2*
X38914D1*
X400Y-1930D2*
X4637D1*
X6101D2*
X7004D1*
X12000D2*
X19735D1*
X21257D2*
X24610D1*
X27238D2*
X29797D1*
X32375D2*
X38914D1*
X400Y-2178D2*
X4637D1*
X5613D2*
X7012D1*
X12039D2*
X19629D1*
X21363D2*
X24559D1*
X27488D2*
X29797D1*
X32375D2*
X38914D1*
X400Y-2427D2*
X4637D1*
X5613D2*
X7012D1*
X7988D2*
X8774D1*
X10601D2*
X11059D1*
X11941D2*
X14477D1*
X15574D2*
X19625D1*
X21367D2*
X24559D1*
X27738D2*
X29797D1*
X32379D2*
X38914D1*
X400Y-2676D2*
X4637D1*
X5613D2*
X7012D1*
X7988D2*
X14028D1*
X16023D2*
X19727D1*
X21265D2*
X24610D1*
X36500D2*
X38914D1*
X400Y-2924D2*
X4637D1*
X5613D2*
X7012D1*
X7988D2*
X8704D1*
X9921D2*
X13809D1*
X16277D2*
X20043D1*
X20949D2*
X24715D1*
X36961D2*
X38914D1*
X400Y-3173D2*
X4637D1*
X5613D2*
X7012D1*
X7988D2*
X8700D1*
X9152D2*
X9473D1*
X9925D2*
X13680D1*
X16527D2*
X24899D1*
X37214D2*
X38914D1*
X400Y-3422D2*
X2129D1*
X3496D2*
X4637D1*
X5613D2*
X7012D1*
X7988D2*
X8700D1*
X9152D2*
X9473D1*
X9925D2*
X13614D1*
X16773D2*
X25149D1*
X37464D2*
X38914D1*
X400Y-3670D2*
X2129D1*
X5613D2*
X7012D1*
X7988D2*
X8700D1*
X9925D2*
X13598D1*
X17023D2*
X25399D1*
X37711D2*
X38914D1*
X400Y-3919D2*
X2129D1*
X5632D2*
X6993D1*
X9925D2*
X13633D1*
X17273D2*
X25645D1*
X37957D2*
X38914D1*
X400Y-4168D2*
X2129D1*
X5671D2*
X6954D1*
X9925D2*
X13723D1*
X17519D2*
X25895D1*
X38129D2*
X38914D1*
X400Y-4417D2*
X2129D1*
X5586D2*
X7039D1*
X9925D2*
X13883D1*
X17769D2*
X26145D1*
X38230D2*
X38914D1*
X400Y-4665D2*
X2129D1*
X3496D2*
X8559D1*
X9843D2*
X14161D1*
X18019D2*
X26395D1*
X38273D2*
X38914D1*
X400Y-4914D2*
X2129D1*
X3496D2*
X8512D1*
X9488D2*
X14684D1*
X18265D2*
X26789D1*
X38261D2*
X38914D1*
X400Y-5163D2*
X2391D1*
X3234D2*
X8590D1*
X10082D2*
X11864D1*
X12386D2*
X14934D1*
X18515D2*
X29102D1*
X38203D2*
X38914D1*
X400Y-5411D2*
X2391D1*
X3234D2*
X8590D1*
X10351D2*
X11661D1*
X12589D2*
X15180D1*
X18765D2*
X29102D1*
X38086D2*
X38914D1*
X400Y-5660D2*
X1493D1*
X3464D2*
X8590D1*
X10601D2*
X11645D1*
X12605D2*
X15430D1*
X19011D2*
X29102D1*
X38078D2*
X38914D1*
X400Y-5909D2*
X1477D1*
X3480D2*
X8516D1*
X9410D2*
X9715D1*
X10851D2*
X11450D1*
X12675D2*
X15543D1*
X19261D2*
X29102D1*
X37961D2*
X38914D1*
X400Y-6157D2*
X1477D1*
X1925D2*
X2266D1*
X3480D2*
X8266D1*
X9371D2*
X9965D1*
X11097D2*
X11450D1*
X12675D2*
X15926D1*
X19511D2*
X29102D1*
X37976D2*
X38914D1*
X400Y-6406D2*
X1477D1*
X3480D2*
X8020D1*
X9152D2*
X9536D1*
X12675D2*
X16176D1*
X19757D2*
X29102D1*
X38062D2*
X38914D1*
X400Y-6655D2*
X1536D1*
X3418D2*
X7805D1*
X8902D2*
X9508D1*
X12675D2*
X16426D1*
X20007D2*
X29102D1*
X38070D2*
X38914D1*
X400Y-6903D2*
X7774D1*
X8656D2*
X9508D1*
X9957D2*
X10282D1*
X12675D2*
X16672D1*
X20257D2*
X29102D1*
X38004D2*
X38914D1*
X400Y-7152D2*
X5161D1*
X6339D2*
X6715D1*
X8589D2*
X9508D1*
X12675D2*
X16922D1*
X20504D2*
X29102D1*
X37961D2*
X38914D1*
X400Y-7401D2*
X5137D1*
X6363D2*
X6700D1*
X8589D2*
X9508D1*
X12675D2*
X17172D1*
X20754D2*
X29102D1*
X37961D2*
X38914D1*
X400Y-7649D2*
X5137D1*
X5589D2*
X5911D1*
X6363D2*
X6700D1*
X7152D2*
X7473D1*
X8589D2*
X9508D1*
X12293D2*
X17418D1*
X21004D2*
X29102D1*
X37961D2*
X38914D1*
X400Y-7898D2*
X5137D1*
X6363D2*
X6700D1*
X8589D2*
X9508D1*
X12160D2*
X17668D1*
X21250D2*
X29102D1*
X37961D2*
X38914D1*
X400Y-8147D2*
X5137D1*
X6363D2*
X6700D1*
X8589D2*
X9528D1*
X11855D2*
X17918D1*
X21500D2*
X29102D1*
X37961D2*
X38914D1*
X400Y-8396D2*
X1368D1*
X2246D2*
X2938D1*
X4937D2*
X5137D1*
X6363D2*
X6700D1*
X8644D2*
X10907D1*
X11843D2*
X18164D1*
X21750D2*
X29102D1*
X37961D2*
X38914D1*
X400Y-8644D2*
X1239D1*
X4937D2*
X5137D1*
X6363D2*
X6700D1*
X8664D2*
X11102D1*
X11648D2*
X18414D1*
X21996D2*
X29102D1*
X400Y-8893D2*
X1243D1*
X4937D2*
X5161D1*
X6339D2*
X6739D1*
X8589D2*
X15754D1*
X17246D2*
X18664D1*
X22246D2*
X29102D1*
X400Y-9142D2*
X1411D1*
X5070D2*
X5282D1*
X6218D2*
X6829D1*
X8589D2*
X15692D1*
X17308D2*
X18911D1*
X22488D2*
X25536D1*
X26714D2*
X29102D1*
X37961D2*
X38914D1*
X400Y-9390D2*
X1371D1*
X2242D2*
X2934D1*
X5320D2*
X5472D1*
X6027D2*
X6957D1*
X7668D2*
X7774D1*
X8589D2*
X15692D1*
X16140D2*
X16860D1*
X17308D2*
X19161D1*
X22644D2*
X25317D1*
X26933D2*
X29102D1*
X37961D2*
X38914D1*
X400Y-9639D2*
X1239D1*
X5566D2*
X7774D1*
X8589D2*
X12039D1*
X12691D2*
X15692D1*
X16140D2*
X16860D1*
X17308D2*
X19411D1*
X22734D2*
X25246D1*
X27004D2*
X29102D1*
X37961D2*
X38914D1*
X400Y-9888D2*
X1243D1*
X5816D2*
X7774D1*
X8589D2*
X8868D1*
X9621D2*
X11797D1*
X12851D2*
X15692D1*
X16140D2*
X16860D1*
X17308D2*
X19657D1*
X22769D2*
X25278D1*
X26972D2*
X29102D1*
X37961D2*
X38914D1*
X400Y-10136D2*
X1407D1*
X2207D2*
X2934D1*
X8589D2*
X8758D1*
X9730D2*
X10387D1*
X12843D2*
X13887D1*
X15113D2*
X15692D1*
X17308D2*
X19907D1*
X22773D2*
X25422D1*
X26828D2*
X29102D1*
X37961D2*
X38914D1*
X400Y-10385D2*
X1375D1*
X9695D2*
X10313D1*
X12711D2*
X13204D1*
X15113D2*
X15680D1*
X17320D2*
X20157D1*
X37961D2*
X38914D1*
X400Y-10634D2*
X1239D1*
X9418D2*
X10313D1*
X10761D2*
X11457D1*
X12711D2*
X13137D1*
X15113D2*
X15680D1*
X17320D2*
X20235D1*
X37961D2*
X38914D1*
X400Y-10882D2*
X1239D1*
X7324D2*
X7774D1*
X9363D2*
X10313D1*
X10761D2*
X11457D1*
X12711D2*
X13211D1*
X15113D2*
X15680D1*
X17320D2*
X20239D1*
X37961D2*
X38914D1*
X400Y-11131D2*
X1399D1*
X2214D2*
X2942D1*
X5308D2*
X6711D1*
X7039D2*
X7774D1*
X9363D2*
X10313D1*
X10761D2*
X11457D1*
X12711D2*
X13887D1*
X15113D2*
X15754D1*
X37961D2*
X38914D1*
X400Y-11380D2*
X1383D1*
X2230D2*
X2934D1*
X5554D2*
X7774D1*
X9363D2*
X10313D1*
X12711D2*
X13887D1*
X15308D2*
X15797D1*
X38058D2*
X38914D1*
X400Y-11628D2*
X1239D1*
X5804D2*
X7774D1*
X8589D2*
X8911D1*
X9363D2*
X10407D1*
X12617D2*
X13129D1*
X38074D2*
X38914D1*
X400Y-11877D2*
X1239D1*
X6054D2*
X7313D1*
X7687D2*
X7773D1*
X9363D2*
X11575D1*
X12609D2*
X13016D1*
X38015D2*
X38914D1*
X400Y-12126D2*
X1395D1*
X2218D2*
X2969D1*
X9320D2*
X11575D1*
X12550D2*
X13051D1*
X37961D2*
X38914D1*
X400Y-12375D2*
X5067D1*
X8589D2*
X11575D1*
X12597D2*
X13317D1*
X13683D2*
X13887D1*
X15113D2*
X15762D1*
X37961D2*
X38914D1*
X400Y-12623D2*
X5317D1*
X8589D2*
X10344D1*
X12679D2*
X13887D1*
X15113D2*
X15817D1*
X37961D2*
X38914D1*
X400Y-12872D2*
X5567D1*
X8589D2*
X10313D1*
X12711D2*
X13293D1*
X15113D2*
X15692D1*
X17308D2*
X20270D1*
X38043D2*
X38914D1*
X400Y-13121D2*
X5813D1*
X8589D2*
X10313D1*
X10761D2*
X11457D1*
X12711D2*
X13153D1*
X15113D2*
X15680D1*
X17320D2*
X20270D1*
X38078D2*
X38914D1*
X400Y-13369D2*
X6989D1*
X8589D2*
X10313D1*
X10761D2*
X11457D1*
X12711D2*
X13149D1*
X15113D2*
X15680D1*
X17320D2*
X20020D1*
X38039D2*
X38914D1*
X400Y-13618D2*
X2395D1*
X4343D2*
X5325D1*
X6050D2*
X6891D1*
X8808D2*
X10313D1*
X10761D2*
X11457D1*
X12711D2*
X13317D1*
X13933D2*
X15680D1*
X17320D2*
X19770D1*
X22832D2*
X25329D1*
X26921D2*
X29102D1*
X37961D2*
X38914D1*
X400Y-13867D2*
X2301D1*
X4437D2*
X5204D1*
X6171D2*
X6672D1*
X7812D2*
X7925D1*
X9043D2*
X10313D1*
X12711D2*
X15692D1*
X17308D2*
X19524D1*
X22808D2*
X25250D1*
X27000D2*
X29102D1*
X37961D2*
X38914D1*
X400Y-14115D2*
X2309D1*
X4429D2*
X5016D1*
X6140D2*
X6645D1*
X7375D2*
X8172D1*
X9097D2*
X11735D1*
X12796D2*
X15692D1*
X16140D2*
X16860D1*
X17308D2*
X19274D1*
X22730D2*
X25270D1*
X26980D2*
X29102D1*
X37961D2*
X38914D1*
X400Y-14364D2*
X2508D1*
X3230D2*
X3508D1*
X4230D2*
X4891D1*
X5898D2*
X6645D1*
X7355D2*
X8278D1*
X11226D2*
X11856D1*
X12769D2*
X15692D1*
X16140D2*
X16860D1*
X17308D2*
X19024D1*
X22589D2*
X25403D1*
X26847D2*
X29102D1*
X37961D2*
X38914D1*
X400Y-14613D2*
X2399D1*
X3339D2*
X4918D1*
X5832D2*
X6645D1*
X7355D2*
X8278D1*
X11238D2*
X12098D1*
X12527D2*
X15692D1*
X16140D2*
X16860D1*
X17308D2*
X18778D1*
X22359D2*
X29102D1*
X37961D2*
X38914D1*
X400Y-14861D2*
X2301D1*
X3437D2*
X5161D1*
X5589D2*
X6645D1*
X7355D2*
X8278D1*
X10464D2*
X10786D1*
X11238D2*
X15692D1*
X17308D2*
X18528D1*
X22109D2*
X29102D1*
X37961D2*
X38914D1*
X400Y-15110D2*
X2309D1*
X3429D2*
X5098D1*
X5652D2*
X6645D1*
X7355D2*
X8278D1*
X11238D2*
X18278D1*
X21863D2*
X29102D1*
X37961D2*
X38914D1*
X400Y-15359D2*
X2500D1*
X3238D2*
X4907D1*
X5843D2*
X6645D1*
X7355D2*
X8278D1*
X11902D2*
X18032D1*
X21613D2*
X29102D1*
X37961D2*
X38914D1*
X400Y-15607D2*
X2407D1*
X3332D2*
X4899D1*
X5851D2*
X6645D1*
X7355D2*
X8278D1*
X12093D2*
X17782D1*
X21363D2*
X29102D1*
X37961D2*
X38914D1*
X400Y-15856D2*
X2301D1*
X3437D2*
X5051D1*
X5699D2*
X6645D1*
X7355D2*
X8278D1*
X12101D2*
X17532D1*
X21117D2*
X29102D1*
X37961D2*
X38914D1*
X400Y-16105D2*
X2309D1*
X3429D2*
X5024D1*
X5726D2*
X6645D1*
X7355D2*
X8278D1*
X12379D2*
X17286D1*
X20867D2*
X29102D1*
X37961D2*
X38914D1*
X400Y-16354D2*
X2496D1*
X3242D2*
X4891D1*
X5859D2*
X6645D1*
X7355D2*
X8278D1*
X13222D2*
X17036D1*
X20617D2*
X29102D1*
X37961D2*
X38914D1*
X400Y-16602D2*
X2411D1*
X3328D2*
X3410D1*
X4328D2*
X4914D1*
X6035D2*
X6645D1*
X7355D2*
X8278D1*
X13238D2*
X16786D1*
X20371D2*
X29102D1*
X37961D2*
X38914D1*
X400Y-16851D2*
X2301D1*
X4437D2*
X5137D1*
X6168D2*
X6645D1*
X7355D2*
X8352D1*
X13238D2*
X16539D1*
X20121D2*
X29102D1*
X38078D2*
X38914D1*
X400Y-17100D2*
X2309D1*
X4433D2*
X5227D1*
X6148D2*
X6645D1*
X7355D2*
X8770D1*
X13238D2*
X16289D1*
X19871D2*
X29102D1*
X38078D2*
X38914D1*
X400Y-17348D2*
X2493D1*
X3246D2*
X3493D1*
X4246D2*
X5446D1*
X5929D2*
X6645D1*
X7355D2*
X10762D1*
X13238D2*
X16039D1*
X19625D2*
X29102D1*
X38078D2*
X38914D1*
X400Y-17597D2*
X6645D1*
X7355D2*
X10762D1*
X11214D2*
X11536D1*
X13238D2*
X15536D1*
X19375D2*
X29102D1*
X38078D2*
X38914D1*
X400Y-17846D2*
X6645D1*
X7355D2*
X10762D1*
X11214D2*
X11536D1*
X13238D2*
X15395D1*
X19125D2*
X29102D1*
X38078D2*
X38914D1*
X400Y-18094D2*
X6590D1*
X7410D2*
X7589D1*
X8410D2*
X10766D1*
X13207D2*
X15293D1*
X18879D2*
X29102D1*
X38078D2*
X38914D1*
X400Y-18343D2*
X6438D1*
X8562D2*
X12020D1*
X12980D2*
X15047D1*
X18629D2*
X29102D1*
X38078D2*
X38914D1*
X400Y-18592D2*
X2414D1*
X3586D2*
X6422D1*
X8578D2*
X12161D1*
X12839D2*
X14571D1*
X18379D2*
X29102D1*
X37968D2*
X38914D1*
X400Y-18840D2*
X2414D1*
X3586D2*
X6532D1*
X8468D2*
X14059D1*
X18132D2*
X29102D1*
X38054D2*
X38914D1*
X400Y-19089D2*
X2414D1*
X3586D2*
X6594D1*
X7406D2*
X7596D1*
X8406D2*
X13825D1*
X17882D2*
X29981D1*
X38121D2*
X38914D1*
X400Y-19338D2*
X2414D1*
X3586D2*
X6438D1*
X8562D2*
X13688D1*
X17632D2*
X26047D1*
X38222D2*
X38914D1*
X400Y-19586D2*
X2414D1*
X3586D2*
X6422D1*
X8578D2*
X13618D1*
X17386D2*
X25766D1*
X38269D2*
X38914D1*
X400Y-19835D2*
X2414D1*
X3586D2*
X6528D1*
X8472D2*
X13598D1*
X17136D2*
X25516D1*
X38265D2*
X38914D1*
X400Y-20084D2*
X2414D1*
X3586D2*
X6602D1*
X7398D2*
X7602D1*
X8398D2*
X13625D1*
X16890D2*
X25266D1*
X38211D2*
X38914D1*
X400Y-20333D2*
X2414D1*
X3586D2*
X6442D1*
X8558D2*
X13711D1*
X16691D2*
X25020D1*
X38093D2*
X38914D1*
X400Y-20581D2*
X6422D1*
X8578D2*
X13610D1*
X16390D2*
X24770D1*
X37898D2*
X38914D1*
X400Y-20830D2*
X6524D1*
X8476D2*
X13360D1*
X16117D2*
X19899D1*
X20851D2*
X24590D1*
X37531D2*
X38914D1*
X400Y-21079D2*
X13110D1*
X14093D2*
X19602D1*
X21148D2*
X24485D1*
X32375D2*
X38914D1*
X400Y-21327D2*
X12325D1*
X13843D2*
X19504D1*
X21246D2*
X24438D1*
X32375D2*
X38914D1*
X400Y-21576D2*
X12262D1*
X13597D2*
X19508D1*
X21242D2*
X24438D1*
X32375D2*
X38914D1*
X400Y-21825D2*
X11297D1*
X12078D2*
X12262D1*
X13488D2*
X19621D1*
X21129D2*
X24493D1*
X27109D2*
X29782D1*
X32375D2*
X38914D1*
X400Y-22073D2*
X11161D1*
X13488D2*
X19981D1*
X20769D2*
X24606D1*
X26863D2*
X29829D1*
X32375D2*
X38914D1*
X400Y-22322D2*
X11164D1*
X13488D2*
X24797D1*
X26613D2*
X29860D1*
X32347D2*
X38914D1*
X400Y-22571D2*
X11317D1*
X13488D2*
X25157D1*
X26257D2*
X29942D1*
X32261D2*
X38914D1*
X400Y-22819D2*
X11829D1*
X13488D2*
X30094D1*
X32109D2*
X38914D1*
X400Y-23068D2*
X12266D1*
X13484D2*
X30356D1*
X31847D2*
X38914D1*
X400Y-23317D2*
X38914D1*
X400Y-23565D2*
X38914D1*
X5635Y-4249D2*
X5592Y-4366D1*
X5522Y-4469D1*
X5429Y-4553D1*
X5320Y-4613D1*
X5199Y-4645D1*
X5075Y-4648D1*
X4953Y-4621D1*
X4875Y-4587D1*
X3473D1*
X3471Y-5043D1*
X3210D1*
X3207Y-5535D1*
X3255Y-5538D1*
X3372Y-5576D1*
X3444Y-5679D1*
X3455Y-5738D1*
Y-6512D1*
X3417Y-6629D1*
X3314Y-6702D1*
X3255Y-6712D1*
X1701D1*
X1584Y-6674D1*
X1511Y-6571D1*
X1501Y-6512D1*
Y-5738D1*
X1539Y-5621D1*
X1642Y-5548D1*
X1701Y-5538D1*
X2416D1*
X2418Y-5043D1*
X2154D1*
Y-3332D1*
X3471D1*
Y-3664D1*
X4660Y-3663D1*
X4663Y-3125D1*
Y-1750D1*
X4680Y-1627D1*
X4750Y-1481D1*
X4801Y-1421D1*
X4799Y-799D1*
X6076D1*
Y-2076D1*
X5588D1*
X5587Y-3879D1*
X5622Y-3955D1*
X5650Y-4125D1*
X5635Y-4249D1*
X9123Y-3542D2*
X9498D1*
X9500Y-3149D1*
X9125Y-3151D1*
Y-3541D1*
X11483Y-11262D2*
Y-10488D1*
X10739Y-10491D1*
X10738Y-11256D1*
X11479Y-11259D1*
X5560Y-7836D2*
X5935D1*
X5937Y-7443D1*
X5563Y-7445D1*
Y-7835D1*
X9930Y-7100D2*
X10305D1*
X10307Y-6708D1*
X9933Y-6710D1*
Y-7100D1*
X8940Y-11414D2*
X8565D1*
Y-11805D1*
X8937D1*
Y-11415D1*
X16113Y-9983D2*
X16886D1*
X16884Y-9239D1*
X16119Y-9238D1*
X16116Y-9979D1*
X11565Y-17477D2*
X11190D1*
X11188Y-17869D1*
X11562Y-17867D1*
Y-17477D1*
X10435Y-15023D2*
X10810D1*
X10812Y-14631D1*
X10438Y-14633D1*
Y-15023D1*
X16887Y-13892D2*
X16114D1*
X16116Y-14636D1*
X16881Y-14637D1*
X16884Y-13896D1*
X11483Y-13700D2*
Y-12926D1*
X10739Y-12929D1*
X10738Y-13694D1*
X11479Y-13696D1*
X12000Y-2248D2*
X11955Y-2365D1*
X11884Y-2467D1*
X11791Y-2550D1*
X11680Y-2607D1*
X11559Y-2636D1*
X11434Y-2635D1*
X11313Y-2605D1*
X11203Y-2546D1*
X11111Y-2462D1*
X11041Y-2358D1*
X10998Y-2241D1*
X10995Y-2206D1*
X10660Y-2205D1*
X10663Y-2262D1*
X10625Y-2379D1*
X10522Y-2452D1*
X10463Y-2462D1*
X8910D1*
X8793Y-2424D1*
X8720Y-2321D1*
X8710Y-2203D1*
X7965Y-2205D1*
X7962Y-2875D1*
Y-3683D1*
X8687Y-3679D1*
X8723D1*
X8726Y-2951D1*
X8763Y-2834D1*
X8866Y-2761D1*
X8925Y-2751D1*
X9700D1*
X9817Y-2789D1*
X9889Y-2892D1*
X9899Y-2951D1*
Y-4505D1*
X9862Y-4622D1*
X9759Y-4694D1*
X9700Y-4705D1*
X9434Y-4708D1*
X9465Y-4875D1*
X9448Y-4999D1*
X9397Y-5116D1*
X9875Y-5117D1*
X9998Y-5137D1*
X10110Y-5199D1*
X10323Y-5406D1*
X11193Y-6276D1*
X11453Y-6275D1*
X11476Y-6192D1*
Y-5889D1*
X11513Y-5772D1*
X11616Y-5699D1*
X11680Y-5689D1*
X11668Y-5648D1*
X11662Y-5523D1*
X11689Y-5401D1*
X11747Y-5291D1*
X11833Y-5201D1*
X11939Y-5136D1*
X12059Y-5102D1*
X12184Y-5101D1*
X12304Y-5134D1*
X12412Y-5197D1*
X12499Y-5286D1*
X12559Y-5395D1*
X12590Y-5562D1*
X12573Y-5686D1*
X12559Y-5718D1*
X12639Y-5829D1*
X12650Y-5889D1*
Y-7442D1*
X12612Y-7559D1*
X12509Y-7632D1*
X12450Y-7642D1*
X12274D1*
X12212Y-7801D1*
X12134Y-7898D1*
X12033Y-7972D1*
X11917Y-8016D1*
X11781Y-8025D1*
X11809Y-8083D1*
X11840Y-8250D1*
X11823Y-8374D1*
X11774Y-8488D1*
X11697Y-8586D1*
X11596Y-8659D1*
X11479Y-8703D1*
X11355Y-8715D1*
X11233Y-8693D1*
X11120Y-8639D1*
X11026Y-8557D1*
X10957Y-8453D1*
X10918Y-8335D1*
X10913Y-8230D1*
X10627Y-8224D1*
X10507Y-8263D1*
X9733D1*
X9616Y-8226D1*
X9543Y-8123D1*
X9533Y-8063D1*
Y-6510D1*
X9571Y-6393D1*
X9674Y-6320D1*
X9733Y-6310D1*
X10143D1*
X9717Y-5884D1*
X9387Y-5883D1*
X9383Y-5991D1*
X9363Y-6114D1*
X9301Y-6226D1*
X9094Y-6439D1*
X8566Y-6966D1*
X8565Y-8297D1*
X8616Y-8392D1*
X8647Y-8559D1*
X8630Y-8683D1*
X8565Y-8819D1*
Y-10250D1*
X8718Y-10251D1*
X8783Y-10188D1*
X8782Y-10153D1*
X8809Y-10031D1*
X8867Y-9921D1*
X8953Y-9831D1*
X9059Y-9766D1*
X9179Y-9732D1*
X9304Y-9731D1*
X9424Y-9764D1*
X9532Y-9827D1*
X9619Y-9916D1*
X9679Y-10025D1*
X9710Y-10192D1*
X9693Y-10316D1*
X9644Y-10431D1*
X9567Y-10528D1*
X9466Y-10601D1*
X9338Y-10647D1*
X9337Y-12005D1*
X9299Y-12122D1*
X9196Y-12194D1*
X9137Y-12205D1*
X8563D1*
X8565Y-13399D1*
X8958Y-13792D1*
X9031Y-13893D1*
X9067Y-14016D1*
X9071Y-14277D1*
X9762Y-14274D1*
X9879Y-14312D1*
X9952Y-14415D1*
X9962Y-14474D1*
Y-15298D1*
X10035Y-15295D1*
X10038Y-14433D1*
X10076Y-14316D1*
X10179Y-14243D1*
X10238Y-14233D1*
X11012D1*
X11129Y-14271D1*
X11202Y-14374D1*
X11212Y-14433D1*
Y-15218D1*
X11294Y-15214D1*
X11419Y-15240D1*
X11503Y-15289D1*
X11684D1*
X11804Y-15321D1*
X11912Y-15384D1*
X11999Y-15473D1*
X12059Y-15583D1*
X12090Y-15750D1*
X12074Y-15870D1*
X12117Y-15884D1*
X12224Y-15947D1*
X12311Y-16036D1*
X12371Y-16145D1*
X12392Y-16232D1*
X13012Y-16233D1*
X13129Y-16271D1*
X13202Y-16374D1*
X13212Y-16433D1*
Y-17986D1*
X13174Y-18103D1*
X13071Y-18176D1*
X12961Y-18186D1*
X12965Y-18250D1*
X12948Y-18374D1*
X12899Y-18488D1*
X12822Y-18586D1*
X12721Y-18659D1*
X12604Y-18703D1*
X12480Y-18715D1*
X12358Y-18693D1*
X12245Y-18639D1*
X12151Y-18557D1*
X12082Y-18453D1*
X12043Y-18335D1*
X12037Y-18211D1*
X12066Y-18086D1*
X12048Y-18046D1*
X12038Y-17986D1*
Y-16881D1*
X11960Y-16802D1*
X11962Y-18067D1*
X11924Y-18184D1*
X11821Y-18257D1*
X11762Y-18267D1*
X10988D1*
X10871Y-18229D1*
X10798Y-18126D1*
X10788Y-18067D1*
X10787Y-16953D1*
X10755Y-16954D1*
X10728Y-16988D1*
X10690Y-17129D1*
X10587Y-17202D1*
X10528Y-17212D1*
X8974D1*
X8857Y-17174D1*
X8785Y-17071D1*
X8774Y-17008D1*
X8688D1*
X8565Y-16988D1*
X8455Y-16929D1*
X8370Y-16838D1*
X8312Y-16703D1*
X8304Y-16500D1*
Y-14225D1*
X7909Y-13825D1*
X7837Y-13801D1*
X7759Y-13898D1*
X7659Y-13972D1*
X7542Y-14016D1*
X7445Y-14025D1*
X7331Y-14136D1*
X7330Y-18051D1*
X7427Y-18137D1*
X7501Y-18251D1*
X7555Y-18160D1*
X7641Y-18070D1*
X7745Y-18001D1*
X7862Y-17957D1*
X7985Y-17940D1*
X8109Y-17951D1*
X8228Y-17988D1*
X8336Y-18052D1*
X8427Y-18137D1*
X8496Y-18240D1*
X8542Y-18357D1*
X8560Y-18500D1*
X8546Y-18624D1*
X8505Y-18742D1*
X8439Y-18848D1*
X8351Y-18936D1*
X8250Y-19001D1*
X8336Y-19052D1*
X8427Y-19137D1*
X8496Y-19240D1*
X8542Y-19357D1*
X8560Y-19500D1*
X8546Y-19624D1*
X8505Y-19742D1*
X8439Y-19848D1*
X8351Y-19936D1*
X8250Y-20001D1*
X8336Y-20052D1*
X8427Y-20137D1*
X8496Y-20240D1*
X8542Y-20357D1*
X8560Y-20500D1*
X8546Y-20624D1*
X8505Y-20742D1*
X8439Y-20848D1*
X8351Y-20936D1*
X8246Y-21003D1*
X8129Y-21045D1*
X8005Y-21060D1*
X7881Y-21047D1*
X7763Y-21007D1*
X7656Y-20942D1*
X7567Y-20855D1*
X7501Y-20754D1*
X7439Y-20848D1*
X7351Y-20936D1*
X7246Y-21003D1*
X7129Y-21045D1*
X7005Y-21060D1*
X6881Y-21047D1*
X6763Y-21007D1*
X6656Y-20942D1*
X6567Y-20855D1*
X6499Y-20751D1*
X6456Y-20634D1*
X6440Y-20510D1*
X6452Y-20386D1*
X6490Y-20267D1*
X6555Y-20160D1*
X6670Y-20051D1*
Y-19949D1*
X6567Y-19855D1*
X6499Y-19751D1*
X6456Y-19634D1*
X6440Y-19510D1*
X6452Y-19386D1*
X6490Y-19267D1*
X6555Y-19160D1*
X6670Y-19051D1*
Y-18949D1*
X6567Y-18855D1*
X6499Y-18751D1*
X6456Y-18634D1*
X6440Y-18510D1*
X6452Y-18386D1*
X6490Y-18267D1*
X6555Y-18160D1*
X6670Y-18051D1*
Y-14000D1*
X6693Y-13878D1*
X6767Y-13767D1*
X6974Y-13560D1*
X7001Y-13402D1*
X7060Y-13291D1*
X7084Y-13266D1*
X6122Y-13267D1*
X6000Y-13244D1*
X5889Y-13171D1*
X4864Y-12146D1*
X4833Y-12172D1*
X4713Y-12212D1*
X3160D1*
X3040Y-12171D1*
X2941Y-12076D1*
X2242D1*
X2108Y-12211D1*
X2002Y-12276D1*
X1921Y-12289D1*
X1691D1*
X1570Y-12259D1*
X1504Y-12211D1*
X1342Y-12049D1*
X1277Y-11942D1*
X1264Y-11861D1*
Y-11632D1*
X1294Y-11511D1*
X1342Y-11444D1*
X1508Y-11279D1*
X1504Y-11211D1*
X1342Y-11049D1*
X1277Y-10942D1*
X1264Y-10861D1*
Y-10632D1*
X1294Y-10511D1*
X1342Y-10444D1*
X1508Y-10279D1*
X1504Y-10211D1*
X1342Y-10049D1*
X1277Y-9942D1*
X1264Y-9861D1*
Y-9632D1*
X1294Y-9511D1*
X1342Y-9444D1*
X1508Y-9279D1*
X1504Y-9211D1*
X1342Y-9049D1*
X1277Y-8942D1*
X1264Y-8861D1*
Y-8632D1*
X1294Y-8511D1*
X1342Y-8444D1*
X1504Y-8282D1*
X1611Y-8217D1*
X1691Y-8204D1*
X1921D1*
X2042Y-8234D1*
X2108Y-8282D1*
X2306Y-8483D1*
X2959D1*
X2960Y-8425D1*
X2998Y-8308D1*
X3101Y-8236D1*
X3160Y-8226D1*
X4713D1*
X4830Y-8263D1*
X4903Y-8366D1*
X4913Y-8425D1*
Y-9008D1*
X5823Y-9919D1*
X7316Y-9921D1*
X7496Y-9914D1*
X7617Y-9946D1*
X7724Y-10009D1*
X7798Y-10084D1*
X7799Y-8952D1*
X7775Y-9016D1*
X7761Y-9186D1*
X7712Y-9301D1*
X7634Y-9398D1*
X7534Y-9472D1*
X7417Y-9516D1*
X7293Y-9527D1*
X7170Y-9505D1*
X7058Y-9451D1*
X6964Y-9370D1*
X6894Y-9266D1*
X6855Y-9148D1*
X6849Y-9023D1*
X6862Y-8966D1*
X6808Y-8940D1*
X6736Y-8837D1*
X6726Y-8778D1*
Y-7224D1*
X6763Y-7107D1*
X6866Y-7034D1*
X6925Y-7024D1*
X7703Y-7025D1*
X7763Y-7036D1*
X7799Y-6934D1*
Y-6809D1*
X7819Y-6686D1*
X7881Y-6574D1*
X8088Y-6361D1*
X8616Y-5834D1*
X8617Y-5136D1*
X8582Y-5078D1*
X8543Y-4960D1*
X8537Y-4836D1*
X8564Y-4714D1*
X8617Y-4614D1*
Y-4449D1*
X8063Y-4446D1*
X7912Y-4447D1*
X7804Y-4553D1*
X7695Y-4613D1*
X7574Y-4645D1*
X7449Y-4648D1*
X7328Y-4621D1*
X7215Y-4566D1*
X7119Y-4487D1*
X7045Y-4387D1*
X6996Y-4272D1*
X6975Y-4149D1*
X6985Y-4025D1*
X7037Y-3883D1*
X7038Y-1934D1*
X6990Y-1893D1*
X6910Y-1797D1*
X6850Y-1688D1*
X6812Y-1569D1*
X6799Y-1445D1*
X6809Y-1320D1*
X6844Y-1201D1*
X6901Y-1090D1*
X6979Y-992D1*
X7075Y-912D1*
X7184Y-851D1*
X7303Y-813D1*
X7427Y-799D1*
X7551Y-809D1*
X7671Y-843D1*
X7782Y-900D1*
X7880Y-977D1*
X7961Y-1072D1*
X8022Y-1180D1*
X8061Y-1299D1*
X8076Y-1438D1*
X8066Y-1542D1*
X8707Y-1545D1*
X8710Y-1488D1*
X8748Y-1371D1*
X8851Y-1298D1*
X8910Y-1288D1*
X10463D1*
X10580Y-1326D1*
X10653Y-1429D1*
X10663Y-1547D1*
X11250Y-1545D1*
X11376Y-1571D1*
X11452Y-1612D1*
X11573Y-1615D1*
X11693Y-1648D1*
X11803Y-1708D1*
X11894Y-1793D1*
X11962Y-1897D1*
X12003Y-2015D1*
X12015Y-2125D1*
X12000Y-2248D1*
X7746Y-18997D2*
X7656Y-18942D1*
X7567Y-18855D1*
X7501Y-18754D1*
X7439Y-18848D1*
X7328Y-18951D1*
X7330Y-19051D1*
X7427Y-19137D1*
X7501Y-19251D1*
X7555Y-19160D1*
X7641Y-19070D1*
X7749Y-19000D1*
X7746Y-19997D2*
X7656Y-19942D1*
X7567Y-19855D1*
X7501Y-19754D1*
X7439Y-19848D1*
X7328Y-19951D1*
X7330Y-20051D1*
X7427Y-20137D1*
X7501Y-20251D1*
X7555Y-20160D1*
X7641Y-20070D1*
X7749Y-20000D1*
X20299Y-2965D2*
X20209Y-2961D1*
X20088Y-2932D1*
X19974Y-2881D1*
X19872Y-2809D1*
X19785Y-2720D1*
X19716Y-2615D1*
X19669Y-2500D1*
X19644Y-2377D1*
X19643Y-2253D1*
X19665Y-2130D1*
X19710Y-2013D1*
X19777Y-1908D1*
X19862Y-1816D1*
X19962Y-1742D1*
X20075Y-1689D1*
X20196Y-1658D1*
X20424Y-1650D1*
X20693Y-1654D1*
X20838Y-1666D1*
X20957Y-1705D1*
X21066Y-1765D1*
X21161Y-1845D1*
X21240Y-1942D1*
X21300Y-2052D1*
X21337Y-2171D1*
X21351Y-2308D1*
X21340Y-2433D1*
X21305Y-2552D1*
X21248Y-2663D1*
X21171Y-2762D1*
X21077Y-2844D1*
X20969Y-2906D1*
X20851Y-2948D1*
X20692Y-2965D1*
X20299Y-2967D1*
Y-2963D1*
X20178Y-22094D2*
X20088Y-22090D1*
X19967Y-22061D1*
X19853Y-22010D1*
X19750Y-21938D1*
X19664Y-21849D1*
X19595Y-21744D1*
X19548Y-21629D1*
X19523Y-21506D1*
X19522Y-21382D1*
X19544Y-21259D1*
X19589Y-21142D1*
X19656Y-21037D1*
X19741Y-20945D1*
X19841Y-20872D1*
X19954Y-20818D1*
X20075Y-20787D1*
X20303Y-20779D1*
X20572Y-20783D1*
X20717Y-20795D1*
X20836Y-20834D1*
X20945Y-20895D1*
X21040Y-20975D1*
X21119Y-21071D1*
X21179Y-21181D1*
X21216Y-21300D1*
X21230Y-21437D1*
X21219Y-21562D1*
X21184Y-21682D1*
X21127Y-21793D1*
X21050Y-21891D1*
X20956Y-21973D1*
X20848Y-22036D1*
X20730Y-22077D1*
X20571Y-22094D1*
X20178Y-22096D1*
Y-22092D1*
X7126Y-7854D2*
X7501D1*
X7500Y-7422D1*
X7125Y-7424D1*
Y-7853D1*
X2565Y-18440D2*
X3560D1*
X3556Y-19560D1*
X3560Y-19815D1*
Y-20560D1*
X2440D1*
X2444Y-19440D1*
X2440Y-19185D1*
Y-18440D1*
X2565D1*
X2240Y-10079D2*
X2109Y-10209D1*
X2108Y-10282D1*
X2183Y-10357D1*
X2963Y-10358D1*
X2961Y-10297D1*
X2971Y-10237D1*
X2960Y-10137D1*
Y-10078D1*
X2238Y-10080D1*
X2219Y-10099D1*
X2197Y-9370D2*
X2245Y-9419D1*
X2962Y-9420D1*
X2961Y-9359D1*
X2971Y-9300D1*
X2960Y-9200D1*
Y-9141D1*
X2176Y-9142D1*
X2105Y-9214D1*
X2108Y-9282D1*
X2197Y-9370D1*
X2182Y-11137D2*
X2109Y-11209D1*
X2108Y-11282D1*
X2245Y-11419D1*
X2959Y-11417D1*
X2961Y-11234D1*
X2971Y-11175D1*
X2960Y-11075D1*
Y-11016D1*
X2301Y-11017D1*
X2182Y-11137D1*
X2493Y-16545D2*
X2571Y-16468D1*
X2567Y-16400D1*
X2405Y-16237D1*
X2340Y-16131D1*
X2327Y-16050D1*
Y-15820D1*
X2357Y-15699D1*
X2405Y-15633D1*
X2571Y-15468D1*
X2567Y-15400D1*
X2405Y-15237D1*
X2340Y-15131D1*
X2327Y-15050D1*
Y-14820D1*
X2357Y-14699D1*
X2405Y-14633D1*
X2571Y-14468D1*
X2567Y-14400D1*
X2405Y-14237D1*
X2340Y-14131D1*
X2327Y-14050D1*
Y-13820D1*
X2357Y-13699D1*
X2405Y-13633D1*
X2567Y-13471D1*
X2674Y-13406D1*
X2754Y-13393D1*
X2984D1*
X3105Y-13422D1*
X3171Y-13471D1*
X3336Y-13637D1*
X3405Y-13633D1*
X3567Y-13471D1*
X3674Y-13406D1*
X3754Y-13393D1*
X3984D1*
X4105Y-13422D1*
X4171Y-13471D1*
X4334Y-13633D1*
X4399Y-13739D1*
X4411Y-13820D1*
Y-14050D1*
X4382Y-14171D1*
X4334Y-14237D1*
X4171Y-14400D1*
X4065Y-14464D1*
X3984Y-14477D1*
X3754D1*
X3633Y-14448D1*
X3567Y-14400D1*
X3402Y-14233D1*
X3334Y-14237D1*
X3172Y-14398D1*
X3171Y-14471D1*
X3334Y-14633D1*
X3399Y-14739D1*
X3411Y-14820D1*
Y-15050D1*
X3382Y-15171D1*
X3334Y-15237D1*
X3172Y-15398D1*
X3171Y-15471D1*
X3334Y-15633D1*
X3399Y-15739D1*
X3411Y-15820D1*
Y-16050D1*
X3382Y-16171D1*
X3334Y-16237D1*
X3172Y-16398D1*
X3171Y-16471D1*
X3336Y-16637D1*
X3405Y-16633D1*
X3567Y-16471D1*
X3674Y-16406D1*
X3754Y-16393D1*
X3984D1*
X4105Y-16422D1*
X4171Y-16471D1*
X4334Y-16633D1*
X4399Y-16739D1*
X4411Y-16820D1*
Y-17050D1*
X4382Y-17171D1*
X4334Y-17237D1*
X4171Y-17400D1*
X4065Y-17464D1*
X3984Y-17477D1*
X3754D1*
X3633Y-17448D1*
X3567Y-17400D1*
X3402Y-17233D1*
X3334Y-17237D1*
X3171Y-17400D1*
X3065Y-17464D1*
X2984Y-17477D1*
X2754D1*
X2633Y-17448D1*
X2567Y-17400D1*
X2405Y-17237D1*
X2340Y-17131D1*
X2327Y-17050D1*
Y-16820D1*
X2357Y-16699D1*
X2405Y-16633D1*
X2493Y-16545D1*
X2292Y-6315D2*
Y-5940D1*
X1899Y-5938D1*
X1901Y-6312D1*
X2291D1*
X7800Y-10659D2*
X7759Y-10711D1*
X7659Y-10784D1*
X7542Y-10828D1*
X7418Y-10840D1*
X7322Y-10822D1*
X7274Y-10926D1*
X7197Y-11023D1*
X7096Y-11097D1*
X6979Y-11141D1*
X6855Y-11152D1*
X6733Y-11130D1*
X6620Y-11076D1*
X6553Y-11018D1*
X5375Y-11017D1*
X5253Y-10994D1*
X5142Y-10921D1*
X4912Y-10692D1*
X4959Y-10808D1*
X6133Y-11982D1*
X7173Y-11983D1*
X7208Y-11951D1*
X7314Y-11886D1*
X7434Y-11852D1*
X7559Y-11851D1*
X7679Y-11884D1*
X7800Y-11961D1*
X7799Y-10670D1*
X12761Y-14311D2*
X12712Y-14426D1*
X12634Y-14523D1*
X12534Y-14597D1*
X12417Y-14641D1*
X12293Y-14652D1*
X12170Y-14630D1*
X12058Y-14576D1*
X11964Y-14495D1*
X11888Y-14372D1*
X11753Y-14109D1*
X11610Y-14096D1*
X10538D1*
X10421Y-14059D1*
X10348Y-13956D1*
X10338Y-13896D1*
Y-12729D1*
X10376Y-12612D1*
X10479Y-12539D1*
X10538Y-12529D1*
X11604D1*
X11601Y-11660D1*
X10538Y-11659D1*
X10421Y-11621D1*
X10348Y-11518D1*
X10338Y-11459D1*
Y-10291D1*
X10376Y-10174D1*
X10479Y-10101D1*
X10538Y-10091D1*
X11667D1*
X11783Y-10078D1*
X11821Y-9892D1*
X11882Y-9783D1*
X11997Y-9676D1*
X12189Y-9574D1*
X12309Y-9540D1*
X12434Y-9539D1*
X12554Y-9571D1*
X12662Y-9634D1*
X12749Y-9723D1*
X12809Y-9833D1*
X12840Y-10000D1*
X12823Y-10124D1*
X12774Y-10238D1*
X12687Y-10343D1*
X12685Y-11459D1*
X12644Y-11578D1*
X12601Y-11620D1*
X12559Y-11645D1*
X12590Y-11813D1*
X12573Y-11936D1*
X12522Y-12054D1*
X12524Y-12262D1*
X12559Y-12333D1*
X12590Y-12500D1*
X12582Y-12558D1*
X12602Y-12567D1*
X12675Y-12670D1*
X12685Y-12729D1*
X12684Y-13900D1*
X12746Y-14020D1*
X12777Y-14188D1*
X12761Y-14311D1*
X6198Y-9124D2*
X6149Y-9238D1*
X6072Y-9336D1*
X5971Y-9409D1*
X5854Y-9453D1*
X5730Y-9465D1*
X5608Y-9443D1*
X5495Y-9389D1*
X5401Y-9307D1*
X5332Y-9203D1*
X5293Y-9085D1*
X5288Y-8988D1*
X5246Y-8961D1*
X5173Y-8858D1*
X5163Y-8799D1*
Y-7245D1*
X5201Y-7128D1*
X5304Y-7056D1*
X5363Y-7045D1*
X6137D1*
X6254Y-7083D1*
X6327Y-7186D1*
X6337Y-7245D1*
Y-8799D1*
X6296Y-8918D1*
X6215Y-9000D1*
X6198Y-9124D1*
X6136Y-17061D2*
X6087Y-17176D1*
X6009Y-17273D1*
X5908Y-17347D1*
X5792Y-17391D1*
X5668Y-17402D1*
X5545Y-17380D1*
X5433Y-17326D1*
X5339Y-17245D1*
X5269Y-17141D1*
X5230Y-17023D1*
X5228Y-16879D1*
X5120Y-16826D1*
X5026Y-16745D1*
X4957Y-16641D1*
X4918Y-16523D1*
X4912Y-16398D1*
X4939Y-16277D1*
X4997Y-16166D1*
X5083Y-16076D1*
X5189Y-16011D1*
X5309Y-15977D1*
X5434Y-15976D1*
X5554Y-16009D1*
X5662Y-16072D1*
X5749Y-16161D1*
X5809Y-16270D1*
X5840Y-16438D1*
X5832Y-16495D1*
X5974Y-16572D1*
X6061Y-16661D1*
X6121Y-16770D1*
X6152Y-16938D1*
X6136Y-17061D1*
X5823Y-15624D2*
X5774Y-15738D1*
X5697Y-15836D1*
X5596Y-15909D1*
X5479Y-15953D1*
X5355Y-15965D1*
X5233Y-15943D1*
X5120Y-15889D1*
X5026Y-15807D1*
X4957Y-15703D1*
X4918Y-15585D1*
X4912Y-15461D1*
X4939Y-15339D1*
X4997Y-15229D1*
X5083Y-15138D1*
X5189Y-15074D1*
X5309Y-15040D1*
X5434Y-15039D1*
X5554Y-15071D1*
X5662Y-15134D1*
X5749Y-15223D1*
X5809Y-15333D1*
X5840Y-15500D1*
X5823Y-15624D1*
X6136Y-14061D2*
X6087Y-14176D1*
X6009Y-14273D1*
X5908Y-14347D1*
X5832Y-14375D1*
X5840Y-14438D1*
X5823Y-14561D1*
X5774Y-14676D1*
X5697Y-14773D1*
X5596Y-14847D1*
X5479Y-14891D1*
X5355Y-14902D1*
X5233Y-14880D1*
X5120Y-14826D1*
X5026Y-14745D1*
X4957Y-14641D1*
X4918Y-14523D1*
X4912Y-14398D1*
X4939Y-14277D1*
X4997Y-14166D1*
X5083Y-14076D1*
X5189Y-14011D1*
X5231Y-14000D1*
X5224Y-13898D1*
X5251Y-13777D1*
X5310Y-13666D1*
X5395Y-13576D1*
X5502Y-13511D1*
X5622Y-13477D1*
X5746Y-13476D1*
X5867Y-13509D1*
X5974Y-13572D1*
X6061Y-13661D1*
X6121Y-13770D1*
X6152Y-13938D1*
X6136Y-14061D1*
X38813Y-438D2*
X375D1*
Y-23625D1*
X38938D1*
Y-9063D1*
X37938D1*
X37939Y-11138D1*
X37971Y-11196D1*
X38016Y-11313D1*
X38043Y-11434D1*
X38052Y-11559D1*
X38043Y-11684D1*
X38016Y-11806D1*
X37971Y-11922D1*
X37939Y-11980D1*
X37938Y-12691D1*
X38016Y-12872D1*
X38043Y-12993D1*
X38052Y-13118D1*
X38043Y-13243D1*
X38016Y-13365D1*
X37971Y-13481D1*
X37939Y-13539D1*
X37938Y-16645D1*
X38052D1*
Y-18355D1*
X37939D1*
X37938Y-18582D1*
X38008Y-18757D1*
X38037Y-18879D1*
X38052Y-19013D1*
X38165Y-19236D1*
X38231Y-19476D1*
X38249Y-19725D1*
X38216Y-19973D1*
X38135Y-20209D1*
X38009Y-20424D1*
X37842Y-20610D1*
X37642Y-20759D1*
X37416Y-20865D1*
X37174Y-20925D1*
X37000Y-20937D1*
X32352Y-20938D1*
X32345Y-22172D1*
X32296Y-22417D1*
X32198Y-22646D1*
X32057Y-22852D1*
X31878Y-23026D1*
X31668Y-23161D1*
X31435Y-23251D1*
X31189Y-23293D1*
X30940Y-23286D1*
X30697Y-23229D1*
X30470Y-23125D1*
X30269Y-22977D1*
X30100Y-22793D1*
X29972Y-22579D1*
X29889Y-22344D1*
X29854Y-22097D1*
X29853Y-21871D1*
X29609Y-21625D1*
X27285Y-21624D1*
X26496Y-22405D1*
X26288Y-22542D1*
X26057Y-22636D1*
X25812Y-22682D1*
X25562Y-22678D1*
X25318Y-22625D1*
X25090Y-22524D1*
X24886Y-22380D1*
X24715Y-22199D1*
X24584Y-21986D1*
X24497Y-21752D1*
X24458Y-21506D1*
X24470Y-21256D1*
X24530Y-21014D1*
X24638Y-20789D1*
X24788Y-20590D1*
X25885Y-19492D1*
X26078Y-19334D1*
X26299Y-19217D1*
X26538Y-19147D1*
X26719Y-19127D1*
X29983Y-19126D1*
X30072Y-18982D1*
X30150Y-18879D1*
X30064Y-18869D1*
X29251Y-18875D1*
X29145Y-18815D1*
X29125Y-18750D1*
Y-13527D1*
X29055Y-13518D1*
X26827Y-13520D1*
X26869Y-13571D1*
X26929Y-13681D1*
X26966Y-13800D1*
X26980Y-13937D1*
X26969Y-14062D1*
X26934Y-14182D1*
X26877Y-14293D1*
X26800Y-14391D1*
X26706Y-14473D1*
X26598Y-14536D1*
X26480Y-14577D1*
X26321Y-14594D1*
X25928Y-14596D1*
X25838Y-14590D1*
X25717Y-14561D1*
X25603Y-14510D1*
X25500Y-14438D1*
X25414Y-14349D1*
X25345Y-14244D1*
X25298Y-14129D1*
X25273Y-14006D1*
X25272Y-13882D1*
X25294Y-13759D1*
X25339Y-13642D1*
X25424Y-13517D1*
X22809Y-13518D1*
X22804Y-13726D1*
X22758Y-13971D1*
X22665Y-14203D1*
X22527Y-14411D1*
X22265Y-14682D1*
X16699Y-20248D1*
X16649Y-20363D1*
X16572Y-20461D1*
X16471Y-20534D1*
X16380Y-20568D1*
X16161Y-20777D1*
X15953Y-20915D1*
X15722Y-21009D1*
X15476Y-21055D1*
X15120Y-21059D1*
X14746Y-21053D1*
X14501Y-21004D1*
X14271Y-20906D1*
X14255Y-20896D1*
X13460Y-21687D1*
X13462Y-23026D1*
X13424Y-23143D1*
X13321Y-23216D1*
X13262Y-23226D1*
X12488D1*
X12371Y-23188D1*
X12298Y-23085D1*
X12288Y-22952D1*
X12123Y-22953D1*
X12001Y-22930D1*
X11890Y-22856D1*
X11735Y-22699D1*
X11622Y-22698D1*
X11501Y-22667D1*
X11391Y-22608D1*
X11298Y-22525D1*
X11229Y-22421D1*
X11186Y-22304D1*
X11173Y-22180D1*
X11190Y-22057D1*
X11236Y-21941D1*
X11308Y-21839D1*
X11403Y-21758D1*
X11514Y-21703D1*
X11636Y-21675D1*
X11761Y-21678D1*
X11881Y-21710D1*
X11990Y-21771D1*
X12081Y-21856D1*
X12150Y-21960D1*
X12191Y-22078D1*
X12202Y-22188D1*
X12197Y-22230D1*
X12288Y-22276D1*
Y-21472D1*
X12326Y-21355D1*
X12429Y-21282D1*
X12488Y-21272D1*
X12945D1*
X13788Y-20426D1*
X13706Y-20262D1*
X13639Y-20021D1*
X13622Y-19772D1*
X13654Y-19525D1*
X13735Y-19289D1*
X13862Y-19074D1*
X14028Y-18888D1*
X14228Y-18739D1*
X14454Y-18632D1*
X14697Y-18573D1*
X14854Y-18561D1*
X15412Y-18002D1*
Y-17898D1*
X15439Y-17777D1*
X15497Y-17666D1*
X15583Y-17576D1*
X15689Y-17511D1*
X15809Y-17477D1*
X15938D1*
X20301Y-13113D1*
X20295Y-12757D1*
X17229Y-12755D1*
X17244Y-12771D1*
X17284Y-12890D1*
X17296Y-12998D1*
Y-13631D1*
X17284Y-13890D1*
Y-14837D1*
X17246Y-14954D1*
X17143Y-15027D1*
X17084Y-15037D1*
X15916D1*
X15799Y-15000D1*
X15726Y-14897D1*
X15716Y-14837D1*
Y-13709D1*
X15704Y-13628D1*
Y-12994D1*
X15716Y-12890D1*
X15757Y-12771D1*
X15845Y-12694D1*
X15841Y-12449D1*
X15770Y-12346D1*
X15713Y-12234D1*
X15684Y-12150D1*
X15634Y-12211D1*
X15533Y-12284D1*
X15417Y-12328D1*
X15293Y-12340D1*
X15170Y-12318D1*
X15089Y-12279D1*
X15087Y-13380D1*
X15049Y-13497D1*
X14946Y-13569D1*
X14887Y-13579D1*
X14113D1*
X13994Y-13539D1*
X13947Y-13586D1*
X13846Y-13659D1*
X13729Y-13703D1*
X13605Y-13715D1*
X13483Y-13693D1*
X13370Y-13639D1*
X13276Y-13557D1*
X13207Y-13453D1*
X13168Y-13335D1*
X13162Y-13211D1*
X13189Y-13089D1*
X13247Y-12979D1*
X13303Y-12919D1*
X13373Y-12784D1*
X13470Y-12706D1*
X13589Y-12669D1*
X13910Y-12667D1*
X13913Y-12266D1*
X13822Y-12273D1*
X13721Y-12347D1*
X13604Y-12391D1*
X13480Y-12402D1*
X13358Y-12380D1*
X13245Y-12326D1*
X13151Y-12245D1*
X13082Y-12141D1*
X13043Y-12023D1*
X13037Y-11898D1*
X13064Y-11777D1*
X13122Y-11666D1*
X13208Y-11576D1*
X13314Y-11511D1*
X13434Y-11477D1*
X13559Y-11476D1*
X13679Y-11509D1*
X13787Y-11572D1*
X13822Y-11608D1*
X13910D1*
X13913Y-10993D1*
X13846Y-11034D1*
X13729Y-11078D1*
X13605Y-11090D1*
X13483Y-11068D1*
X13370Y-11014D1*
X13276Y-10932D1*
X13207Y-10828D1*
X13168Y-10710D1*
X13162Y-10586D1*
X13189Y-10464D1*
X13247Y-10354D1*
X13333Y-10263D1*
X13439Y-10199D1*
X13559Y-10165D1*
X13684Y-10164D1*
X13804Y-10196D1*
X13895Y-10249D1*
X13913Y-10192D1*
Y-10139D1*
X13951Y-10022D1*
X14054Y-9949D1*
X14113Y-9939D1*
X14887D1*
X15004Y-9976D1*
X15077Y-10079D1*
X15087Y-10139D1*
Y-11182D1*
X15316Y-11412D1*
X15371Y-11414D1*
X15492Y-11446D1*
X15599Y-11509D1*
X15696Y-11616D1*
X15739Y-11509D1*
X15842Y-11357D1*
X15843Y-11168D1*
X15799Y-11147D1*
X15726Y-11044D1*
X15704Y-10878D1*
Y-10244D1*
X15716Y-9985D1*
Y-9038D1*
X15754Y-8921D1*
X15857Y-8848D1*
X15916Y-8838D1*
X17084D1*
X17201Y-8876D1*
X17274Y-8979D1*
X17284Y-9038D1*
Y-10167D1*
X17296Y-10248D1*
Y-10881D1*
X17283Y-10989D1*
X17375Y-11044D1*
X20270D1*
X20261Y-10769D1*
X20256Y-10460D1*
X15881Y-6086D1*
X15795Y-6068D1*
X15683Y-6014D1*
X15589Y-5932D1*
X15519Y-5828D1*
X15479Y-5683D1*
X14644Y-4849D1*
X14501Y-4814D1*
X14271Y-4717D1*
X14065Y-4576D1*
X13891Y-4397D1*
X13757Y-4187D1*
X13667Y-3954D1*
X13624Y-3708D1*
X13632Y-3459D1*
X13689Y-3216D1*
X13793Y-2989D1*
X13940Y-2787D1*
X14125Y-2619D1*
X14339Y-2491D1*
X14574Y-2407D1*
X14821Y-2373D1*
X15307Y-2378D1*
X15552Y-2428D1*
X15782Y-2525D1*
X15988Y-2666D1*
X16243Y-2914D1*
X22463Y-9144D1*
X22601Y-9352D1*
X22695Y-9583D1*
X22741Y-9828D1*
X22750Y-10229D1*
X24500Y-10232D1*
X25559D1*
X25500Y-10188D1*
X25414Y-10099D1*
X25345Y-9994D1*
X25298Y-9879D1*
X25273Y-9756D1*
X25272Y-9632D1*
X25294Y-9509D1*
X25339Y-9392D1*
X25406Y-9287D1*
X25491Y-9195D1*
X25591Y-9122D1*
X25704Y-9068D1*
X25825Y-9037D1*
X26053Y-9029D1*
X26322Y-9033D1*
X26467Y-9045D1*
X26586Y-9084D1*
X26695Y-9145D1*
X26790Y-9225D1*
X26869Y-9321D1*
X26929Y-9431D1*
X26966Y-9550D1*
X26980Y-9687D1*
X26969Y-9812D1*
X26934Y-9932D1*
X26877Y-10043D1*
X26800Y-10141D1*
X26689Y-10233D1*
X28497Y-10227D1*
X28750Y-10232D1*
X29129D1*
X29125Y-9500D1*
X29127Y-4997D1*
X28102Y-4999D1*
X27144Y-4993D1*
X26899Y-4943D1*
X26669Y-4846D1*
X26463Y-4705D1*
X26208Y-4457D1*
X24860Y-3099D1*
X24722Y-2891D1*
X24628Y-2660D1*
X24582Y-2414D1*
X24586Y-2165D1*
X24639Y-1921D1*
X24740Y-1693D1*
X24884Y-1489D1*
X25066Y-1318D1*
X25278Y-1186D1*
X25512Y-1099D1*
X25758Y-1061D1*
X26008Y-1072D1*
X26250Y-1133D1*
X26475Y-1241D1*
X26674Y-1391D1*
X27784Y-2500D1*
X29827Y-2501D1*
X29823Y-2313D1*
X29830Y-1844D1*
X29852Y-1721D1*
X29889Y-1601D1*
X29927Y-1512D1*
X30072Y-1263D1*
X30233Y-1072D1*
X30428Y-917D1*
X30651Y-804D1*
X30891Y-737D1*
X31140Y-720D1*
X31388Y-752D1*
X31624Y-833D1*
X31839Y-960D1*
X32025Y-1126D1*
X32174Y-1326D1*
X32280Y-1552D1*
X32339Y-1795D1*
X32352Y-1969D1*
Y-2426D1*
X32550Y-2624D1*
X36125Y-2626D1*
X36373Y-2651D1*
X36612Y-2725D1*
X36831Y-2844D1*
X36973Y-2957D1*
X37883Y-3867D1*
X38041Y-4060D1*
X38158Y-4281D1*
X38228Y-4520D1*
X38249Y-4769D1*
X38220Y-5017D1*
X38143Y-5254D1*
X38051Y-5422D1*
X38052Y-5855D1*
X37939D1*
X37938Y-6129D1*
X38016Y-6313D1*
X38043Y-6434D1*
X38052Y-6559D1*
X38043Y-6684D1*
X38016Y-6806D1*
X37971Y-6922D1*
X37939Y-6980D1*
X37938Y-8500D1*
X38938D1*
Y-438D1*
X38813D1*
X33164Y-10874D2*
X36594D1*
X33070Y-11122D2*
X37539D1*
X32976Y-11371D2*
X37539D1*
X32882Y-11620D2*
X37539D1*
X32785Y-11868D2*
X37539D1*
X32691Y-12117D2*
X32775D1*
X34351D2*
X37539D1*
X32597Y-12366D2*
X32743D1*
X34382D2*
X37539D1*
X32504Y-12615D2*
X32743D1*
X34382D2*
X37539D1*
X32406Y-12863D2*
X32743D1*
X34382D2*
X37539D1*
X32648Y-13112D2*
X32754D1*
X34371D2*
X37539D1*
X34468Y-13361D2*
X37539D1*
X32766Y-12915D2*
X32771Y-12260D1*
X32779Y-12203D1*
X32816Y-12086D1*
X32919Y-12013D1*
X32979Y-12003D1*
X34146D1*
X34263Y-12040D1*
X34336Y-12143D1*
X34346Y-12229D1*
X34359Y-12310D1*
X34354Y-12990D1*
X34346Y-13078D1*
Y-13300D1*
X34434Y-13352D1*
X34500Y-13409D1*
X35449Y-13563D1*
X37563D1*
X37562Y-10954D1*
X37000D1*
X36875Y-10946D1*
X36753Y-10921D1*
X36582Y-10855D1*
X35948D1*
Y-10625D1*
X33691D1*
X33216Y-10678D1*
X32300Y-13078D1*
X32782Y-13129D1*
X32772Y-12997D1*
X32766Y-12915D1*
X29900Y-5561D2*
X35465D1*
X29900Y-5810D2*
X35868D1*
X29900Y-6059D2*
X36270D1*
X29900Y-6307D2*
X37164D1*
X29900Y-6556D2*
X37164D1*
X29900Y-6805D2*
X37164D1*
X29900Y-7053D2*
X37164D1*
X29900Y-7302D2*
X37164D1*
X29900Y-7551D2*
X37164D1*
X29900Y-7799D2*
X37164D1*
X29900Y-8048D2*
X35743D1*
X29900Y-8297D2*
X35481D1*
X29900Y-8545D2*
X35219D1*
X29900Y-8794D2*
X32957D1*
X34328D2*
X34954D1*
X29900Y-9043D2*
X32793D1*
X34597D2*
X34694D1*
X29900Y-9292D2*
X32793D1*
X29900Y-9540D2*
X32918D1*
X29900Y-9789D2*
X32930D1*
X29900Y-10038D2*
X32789D1*
X32800Y-10123D2*
X32822Y-10012D1*
X32873Y-9898D1*
X32946Y-9797D1*
X33039Y-9715D1*
X33091Y-9686D1*
X32897Y-9495D1*
X32832Y-9389D1*
X32819Y-9308D1*
Y-9067D1*
X32848Y-8946D1*
X32897Y-8880D1*
X33067Y-8709D1*
X33173Y-8644D1*
X33254Y-8632D1*
X33496D1*
X33617Y-8661D1*
X33702Y-8728D1*
X34063Y-8726D1*
X34186Y-8743D1*
X34331Y-8812D1*
X34566Y-9038D1*
X34640Y-9112D1*
X35914Y-7909D1*
X36000Y-7875D1*
X37187D1*
X37188Y-6125D1*
X36434Y-6123D1*
X36372Y-6106D1*
X35088Y-5312D1*
X29875Y-5313D1*
Y-10125D1*
X32801D1*
X29900Y-13874D2*
X32157D1*
X29900Y-14122D2*
X32754D1*
X29900Y-14371D2*
X34129D1*
X29900Y-14620D2*
X34387D1*
X29900Y-14868D2*
X34657D1*
X29900Y-15117D2*
X34922D1*
X29900Y-15366D2*
X35184D1*
X29900Y-15615D2*
X35446D1*
X29900Y-15863D2*
X35711D1*
X29900Y-16112D2*
X35973D1*
X29900Y-16361D2*
X37414D1*
X29900Y-16609D2*
X37414D1*
X29900Y-16858D2*
X37414D1*
X29900Y-17107D2*
X37414D1*
X29900Y-17355D2*
X37414D1*
X29900Y-17604D2*
X37414D1*
X29900Y-17853D2*
X37414D1*
X29900Y-18101D2*
X36539D1*
X30000Y-18250D2*
X36330D1*
X36494Y-18136D1*
X36607Y-18083D1*
X36725Y-18043D1*
X36848Y-18018D1*
X36972Y-18007D1*
X37097Y-18011D1*
X37220Y-18030D1*
X37341Y-18063D1*
X37438Y-18103D1*
Y-16125D1*
X36059Y-16123D1*
X35977Y-16091D1*
X34419Y-14625D1*
X34184Y-14400D1*
X34135Y-14350D1*
X32979D1*
X32862Y-14312D1*
X32789Y-14209D1*
X32766Y-14042D1*
Y-13999D1*
X32372Y-13998D1*
X32294Y-13970D1*
X31891Y-13624D1*
X29875Y-13625D1*
Y-18250D1*
X30000D1*
X1953Y-24374D2*
X37418D1*
X2156Y-24622D2*
X37215D1*
X2269Y-24871D2*
X3754D1*
X5121D2*
X37102D1*
X2312Y-25120D2*
X3754D1*
X5121D2*
X16063D1*
X18086D2*
X18563D1*
X20586D2*
X20914D1*
X22086D2*
X22914D1*
X24086D2*
X24914D1*
X26086D2*
X26914D1*
X28086D2*
X28914D1*
X30086D2*
X30914D1*
X32086D2*
X32914D1*
X34086D2*
X34914D1*
X36086D2*
X37055D1*
X2304Y-25368D2*
X3754D1*
X5121D2*
X5836D1*
X7804D2*
X9914D1*
X11086D2*
X15930D1*
X18086D2*
X18430D1*
X20586D2*
X20914D1*
X22086D2*
X22914D1*
X24086D2*
X24914D1*
X26086D2*
X26914D1*
X28086D2*
X28914D1*
X30086D2*
X30914D1*
X32086D2*
X32914D1*
X34086D2*
X34914D1*
X36086D2*
X37067D1*
X2234Y-25617D2*
X3754D1*
X5121D2*
X5836D1*
X7910D2*
X9914D1*
X11086D2*
X15926D1*
X18086D2*
X18426D1*
X20586D2*
X20914D1*
X22086D2*
X22914D1*
X24086D2*
X24914D1*
X26086D2*
X26914D1*
X28086D2*
X28914D1*
X30086D2*
X30914D1*
X32086D2*
X32914D1*
X34086D2*
X34914D1*
X36086D2*
X37137D1*
X2093Y-25866D2*
X3754D1*
X5121D2*
X5836D1*
X7882D2*
X9914D1*
X11086D2*
X16051D1*
X18086D2*
X18551D1*
X20586D2*
X20914D1*
X22086D2*
X22914D1*
X24086D2*
X24914D1*
X26086D2*
X26914D1*
X28086D2*
X28914D1*
X30086D2*
X30914D1*
X32086D2*
X32914D1*
X34086D2*
X34914D1*
X36086D2*
X37278D1*
X400Y-26115D2*
X532D1*
X1832D2*
X3754D1*
X5121D2*
X5836D1*
X6914D2*
X7059D1*
X7687D2*
X9914D1*
X11086D2*
X21067D1*
X21933D2*
X23067D1*
X23933D2*
X25067D1*
X25933D2*
X27067D1*
X27933D2*
X29067D1*
X29933D2*
X31067D1*
X31933D2*
X33067D1*
X33933D2*
X35067D1*
X35933D2*
X37539D1*
X400Y-26363D2*
X3754D1*
X5121D2*
X9914D1*
X11086D2*
X14770D1*
X15855D2*
X20930D1*
X22070D2*
X22930D1*
X24070D2*
X24930D1*
X26070D2*
X26930D1*
X28070D2*
X28930D1*
X30070D2*
X30930D1*
X32070D2*
X32930D1*
X34070D2*
X34930D1*
X36070D2*
X38852D1*
X400Y-26612D2*
X9981D1*
X11019D2*
X14700D1*
X15925D2*
X20926D1*
X22074D2*
X22926D1*
X24074D2*
X24926D1*
X26074D2*
X26926D1*
X28074D2*
X28926D1*
X30074D2*
X30926D1*
X32074D2*
X32926D1*
X34074D2*
X34926D1*
X36074D2*
X38852D1*
X400Y-26861D2*
X9914D1*
X11086D2*
X14700D1*
X15152D2*
X15473D1*
X15925D2*
X21047D1*
X21953D2*
X23047D1*
X23953D2*
X25047D1*
X25953D2*
X27047D1*
X27953D2*
X29047D1*
X29953D2*
X31047D1*
X31953D2*
X33047D1*
X33953D2*
X35047D1*
X35953D2*
X38852D1*
X400Y-27109D2*
X9965D1*
X11035D2*
X14700D1*
X15925D2*
X17582D1*
X19586D2*
X38852D1*
X400Y-27358D2*
X10192D1*
X10808D2*
X14700D1*
X15925D2*
X17582D1*
X18031D2*
X18375D1*
X19586D2*
X38852D1*
X400Y-27607D2*
X8633D1*
X8863D2*
X14700D1*
X15925D2*
X17582D1*
X18031D2*
X18375D1*
X19586D2*
X20571D1*
X22476D2*
X38852D1*
X400Y-27855D2*
X8188D1*
X19586D2*
X20161D1*
X22523D2*
X38852D1*
X400Y-28104D2*
X7938D1*
X19421D2*
X20075D1*
X21734D2*
X22075D1*
X22523D2*
X38852D1*
X400Y-28353D2*
X7508D1*
X19398D2*
X20133D1*
X22523D2*
X38852D1*
X400Y-28601D2*
X7395D1*
X8605D2*
X13289D1*
X13738D2*
X14079D1*
X16738D2*
X18700D1*
X19175D2*
X20543D1*
X22504D2*
X38852D1*
X400Y-28850D2*
X7414D1*
X8461D2*
X13289D1*
X15964D2*
X16286D1*
X16738D2*
X38852D1*
X400Y-29099D2*
X7586D1*
X8289D2*
X13309D1*
X16738D2*
X38852D1*
X400Y-29347D2*
X13309D1*
X17617D2*
X18520D1*
X19480D2*
X38852D1*
X400Y-29596D2*
X13309D1*
X13761D2*
X14102D1*
X17867D2*
X18387D1*
X19613D2*
X38852D1*
X400Y-29845D2*
X13309D1*
X18117D2*
X18387D1*
X18839D2*
X19161D1*
X19613D2*
X38852D1*
X400Y-30094D2*
X13329D1*
X15296D2*
X15536D1*
X16714D2*
X17200D1*
X18839D2*
X19161D1*
X19613D2*
X38852D1*
X400Y-30342D2*
X17446D1*
X19613D2*
X38852D1*
X400Y-30591D2*
X17696D1*
X19613D2*
X38852D1*
X400Y-30840D2*
X17946D1*
X19613D2*
X21192D1*
X22058D2*
X38852D1*
X400Y-31088D2*
X18387D1*
X22113D2*
X38852D1*
X400Y-31337D2*
X18520D1*
X20148D2*
X20489D1*
X22078D2*
X38852D1*
X400Y-31586D2*
X18536D1*
X20148D2*
X20489D1*
X23902D2*
X24096D1*
X24902D2*
X25096D1*
X25902D2*
X27914D1*
X29086D2*
X38852D1*
X400Y-31834D2*
X15063D1*
X17062D2*
X18582D1*
X20937D2*
X21090D1*
X26058D2*
X27914D1*
X29086D2*
X38852D1*
X400Y-32083D2*
X15059D1*
X15511D2*
X15852D1*
X17066D2*
X18582D1*
X19293D2*
X21332D1*
X26078D2*
X27914D1*
X29086D2*
X38852D1*
X400Y-32332D2*
X15059D1*
X15511D2*
X15852D1*
X17066D2*
X18582D1*
X19293D2*
X20200D1*
X25976D2*
X27914D1*
X29086D2*
X38852D1*
X400Y-32580D2*
X13883D1*
X14742D2*
X15059D1*
X17289D2*
X18582D1*
X19293D2*
X19926D1*
X22355D2*
X38852D1*
X400Y-32829D2*
X13825D1*
X14800D2*
X15063D1*
X17519D2*
X18582D1*
X19293D2*
X19680D1*
X22324D2*
X38852D1*
X400Y-33078D2*
X13907D1*
X14718D2*
X15059D1*
X15511D2*
X15852D1*
X17546D2*
X18582D1*
X19293D2*
X19428D1*
X22101D2*
X22457D1*
X25980D2*
X38852D1*
X400Y-33326D2*
X13825D1*
X14800D2*
X15059D1*
X15511D2*
X15852D1*
X17418D2*
X18582D1*
X20539D2*
X22184D1*
X26254D2*
X38852D1*
X400Y-33575D2*
X13059D1*
X14757D2*
X15059D1*
X20293D2*
X21934D1*
X26461D2*
X26914D1*
X28086D2*
X28914D1*
X30086D2*
X30914D1*
X32086D2*
X38852D1*
X400Y-33824D2*
X10414D1*
X12390D2*
X12950D1*
X13925D2*
X14168D1*
X14461D2*
X15188D1*
X20043D2*
X21684D1*
X22668D2*
X24914D1*
X26480D2*
X26914D1*
X28086D2*
X28914D1*
X30086D2*
X30914D1*
X32086D2*
X38852D1*
X400Y-34073D2*
X10414D1*
X12558D2*
X12993D1*
X13882D2*
X16235D1*
X19886D2*
X20114D1*
X20886D2*
X21114D1*
X23086D2*
X24914D1*
X26480D2*
X26914D1*
X28086D2*
X28914D1*
X30086D2*
X30914D1*
X32086D2*
X38852D1*
X400Y-34321D2*
X10414D1*
X12582D2*
X12961D1*
X13914D2*
X16204D1*
X23086D2*
X24688D1*
X26480D2*
X26914D1*
X28086D2*
X28914D1*
X30086D2*
X30914D1*
X32086D2*
X38852D1*
X400Y-34570D2*
X10414D1*
X12484D2*
X12965D1*
X13910D2*
X15067D1*
X15683D2*
X16313D1*
X23086D2*
X24438D1*
X26480D2*
X27118D1*
X27882D2*
X29118D1*
X29882D2*
X31118D1*
X31882D2*
X38852D1*
X400Y-34819D2*
X10618D1*
X12382D2*
X13145D1*
X13730D2*
X14899D1*
X15851D2*
X16067D1*
X23086D2*
X24192D1*
X26480D2*
X26946D1*
X28054D2*
X28946D1*
X30054D2*
X30946D1*
X32054D2*
X38852D1*
X400Y-35067D2*
X10446D1*
X12554D2*
X14903D1*
X22882D2*
X23942D1*
X26480D2*
X26918D1*
X28082D2*
X28918D1*
X30082D2*
X30918D1*
X32082D2*
X38852D1*
X400Y-35316D2*
X10418D1*
X12582D2*
X15079D1*
X21363D2*
X21645D1*
X24675D2*
X25012D1*
X26480D2*
X27012D1*
X27988D2*
X29012D1*
X29988D2*
X31012D1*
X31988D2*
X38852D1*
X400Y-35565D2*
X10512D1*
X12992D2*
X14946D1*
X21355D2*
X21645D1*
X24425D2*
X25121D1*
X26421D2*
X27121D1*
X27879D2*
X29121D1*
X29879D2*
X31121D1*
X31879D2*
X38852D1*
X400Y-35813D2*
X10625D1*
X13242D2*
X14778D1*
X21355D2*
X21645D1*
X24129D2*
X24946D1*
X26179D2*
X26946D1*
X28054D2*
X28946D1*
X30054D2*
X30946D1*
X32054D2*
X38852D1*
X400Y-36062D2*
X10446D1*
X16742D2*
X19145D1*
X21355D2*
X21645D1*
X22855D2*
X24918D1*
X26082D2*
X26918D1*
X28082D2*
X28918D1*
X30082D2*
X30918D1*
X32082D2*
X38852D1*
X400Y-36311D2*
X10418D1*
X16492D2*
X19145D1*
X21355D2*
X21645D1*
X22855D2*
X25008D1*
X25992D2*
X27008D1*
X27992D2*
X29008D1*
X29992D2*
X31008D1*
X31992D2*
X38852D1*
X400Y-36559D2*
X10508D1*
X16246D2*
X19129D1*
X23086D2*
X25129D1*
X25871D2*
X27129D1*
X27871D2*
X29129D1*
X29871D2*
X31129D1*
X31871D2*
X38852D1*
X400Y-36808D2*
X10629D1*
X15996D2*
X18950D1*
X23086D2*
X24950D1*
X26050D2*
X26950D1*
X28050D2*
X28950D1*
X30050D2*
X30950D1*
X32050D2*
X38852D1*
X400Y-37057D2*
X10450D1*
X11683D2*
X18918D1*
X23086D2*
X24918D1*
X26082D2*
X26918D1*
X28082D2*
X28918D1*
X30082D2*
X30918D1*
X32082D2*
X38852D1*
X1879Y-37305D2*
X10418D1*
X11582D2*
X19004D1*
X23086D2*
X25004D1*
X25996D2*
X27004D1*
X27996D2*
X29004D1*
X29996D2*
X31004D1*
X31996D2*
X37493D1*
X2117Y-37554D2*
X10504D1*
X11496D2*
X19266D1*
X23086D2*
X25395D1*
X25608D2*
X27395D1*
X27608D2*
X29395D1*
X29608D2*
X31395D1*
X31608D2*
X37254D1*
X2246Y-37803D2*
X10883D1*
X11113D2*
X19145D1*
X22855D2*
X37121D1*
X2308Y-38052D2*
X13914D1*
X15859D2*
X19141D1*
X23086D2*
X37063D1*
X2312Y-38300D2*
X13914D1*
X16046D2*
X18954D1*
X23086D2*
X37059D1*
X2257Y-38549D2*
X13914D1*
X16082D2*
X18918D1*
X23086D2*
X37114D1*
X2136Y-38798D2*
X13914D1*
X16000D2*
X19000D1*
X23086D2*
X37235D1*
X8458Y-28722D2*
X8448Y-28811D1*
X8404Y-28928D1*
X8334Y-29031D1*
X8242Y-29115D1*
X8132Y-29175D1*
X8012Y-29207D1*
X7887Y-29210D1*
X7765Y-29183D1*
X7653Y-29129D1*
X7557Y-29049D1*
X7483Y-28950D1*
X7434Y-28835D1*
X7413Y-28712D1*
X7422Y-28587D1*
X7460Y-28469D1*
X7525Y-28362D1*
X7614Y-28274D1*
X7720Y-28210D1*
X7839Y-28172D1*
X7897Y-28168D1*
X8283Y-27783D1*
X8388Y-27709D1*
X8336Y-27739D1*
X8564Y-27636D1*
X8684Y-27602D1*
X8809Y-27601D1*
X8929Y-27633D1*
X9000Y-27668D1*
X14723D1*
X14726Y-26514D1*
X14763Y-26397D1*
X14866Y-26324D1*
X14925Y-26314D1*
X15700D1*
X15817Y-26351D1*
X15889Y-26454D1*
X15899Y-26514D1*
Y-27666D1*
X17605Y-27668D1*
X17608Y-27113D1*
X17646Y-26996D1*
X17749Y-26923D1*
X17808Y-26913D1*
X19361D1*
X19478Y-26951D1*
X19551Y-27054D1*
X19561Y-27113D1*
Y-27887D1*
X19524Y-28004D1*
X19421Y-28077D1*
X19400Y-28141D1*
X19403Y-28188D1*
X19386Y-28311D1*
X19337Y-28426D1*
X19259Y-28523D1*
X19159Y-28597D1*
X19042Y-28641D1*
X18918Y-28652D1*
X18795Y-28630D1*
X18683Y-28577D1*
X18589Y-28495D1*
X18565Y-28459D1*
X16715Y-28457D1*
X16712Y-29228D1*
X17313Y-29230D1*
X17435Y-29250D1*
X17549Y-29309D1*
X17769Y-29523D1*
X18412Y-30166D1*
X18413Y-29536D1*
X18451Y-29419D1*
X18554Y-29346D1*
X18613Y-29336D1*
X19387D1*
X19504Y-29374D1*
X19577Y-29477D1*
X19587Y-29536D1*
Y-30852D1*
X20714Y-30851D1*
X20834Y-30891D1*
X20996Y-30852D1*
X21121Y-30851D1*
X21200Y-30872D1*
X21247Y-30792D1*
X21333Y-30701D1*
X21439Y-30636D1*
X21559Y-30602D1*
X21684Y-30601D1*
X21804Y-30633D1*
X21912Y-30696D1*
X21999Y-30786D1*
X22059Y-30895D1*
X22088Y-31016D1*
X22090Y-31063D1*
X22073Y-31186D1*
X22022Y-31304D1*
X22154Y-31437D1*
X23060Y-31440D1*
Y-31655D1*
X23141Y-31570D1*
X23245Y-31501D1*
X23361Y-31457D1*
X23485Y-31440D1*
X23609Y-31450D1*
X23728Y-31488D1*
X23836Y-31551D1*
X23927Y-31637D1*
X24001Y-31751D1*
X24054Y-31660D1*
X24141Y-31570D1*
X24245Y-31501D1*
X24361Y-31457D1*
X24485Y-31440D1*
X24609Y-31450D1*
X24728Y-31488D1*
X24836Y-31551D1*
X24927Y-31637D1*
X25001Y-31751D1*
X25054Y-31660D1*
X25141Y-31570D1*
X25245Y-31501D1*
X25361Y-31457D1*
X25485Y-31440D1*
X25609Y-31450D1*
X25728Y-31488D1*
X25836Y-31551D1*
X25927Y-31637D1*
X25996Y-31740D1*
X26042Y-31856D1*
X26060Y-32000D1*
X26046Y-32124D1*
X26005Y-32242D1*
X25939Y-32348D1*
X25852Y-32436D1*
X25746Y-32503D1*
X25629Y-32545D1*
X25505Y-32560D1*
X25381Y-32547D1*
X25263Y-32508D1*
X25156Y-32443D1*
X25067Y-32356D1*
X25001Y-32254D1*
X24939Y-32348D1*
X24852Y-32436D1*
X24746Y-32503D1*
X24629Y-32545D1*
X24505Y-32560D1*
X24381Y-32547D1*
X24263Y-32508D1*
X24156Y-32443D1*
X24067Y-32356D1*
X24001Y-32254D1*
X23939Y-32348D1*
X23852Y-32436D1*
X23746Y-32503D1*
X23629Y-32545D1*
X23505Y-32560D1*
X23381Y-32547D1*
X23263Y-32508D1*
X23156Y-32443D1*
X23061Y-32346D1*
X23060Y-32560D1*
X22330D1*
Y-32688D1*
X22307Y-32810D1*
X22233Y-32921D1*
X21983Y-33171D1*
X21881Y-33241D1*
X21750Y-33268D1*
X20574D1*
X19806Y-34035D1*
X19836Y-34051D1*
X19927Y-34137D1*
X20001Y-34251D1*
X20054Y-34160D1*
X20141Y-34070D1*
X20245Y-34001D1*
X20361Y-33957D1*
X20485Y-33940D1*
X20609Y-33950D1*
X20728Y-33988D1*
X20836Y-34051D1*
X20927Y-34137D1*
X21001Y-34251D1*
X21054Y-34160D1*
X21141Y-34070D1*
X21245Y-34001D1*
X21361Y-33957D1*
X21485Y-33940D1*
X21582Y-33948D1*
X22392Y-33142D1*
X22494Y-33072D1*
X22625Y-33045D1*
X25813D1*
X25935Y-33068D1*
X26046Y-33142D1*
X26358Y-33454D1*
X26428Y-33557D1*
X26455Y-33687D1*
Y-35375D1*
X26432Y-35497D1*
X26358Y-35608D1*
X26052Y-35915D1*
X26060Y-36000D1*
X26046Y-36124D1*
X26005Y-36242D1*
X25939Y-36348D1*
X25852Y-36436D1*
X25750Y-36501D1*
X25836Y-36551D1*
X25927Y-36637D1*
X25996Y-36740D1*
X26042Y-36856D1*
X26060Y-37000D1*
X26046Y-37124D1*
X26005Y-37242D1*
X25939Y-37348D1*
X25852Y-37436D1*
X25746Y-37503D1*
X25629Y-37545D1*
X25505Y-37560D1*
X25381Y-37547D1*
X25263Y-37508D1*
X25156Y-37443D1*
X25067Y-37356D1*
X24999Y-37251D1*
X24956Y-37134D1*
X24940Y-37010D1*
X24951Y-36886D1*
X24990Y-36767D1*
X25054Y-36660D1*
X25141Y-36570D1*
X25248Y-36500D1*
X25156Y-36443D1*
X25067Y-36356D1*
X24999Y-36251D1*
X24956Y-36134D1*
X24940Y-36010D1*
X24951Y-35886D1*
X24990Y-35767D1*
X25054Y-35660D1*
X25141Y-35570D1*
X25248Y-35500D1*
X25156Y-35443D1*
X25067Y-35356D1*
X24999Y-35251D1*
X24956Y-35134D1*
X24938Y-35029D1*
X24233Y-35733D1*
X24131Y-35803D1*
X24000Y-35830D1*
X22949D1*
X22852Y-35936D1*
X22829Y-35951D1*
X22830Y-36441D1*
X23060Y-36440D1*
Y-37560D1*
X22830D1*
Y-37941D1*
X23060Y-37940D1*
Y-38905D1*
X23625Y-38900D1*
X37315Y-38875D1*
X37244Y-38772D1*
X37184Y-38662D1*
X37138Y-38546D1*
X37104Y-38426D1*
X37084Y-38303D1*
X37078Y-38178D1*
X37087Y-38053D1*
X37109Y-37930D1*
X37145Y-37811D1*
X37194Y-37696D1*
X37256Y-37587D1*
X37329Y-37486D1*
X37414Y-37394D1*
X37508Y-37312D1*
X37611Y-37241D1*
X37721Y-37182D1*
X37837Y-37136D1*
X37957Y-37103D1*
X38081Y-37084D1*
X38206Y-37079D1*
X38330Y-37087D1*
X38453Y-37110D1*
X38573Y-37147D1*
X38687Y-37196D1*
X38874Y-37316D1*
X38875Y-26066D1*
X38777Y-26139D1*
X38667Y-26199D1*
X38552Y-26247D1*
X38431Y-26281D1*
X38308Y-26301D1*
X38183Y-26307D1*
X38059Y-26300D1*
X37936Y-26278D1*
X37816Y-26243D1*
X37701Y-26194D1*
X37592Y-26133D1*
X37490Y-26060D1*
X37398Y-25976D1*
X37315Y-25882D1*
X37244Y-25780D1*
X37184Y-25670D1*
X37138Y-25554D1*
X37104Y-25434D1*
X37084Y-25311D1*
X37078Y-25186D1*
X37087Y-25061D1*
X37109Y-24938D1*
X37145Y-24819D1*
X37194Y-24704D1*
X37256Y-24595D1*
X37329Y-24494D1*
X37414Y-24402D1*
X37508Y-24320D1*
X37611Y-24249D1*
X37721Y-24190D1*
X37908Y-24124D1*
X1473Y-24125D1*
X1679Y-24204D1*
X1788Y-24267D1*
X1888Y-24341D1*
X1980Y-24425D1*
X2062Y-24520D1*
X2132Y-24623D1*
X2190Y-24734D1*
X2236Y-24850D1*
X2268Y-24971D1*
X2292Y-25197D1*
X2285Y-25322D1*
X2264Y-25445D1*
X2229Y-25565D1*
X2181Y-25680D1*
X2120Y-25789D1*
X2048Y-25891D1*
X1964Y-25984D1*
X1871Y-26067D1*
X1769Y-26139D1*
X1659Y-26199D1*
X1544Y-26247D1*
X1424Y-26281D1*
X1300Y-26301D1*
X1176Y-26307D1*
X1051Y-26300D1*
X928Y-26278D1*
X808Y-26243D1*
X693Y-26194D1*
X584Y-26133D1*
X483Y-26060D1*
X377Y-25962D1*
X375Y-28000D1*
Y-37426D1*
X500Y-37312D1*
X603Y-37241D1*
X713Y-37182D1*
X829Y-37136D1*
X949Y-37103D1*
X1073Y-37084D1*
X1198Y-37079D1*
X1322Y-37087D1*
X1445Y-37110D1*
X1565Y-37147D1*
X1679Y-37196D1*
X1788Y-37259D1*
X1888Y-37333D1*
X1980Y-37417D1*
X2062Y-37512D1*
X2132Y-37615D1*
X2190Y-37726D1*
X2236Y-37842D1*
X2268Y-37963D1*
X2292Y-38189D1*
X2285Y-38314D1*
X2264Y-38437D1*
X2229Y-38557D1*
X2181Y-38672D1*
X2120Y-38782D1*
X2004Y-38933D1*
X5875Y-38928D1*
X13941Y-38915D1*
X13940Y-37940D1*
X15060D1*
Y-38155D1*
X15141Y-38070D1*
X15245Y-38001D1*
X15361Y-37957D1*
X15485Y-37940D1*
X15609Y-37950D1*
X15728Y-37988D1*
X15836Y-38051D1*
X15927Y-38137D1*
X15996Y-38240D1*
X16042Y-38356D1*
X16060Y-38500D1*
X16046Y-38624D1*
X16005Y-38742D1*
X15939Y-38848D1*
X15876Y-38911D1*
X19113Y-38907D1*
X19067Y-38856D1*
X18999Y-38751D1*
X18956Y-38634D1*
X18940Y-38510D1*
X18951Y-38386D1*
X18990Y-38267D1*
X19054Y-38160D1*
X19170Y-38051D1*
Y-37813D1*
X19193Y-37690D1*
X19267Y-37579D1*
X19319Y-37527D1*
X19263Y-37508D1*
X19156Y-37443D1*
X19067Y-37356D1*
X18999Y-37251D1*
X18956Y-37134D1*
X18940Y-37010D1*
X18951Y-36886D1*
X18990Y-36767D1*
X19054Y-36660D1*
X19170Y-36551D1*
Y-35949D1*
X19067Y-35856D1*
X19001Y-35754D1*
X18939Y-35848D1*
X18851Y-35936D1*
X18746Y-36003D1*
X18629Y-36045D1*
X18505Y-36060D1*
X18381Y-36047D1*
X18263Y-36007D1*
X18156Y-35942D1*
X18067Y-35855D1*
X18001Y-35754D1*
X17939Y-35848D1*
X17851Y-35936D1*
X17746Y-36003D1*
X17629Y-36045D1*
X17505Y-36060D1*
X17381Y-36047D1*
X17263Y-36007D1*
X17156Y-35942D1*
X17067Y-35855D1*
X17010Y-35767D1*
X15858Y-36921D1*
X15756Y-36991D1*
X15625Y-37018D1*
X12438D1*
X12315Y-36994D1*
X12204Y-36921D1*
X12085Y-36802D1*
X12005Y-36810D1*
X11881Y-36797D1*
X11826Y-36779D1*
X11816Y-36846D1*
X11758Y-36956D1*
X11554Y-37163D1*
X11560Y-37250D1*
X11546Y-37374D1*
X11505Y-37492D1*
X11439Y-37598D1*
X11352Y-37686D1*
X11246Y-37753D1*
X11129Y-37795D1*
X11005Y-37810D1*
X10881Y-37797D1*
X10763Y-37758D1*
X10656Y-37693D1*
X10567Y-37606D1*
X10499Y-37501D1*
X10456Y-37384D1*
X10440Y-37260D1*
X10451Y-37136D1*
X10490Y-37017D1*
X10554Y-36910D1*
X10641Y-36820D1*
X10748Y-36750D1*
X10656Y-36693D1*
X10567Y-36606D1*
X10499Y-36501D1*
X10456Y-36384D1*
X10440Y-36260D1*
X10451Y-36136D1*
X10490Y-36017D1*
X10554Y-35910D1*
X10641Y-35820D1*
X10748Y-35750D1*
X10656Y-35693D1*
X10567Y-35606D1*
X10499Y-35501D1*
X10456Y-35384D1*
X10440Y-35260D1*
X10451Y-35136D1*
X10490Y-35017D1*
X10554Y-34910D1*
X10657Y-34809D1*
X10440Y-34810D1*
Y-33690D1*
X11560D1*
Y-33905D1*
X11641Y-33820D1*
X11745Y-33751D1*
X11861Y-33707D1*
X11985Y-33690D1*
X12109Y-33700D1*
X12228Y-33738D1*
X12336Y-33801D1*
X12427Y-33887D1*
X12496Y-33990D1*
X12542Y-34106D1*
X12560Y-34250D1*
X12546Y-34374D1*
X12505Y-34492D1*
X12439Y-34598D1*
X12352Y-34686D1*
X12250Y-34751D1*
X12336Y-34801D1*
X12427Y-34887D1*
X12496Y-34990D1*
X12542Y-35106D1*
X12560Y-35250D1*
X12546Y-35374D1*
X12530Y-35422D1*
X12687Y-35420D1*
X12810Y-35443D1*
X12921Y-35517D1*
X13388Y-35983D1*
X14785D1*
X14787Y-35898D1*
X14814Y-35777D1*
X14872Y-35667D1*
X14958Y-35576D1*
X15064Y-35511D1*
X15184Y-35477D1*
X15309Y-35476D1*
X15403Y-35501D1*
X15533Y-35375D1*
X15480Y-35391D1*
X15355Y-35402D1*
X15233Y-35380D1*
X15120Y-35327D1*
X15026Y-35245D1*
X14957Y-35141D1*
X14918Y-35023D1*
X14912Y-34898D1*
X14939Y-34777D1*
X14997Y-34667D1*
X15083Y-34576D1*
X15189Y-34511D1*
X15309Y-34477D1*
X15434Y-34476D1*
X15554Y-34508D1*
X15662Y-34571D1*
X15749Y-34661D1*
X15809Y-34770D1*
X15838Y-34891D1*
X15840Y-34938D1*
X15823Y-35061D1*
X15806Y-35100D1*
X16345Y-34563D1*
X16269Y-34454D1*
X16230Y-34335D1*
X16224Y-34211D1*
X16251Y-34089D1*
X16310Y-33979D1*
X16395Y-33888D1*
X16478Y-33838D1*
X15286Y-33837D1*
X15169Y-33799D1*
X15096Y-33696D1*
X15086Y-33637D1*
X15087Y-32859D1*
X15097Y-32800D1*
X15086Y-32640D1*
Y-31863D1*
X15124Y-31746D1*
X15227Y-31673D1*
X15286Y-31663D1*
X16839D1*
X16956Y-31701D1*
X17029Y-31804D1*
X17039Y-31863D1*
Y-32375D1*
X17226Y-32565D1*
X17349Y-32634D1*
X17436Y-32723D1*
X17496Y-32832D1*
X17525Y-32953D1*
X17528Y-33000D1*
X17511Y-33124D1*
X17462Y-33238D1*
X17384Y-33336D1*
X17284Y-33409D1*
X17167Y-33453D1*
X17039Y-33464D1*
X17057Y-33483D1*
X18488D1*
X18610Y-33361D1*
X18607Y-31684D1*
X18582Y-31641D1*
X18543Y-31523D1*
X18537Y-31398D1*
X18563Y-31281D1*
X18453Y-31209D1*
X18413Y-31089D1*
Y-31038D1*
X18335Y-31042D1*
X18212Y-31022D1*
X18098Y-30963D1*
X17879Y-30750D1*
X17147Y-30018D1*
X16715Y-30020D1*
X16703Y-30065D1*
X16632Y-30165D1*
X16512Y-30205D1*
X15738D1*
X15621Y-30167D1*
X15548Y-30064D1*
X15534Y-30034D1*
X15417Y-30078D1*
X15274Y-30086D1*
X15251Y-30129D1*
X15148Y-30202D1*
X15089Y-30212D1*
X13536D1*
X13419Y-30174D1*
X13346Y-30071D1*
X13336Y-30012D1*
X13337Y-29234D1*
X13353Y-29132D1*
X13314Y-29012D1*
X13312Y-28457D1*
X8996D1*
X8855Y-28516D1*
X8730Y-28527D1*
X8665Y-28515D1*
X8463Y-28720D1*
X15123Y-27104D2*
X15498D1*
X15500Y-26712D1*
X15125Y-26714D1*
Y-27103D1*
X14104Y-28815D2*
Y-28455D1*
X13715Y-28457D1*
X13714Y-28812D1*
X14103D1*
X21708Y-27935D2*
Y-28310D1*
X22101Y-28312D1*
X22099Y-27938D1*
X21709D1*
X18398Y-27666D2*
Y-27315D1*
X18006Y-27313D1*
X18008Y-27672D1*
X18402Y-27668D1*
X15935Y-29042D2*
X16310D1*
X16312Y-28649D1*
X15938Y-28651D1*
Y-29041D1*
X20124Y-31248D2*
Y-31623D1*
X20516Y-31625D1*
X20514Y-31250D1*
X20124D1*
X18810Y-30126D2*
X19185D1*
X19187Y-29734D1*
X18813Y-29736D1*
Y-30126D1*
X15876Y-33440D2*
Y-33065D1*
X15484Y-33063D1*
X15486Y-33437D1*
X15876D1*
X14126Y-29815D2*
Y-29440D1*
X13734Y-29438D1*
X13736Y-29812D1*
X14126D1*
X15876Y-32440D2*
Y-32065D1*
X15484Y-32063D1*
X15486Y-32437D1*
X15876D1*
X7875Y-25811D2*
X7830Y-25928D1*
X7759Y-26030D1*
X7666Y-26113D1*
X7555Y-26170D1*
X7434Y-26199D1*
X7309Y-26198D1*
X7188Y-26167D1*
X7078Y-26109D1*
X6986Y-26025D1*
X6916Y-25922D1*
X6891Y-25852D1*
X6890Y-26203D1*
X5860D1*
Y-25173D1*
X6890D1*
Y-25512D1*
X6923Y-25441D1*
X6995Y-25340D1*
X7090Y-25258D1*
X7202Y-25203D1*
X7323Y-25175D1*
X7448Y-25178D1*
X7568Y-25210D1*
X7677Y-25271D1*
X7769Y-25355D1*
X7837Y-25460D1*
X7878Y-25578D1*
X7890Y-25688D1*
X7875Y-25811D1*
X10065Y-25315D2*
X11060D1*
Y-26435D1*
X10845D1*
X10927Y-26512D1*
X10996Y-26615D1*
X11042Y-26731D1*
X11060Y-26875D1*
X11046Y-26999D1*
X11005Y-27117D1*
X10939Y-27223D1*
X10852Y-27311D1*
X10746Y-27378D1*
X10629Y-27420D1*
X10505Y-27435D1*
X10381Y-27422D1*
X10263Y-27383D1*
X10156Y-27318D1*
X10067Y-27231D1*
X9999Y-27126D1*
X9956Y-27009D1*
X9940Y-26885D1*
X9951Y-26761D1*
X9990Y-26642D1*
X10054Y-26535D1*
X10157Y-26434D1*
X9940Y-26435D1*
Y-25315D1*
X10065D1*
X3904Y-24832D2*
X5096D1*
Y-26543D1*
X3779D1*
Y-24832D1*
X3904D1*
X19565Y-24940D2*
X20560D1*
Y-26060D1*
X19440D1*
X19439Y-25848D1*
X19352Y-25936D1*
X19246Y-26003D1*
X19129Y-26045D1*
X19005Y-26060D1*
X18881Y-26047D1*
X18763Y-26008D1*
X18656Y-25943D1*
X18567Y-25856D1*
X18499Y-25751D1*
X18456Y-25634D1*
X18440Y-25510D1*
X18451Y-25386D1*
X18490Y-25267D1*
X18554Y-25160D1*
X18641Y-25070D1*
X18745Y-25001D1*
X18861Y-24957D1*
X18985Y-24940D1*
X19109Y-24950D1*
X19228Y-24988D1*
X19336Y-25051D1*
X19442Y-25159D1*
X19440Y-24940D1*
X19565D1*
X21065D2*
X22060D1*
Y-26060D1*
X21845D1*
X21927Y-26137D1*
X21996Y-26240D1*
X22042Y-26356D1*
X22060Y-26500D1*
X22046Y-26624D1*
X22005Y-26742D1*
X21939Y-26848D1*
X21852Y-26936D1*
X21746Y-27003D1*
X21629Y-27045D1*
X21505Y-27060D1*
X21381Y-27047D1*
X21263Y-27008D1*
X21156Y-26943D1*
X21067Y-26856D1*
X20999Y-26751D1*
X20956Y-26634D1*
X20940Y-26510D1*
X20951Y-26386D1*
X20990Y-26267D1*
X21054Y-26160D1*
X21157Y-26059D1*
X20940Y-26060D1*
Y-24940D1*
X21065D1*
X17065D2*
X18060D1*
Y-26060D1*
X16940D1*
X16939Y-25848D1*
X16852Y-25936D1*
X16746Y-26003D1*
X16629Y-26045D1*
X16505Y-26060D1*
X16381Y-26047D1*
X16263Y-26008D1*
X16156Y-25943D1*
X16067Y-25856D1*
X15999Y-25751D1*
X15956Y-25634D1*
X15940Y-25510D1*
X15951Y-25386D1*
X15990Y-25267D1*
X16054Y-25160D1*
X16141Y-25070D1*
X16245Y-25001D1*
X16361Y-24957D1*
X16485Y-24940D1*
X16609Y-24950D1*
X16728Y-24988D1*
X16836Y-25051D1*
X16942Y-25159D1*
X16940Y-24940D1*
X17065D1*
X23065D2*
X24060D1*
Y-26060D1*
X23845D1*
X23927Y-26137D1*
X23996Y-26240D1*
X24042Y-26356D1*
X24060Y-26500D1*
X24046Y-26624D1*
X24005Y-26742D1*
X23939Y-26848D1*
X23852Y-26936D1*
X23746Y-27003D1*
X23629Y-27045D1*
X23505Y-27060D1*
X23381Y-27047D1*
X23263Y-27008D1*
X23156Y-26943D1*
X23067Y-26856D1*
X22999Y-26751D1*
X22956Y-26634D1*
X22940Y-26510D1*
X22951Y-26386D1*
X22990Y-26267D1*
X23054Y-26160D1*
X23157Y-26059D1*
X22940Y-26060D1*
Y-24940D1*
X23065D1*
X25065D2*
X26060D1*
Y-26060D1*
X25845D1*
X25927Y-26137D1*
X25996Y-26240D1*
X26042Y-26356D1*
X26060Y-26500D1*
X26046Y-26624D1*
X26005Y-26742D1*
X25939Y-26848D1*
X25852Y-26936D1*
X25746Y-27003D1*
X25629Y-27045D1*
X25505Y-27060D1*
X25381Y-27047D1*
X25263Y-27008D1*
X25156Y-26943D1*
X25067Y-26856D1*
X24999Y-26751D1*
X24956Y-26634D1*
X24940Y-26510D1*
X24951Y-26386D1*
X24990Y-26267D1*
X25054Y-26160D1*
X25157Y-26059D1*
X24940Y-26060D1*
Y-24940D1*
X25065D1*
X27065D2*
X28060D1*
Y-26060D1*
X27845D1*
X27927Y-26137D1*
X27996Y-26240D1*
X28042Y-26356D1*
X28060Y-26500D1*
X28046Y-26624D1*
X28005Y-26742D1*
X27939Y-26848D1*
X27852Y-26936D1*
X27746Y-27003D1*
X27629Y-27045D1*
X27505Y-27060D1*
X27381Y-27047D1*
X27263Y-27008D1*
X27156Y-26943D1*
X27067Y-26856D1*
X26999Y-26751D1*
X26956Y-26634D1*
X26940Y-26510D1*
X26951Y-26386D1*
X26990Y-26267D1*
X27054Y-26160D1*
X27157Y-26059D1*
X26940Y-26060D1*
Y-24940D1*
X27065D1*
X29065D2*
X30060D1*
Y-26060D1*
X29845D1*
X29927Y-26137D1*
X29996Y-26240D1*
X30042Y-26356D1*
X30060Y-26500D1*
X30046Y-26624D1*
X30005Y-26742D1*
X29939Y-26848D1*
X29852Y-26936D1*
X29746Y-27003D1*
X29629Y-27045D1*
X29505Y-27060D1*
X29381Y-27047D1*
X29263Y-27008D1*
X29156Y-26943D1*
X29067Y-26856D1*
X28999Y-26751D1*
X28956Y-26634D1*
X28940Y-26510D1*
X28951Y-26386D1*
X28990Y-26267D1*
X29054Y-26160D1*
X29157Y-26059D1*
X28940Y-26060D1*
Y-24940D1*
X29065D1*
X31065D2*
X32060D1*
Y-26060D1*
X31845D1*
X31927Y-26137D1*
X31996Y-26240D1*
X32042Y-26356D1*
X32060Y-26500D1*
X32046Y-26624D1*
X32005Y-26742D1*
X31939Y-26848D1*
X31852Y-26936D1*
X31746Y-27003D1*
X31629Y-27045D1*
X31505Y-27060D1*
X31381Y-27047D1*
X31263Y-27008D1*
X31156Y-26943D1*
X31067Y-26856D1*
X30999Y-26751D1*
X30956Y-26634D1*
X30940Y-26510D1*
X30951Y-26386D1*
X30990Y-26267D1*
X31054Y-26160D1*
X31157Y-26059D1*
X30940Y-26060D1*
Y-24940D1*
X31065D1*
X33065D2*
X34060D1*
Y-26060D1*
X33845D1*
X33927Y-26137D1*
X33996Y-26240D1*
X34042Y-26356D1*
X34060Y-26500D1*
X34046Y-26624D1*
X34005Y-26742D1*
X33939Y-26848D1*
X33852Y-26936D1*
X33746Y-27003D1*
X33629Y-27045D1*
X33505Y-27060D1*
X33381Y-27047D1*
X33263Y-27008D1*
X33156Y-26943D1*
X33067Y-26856D1*
X32999Y-26751D1*
X32956Y-26634D1*
X32940Y-26510D1*
X32951Y-26386D1*
X32990Y-26267D1*
X33054Y-26160D1*
X33157Y-26059D1*
X32940Y-26060D1*
Y-24940D1*
X33065D1*
X35065D2*
X36060D1*
Y-26060D1*
X35845D1*
X35927Y-26137D1*
X35996Y-26240D1*
X36042Y-26356D1*
X36060Y-26500D1*
X36046Y-26624D1*
X36005Y-26742D1*
X35939Y-26848D1*
X35852Y-26936D1*
X35746Y-27003D1*
X35629Y-27045D1*
X35505Y-27060D1*
X35381Y-27047D1*
X35263Y-27008D1*
X35156Y-26943D1*
X35067Y-26856D1*
X34999Y-26751D1*
X34956Y-26634D1*
X34940Y-26510D1*
X34951Y-26386D1*
X34990Y-26267D1*
X35054Y-26160D1*
X35157Y-26059D1*
X34940Y-26060D1*
Y-24940D1*
X35065D1*
X28065Y-31440D2*
X29060D1*
Y-32560D1*
X27940D1*
Y-31440D1*
X28065D1*
X24940Y-34095D2*
X24938Y-33705D1*
X22762D1*
X22524Y-33943D1*
X23060Y-33940D1*
Y-35060D1*
X22845D1*
X22927Y-35137D1*
X22950Y-35172D1*
X23863Y-35170D1*
X24941Y-34093D1*
X21842Y-34943D2*
X21746Y-35003D1*
X21610Y-35048D1*
X21327Y-35327D1*
X21330Y-36467D1*
X21485Y-36440D1*
X21582Y-36448D1*
X21673Y-36361D1*
X21670Y-35250D1*
X21693Y-35128D1*
X21767Y-35017D1*
X21830Y-34953D1*
X27065Y-33440D2*
X28060D1*
Y-34560D1*
X27845D1*
X27927Y-34637D1*
X27996Y-34740D1*
X28042Y-34856D1*
X28060Y-35000D1*
X28046Y-35124D1*
X28005Y-35242D1*
X27939Y-35348D1*
X27852Y-35436D1*
X27750Y-35501D1*
X27836Y-35551D1*
X27927Y-35637D1*
X27996Y-35740D1*
X28042Y-35856D1*
X28060Y-36000D1*
X28046Y-36124D1*
X28005Y-36242D1*
X27939Y-36348D1*
X27852Y-36436D1*
X27750Y-36501D1*
X27836Y-36551D1*
X27927Y-36637D1*
X27996Y-36740D1*
X28042Y-36856D1*
X28060Y-37000D1*
X28046Y-37124D1*
X28005Y-37242D1*
X27939Y-37348D1*
X27852Y-37436D1*
X27746Y-37503D1*
X27629Y-37545D1*
X27505Y-37560D1*
X27381Y-37547D1*
X27263Y-37508D1*
X27156Y-37443D1*
X27067Y-37356D1*
X26999Y-37251D1*
X26956Y-37134D1*
X26940Y-37010D1*
X26951Y-36886D1*
X26990Y-36767D1*
X27054Y-36660D1*
X27141Y-36570D1*
X27248Y-36500D1*
X27156Y-36443D1*
X27067Y-36356D1*
X26999Y-36251D1*
X26956Y-36134D1*
X26940Y-36010D1*
X26951Y-35886D1*
X26990Y-35767D1*
X27054Y-35660D1*
X27141Y-35570D1*
X27248Y-35500D1*
X27156Y-35443D1*
X27067Y-35356D1*
X26999Y-35251D1*
X26956Y-35134D1*
X26940Y-35010D1*
X26951Y-34886D1*
X26990Y-34767D1*
X27054Y-34660D1*
X27157Y-34559D1*
X26940Y-34560D1*
Y-33440D1*
X27065D1*
X29065D2*
X30060D1*
Y-34560D1*
X29845D1*
X29927Y-34637D1*
X29996Y-34740D1*
X30042Y-34856D1*
X30060Y-35000D1*
X30046Y-35124D1*
X30005Y-35242D1*
X29939Y-35348D1*
X29852Y-35436D1*
X29750Y-35501D1*
X29836Y-35551D1*
X29927Y-35637D1*
X29996Y-35740D1*
X30042Y-35856D1*
X30060Y-36000D1*
X30046Y-36124D1*
X30005Y-36242D1*
X29939Y-36348D1*
X29852Y-36436D1*
X29750Y-36501D1*
X29836Y-36551D1*
X29927Y-36637D1*
X29996Y-36740D1*
X30042Y-36856D1*
X30060Y-37000D1*
X30046Y-37124D1*
X30005Y-37242D1*
X29939Y-37348D1*
X29852Y-37436D1*
X29746Y-37503D1*
X29629Y-37545D1*
X29505Y-37560D1*
X29381Y-37547D1*
X29263Y-37508D1*
X29156Y-37443D1*
X29067Y-37356D1*
X28999Y-37251D1*
X28956Y-37134D1*
X28940Y-37010D1*
X28951Y-36886D1*
X28990Y-36767D1*
X29054Y-36660D1*
X29141Y-36570D1*
X29248Y-36500D1*
X29156Y-36443D1*
X29067Y-36356D1*
X28999Y-36251D1*
X28956Y-36134D1*
X28940Y-36010D1*
X28951Y-35886D1*
X28990Y-35767D1*
X29054Y-35660D1*
X29141Y-35570D1*
X29248Y-35500D1*
X29156Y-35443D1*
X29067Y-35356D1*
X28999Y-35251D1*
X28956Y-35134D1*
X28940Y-35010D1*
X28951Y-34886D1*
X28990Y-34767D1*
X29054Y-34660D1*
X29157Y-34559D1*
X28940Y-34560D1*
Y-33440D1*
X29065D1*
X31065D2*
X32060D1*
Y-34560D1*
X31845D1*
X31927Y-34637D1*
X31996Y-34740D1*
X32042Y-34856D1*
X32060Y-35000D1*
X32046Y-35124D1*
X32005Y-35242D1*
X31939Y-35348D1*
X31852Y-35436D1*
X31750Y-35501D1*
X31836Y-35551D1*
X31927Y-35637D1*
X31996Y-35740D1*
X32042Y-35856D1*
X32060Y-36000D1*
X32046Y-36124D1*
X32005Y-36242D1*
X31939Y-36348D1*
X31852Y-36436D1*
X31750Y-36501D1*
X31836Y-36551D1*
X31927Y-36637D1*
X31996Y-36740D1*
X32042Y-36856D1*
X32060Y-37000D1*
X32046Y-37124D1*
X32005Y-37242D1*
X31939Y-37348D1*
X31852Y-37436D1*
X31746Y-37503D1*
X31629Y-37545D1*
X31505Y-37560D1*
X31381Y-37547D1*
X31263Y-37508D1*
X31156Y-37443D1*
X31067Y-37356D1*
X30999Y-37251D1*
X30956Y-37134D1*
X30940Y-37010D1*
X30951Y-36886D1*
X30990Y-36767D1*
X31054Y-36660D1*
X31141Y-36570D1*
X31248Y-36500D1*
X31156Y-36443D1*
X31067Y-36356D1*
X30999Y-36251D1*
X30956Y-36134D1*
X30940Y-36010D1*
X30951Y-35886D1*
X30990Y-35767D1*
X31054Y-35660D1*
X31141Y-35570D1*
X31248Y-35500D1*
X31156Y-35443D1*
X31067Y-35356D1*
X30999Y-35251D1*
X30956Y-35134D1*
X30940Y-35010D1*
X30951Y-34886D1*
X30990Y-34767D1*
X31054Y-34660D1*
X31157Y-34559D1*
X30940Y-34560D1*
Y-33440D1*
X31065D1*
X14761Y-32936D2*
X14712Y-33051D1*
X14680Y-33090D1*
X14746Y-33207D1*
X14775Y-33328D1*
X14778Y-33375D1*
X14761Y-33499D1*
X14712Y-33613D1*
X14634Y-33711D1*
X14534Y-33784D1*
X14417Y-33828D1*
X14293Y-33840D1*
X14170Y-33818D1*
X14058Y-33764D1*
X13964Y-33682D1*
X13894Y-33579D1*
X13855Y-33460D1*
X13849Y-33336D1*
X13876Y-33214D1*
X13943Y-33096D1*
X13894Y-33016D1*
X13855Y-32898D1*
X13849Y-32773D1*
X13876Y-32652D1*
X13935Y-32542D1*
X14020Y-32451D1*
X14127Y-32386D1*
X14246Y-32352D1*
X14371Y-32351D1*
X14491Y-32383D1*
X14599Y-32446D1*
X14686Y-32536D1*
X14746Y-32645D1*
X14775Y-32766D1*
X14777Y-32813D1*
X14761Y-32936D1*
X21062Y-31775D2*
X20917Y-31754D1*
X20914Y-31825D1*
X20876Y-31942D1*
X20773Y-32014D1*
X20714Y-32024D1*
X19265D1*
X19267Y-33270D1*
X20142Y-32392D1*
X20244Y-32322D1*
X20375Y-32295D1*
X21355D1*
X21358Y-32074D1*
X21059Y-31776D1*
X13886Y-33999D2*
X13837Y-34113D1*
X13805Y-34153D1*
X13871Y-34270D1*
X13900Y-34391D1*
X13903Y-34438D1*
X13886Y-34561D1*
X13837Y-34676D1*
X13759Y-34773D1*
X13659Y-34847D1*
X13542Y-34891D1*
X13418Y-34902D1*
X13295Y-34880D1*
X13183Y-34827D1*
X13089Y-34745D1*
X13019Y-34641D1*
X12980Y-34523D1*
X12974Y-34398D1*
X13001Y-34277D1*
X13068Y-34158D1*
X13019Y-34079D1*
X12980Y-33960D1*
X12974Y-33836D1*
X13001Y-33714D1*
X13060Y-33604D1*
X13145Y-33513D1*
X13252Y-33449D1*
X13371Y-33415D1*
X13496Y-33414D1*
X13616Y-33446D1*
X13724Y-33509D1*
X13811Y-33598D1*
X13871Y-33707D1*
X13900Y-33828D1*
X13903Y-33875D1*
X13886Y-33999D1*
X20562Y-28588D2*
X20420Y-28568D1*
X20308Y-28514D1*
X20214Y-28432D1*
X20144Y-28329D1*
X20105Y-28210D1*
X20099Y-28086D1*
X20126Y-27964D1*
X20185Y-27854D1*
X20270Y-27763D1*
X20377Y-27699D1*
X20496Y-27665D1*
X20563Y-27664D1*
X20583Y-27621D1*
X20686Y-27548D1*
X20745Y-27538D1*
X22299D1*
X22416Y-27576D1*
X22489Y-27679D1*
X22499Y-27738D1*
Y-28512D1*
X22461Y-28629D1*
X22358Y-28702D1*
X22299Y-28712D1*
X20745D1*
X20626Y-28671D1*
X20584Y-28628D1*
X37962Y-8811D2*
X38914D1*
X38813Y-8562D2*
X37937D1*
Y-8938D1*
X38938D1*
Y-8562D1*
X38813D1*
D30*
X7938Y-28688D3*
G36*
X6897Y-28588D2*
X7038Y-28447D1*
X7237D1*
X7378Y-28588D1*
Y-28787D1*
X7237Y-28928D1*
X7038D1*
X6897Y-28787D1*
Y-28588D1*
G37*
G36*
X15608Y-27369D2*
Y-27881D1*
X15017D1*
Y-27369D1*
X15608D1*
G37*
G36*
Y-26700D2*
Y-27212D1*
X15017D1*
Y-26700D1*
X15608D1*
G37*
G36*
X14369Y-28330D2*
X14881D1*
Y-28920D1*
X14369D1*
Y-28330D1*
G37*
G36*
X13700D2*
X14212D1*
Y-28920D1*
X13700D1*
Y-28330D1*
G37*
G36*
X21443Y-28420D2*
X20932D1*
Y-27830D1*
X21443D1*
Y-28420D1*
G37*
G36*
X22113D2*
X21601D1*
Y-27830D1*
X22113D1*
Y-28420D1*
G37*
G36*
X18506Y-27795D2*
X17994D1*
Y-27205D1*
X18506D1*
Y-27795D1*
G37*
G36*
X19175D2*
X18663D1*
Y-27205D1*
X19175D1*
Y-27795D1*
G37*
G36*
X16420Y-29307D2*
Y-29818D1*
X15830D1*
Y-29307D1*
X16420D1*
G37*
G36*
Y-28637D2*
Y-29149D1*
X15830D1*
Y-28637D1*
X16420D1*
G37*
G36*
X19859Y-31733D2*
X19347D1*
Y-31142D1*
X19859D1*
Y-31733D1*
G37*
G36*
X20528D2*
X20016D1*
Y-31142D1*
X20528D1*
Y-31733D1*
G37*
G36*
X18705Y-30234D2*
Y-29722D1*
X19295D1*
Y-30234D1*
X18705D1*
G37*
G36*
Y-30903D2*
Y-30391D1*
X19295D1*
Y-30903D1*
X18705D1*
G37*
G36*
X16141Y-32955D2*
X16653D1*
Y-33545D1*
X16141D1*
Y-32955D1*
G37*
G36*
X15472D2*
X15984D1*
Y-33545D1*
X15472D1*
Y-32955D1*
G37*
G36*
X14234Y-29920D2*
X13722D1*
Y-29330D1*
X14234D1*
Y-29920D1*
G37*
G36*
X14903D2*
X14391D1*
Y-29330D1*
X14903D1*
Y-29920D1*
G37*
G36*
X16141Y-31955D2*
X16653D1*
Y-32545D1*
X16141D1*
Y-31955D1*
G37*
G36*
X15472D2*
X15984D1*
Y-32545D1*
X15472D1*
Y-31955D1*
G37*
D30*
X5125Y-4125D3*
G36*
X5225Y-5165D2*
X5365Y-5025D1*
Y-4826D1*
X5225Y-4685D1*
X5025D1*
X4885Y-4826D1*
Y-5025D1*
X5025Y-5165D1*
X5225D1*
G37*
G36*
X9608Y-3807D2*
Y-4318D1*
X9017D1*
Y-3807D1*
X9608D1*
G37*
G36*
Y-3137D2*
Y-3649D1*
X9017D1*
Y-3137D1*
X9608D1*
G37*
D30*
X7500Y-4125D3*
G36*
X7599Y-5165D2*
X7740Y-5025D1*
Y-4826D1*
X7599Y-4685D1*
X7400D1*
X7260Y-4826D1*
Y-5025D1*
X7400Y-5165D1*
X7599D1*
G37*
G36*
X11748Y-10343D2*
X12378D1*
Y-11406D1*
X11748D1*
Y-10343D1*
G37*
G36*
X10645D2*
X11275D1*
Y-11406D1*
X10645D1*
Y-10343D1*
G37*
D31*
X14870Y-3621D3*
G36*
X18443Y-3384D2*
X18108Y-3048D1*
X17633D1*
X17298Y-3384D1*
Y-3858D1*
X17633Y-4194D1*
X18108D1*
X18443Y-3858D1*
Y-3384D1*
G37*
D31*
X21496Y-9934D3*
G36*
X21259Y-6361D2*
X20923Y-6697D1*
Y-7172D1*
X21259Y-7507D1*
X21733D1*
X22069Y-7172D1*
Y-6697D1*
X21733Y-6361D1*
X21259D1*
G37*
D32*
X33375Y-10188D3*
G36*
X33254Y-8896D2*
X33084Y-9067D1*
Y-9308D1*
X33254Y-9479D1*
X33496D1*
X33666Y-9308D1*
Y-9067D1*
X33496Y-8896D1*
X33254D1*
G37*
G36*
X5455Y-7943D2*
Y-7432D1*
X6045D1*
Y-7943D1*
X5455D1*
G37*
G36*
Y-8613D2*
Y-8101D1*
X6045D1*
Y-8613D1*
X5455D1*
G37*
G36*
X10415Y-7365D2*
Y-7877D1*
X9825D1*
Y-7365D1*
X10415D1*
G37*
G36*
Y-6696D2*
Y-7208D1*
X9825D1*
Y-6696D1*
X10415D1*
G37*
G36*
X9045Y-11307D2*
Y-11818D1*
X8455D1*
Y-11307D1*
X9045D1*
G37*
G36*
Y-10637D2*
Y-11149D1*
X8455D1*
Y-10637D1*
X9045D1*
G37*
G36*
X12358Y-6744D2*
Y-7256D1*
X11767D1*
Y-6744D1*
X12358D1*
G37*
G36*
Y-6075D2*
Y-6587D1*
X11767D1*
Y-6075D1*
X12358D1*
G37*
G36*
X31380Y-1854D2*
X31217Y-1691D1*
X30988D1*
X30825Y-1854D1*
Y-2083D1*
X30988Y-2246D1*
X31217D1*
X31380Y-2083D1*
Y-1854D1*
G37*
G36*
X35380D2*
X35217Y-1691D1*
X34988D1*
X34825Y-1854D1*
Y-2083D1*
X34988Y-2246D1*
X35217D1*
X35380Y-2083D1*
Y-1854D1*
G37*
G36*
X33031Y-12940D2*
Y-12310D1*
X34094D1*
Y-12940D1*
X33031D1*
G37*
G36*
Y-14042D2*
Y-13412D1*
X34094D1*
Y-14042D1*
X33031D1*
G37*
D31*
X21559Y-13622D3*
G36*
X21796Y-17195D2*
X22131Y-16859D1*
Y-16385D1*
X21796Y-16049D1*
X21321D1*
X20986Y-16385D1*
Y-16859D1*
X21321Y-17195D1*
X21796D1*
G37*
G36*
X27027Y-5823D2*
X26865Y-5660D1*
X26635D1*
X26473Y-5823D1*
Y-6052D1*
X26635Y-6215D1*
X26865D1*
X27027Y-6052D1*
Y-5823D1*
G37*
G36*
X31027D2*
X30865Y-5660D1*
X30635D1*
X30473Y-5823D1*
Y-6052D1*
X30635Y-6215D1*
X30865D1*
X31027Y-6052D1*
Y-5823D1*
G37*
G36*
X14795Y-10994D2*
Y-11506D1*
X14205D1*
Y-10994D1*
X14795D1*
G37*
G36*
Y-10325D2*
Y-10837D1*
X14205D1*
Y-10325D1*
X14795D1*
G37*
G36*
X17031Y-10248D2*
Y-10878D1*
X15969D1*
Y-10248D1*
X17031D1*
G37*
G36*
Y-9145D2*
Y-9775D1*
X15969D1*
Y-9145D1*
X17031D1*
G37*
G36*
X11670Y-17369D2*
Y-17881D1*
X11080D1*
Y-17369D1*
X11670D1*
G37*
G36*
Y-16700D2*
Y-17212D1*
X11080D1*
Y-16700D1*
X11670D1*
G37*
G36*
X14795Y-12681D2*
Y-13193D1*
X14205D1*
Y-12681D1*
X14795D1*
G37*
G36*
Y-12012D2*
Y-12524D1*
X14205D1*
Y-12012D1*
X14795D1*
G37*
G36*
X30535Y-17802D2*
X30698Y-17965D1*
X30927D1*
X31090Y-17802D1*
Y-17573D1*
X30927Y-17410D1*
X30698D1*
X30535Y-17573D1*
Y-17802D1*
G37*
G36*
X26535D2*
X26698Y-17965D1*
X26927D1*
X27090Y-17802D1*
Y-17573D1*
X26927Y-17410D1*
X26698D1*
X26535Y-17573D1*
Y-17802D1*
G37*
G36*
X10330Y-15131D2*
Y-14619D1*
X10920D1*
Y-15131D1*
X10330D1*
G37*
G36*
Y-15800D2*
Y-15288D1*
X10920D1*
Y-15800D1*
X10330D1*
G37*
G36*
X17031Y-14100D2*
Y-14730D1*
X15969D1*
Y-14100D1*
X17031D1*
G37*
G36*
Y-12998D2*
Y-13628D1*
X15969D1*
Y-12998D1*
X17031D1*
G37*
G36*
X12330Y-17131D2*
Y-16619D1*
X12920D1*
Y-17131D1*
X12330D1*
G37*
G36*
Y-17800D2*
Y-17288D1*
X12920D1*
Y-17800D1*
X12330D1*
G37*
G36*
X34825Y-22162D2*
X34988Y-22324D1*
X35217D1*
X35380Y-22162D1*
Y-21932D1*
X35217Y-21770D1*
X34988D1*
X34825Y-21932D1*
Y-22162D1*
G37*
G36*
X30825D2*
X30988Y-22324D1*
X31217D1*
X31380Y-22162D1*
Y-21932D1*
X31217Y-21770D1*
X30988D1*
X30825Y-21932D1*
Y-22162D1*
G37*
D31*
X14870Y-19810D3*
G36*
X18443Y-19573D2*
X18108Y-19237D1*
X17633D1*
X17298Y-19573D1*
Y-20047D1*
X17633Y-20383D1*
X18108D1*
X18443Y-20047D1*
Y-19573D1*
G37*
G36*
X11748Y-12781D2*
X12378D1*
Y-13844D1*
X11748D1*
Y-12781D1*
G37*
G36*
X10645D2*
X11275D1*
Y-13844D1*
X10645D1*
Y-12781D1*
G37*
G36*
X2557Y-5830D2*
X3068D1*
Y-6420D1*
X2557D1*
Y-5830D1*
G37*
G36*
X1887D2*
X2399D1*
Y-6420D1*
X1887D1*
Y-5830D1*
G37*
D34*
X7375Y-25687D3*
D35*
X6375D3*
D34*
X11500Y-2125D3*
D35*
Y-1125D3*
D34*
X11688Y-22188D3*
D35*
X10688D3*
D36*
X14500Y-38500D3*
D37*
X15500D3*
X16500D3*
D36*
X9000Y-18500D3*
D37*
X8000D3*
X7000D3*
D36*
X9000Y-19500D3*
D37*
X8000D3*
X7000D3*
D36*
X9000Y-20500D3*
D37*
X8000D3*
X7000D3*
D36*
X10500Y-25875D3*
D37*
Y-26875D3*
G36*
X20817Y-2629D2*
X20926Y-2610D1*
X21023Y-2554D1*
X21095Y-2469D1*
X21133Y-2364D1*
Y-2253D1*
X21095Y-2148D1*
X21023Y-2063D1*
X20927Y-2007D1*
X20817Y-1987D1*
X20175D1*
X20066Y-2007D1*
X19969Y-2062D1*
X19897Y-2148D1*
X19859Y-2252D1*
Y-2364D1*
X19897Y-2469D1*
X19969Y-2554D1*
X20065Y-2610D1*
X20175Y-2629D1*
X20817D1*
G37*
G36*
X26147D2*
X26257Y-2610D1*
X26354Y-2554D1*
X26425Y-2469D1*
X26464Y-2364D1*
Y-2253D1*
X26426Y-2148D1*
X26354Y-2063D1*
X26258Y-2007D1*
X26148Y-1987D1*
X25506D1*
X25396Y-2007D1*
X25300Y-2062D1*
X25228Y-2148D1*
X25190Y-2252D1*
Y-2364D1*
X25228Y-2469D1*
X25299Y-2554D1*
X25396Y-2610D1*
X25506Y-2629D1*
X26147D1*
G37*
G36*
X26446Y-10008D2*
X26555Y-9989D1*
X26652Y-9933D1*
X26724Y-9848D1*
X26762Y-9743D1*
Y-9632D1*
X26724Y-9527D1*
X26652Y-9442D1*
X26556Y-9386D1*
X26446Y-9367D1*
X25804D1*
X25695Y-9386D1*
X25598Y-9442D1*
X25526Y-9527D1*
X25488Y-9631D1*
Y-9743D1*
X25526Y-9848D1*
X25598Y-9933D1*
X25694Y-9989D1*
X25804Y-10008D1*
X26446D1*
G37*
G36*
X31776D2*
X31886Y-9989D1*
X31983Y-9933D1*
X32054Y-9848D1*
X32093Y-9743D1*
Y-9632D1*
X32055Y-9527D1*
X31983Y-9442D1*
X31887Y-9386D1*
X31777Y-9367D1*
X31135D1*
X31025Y-9386D1*
X30929Y-9442D1*
X30857Y-9527D1*
X30819Y-9631D1*
Y-9743D1*
X30857Y-9848D1*
X30928Y-9933D1*
X31025Y-9989D1*
X31135Y-10008D1*
X31776D1*
G37*
G36*
X26446Y-14258D2*
X26555Y-14239D1*
X26652Y-14183D1*
X26724Y-14098D1*
X26762Y-13993D1*
Y-13882D1*
X26724Y-13777D1*
X26652Y-13692D1*
X26556Y-13636D1*
X26446Y-13617D1*
X25804D1*
X25695Y-13636D1*
X25598Y-13692D1*
X25526Y-13777D1*
X25488Y-13881D1*
Y-13993D1*
X25526Y-14098D1*
X25598Y-14183D1*
X25694Y-14239D1*
X25804Y-14258D1*
X26446D1*
G37*
G36*
X31776D2*
X31886Y-14239D1*
X31983Y-14183D1*
X32054Y-14098D1*
X32093Y-13993D1*
Y-13882D1*
X32055Y-13777D1*
X31983Y-13692D1*
X31887Y-13636D1*
X31777Y-13617D1*
X31135D1*
X31025Y-13636D1*
X30929Y-13692D1*
X30857Y-13777D1*
X30819Y-13881D1*
Y-13993D1*
X30857Y-14098D1*
X30928Y-14183D1*
X31025Y-14239D1*
X31135Y-14258D1*
X31776D1*
G37*
G36*
X20696Y-21758D2*
X20805Y-21739D1*
X20902Y-21683D1*
X20974Y-21598D1*
X21012Y-21493D1*
Y-21382D1*
X20974Y-21277D1*
X20902Y-21192D1*
X20806Y-21136D1*
X20696Y-21117D1*
X20054D1*
X19945Y-21136D1*
X19848Y-21192D1*
X19776Y-21277D1*
X19738Y-21381D1*
Y-21493D1*
X19776Y-21598D1*
X19848Y-21683D1*
X19944Y-21739D1*
X20054Y-21758D1*
X20696D1*
G37*
G36*
X26026D2*
X26136Y-21739D1*
X26233Y-21683D1*
X26304Y-21598D1*
X26343Y-21493D1*
Y-21382D1*
X26305Y-21277D1*
X26233Y-21192D1*
X26137Y-21136D1*
X26027Y-21117D1*
X25385D1*
X25275Y-21136D1*
X25179Y-21192D1*
X25107Y-21277D1*
X25069Y-21381D1*
Y-21493D1*
X25107Y-21598D1*
X25178Y-21683D1*
X25275Y-21739D1*
X25385Y-21758D1*
X26026D1*
G37*
D38*
X28740Y-22835D3*
X11220Y-19882D3*
X28740Y-1181D3*
X1181D3*
Y-22835D3*
X11220Y-4134D3*
G36*
X9568Y-2190D2*
X9057D1*
Y-1560D1*
X9568D1*
Y-2190D1*
G37*
G36*
X10316D2*
X9805D1*
Y-1560D1*
X10316D1*
Y-2190D1*
G37*
G36*
X12560Y-22131D2*
Y-21619D1*
X13190D1*
Y-22131D1*
X12560D1*
G37*
G36*
Y-22879D2*
Y-22367D1*
X13190D1*
Y-22879D1*
X12560D1*
G37*
G36*
X11378Y-7369D2*
Y-7881D1*
X10748D1*
Y-7369D1*
X11378D1*
G37*
G36*
Y-6621D2*
Y-7133D1*
X10748D1*
Y-6621D1*
X11378D1*
G37*
G36*
X7627Y-8119D2*
Y-8631D1*
X6998D1*
Y-8119D1*
X7627D1*
G37*
G36*
Y-7371D2*
Y-7883D1*
X6998D1*
Y-7371D1*
X7627D1*
G37*
G36*
X3818Y-9127D2*
X3307D1*
Y-8498D1*
X3818D1*
Y-9127D1*
G37*
G36*
X4566D2*
X4055D1*
Y-8498D1*
X4566D1*
Y-9127D1*
G37*
G36*
X3818Y-10065D2*
X3307D1*
Y-9435D1*
X3818D1*
Y-10065D1*
G37*
G36*
X4566D2*
X4055D1*
Y-9435D1*
X4566D1*
Y-10065D1*
G37*
G36*
X3818Y-11002D2*
X3307D1*
Y-10373D1*
X3818D1*
Y-11002D1*
G37*
G36*
X4566D2*
X4055D1*
Y-10373D1*
X4566D1*
Y-11002D1*
G37*
G36*
X3818Y-11940D2*
X3307D1*
Y-11310D1*
X3818D1*
Y-11940D1*
G37*
G36*
X4566D2*
X4055D1*
Y-11310D1*
X4566D1*
Y-11940D1*
G37*
G36*
X9869Y-16310D2*
X10381D1*
Y-16940D1*
X9869D1*
Y-16310D1*
G37*
G36*
X9121D2*
X9633D1*
Y-16940D1*
X9121D1*
Y-16310D1*
G37*
G36*
X9690Y-15369D2*
Y-15881D1*
X9060D1*
Y-15369D1*
X9690D1*
G37*
G36*
Y-14621D2*
Y-15133D1*
X9060D1*
Y-14621D1*
X9690D1*
G37*
D44*
X5438Y-1438D3*
D45*
X6438D3*
X7438D3*
D47*
X4437Y-25687D3*
D48*
X3437D3*
D36*
X20000Y-25500D3*
D37*
X19000D3*
D36*
X21500D3*
D37*
Y-26500D3*
D36*
X17500Y-25500D3*
D37*
X16500D3*
D36*
X23500D3*
D37*
Y-26500D3*
D36*
X25500Y-25500D3*
D37*
Y-26500D3*
D36*
X27500Y-25500D3*
D37*
Y-26500D3*
D36*
X29500Y-25500D3*
D37*
Y-26500D3*
D36*
X31500Y-25500D3*
D37*
Y-26500D3*
D36*
X11000Y-34250D3*
D37*
X12000D3*
X11000Y-35250D3*
X12000D3*
X11000Y-36250D3*
X12000D3*
X11000Y-37250D3*
X12000D3*
D36*
X33500Y-25500D3*
D37*
Y-26500D3*
D36*
X22500Y-32000D3*
D37*
X23500D3*
X24500D3*
X25500D3*
X26500D3*
D36*
X35500Y-25500D3*
D37*
Y-26500D3*
D36*
X28500Y-32000D3*
D37*
X29500D3*
D36*
X25500Y-34000D3*
D37*
Y-35000D3*
Y-36000D3*
Y-37000D3*
Y-38000D3*
D36*
X22500Y-34500D3*
D37*
Y-35500D3*
X21500Y-34500D3*
Y-35500D3*
X20500Y-34500D3*
Y-35500D3*
X19500Y-34500D3*
Y-35500D3*
X18500Y-34500D3*
Y-35500D3*
X17500Y-34500D3*
Y-35500D3*
D36*
X27500Y-34000D3*
D37*
Y-35000D3*
Y-36000D3*
Y-37000D3*
Y-38000D3*
D36*
X22500Y-38500D3*
D37*
X21500D3*
X20500D3*
X19500D3*
X18500D3*
D36*
X22500Y-37000D3*
D37*
X21500D3*
X20500D3*
X19500D3*
X18500D3*
D36*
X29500Y-34000D3*
D37*
Y-35000D3*
Y-36000D3*
Y-37000D3*
Y-38000D3*
D36*
X31500Y-34000D3*
D37*
Y-35000D3*
Y-36000D3*
Y-37000D3*
Y-38000D3*
D47*
X2813Y-4187D3*
D48*
X1813D3*
D49*
X37000Y-10000D3*
D50*
Y-11559D3*
Y-13118D3*
Y-14677D3*
D36*
X3000Y-19000D3*
D37*
X4000D3*
D36*
X3000Y-20000D3*
D37*
X4000D3*
G36*
X1921Y-9024D2*
X2083Y-8861D1*
Y-8632D1*
X1921Y-8469D1*
X1691D1*
X1529Y-8632D1*
Y-8861D1*
X1691Y-9024D1*
X1921D1*
G37*
G36*
X921D2*
X1083Y-8861D1*
Y-8632D1*
X921Y-8469D1*
X691D1*
X529Y-8632D1*
Y-8861D1*
X691Y-9024D1*
X921D1*
G37*
G36*
X1921Y-10024D2*
X2083Y-9861D1*
Y-9632D1*
X1921Y-9469D1*
X1691D1*
X1529Y-9632D1*
Y-9861D1*
X1691Y-10024D1*
X1921D1*
G37*
G36*
X921D2*
X1083Y-9861D1*
Y-9632D1*
X921Y-9469D1*
X691D1*
X529Y-9632D1*
Y-9861D1*
X691Y-10024D1*
X921D1*
G37*
G36*
X1921Y-11024D2*
X2083Y-10861D1*
Y-10632D1*
X1921Y-10469D1*
X1691D1*
X1529Y-10632D1*
Y-10861D1*
X1691Y-11024D1*
X1921D1*
G37*
G36*
X921D2*
X1083Y-10861D1*
Y-10632D1*
X921Y-10469D1*
X691D1*
X529Y-10632D1*
Y-10861D1*
X691Y-11024D1*
X921D1*
G37*
G36*
X1921Y-12024D2*
X2083Y-11861D1*
Y-11632D1*
X1921Y-11469D1*
X1691D1*
X1529Y-11632D1*
Y-11861D1*
X1691Y-12024D1*
X1921D1*
G37*
G36*
X921D2*
X1083Y-11861D1*
Y-11632D1*
X921Y-11469D1*
X691D1*
X529Y-11632D1*
Y-11861D1*
X691Y-12024D1*
X921D1*
G37*
G36*
X2754Y-16658D2*
X2592Y-16820D1*
Y-17050D1*
X2754Y-17212D1*
X2984D1*
X3146Y-17050D1*
Y-16820D1*
X2984Y-16658D1*
X2754D1*
G37*
G36*
X3754D2*
X3592Y-16820D1*
Y-17050D1*
X3754Y-17212D1*
X3984D1*
X4146Y-17050D1*
Y-16820D1*
X3984Y-16658D1*
X3754D1*
G37*
G36*
X2754Y-15658D2*
X2592Y-15820D1*
Y-16050D1*
X2754Y-16212D1*
X2984D1*
X3146Y-16050D1*
Y-15820D1*
X2984Y-15658D1*
X2754D1*
G37*
G36*
X3754D2*
X3592Y-15820D1*
Y-16050D1*
X3754Y-16212D1*
X3984D1*
X4146Y-16050D1*
Y-15820D1*
X3984Y-15658D1*
X3754D1*
G37*
G36*
X2754Y-14658D2*
X2592Y-14820D1*
Y-15050D1*
X2754Y-15212D1*
X2984D1*
X3146Y-15050D1*
Y-14820D1*
X2984Y-14658D1*
X2754D1*
G37*
G36*
X3754D2*
X3592Y-14820D1*
Y-15050D1*
X3754Y-15212D1*
X3984D1*
X4146Y-15050D1*
Y-14820D1*
X3984Y-14658D1*
X3754D1*
G37*
G36*
X2754Y-13658D2*
X2592Y-13820D1*
Y-14050D1*
X2754Y-14212D1*
X2984D1*
X3146Y-14050D1*
Y-13820D1*
X2984Y-13658D1*
X2754D1*
G37*
G36*
X3754D2*
X3592Y-13820D1*
Y-14050D1*
X3754Y-14212D1*
X3984D1*
X4146Y-14050D1*
Y-13820D1*
X3984Y-13658D1*
X3754D1*
G37*
D49*
X37000Y-5000D3*
D50*
Y-6559D3*
D49*
Y-17500D3*
D50*
Y-19059D3*
M02*
