G04 DipTrace 2.3.1.0*
%INamp_tas5631.gto*%
%MOIN*%
%ADD10C,0.0098*%
%ADD12C,0.003*%
%ADD14C,0.013*%
%ADD24C,0.0236*%
%ADD29C,0.006*%
%ADD40C,0.0154*%
%ADD46C,0.0313*%
%ADD98C,0.0062*%
%ADD99C,0.0077*%
%ADD101C,0.0093*%
%FSLAX44Y44*%
G04*
G70*
G90*
G75*
G01*
%LNTopSilk*%
%LPD*%
X6538Y-28688D2*
G02X6538Y-28688I1000J0D01*
G01*
X8038Y-29388D2*
D29*
X7838D1*
X7938Y-29288D2*
Y-29488D1*
X6166Y-26396D2*
D10*
Y-24979D1*
Y-26396D2*
G03X6192Y-24935I525J721D01*
G01*
X14000Y-39000D2*
Y-38000D1*
X17000D1*
Y-39000D2*
Y-38000D1*
X14000Y-39000D2*
X17000D1*
X10000Y-27375D2*
X11000D1*
X10000Y-25375D2*
Y-27375D1*
Y-25375D2*
X11000D1*
Y-27375D1*
D24*
X9293Y-32454D3*
X9411Y-30289D2*
D10*
X11931D1*
X9411D2*
Y-32336D1*
X11931D1*
Y-30289D2*
Y-32336D1*
D40*
X3144Y-28146D3*
X3092Y-28687D2*
D10*
X1910D1*
X3092Y-29002D2*
X1910D1*
Y-28687D2*
Y-29002D1*
X3092Y-28687D2*
Y-29002D1*
X17222Y-32565D2*
D29*
X19382D1*
Y-27005D2*
X18422D1*
X18182D1*
X17222D1*
X18422D2*
G02X18182Y-27005I-120J0D01*
G01*
X8563Y-9173D2*
D10*
X14062D1*
Y-14672D1*
X8563D1*
Y-9173D1*
X8313Y-9048D2*
G02X8313Y-9048I125J0D01*
G01*
X4906Y-24467D2*
X2965D1*
Y-26967D1*
X4906D1*
Y-24467D1*
X4875Y-26500D2*
X3000D1*
D46*
X5219Y-25219D3*
X18500Y-25000D2*
D10*
Y-26000D1*
X20500Y-25000D2*
X18500D1*
X20500D2*
Y-26000D1*
X18500D1*
X21000Y-27000D2*
X22000D1*
X21000Y-25000D2*
Y-27000D1*
Y-25000D2*
X22000D1*
Y-27000D1*
X16000Y-25000D2*
Y-26000D1*
X18000Y-25000D2*
X16000D1*
X18000D2*
Y-26000D1*
X16000D1*
X23000Y-27000D2*
X24000D1*
X23000Y-25000D2*
Y-27000D1*
Y-25000D2*
X24000D1*
Y-27000D1*
X25000D2*
X26000D1*
X25000Y-25000D2*
Y-27000D1*
Y-25000D2*
X26000D1*
Y-27000D1*
X27000D2*
X28000D1*
X27000Y-25000D2*
Y-27000D1*
Y-25000D2*
X28000D1*
Y-27000D1*
X29000D2*
X30000D1*
X29000Y-25000D2*
Y-27000D1*
Y-25000D2*
X30000D1*
Y-27000D1*
X31000D2*
X32000D1*
X31000Y-25000D2*
Y-27000D1*
Y-25000D2*
X32000D1*
Y-27000D1*
X10500Y-33750D2*
Y-37750D1*
X12500Y-33750D2*
Y-37750D1*
X10500Y-33750D2*
X12500D1*
X10500Y-37750D2*
X12500D1*
X33000Y-27000D2*
X34000D1*
X33000Y-25000D2*
Y-27000D1*
Y-25000D2*
X34000D1*
Y-27000D1*
X27000Y-32500D2*
Y-31500D1*
X22000Y-32500D2*
X27000D1*
X22000Y-31500D2*
X27000D1*
X22000Y-32500D2*
Y-31500D1*
X35000Y-27000D2*
X36000D1*
X35000Y-25000D2*
Y-27000D1*
Y-25000D2*
X36000D1*
Y-27000D1*
X30000Y-32500D2*
Y-31500D1*
X28000Y-32500D2*
X30000D1*
X28000D2*
Y-31500D1*
X30000D1*
X25000Y-38500D2*
X26000D1*
X25000Y-33500D2*
Y-38500D1*
X26000Y-33500D2*
Y-38500D1*
X25000Y-33500D2*
X26000D1*
X23000Y-34000D2*
X17000D1*
Y-36000D1*
X23000D2*
X17000D1*
X23000Y-34000D2*
Y-36000D1*
X27000Y-38500D2*
X28000D1*
X27000Y-33500D2*
Y-38500D1*
X28000Y-33500D2*
Y-38500D1*
X27000Y-33500D2*
X28000D1*
X18000Y-38000D2*
Y-39000D1*
X23000Y-38000D2*
X18000D1*
X23000Y-39000D2*
X18000D1*
X23000Y-38000D2*
Y-39000D1*
X18000Y-36500D2*
Y-37500D1*
X23000Y-36500D2*
X18000D1*
X23000Y-37500D2*
X18000D1*
X23000Y-36500D2*
Y-37500D1*
X29000Y-38500D2*
X30000D1*
X29000Y-33500D2*
Y-38500D1*
X30000Y-33500D2*
Y-38500D1*
X29000Y-33500D2*
X30000D1*
X31000Y-38500D2*
X32000D1*
X31000Y-33500D2*
Y-38500D1*
X32000Y-33500D2*
Y-38500D1*
X31000Y-33500D2*
X32000D1*
D40*
X14044Y-30041D3*
X0Y-24016D2*
D14*
X39370D1*
X33500Y-32563D2*
D10*
X34681D1*
Y-33350D1*
X33500D1*
Y-32563D1*
Y-33350D2*
X34681D1*
Y-34137D1*
X33500D1*
Y-33350D1*
Y-34137D2*
X34681D1*
Y-34925D1*
X33500D1*
Y-34137D1*
Y-34925D2*
X34681D1*
Y-35712D1*
X33500D1*
Y-34925D1*
Y-35712D2*
X34681D1*
Y-36500D1*
X33500D1*
Y-35712D1*
X34681Y-32563D2*
X37831D1*
Y-33350D1*
X34681D1*
Y-32563D1*
Y-33350D2*
X37831D1*
Y-34137D1*
X34681D1*
Y-33350D1*
Y-34137D2*
X37831D1*
Y-34925D1*
X34681D1*
Y-34137D1*
Y-34925D2*
X37831D1*
Y-35712D1*
X34681D1*
Y-34925D1*
Y-35712D2*
X37831D1*
Y-36500D1*
X34681D1*
Y-35712D1*
X2875Y-32375D2*
X4056D1*
Y-33162D1*
X2875D1*
Y-32375D1*
Y-33162D2*
X4056D1*
Y-33950D1*
X2875D1*
Y-33162D1*
Y-33950D2*
X4056D1*
Y-34737D1*
X2875D1*
Y-33950D1*
Y-34737D2*
X4056D1*
Y-35525D1*
X2875D1*
Y-34737D1*
Y-35525D2*
X4056D1*
Y-36312D1*
X2875D1*
Y-35525D1*
Y-36312D2*
X4056D1*
Y-37099D1*
X2875D1*
Y-36312D1*
Y-37099D2*
X4056D1*
Y-37887D1*
X2875D1*
Y-37099D1*
Y-37887D2*
X4056D1*
Y-38674D1*
X2875D1*
Y-37887D1*
X4056Y-32375D2*
X8781D1*
Y-33162D1*
X4056D1*
Y-32375D1*
Y-33162D2*
X8781D1*
Y-33950D1*
X4056D1*
Y-33162D1*
Y-33950D2*
X8781D1*
Y-34737D1*
X4056D1*
Y-33950D1*
Y-34737D2*
X8781D1*
Y-35525D1*
X4056D1*
Y-34737D1*
Y-35525D2*
X8781D1*
Y-36312D1*
X4056D1*
Y-35525D1*
Y-36312D2*
X8781D1*
Y-37099D1*
X4056D1*
Y-36312D1*
Y-37099D2*
X8781D1*
Y-37887D1*
X4056D1*
Y-37099D1*
Y-37887D2*
X8781D1*
Y-38674D1*
X4056D1*
Y-37887D1*
X33813Y-29500D2*
X36175D1*
Y-30287D1*
X33813D1*
Y-29500D1*
Y-30287D2*
X36175D1*
Y-31075D1*
X33813D1*
Y-30287D1*
X36175Y-29500D2*
X38537D1*
Y-30287D1*
X36175D1*
Y-29500D1*
Y-30287D2*
X38537D1*
Y-31075D1*
X36175D1*
Y-30287D1*
X29916Y-15599D2*
D12*
X30006D1*
X30649D2*
X30709D1*
X31592D2*
X31681D1*
X35197D2*
X35257D1*
X36080D2*
X36169D1*
X28540Y-15614D2*
X28899D1*
X29422D2*
X29482D1*
X29882D2*
X30042D1*
X30642D2*
X30709D1*
X31584D2*
X31689D1*
X35190D2*
X35257D1*
X36044D2*
X36206D1*
X28537Y-15629D2*
X28899D1*
X29408D2*
X29482D1*
X29854D2*
X30074D1*
X30633D2*
X30709D1*
X31578D2*
X31695D1*
X35181D2*
X35257D1*
X36012D2*
X36237D1*
X28534Y-15644D2*
X28899D1*
X29395D2*
X29482D1*
X29832D2*
X30100D1*
X30624D2*
X30709D1*
X31572D2*
X31701D1*
X35172D2*
X35257D1*
X35986D2*
X36263D1*
X28530Y-15659D2*
X28899D1*
X29383D2*
X29482D1*
X29814D2*
X30120D1*
X30613D2*
X30709D1*
X31565D2*
X31708D1*
X35161D2*
X35257D1*
X35967D2*
X36282D1*
X28527Y-15674D2*
X28899D1*
X29372D2*
X29482D1*
X29798D2*
X30136D1*
X30601D2*
X30709D1*
X31558D2*
X31715D1*
X35149D2*
X35257D1*
X35954D2*
X36296D1*
X28525Y-15689D2*
X28899D1*
X29361D2*
X29482D1*
X29784D2*
X30148D1*
X30587D2*
X30709D1*
X31552D2*
X31721D1*
X35135D2*
X35257D1*
X35943D2*
X36306D1*
X28523Y-15704D2*
X28899D1*
X29349D2*
X29482D1*
X29773D2*
X29904D1*
X30036D2*
X30157D1*
X30571D2*
X30709D1*
X31547D2*
X31619D1*
X31654D2*
X31726D1*
X35119D2*
X35257D1*
X35935D2*
X36068D1*
X36181D2*
X36315D1*
X28519Y-15719D2*
X28599D1*
X29338D2*
X29482D1*
X29764D2*
X29883D1*
X30051D2*
X30164D1*
X30552D2*
X30709D1*
X31541D2*
X31615D1*
X31657D2*
X31732D1*
X35100D2*
X35257D1*
X35927D2*
X36044D1*
X36205D2*
X36323D1*
X28515Y-15734D2*
X28599D1*
X29327D2*
X29482D1*
X29758D2*
X29866D1*
X30065D2*
X30170D1*
X30532D2*
X30709D1*
X31535D2*
X31611D1*
X31662D2*
X31738D1*
X35080D2*
X35257D1*
X35919D2*
X36025D1*
X36223D2*
X36330D1*
X28512Y-15749D2*
X28599D1*
X29316D2*
X29482D1*
X29752D2*
X29853D1*
X30077D2*
X30175D1*
X30510D2*
X30709D1*
X31528D2*
X31606D1*
X31666D2*
X31745D1*
X35058D2*
X35257D1*
X35912D2*
X36010D1*
X36236D2*
X36337D1*
X28508Y-15764D2*
X28597D1*
X29304D2*
X29482D1*
X29746D2*
X29842D1*
X30086D2*
X30180D1*
X30488D2*
X30709D1*
X31522D2*
X31601D1*
X31672D2*
X31751D1*
X35036D2*
X35257D1*
X35906D2*
X35999D1*
X36246D2*
X36343D1*
X28504Y-15779D2*
X28593D1*
X29293D2*
X29482D1*
X29741D2*
X29835D1*
X30091D2*
X30183D1*
X30467D2*
X30589D1*
X30619D2*
X30709D1*
X31517D2*
X31595D1*
X31678D2*
X31756D1*
X35015D2*
X35137D1*
X35167D2*
X35257D1*
X35901D2*
X35992D1*
X36255D2*
X36347D1*
X28500Y-15794D2*
X28589D1*
X29282D2*
X29482D1*
X29736D2*
X29830D1*
X30094D2*
X30184D1*
X30449D2*
X30574D1*
X30619D2*
X30709D1*
X31511D2*
X31588D1*
X31685D2*
X31762D1*
X34997D2*
X35122D1*
X35167D2*
X35257D1*
X35895D2*
X35986D1*
X36262D2*
X36350D1*
X28497Y-15809D2*
X28587D1*
X29271D2*
X29482D1*
X29796D2*
X29826D1*
X30095D2*
X30184D1*
X30435D2*
X30556D1*
X30619D2*
X30709D1*
X31505D2*
X31582D1*
X31691D2*
X31768D1*
X32340D2*
X32414D1*
X32684D2*
X32773D1*
X33297D2*
X33387D1*
X34983D2*
X35104D1*
X35167D2*
X35257D1*
X35891D2*
X35981D1*
X36268D2*
X36355D1*
X28495Y-15824D2*
X28585D1*
X29259D2*
X29359D1*
X29392D2*
X29482D1*
X30095D2*
X30183D1*
X30429D2*
X30535D1*
X30619D2*
X30709D1*
X31498D2*
X31577D1*
X31696D2*
X31775D1*
X32100D2*
X32190D1*
X32309D2*
X32443D1*
X32657D2*
X32807D1*
X33073D2*
X33162D1*
X33270D2*
X33421D1*
X33970D2*
X34060D1*
X34419D2*
X34509D1*
X34978D2*
X35083D1*
X35167D2*
X35257D1*
X35888D2*
X35977D1*
X36272D2*
X36359D1*
X28493Y-15839D2*
X28584D1*
X29248D2*
X29353D1*
X29392D2*
X29482D1*
X30092D2*
X30179D1*
X30427D2*
X30510D1*
X30619D2*
X30709D1*
X31492D2*
X31572D1*
X31702D2*
X31780D1*
X32100D2*
X32190D1*
X32282D2*
X32467D1*
X32633D2*
X32835D1*
X33073D2*
X33162D1*
X33247D2*
X33449D1*
X33978D2*
X34068D1*
X34412D2*
X34501D1*
X34975D2*
X35058D1*
X35167D2*
X35257D1*
X35886D2*
X35974D1*
X36275D2*
X36362D1*
X28489Y-15854D2*
X28582D1*
X29238D2*
X29343D1*
X29392D2*
X29482D1*
X30088D2*
X30173D1*
X30425D2*
X30483D1*
X30619D2*
X30709D1*
X31487D2*
X31567D1*
X31708D2*
X31786D1*
X32100D2*
X32190D1*
X32260D2*
X32485D1*
X32613D2*
X32855D1*
X33073D2*
X33162D1*
X33229D2*
X33471D1*
X33984D2*
X34074D1*
X34405D2*
X34495D1*
X34973D2*
X35031D1*
X35167D2*
X35257D1*
X35885D2*
X35969D1*
X36280D2*
X36363D1*
X28485Y-15869D2*
X28578D1*
X29225D2*
X29331D1*
X29392D2*
X29482D1*
X30075D2*
X30166D1*
X30425D2*
X30455D1*
X30619D2*
X30709D1*
X31481D2*
X31562D1*
X31715D2*
X31791D1*
X32100D2*
X32191D1*
X32244D2*
X32501D1*
X32594D2*
X32869D1*
X33073D2*
X33163D1*
X33214D2*
X33489D1*
X33990D2*
X34080D1*
X34399D2*
X34489D1*
X34973D2*
X35002D1*
X35167D2*
X35257D1*
X35883D2*
X35965D1*
X36284D2*
X36366D1*
X28482Y-15884D2*
X28575D1*
X28689D2*
X28764D1*
X29212D2*
X29319D1*
X29392D2*
X29482D1*
X30057D2*
X30158D1*
X30619D2*
X30709D1*
X31475D2*
X31556D1*
X31721D2*
X31798D1*
X32100D2*
X32193D1*
X32228D2*
X32515D1*
X32574D2*
X32879D1*
X33073D2*
X33165D1*
X33200D2*
X33505D1*
X33995D2*
X34087D1*
X34392D2*
X34484D1*
X34973D2*
D3*
X35167D2*
X35257D1*
X35879D2*
X35963D1*
X36287D2*
X36370D1*
X28480Y-15899D2*
X28573D1*
X28655D2*
X28798D1*
X29200D2*
X29308D1*
X29392D2*
X29482D1*
X30028D2*
X30148D1*
X30619D2*
X30709D1*
X31468D2*
X31550D1*
X31726D2*
X31804D1*
X32100D2*
X32198D1*
X32210D2*
X32531D1*
X32548D2*
X32887D1*
X33073D2*
X33170D1*
X33182D2*
X33519D1*
X34000D2*
X34093D1*
X34386D2*
X34479D1*
X35167D2*
X35257D1*
X35875D2*
X35961D1*
X36288D2*
X36374D1*
X28478Y-15914D2*
X28572D1*
X28624D2*
X28826D1*
X29189D2*
X29297D1*
X29392D2*
X29482D1*
X29994D2*
X30135D1*
X30619D2*
X30709D1*
X31462D2*
X31543D1*
X31731D2*
X31810D1*
X32100D2*
X32283D1*
X32396D2*
X32642D1*
X32755D2*
X32892D1*
X33073D2*
X33265D1*
X33384D2*
X33530D1*
X34006D2*
X34099D1*
X34380D2*
X34474D1*
X35167D2*
X35257D1*
X35873D2*
X35960D1*
X36289D2*
X36376D1*
X28474Y-15929D2*
X28578D1*
X28597D2*
X28848D1*
X29178D2*
X29286D1*
X29392D2*
X29482D1*
X29965D2*
X30118D1*
X30619D2*
X30709D1*
X31457D2*
X31537D1*
X31736D2*
X31816D1*
X32100D2*
X32260D1*
X32418D2*
X32618D1*
X32777D2*
X32898D1*
X33073D2*
X33246D1*
X33408D2*
X33538D1*
X34012D2*
X34105D1*
X34375D2*
X34469D1*
X35167D2*
X35257D1*
X35871D2*
X35960D1*
X36289D2*
X36378D1*
X28470Y-15944D2*
X28866D1*
X29166D2*
X29274D1*
X29392D2*
X29482D1*
X29943D2*
X30099D1*
X30619D2*
X30709D1*
X31451D2*
X31532D1*
X31741D2*
X31821D1*
X32100D2*
X32242D1*
X32433D2*
X32599D1*
X32792D2*
X32903D1*
X33073D2*
X33228D1*
X33427D2*
X33545D1*
X34019D2*
X34110D1*
X34369D2*
X34464D1*
X35167D2*
X35257D1*
X35871D2*
X35960D1*
X36289D2*
X36379D1*
X28467Y-15958D2*
X28880D1*
X29154D2*
X29263D1*
X29392D2*
X29482D1*
X29937D2*
X30081D1*
X30619D2*
X30709D1*
X31445D2*
X31526D1*
X31747D2*
X31828D1*
X32100D2*
X32228D1*
X32444D2*
X32583D1*
X32804D2*
X32905D1*
X33073D2*
X33212D1*
X33444D2*
X33551D1*
X34025D2*
X34115D1*
X34364D2*
X34458D1*
X35167D2*
X35257D1*
X35870D2*
X35960D1*
X36289D2*
X36379D1*
X28463Y-15973D2*
X28892D1*
X29144D2*
X29253D1*
X29392D2*
X29482D1*
X29933D2*
X30107D1*
X30619D2*
X30709D1*
X31438D2*
X31520D1*
X31753D2*
X31835D1*
X32100D2*
X32218D1*
X32452D2*
X32571D1*
X32811D2*
X32907D1*
X33073D2*
X33200D1*
X33458D2*
X33556D1*
X34030D2*
X34120D1*
X34359D2*
X34452D1*
X35167D2*
X35257D1*
X35870D2*
X35960D1*
X36289D2*
X36379D1*
X28459Y-15988D2*
X28615D1*
X28761D2*
X28901D1*
X29133D2*
X29241D1*
X29392D2*
X29482D1*
X29929D2*
X30131D1*
X30619D2*
X30709D1*
X31431D2*
X31513D1*
X31760D2*
X31842D1*
X32100D2*
X32209D1*
X32456D2*
X32562D1*
X32815D2*
X32908D1*
X33073D2*
X33191D1*
X33468D2*
X33561D1*
X34035D2*
X34125D1*
X34354D2*
X34445D1*
X35167D2*
X35257D1*
X35870D2*
X35960D1*
X36289D2*
X36379D1*
X28454Y-16003D2*
X28587D1*
X28785D2*
X28909D1*
X29121D2*
X29229D1*
X29392D2*
X29482D1*
X29923D2*
X30151D1*
X30619D2*
X30709D1*
X31424D2*
X31507D1*
X31766D2*
X31849D1*
X32100D2*
X32202D1*
X32458D2*
X32556D1*
X32817D2*
X32908D1*
X33073D2*
X33184D1*
X33475D2*
X33564D1*
X34040D2*
X34130D1*
X34349D2*
X34440D1*
X35167D2*
X35257D1*
X35870D2*
X35960D1*
X36289D2*
X36379D1*
X28450Y-16018D2*
X28563D1*
X28804D2*
X28917D1*
X29109D2*
X29218D1*
X29392D2*
X29482D1*
X29916D2*
X29931D1*
X30035D2*
X30168D1*
X30619D2*
X30709D1*
X31418D2*
X31502D1*
X31771D2*
X31855D1*
X32100D2*
X32196D1*
X32459D2*
X32552D1*
X32818D2*
X32908D1*
X33073D2*
X33178D1*
X33481D2*
X33568D1*
X34045D2*
X34135D1*
X34344D2*
X34434D1*
X35167D2*
X35257D1*
X35870D2*
X35960D1*
X36289D2*
X36379D1*
X28510Y-16033D2*
X28540D1*
X28820D2*
X28922D1*
X29099D2*
X29208D1*
X29392D2*
X29482D1*
X30062D2*
X30182D1*
X30619D2*
X30709D1*
X31412D2*
X31494D1*
X31779D2*
X31860D1*
X32100D2*
X32193D1*
X32459D2*
X32550D1*
X32818D2*
X32908D1*
X33073D2*
X33173D1*
X33486D2*
X33572D1*
X34050D2*
X34140D1*
X34339D2*
X34429D1*
X35167D2*
X35257D1*
X35870D2*
X35960D1*
X36289D2*
X36379D1*
X28831Y-16048D2*
X28926D1*
X29088D2*
X29196D1*
X29392D2*
X29482D1*
X30084D2*
X30193D1*
X30619D2*
X30709D1*
X31407D2*
X31483D1*
X31789D2*
X31866D1*
X32100D2*
X32191D1*
X32459D2*
X32550D1*
X32818D2*
X32908D1*
X33073D2*
X33168D1*
X33489D2*
X33576D1*
X34055D2*
X34145D1*
X34334D2*
X34424D1*
X35167D2*
X35257D1*
X35870D2*
X35960D1*
X36289D2*
X36379D1*
X28840Y-16063D2*
X28930D1*
X29076D2*
X29184D1*
X29392D2*
X29482D1*
X30100D2*
X30202D1*
X30619D2*
X30709D1*
X31400D2*
X31873D1*
X32100D2*
X32190D1*
X32459D2*
X32549D1*
X32818D2*
X32908D1*
X33073D2*
X33165D1*
X33490D2*
X33579D1*
X34060D2*
X34150D1*
X34329D2*
X34419D1*
X35167D2*
X35257D1*
X35870D2*
X35960D1*
X36289D2*
X36379D1*
X28847Y-16078D2*
X28934D1*
X29065D2*
X29174D1*
X29392D2*
X29482D1*
X30113D2*
X30209D1*
X30619D2*
X30709D1*
X31394D2*
X31879D1*
X32100D2*
X32190D1*
X32459D2*
X32549D1*
X32818D2*
X32908D1*
X33073D2*
X33164D1*
X33491D2*
X33580D1*
X34065D2*
X34155D1*
X34324D2*
X34414D1*
X35167D2*
X35257D1*
X35870D2*
X35960D1*
X36289D2*
X36379D1*
X28851Y-16093D2*
X28938D1*
X29055D2*
X29163D1*
X29392D2*
X29482D1*
X30124D2*
X30215D1*
X30619D2*
X30709D1*
X31388D2*
X31885D1*
X32100D2*
X32190D1*
X32459D2*
X32549D1*
X32818D2*
X32908D1*
X33073D2*
X33163D1*
X33491D2*
X33581D1*
X34070D2*
X34162D1*
X34319D2*
X34409D1*
X35167D2*
X35257D1*
X35871D2*
X35960D1*
X36289D2*
X36378D1*
X28852Y-16108D2*
X28941D1*
X29046D2*
X29151D1*
X29392D2*
X29482D1*
X30132D2*
X30220D1*
X30619D2*
X30709D1*
X31382D2*
X31890D1*
X32100D2*
X32190D1*
X32459D2*
X32549D1*
X32818D2*
X32908D1*
X33073D2*
X33163D1*
X33491D2*
X33581D1*
X34075D2*
X34168D1*
X34314D2*
X34404D1*
X35167D2*
X35257D1*
X35873D2*
X35960D1*
X36289D2*
X36376D1*
X28853Y-16123D2*
X28942D1*
X29040D2*
X29587D1*
X30137D2*
X30225D1*
X30619D2*
X30709D1*
X31377D2*
X31896D1*
X32100D2*
X32190D1*
X32459D2*
X32549D1*
X32818D2*
X32908D1*
X33073D2*
X33162D1*
X33492D2*
X33581D1*
X34080D2*
X34174D1*
X34309D2*
X34399D1*
X35167D2*
X35257D1*
X35876D2*
X35961D1*
X36289D2*
X36373D1*
X28854Y-16138D2*
X28943D1*
X29036D2*
X29587D1*
X30139D2*
X30227D1*
X30619D2*
X30709D1*
X31370D2*
X31903D1*
X32100D2*
X32190D1*
X32459D2*
X32549D1*
X32818D2*
X32908D1*
X33073D2*
X33162D1*
X33492D2*
X33581D1*
X34085D2*
X34179D1*
X34304D2*
X34394D1*
X35167D2*
X35257D1*
X35880D2*
X35963D1*
X36287D2*
X36369D1*
X28854Y-16153D2*
X28943D1*
X29035D2*
X29587D1*
X30140D2*
X30229D1*
X30619D2*
X30709D1*
X31364D2*
X31909D1*
X32100D2*
X32190D1*
X32459D2*
X32549D1*
X32818D2*
X32908D1*
X33073D2*
X33162D1*
X33491D2*
X33579D1*
X34090D2*
X34185D1*
X34299D2*
X34389D1*
X35167D2*
X35257D1*
X35883D2*
X35966D1*
X36283D2*
X36366D1*
X28854Y-16168D2*
X28943D1*
X29034D2*
X29587D1*
X30140D2*
X30230D1*
X30619D2*
X30709D1*
X31358D2*
X31440D1*
X31833D2*
X31915D1*
X32100D2*
X32190D1*
X32459D2*
X32549D1*
X32818D2*
X32908D1*
X33073D2*
X33163D1*
X33491D2*
X33575D1*
X34096D2*
X34190D1*
X34294D2*
X34384D1*
X35167D2*
X35257D1*
X35884D2*
X35970D1*
X36279D2*
X36365D1*
X28853Y-16183D2*
X28941D1*
X29033D2*
X29587D1*
X30140D2*
X30229D1*
X30619D2*
X30709D1*
X31352D2*
X31436D1*
X31837D2*
X31920D1*
X32100D2*
X32190D1*
X32459D2*
X32549D1*
X32818D2*
X32908D1*
X33073D2*
X33165D1*
X33489D2*
X33571D1*
X34102D2*
X34195D1*
X34287D2*
X34379D1*
X35167D2*
X35257D1*
X35885D2*
X35973D1*
X36276D2*
X36364D1*
X28495Y-16198D2*
X28525D1*
X28851D2*
X28937D1*
X29033D2*
X29587D1*
X29781D2*
X29811D1*
X30138D2*
X30228D1*
X30619D2*
X30709D1*
X31347D2*
X31431D1*
X31841D2*
X31926D1*
X32100D2*
X32190D1*
X32459D2*
X32549D1*
X32818D2*
X32908D1*
X33073D2*
X33169D1*
X33485D2*
X33569D1*
X34108D2*
X34200D1*
X34281D2*
X34374D1*
X35167D2*
X35257D1*
X35888D2*
X35976D1*
X36273D2*
X36362D1*
X28463Y-16213D2*
X28527D1*
X28847D2*
X28933D1*
X29033D2*
X29587D1*
X29750D2*
X29816D1*
X30134D2*
X30224D1*
X30619D2*
X30709D1*
X31340D2*
X31427D1*
X31846D2*
X31933D1*
X32100D2*
X32190D1*
X32459D2*
X32549D1*
X32818D2*
X32908D1*
X33073D2*
X33173D1*
X33479D2*
X33567D1*
X34114D2*
X34205D1*
X34275D2*
X34369D1*
X35167D2*
X35257D1*
X35891D2*
X35981D1*
X36268D2*
X36358D1*
X28435Y-16228D2*
X28531D1*
X28841D2*
X28928D1*
X29392D2*
X29482D1*
X29721D2*
X29821D1*
X30128D2*
X30220D1*
X30619D2*
X30709D1*
X31334D2*
X31421D1*
X31851D2*
X31939D1*
X32100D2*
X32190D1*
X32459D2*
X32549D1*
X32818D2*
X32908D1*
X33073D2*
X33178D1*
X33472D2*
X33564D1*
X34119D2*
X34210D1*
X34270D2*
X34364D1*
X35167D2*
X35257D1*
X35896D2*
X35987D1*
X36262D2*
X36354D1*
X28442Y-16243D2*
X28538D1*
X28834D2*
X28923D1*
X29392D2*
X29482D1*
X29729D2*
X29827D1*
X30121D2*
X30215D1*
X30619D2*
X30709D1*
X31328D2*
X31415D1*
X31858D2*
X31945D1*
X32100D2*
X32190D1*
X32459D2*
X32549D1*
X32818D2*
X32908D1*
X33073D2*
X33186D1*
X33465D2*
X33560D1*
X34125D2*
X34215D1*
X34264D2*
X34359D1*
X35167D2*
X35257D1*
X35900D2*
X35994D1*
X36255D2*
X36349D1*
X28449Y-16258D2*
X28546D1*
X28826D2*
X28918D1*
X29392D2*
X29482D1*
X29735D2*
X29834D1*
X30113D2*
X30210D1*
X30619D2*
X30709D1*
X31323D2*
X31408D1*
X31864D2*
X31950D1*
X32100D2*
X32190D1*
X32459D2*
X32549D1*
X32818D2*
X32908D1*
X33073D2*
X33196D1*
X33455D2*
X33554D1*
X34130D2*
X34222D1*
X34257D2*
X34354D1*
X35167D2*
X35257D1*
X35906D2*
X36002D1*
X36247D2*
X36343D1*
X28455Y-16273D2*
X28559D1*
X28816D2*
X28913D1*
X29392D2*
X29482D1*
X29741D2*
X29846D1*
X30103D2*
X30203D1*
X30619D2*
X30709D1*
X31317D2*
X31403D1*
X31870D2*
X31956D1*
X32100D2*
X32190D1*
X32459D2*
X32549D1*
X32818D2*
X32908D1*
X33073D2*
X33210D1*
X33443D2*
X33547D1*
X34135D2*
X34230D1*
X34249D2*
X34347D1*
X35167D2*
X35257D1*
X35912D2*
X36012D1*
X36237D2*
X36337D1*
X28462Y-16288D2*
X28574D1*
X28792D2*
X28906D1*
X29392D2*
X29482D1*
X29748D2*
X29861D1*
X30079D2*
X30196D1*
X30619D2*
X30709D1*
X31310D2*
X31397D1*
X31875D2*
X31963D1*
X32100D2*
X32190D1*
X32459D2*
X32549D1*
X32818D2*
X32908D1*
X33073D2*
X33230D1*
X33427D2*
X33539D1*
X34140D2*
X34341D1*
X35167D2*
X35257D1*
X35919D2*
X36026D1*
X36223D2*
X36330D1*
X28469Y-16303D2*
X28616D1*
X28750D2*
X28897D1*
X29392D2*
X29482D1*
X29755D2*
X29903D1*
X30037D2*
X30188D1*
X30619D2*
X30709D1*
X31304D2*
X31392D1*
X31881D2*
X31969D1*
X32100D2*
X32190D1*
X32459D2*
X32549D1*
X32818D2*
X32908D1*
X33073D2*
X33267D1*
X33388D2*
X33531D1*
X34145D2*
X34335D1*
X35167D2*
X35257D1*
X35927D2*
X36065D1*
X36185D2*
X36323D1*
X28477Y-16318D2*
X28682D1*
X28683D2*
X28888D1*
X29392D2*
X29482D1*
X29763D2*
X29969D1*
X30179D1*
X30619D2*
X30709D1*
X31298D2*
X31387D1*
X31886D2*
X31975D1*
X32100D2*
X32190D1*
X32459D2*
X32549D1*
X32818D2*
X32908D1*
X33073D2*
X33327D1*
X33521D1*
X34150D2*
X34330D1*
X34644D2*
X34733D1*
X35167D2*
X35257D1*
X35601D2*
X35691D1*
X35934D2*
X36125D1*
X36124D2*
X36315D1*
X28486Y-16332D2*
X28878D1*
X29392D2*
X29482D1*
X29773D2*
X30167D1*
X30619D2*
X30709D1*
X31293D2*
X31382D1*
X31891D2*
X31980D1*
X32100D2*
X32190D1*
X32459D2*
X32549D1*
X32818D2*
X32908D1*
X33073D2*
X33511D1*
X34155D2*
X34324D1*
X34644D2*
X34733D1*
X35167D2*
X35257D1*
X35601D2*
X35691D1*
X35942D2*
X36307D1*
X28498Y-16347D2*
X28865D1*
X29392D2*
X29482D1*
X29785D2*
X30153D1*
X30619D2*
X30709D1*
X31287D2*
X31377D1*
X31896D2*
X31986D1*
X32100D2*
X32190D1*
X32459D2*
X32549D1*
X32818D2*
X32908D1*
X33073D2*
X33162D1*
X33192D2*
X33498D1*
X34160D2*
X34319D1*
X34644D2*
X34733D1*
X35167D2*
X35257D1*
X35601D2*
X35691D1*
X35952D2*
X36297D1*
X28514Y-16362D2*
X28849D1*
X29392D2*
X29482D1*
X29801D2*
X30137D1*
X30619D2*
X30709D1*
X31280D2*
X31370D1*
X31903D2*
X31992D1*
X32100D2*
X32190D1*
X32459D2*
X32549D1*
X32818D2*
X32908D1*
X33073D2*
X33162D1*
X33207D2*
X33482D1*
X34165D2*
X34314D1*
X34644D2*
X34733D1*
X35167D2*
X35257D1*
X35601D2*
X35691D1*
X35966D2*
X36283D1*
X28535Y-16377D2*
X28828D1*
X29392D2*
X29482D1*
X29822D2*
X30115D1*
X30619D2*
X30709D1*
X31274D2*
X31364D1*
X31909D2*
X31999D1*
X32100D2*
X32190D1*
X32459D2*
X32549D1*
X32818D2*
X32908D1*
X33073D2*
X33162D1*
X33224D2*
X33462D1*
X34170D2*
X34309D1*
X34644D2*
X34733D1*
X35167D2*
X35257D1*
X35601D2*
X35691D1*
X35986D2*
X36263D1*
X28562Y-16392D2*
X28802D1*
X29392D2*
X29482D1*
X29848D2*
X30088D1*
X30619D2*
X30709D1*
X31268D2*
X31357D1*
X31915D2*
X32005D1*
X32100D2*
X32190D1*
X32459D2*
X32549D1*
X32818D2*
X32908D1*
X33073D2*
X33162D1*
X33243D2*
X33437D1*
X34175D2*
X34304D1*
X34644D2*
X34733D1*
X35167D2*
X35257D1*
X35601D2*
X35691D1*
X36012D2*
X36237D1*
X28594Y-16407D2*
X28769D1*
X29392D2*
X29482D1*
X29881D2*
X30056D1*
X30619D2*
X30709D1*
X31262D2*
X31352D1*
X31921D2*
X32010D1*
X32100D2*
X32190D1*
X32459D2*
X32549D1*
X32818D2*
X32908D1*
X33073D2*
X33162D1*
X33268D2*
X33406D1*
X34180D2*
X34299D1*
X34644D2*
X34733D1*
X35167D2*
X35257D1*
X35601D2*
X35691D1*
X36045D2*
X36205D1*
X28629Y-16422D2*
X28734D1*
X29916D2*
X30021D1*
X33073D2*
X33162D1*
X33297D2*
X33372D1*
X36080D2*
X36169D1*
X33073Y-16437D2*
X33162D1*
X33073Y-16452D2*
X33162D1*
X33073Y-16467D2*
X33162D1*
X33073Y-16482D2*
X33162D1*
X33073Y-16497D2*
X33162D1*
X33073Y-16512D2*
X33162D1*
X33073Y-16527D2*
X33162D1*
X33073Y-16542D2*
X33162D1*
X33073Y-16557D2*
X33162D1*
X33073Y-16572D2*
X33162D1*
X33073Y-16587D2*
X33162D1*
X33073Y-16602D2*
X33162D1*
X33073Y-16617D2*
X33162D1*
X33073Y-16632D2*
X33162D1*
X29916Y-15599D2*
X29882Y-15614D1*
X29854Y-15629D1*
X29832Y-15644D1*
X29814Y-15659D1*
X29798Y-15674D1*
X29784Y-15689D1*
X29773Y-15704D1*
X29764Y-15719D1*
X29758Y-15734D1*
X29752Y-15749D1*
X29746Y-15764D1*
X29741Y-15779D1*
X29736Y-15794D1*
X29796Y-15809D1*
X30006Y-15599D2*
X30042Y-15614D1*
X30074Y-15629D1*
X30100Y-15644D1*
X30120Y-15659D1*
X30136Y-15674D1*
X30148Y-15689D1*
X30157Y-15704D1*
X30164Y-15719D1*
X30170Y-15734D1*
X30175Y-15749D1*
X30180Y-15764D1*
X30183Y-15779D1*
X30184Y-15794D1*
Y-15809D1*
X30183Y-15824D1*
X30179Y-15839D1*
X30173Y-15854D1*
X30166Y-15869D1*
X30158Y-15884D1*
X30148Y-15899D1*
X30135Y-15914D1*
X30118Y-15929D1*
X30099Y-15944D1*
X30081Y-15958D1*
X30107Y-15973D1*
X30131Y-15988D1*
X30151Y-16003D1*
X30168Y-16018D1*
X30182Y-16033D1*
X30193Y-16048D1*
X30202Y-16063D1*
X30209Y-16078D1*
X30215Y-16093D1*
X30220Y-16108D1*
X30225Y-16123D1*
X30227Y-16138D1*
X30229Y-16153D1*
X30230Y-16168D1*
X30229Y-16183D1*
X30228Y-16198D1*
X30224Y-16213D1*
X30220Y-16228D1*
X30215Y-16243D1*
X30210Y-16258D1*
X30203Y-16273D1*
X30196Y-16288D1*
X30188Y-16303D1*
X30179Y-16318D1*
X30167Y-16332D1*
X30153Y-16347D1*
X30137Y-16362D1*
X30115Y-16377D1*
X30088Y-16392D1*
X30056Y-16407D1*
X30021Y-16422D1*
X30649Y-15599D2*
X30642Y-15614D1*
X30633Y-15629D1*
X30624Y-15644D1*
X30613Y-15659D1*
X30601Y-15674D1*
X30587Y-15689D1*
X30571Y-15704D1*
X30552Y-15719D1*
X30532Y-15734D1*
X30510Y-15749D1*
X30488Y-15764D1*
X30467Y-15779D1*
X30449Y-15794D1*
X30435Y-15809D1*
X30429Y-15824D1*
X30427Y-15839D1*
X30425Y-15854D1*
Y-15869D1*
X30709Y-15599D2*
Y-15614D1*
Y-15629D1*
Y-15644D1*
Y-15659D1*
Y-15674D1*
Y-15689D1*
Y-15704D1*
Y-15719D1*
Y-15734D1*
Y-15749D1*
Y-15764D1*
Y-15779D1*
Y-15794D1*
Y-15809D1*
Y-15824D1*
Y-15839D1*
Y-15854D1*
Y-15869D1*
Y-15884D1*
Y-15899D1*
Y-15914D1*
Y-15929D1*
Y-15944D1*
Y-15958D1*
Y-15973D1*
Y-15988D1*
Y-16003D1*
Y-16018D1*
Y-16033D1*
Y-16048D1*
Y-16063D1*
Y-16078D1*
Y-16093D1*
Y-16108D1*
Y-16123D1*
Y-16138D1*
Y-16153D1*
Y-16168D1*
Y-16183D1*
Y-16198D1*
Y-16213D1*
Y-16228D1*
Y-16243D1*
Y-16258D1*
Y-16273D1*
Y-16288D1*
Y-16303D1*
Y-16318D1*
Y-16332D1*
Y-16347D1*
Y-16362D1*
Y-16377D1*
Y-16392D1*
Y-16407D1*
X31592Y-15599D2*
X31584Y-15614D1*
X31578Y-15629D1*
X31572Y-15644D1*
X31565Y-15659D1*
X31558Y-15674D1*
X31552Y-15689D1*
X31547Y-15704D1*
X31541Y-15719D1*
X31535Y-15734D1*
X31528Y-15749D1*
X31522Y-15764D1*
X31517Y-15779D1*
X31511Y-15794D1*
X31505Y-15809D1*
X31498Y-15824D1*
X31492Y-15839D1*
X31487Y-15854D1*
X31481Y-15869D1*
X31475Y-15884D1*
X31468Y-15899D1*
X31462Y-15914D1*
X31457Y-15929D1*
X31451Y-15944D1*
X31445Y-15958D1*
X31438Y-15973D1*
X31431Y-15988D1*
X31424Y-16003D1*
X31418Y-16018D1*
X31412Y-16033D1*
X31407Y-16048D1*
X31400Y-16063D1*
X31394Y-16078D1*
X31388Y-16093D1*
X31382Y-16108D1*
X31377Y-16123D1*
X31370Y-16138D1*
X31364Y-16153D1*
X31358Y-16168D1*
X31352Y-16183D1*
X31347Y-16198D1*
X31340Y-16213D1*
X31334Y-16228D1*
X31328Y-16243D1*
X31323Y-16258D1*
X31317Y-16273D1*
X31310Y-16288D1*
X31304Y-16303D1*
X31298Y-16318D1*
X31293Y-16332D1*
X31287Y-16347D1*
X31280Y-16362D1*
X31274Y-16377D1*
X31268Y-16392D1*
X31262Y-16407D1*
X31681Y-15599D2*
X31689Y-15614D1*
X31695Y-15629D1*
X31701Y-15644D1*
X31708Y-15659D1*
X31715Y-15674D1*
X31721Y-15689D1*
X31726Y-15704D1*
X31732Y-15719D1*
X31738Y-15734D1*
X31745Y-15749D1*
X31751Y-15764D1*
X31756Y-15779D1*
X31762Y-15794D1*
X31768Y-15809D1*
X31775Y-15824D1*
X31780Y-15839D1*
X31786Y-15854D1*
X31791Y-15869D1*
X31798Y-15884D1*
X31804Y-15899D1*
X31810Y-15914D1*
X31816Y-15929D1*
X31821Y-15944D1*
X31828Y-15958D1*
X31835Y-15973D1*
X31842Y-15988D1*
X31849Y-16003D1*
X31855Y-16018D1*
X31860Y-16033D1*
X31866Y-16048D1*
X31873Y-16063D1*
X31879Y-16078D1*
X31885Y-16093D1*
X31890Y-16108D1*
X31896Y-16123D1*
X31903Y-16138D1*
X31909Y-16153D1*
X31915Y-16168D1*
X31920Y-16183D1*
X31926Y-16198D1*
X31933Y-16213D1*
X31939Y-16228D1*
X31945Y-16243D1*
X31950Y-16258D1*
X31956Y-16273D1*
X31963Y-16288D1*
X31969Y-16303D1*
X31975Y-16318D1*
X31980Y-16332D1*
X31986Y-16347D1*
X31992Y-16362D1*
X31999Y-16377D1*
X32005Y-16392D1*
X32010Y-16407D1*
X35197Y-15599D2*
X35190Y-15614D1*
X35181Y-15629D1*
X35172Y-15644D1*
X35161Y-15659D1*
X35149Y-15674D1*
X35135Y-15689D1*
X35119Y-15704D1*
X35100Y-15719D1*
X35080Y-15734D1*
X35058Y-15749D1*
X35036Y-15764D1*
X35015Y-15779D1*
X34997Y-15794D1*
X34983Y-15809D1*
X34978Y-15824D1*
X34975Y-15839D1*
X34973Y-15854D1*
Y-15869D1*
Y-15884D1*
X35257Y-15599D2*
Y-15614D1*
Y-15629D1*
Y-15644D1*
Y-15659D1*
Y-15674D1*
Y-15689D1*
Y-15704D1*
Y-15719D1*
Y-15734D1*
Y-15749D1*
Y-15764D1*
Y-15779D1*
Y-15794D1*
Y-15809D1*
Y-15824D1*
Y-15839D1*
Y-15854D1*
Y-15869D1*
Y-15884D1*
Y-15899D1*
Y-15914D1*
Y-15929D1*
Y-15944D1*
Y-15958D1*
Y-15973D1*
Y-15988D1*
Y-16003D1*
Y-16018D1*
Y-16033D1*
Y-16048D1*
Y-16063D1*
Y-16078D1*
Y-16093D1*
Y-16108D1*
Y-16123D1*
Y-16138D1*
Y-16153D1*
Y-16168D1*
Y-16183D1*
Y-16198D1*
Y-16213D1*
Y-16228D1*
Y-16243D1*
Y-16258D1*
Y-16273D1*
Y-16288D1*
Y-16303D1*
Y-16318D1*
Y-16332D1*
Y-16347D1*
Y-16362D1*
Y-16377D1*
Y-16392D1*
Y-16407D1*
X36080Y-15599D2*
X36044Y-15614D1*
X36012Y-15629D1*
X35986Y-15644D1*
X35967Y-15659D1*
X35954Y-15674D1*
X35943Y-15689D1*
X35935Y-15704D1*
X35927Y-15719D1*
X35919Y-15734D1*
X35912Y-15749D1*
X35906Y-15764D1*
X35901Y-15779D1*
X35895Y-15794D1*
X35891Y-15809D1*
X35888Y-15824D1*
X35886Y-15839D1*
X35885Y-15854D1*
X35883Y-15869D1*
X35879Y-15884D1*
X35875Y-15899D1*
X35873Y-15914D1*
X35871Y-15929D1*
Y-15944D1*
X35870Y-15958D1*
Y-15973D1*
Y-15988D1*
Y-16003D1*
Y-16018D1*
Y-16033D1*
Y-16048D1*
Y-16063D1*
Y-16078D1*
X35871Y-16093D1*
X35873Y-16108D1*
X35876Y-16123D1*
X35880Y-16138D1*
X35883Y-16153D1*
X35884Y-16168D1*
X35885Y-16183D1*
X35888Y-16198D1*
X35891Y-16213D1*
X35896Y-16228D1*
X35900Y-16243D1*
X35906Y-16258D1*
X35912Y-16273D1*
X35919Y-16288D1*
X35927Y-16303D1*
X35934Y-16318D1*
X35942Y-16332D1*
X35952Y-16347D1*
X35966Y-16362D1*
X35986Y-16377D1*
X36012Y-16392D1*
X36045Y-16407D1*
X36080Y-16422D1*
X36169Y-15599D2*
X36206Y-15614D1*
X36237Y-15629D1*
X36263Y-15644D1*
X36282Y-15659D1*
X36296Y-15674D1*
X36306Y-15689D1*
X36315Y-15704D1*
X36323Y-15719D1*
X36330Y-15734D1*
X36337Y-15749D1*
X36343Y-15764D1*
X36347Y-15779D1*
X36350Y-15794D1*
X36355Y-15809D1*
X36359Y-15824D1*
X36362Y-15839D1*
X36363Y-15854D1*
X36366Y-15869D1*
X36370Y-15884D1*
X36374Y-15899D1*
X36376Y-15914D1*
X36378Y-15929D1*
X36379Y-15944D1*
Y-15958D1*
Y-15973D1*
Y-15988D1*
Y-16003D1*
Y-16018D1*
Y-16033D1*
Y-16048D1*
Y-16063D1*
Y-16078D1*
X36378Y-16093D1*
X36376Y-16108D1*
X36373Y-16123D1*
X36369Y-16138D1*
X36366Y-16153D1*
X36365Y-16168D1*
X36364Y-16183D1*
X36362Y-16198D1*
X36358Y-16213D1*
X36354Y-16228D1*
X36349Y-16243D1*
X36343Y-16258D1*
X36337Y-16273D1*
X36330Y-16288D1*
X36323Y-16303D1*
X36315Y-16318D1*
X36307Y-16332D1*
X36297Y-16347D1*
X36283Y-16362D1*
X36263Y-16377D1*
X36237Y-16392D1*
X36205Y-16407D1*
X36169Y-16422D1*
X28540Y-15614D2*
X28537Y-15629D1*
X28534Y-15644D1*
X28530Y-15659D1*
X28527Y-15674D1*
X28525Y-15689D1*
X28523Y-15704D1*
X28519Y-15719D1*
X28515Y-15734D1*
X28512Y-15749D1*
X28508Y-15764D1*
X28504Y-15779D1*
X28500Y-15794D1*
X28497Y-15809D1*
X28495Y-15824D1*
X28493Y-15839D1*
X28489Y-15854D1*
X28485Y-15869D1*
X28482Y-15884D1*
X28480Y-15899D1*
X28478Y-15914D1*
X28474Y-15929D1*
X28470Y-15944D1*
X28467Y-15958D1*
X28463Y-15973D1*
X28459Y-15988D1*
X28454Y-16003D1*
X28450Y-16018D1*
X28510Y-16033D1*
X28899Y-15614D2*
Y-15629D1*
Y-15644D1*
Y-15659D1*
Y-15674D1*
Y-15689D1*
Y-15704D1*
X29422Y-15614D2*
X29408Y-15629D1*
X29395Y-15644D1*
X29383Y-15659D1*
X29372Y-15674D1*
X29361Y-15689D1*
X29349Y-15704D1*
X29338Y-15719D1*
X29327Y-15734D1*
X29316Y-15749D1*
X29304Y-15764D1*
X29293Y-15779D1*
X29282Y-15794D1*
X29271Y-15809D1*
X29259Y-15824D1*
X29248Y-15839D1*
X29238Y-15854D1*
X29225Y-15869D1*
X29212Y-15884D1*
X29200Y-15899D1*
X29189Y-15914D1*
X29178Y-15929D1*
X29166Y-15944D1*
X29154Y-15958D1*
X29144Y-15973D1*
X29133Y-15988D1*
X29121Y-16003D1*
X29109Y-16018D1*
X29099Y-16033D1*
X29088Y-16048D1*
X29076Y-16063D1*
X29065Y-16078D1*
X29055Y-16093D1*
X29046Y-16108D1*
X29040Y-16123D1*
X29036Y-16138D1*
X29035Y-16153D1*
X29034Y-16168D1*
X29033Y-16183D1*
Y-16198D1*
Y-16213D1*
X29482Y-15614D2*
Y-15629D1*
Y-15644D1*
Y-15659D1*
Y-15674D1*
Y-15689D1*
Y-15704D1*
Y-15719D1*
Y-15734D1*
Y-15749D1*
Y-15764D1*
Y-15779D1*
Y-15794D1*
Y-15809D1*
Y-15824D1*
Y-15839D1*
Y-15854D1*
Y-15869D1*
Y-15884D1*
Y-15899D1*
Y-15914D1*
Y-15929D1*
Y-15944D1*
Y-15958D1*
Y-15973D1*
Y-15988D1*
Y-16003D1*
Y-16018D1*
Y-16033D1*
Y-16048D1*
Y-16063D1*
Y-16078D1*
Y-16093D1*
Y-16108D1*
Y-16123D1*
X29587D1*
Y-16138D1*
Y-16153D1*
Y-16168D1*
Y-16183D1*
Y-16198D1*
Y-16213D1*
Y-16228D1*
X29482D1*
Y-16243D1*
Y-16258D1*
Y-16273D1*
Y-16288D1*
Y-16303D1*
Y-16318D1*
Y-16332D1*
Y-16347D1*
Y-16362D1*
Y-16377D1*
Y-16392D1*
Y-16407D1*
X29931Y-15689D2*
X29904Y-15704D1*
X29883Y-15719D1*
X29866Y-15734D1*
X29853Y-15749D1*
X29842Y-15764D1*
X29835Y-15779D1*
X29830Y-15794D1*
X29826Y-15809D1*
X30021Y-15689D2*
X30036Y-15704D1*
X30051Y-15719D1*
X30065Y-15734D1*
X30077Y-15749D1*
X30086Y-15764D1*
X30091Y-15779D1*
X30094Y-15794D1*
X30095Y-15809D1*
Y-15824D1*
X30092Y-15839D1*
X30088Y-15854D1*
X30075Y-15869D1*
X30057Y-15884D1*
X30028Y-15899D1*
X29994Y-15914D1*
X29965Y-15929D1*
X29943Y-15944D1*
X29937Y-15958D1*
X29933Y-15973D1*
X29929Y-15988D1*
X29923Y-16003D1*
X29916Y-16018D1*
X31621Y-15689D2*
X31619Y-15704D1*
X31615Y-15719D1*
X31611Y-15734D1*
X31606Y-15749D1*
X31601Y-15764D1*
X31595Y-15779D1*
X31588Y-15794D1*
X31582Y-15809D1*
X31577Y-15824D1*
X31572Y-15839D1*
X31567Y-15854D1*
X31562Y-15869D1*
X31556Y-15884D1*
X31550Y-15899D1*
X31543Y-15914D1*
X31537Y-15929D1*
X31532Y-15944D1*
X31526Y-15958D1*
X31520Y-15973D1*
X31513Y-15988D1*
X31507Y-16003D1*
X31502Y-16018D1*
X31494Y-16033D1*
X31483Y-16048D1*
X31472Y-16063D1*
X31651Y-15689D2*
X31654Y-15704D1*
X31657Y-15719D1*
X31662Y-15734D1*
X31666Y-15749D1*
X31672Y-15764D1*
X31678Y-15779D1*
X31685Y-15794D1*
X31691Y-15809D1*
X31696Y-15824D1*
X31702Y-15839D1*
X31708Y-15854D1*
X31715Y-15869D1*
X31721Y-15884D1*
X31726Y-15899D1*
X31731Y-15914D1*
X31736Y-15929D1*
X31741Y-15944D1*
X31747Y-15958D1*
X31753Y-15973D1*
X31760Y-15988D1*
X31766Y-16003D1*
X31771Y-16018D1*
X31779Y-16033D1*
X31789Y-16048D1*
X31801Y-16063D1*
X36095Y-15689D2*
X36068Y-15704D1*
X36044Y-15719D1*
X36025Y-15734D1*
X36010Y-15749D1*
X35999Y-15764D1*
X35992Y-15779D1*
X35986Y-15794D1*
X35981Y-15809D1*
X35977Y-15824D1*
X35974Y-15839D1*
X35969Y-15854D1*
X35965Y-15869D1*
X35963Y-15884D1*
X35961Y-15899D1*
X35960Y-15914D1*
Y-15929D1*
Y-15944D1*
Y-15958D1*
Y-15973D1*
Y-15988D1*
Y-16003D1*
Y-16018D1*
Y-16033D1*
Y-16048D1*
Y-16063D1*
Y-16078D1*
Y-16093D1*
Y-16108D1*
X35961Y-16123D1*
X35963Y-16138D1*
X35966Y-16153D1*
X35970Y-16168D1*
X35973Y-16183D1*
X35976Y-16198D1*
X35981Y-16213D1*
X35987Y-16228D1*
X35994Y-16243D1*
X36002Y-16258D1*
X36012Y-16273D1*
X36026Y-16288D1*
X36065Y-16303D1*
X36125Y-16318D1*
X36199Y-16332D1*
X36155Y-15689D2*
X36181Y-15704D1*
X36205Y-15719D1*
X36223Y-15734D1*
X36236Y-15749D1*
X36246Y-15764D1*
X36255Y-15779D1*
X36262Y-15794D1*
X36268Y-15809D1*
X36272Y-15824D1*
X36275Y-15839D1*
X36280Y-15854D1*
X36284Y-15869D1*
X36287Y-15884D1*
X36288Y-15899D1*
X36289Y-15914D1*
Y-15929D1*
Y-15944D1*
Y-15958D1*
Y-15973D1*
Y-15988D1*
Y-16003D1*
Y-16018D1*
Y-16033D1*
Y-16048D1*
Y-16063D1*
Y-16078D1*
Y-16093D1*
Y-16108D1*
Y-16123D1*
X36287Y-16138D1*
X36283Y-16153D1*
X36279Y-16168D1*
X36276Y-16183D1*
X36273Y-16198D1*
X36268Y-16213D1*
X36262Y-16228D1*
X36255Y-16243D1*
X36247Y-16258D1*
X36237Y-16273D1*
X36223Y-16288D1*
X36185Y-16303D1*
X36124Y-16318D1*
X36050Y-16332D1*
X28599Y-15704D2*
Y-15719D1*
Y-15734D1*
Y-15749D1*
X28597Y-15764D1*
X28593Y-15779D1*
X28589Y-15794D1*
X28587Y-15809D1*
X28585Y-15824D1*
X28584Y-15839D1*
X28582Y-15854D1*
X28578Y-15869D1*
X28575Y-15884D1*
X28573Y-15899D1*
X28572Y-15914D1*
X28578Y-15929D1*
X28584Y-15944D1*
X30604Y-15764D2*
X30589Y-15779D1*
X30574Y-15794D1*
X30556Y-15809D1*
X30535Y-15824D1*
X30510Y-15839D1*
X30483Y-15854D1*
X30455Y-15869D1*
X30619Y-15764D2*
Y-15779D1*
Y-15794D1*
Y-15809D1*
Y-15824D1*
Y-15839D1*
Y-15854D1*
Y-15869D1*
Y-15884D1*
Y-15899D1*
Y-15914D1*
Y-15929D1*
Y-15944D1*
Y-15958D1*
Y-15973D1*
Y-15988D1*
Y-16003D1*
Y-16018D1*
Y-16033D1*
Y-16048D1*
Y-16063D1*
Y-16078D1*
Y-16093D1*
Y-16108D1*
Y-16123D1*
Y-16138D1*
Y-16153D1*
Y-16168D1*
Y-16183D1*
Y-16198D1*
Y-16213D1*
Y-16228D1*
Y-16243D1*
Y-16258D1*
Y-16273D1*
Y-16288D1*
Y-16303D1*
Y-16318D1*
Y-16332D1*
Y-16347D1*
Y-16362D1*
Y-16377D1*
Y-16392D1*
Y-16407D1*
X35152Y-15764D2*
X35137Y-15779D1*
X35122Y-15794D1*
X35104Y-15809D1*
X35083Y-15824D1*
X35058Y-15839D1*
X35031Y-15854D1*
X35002Y-15869D1*
X34973Y-15884D1*
X35167Y-15764D2*
Y-15779D1*
Y-15794D1*
Y-15809D1*
Y-15824D1*
Y-15839D1*
Y-15854D1*
Y-15869D1*
Y-15884D1*
Y-15899D1*
Y-15914D1*
Y-15929D1*
Y-15944D1*
Y-15958D1*
Y-15973D1*
Y-15988D1*
Y-16003D1*
Y-16018D1*
Y-16033D1*
Y-16048D1*
Y-16063D1*
Y-16078D1*
Y-16093D1*
Y-16108D1*
Y-16123D1*
Y-16138D1*
Y-16153D1*
Y-16168D1*
Y-16183D1*
Y-16198D1*
Y-16213D1*
Y-16228D1*
Y-16243D1*
Y-16258D1*
Y-16273D1*
Y-16288D1*
Y-16303D1*
Y-16318D1*
Y-16332D1*
Y-16347D1*
Y-16362D1*
Y-16377D1*
Y-16392D1*
Y-16407D1*
X32340Y-15809D2*
X32309Y-15824D1*
X32282Y-15839D1*
X32260Y-15854D1*
X32244Y-15869D1*
X32228Y-15884D1*
X32210Y-15899D1*
X32190Y-15914D1*
X32414Y-15809D2*
X32443Y-15824D1*
X32467Y-15839D1*
X32485Y-15854D1*
X32501Y-15869D1*
X32515Y-15884D1*
X32531Y-15899D1*
X32549Y-15914D1*
X32684Y-15809D2*
X32657Y-15824D1*
X32633Y-15839D1*
X32613Y-15854D1*
X32594Y-15869D1*
X32574Y-15884D1*
X32548Y-15899D1*
X32519Y-15914D1*
X32773Y-15809D2*
X32807Y-15824D1*
X32835Y-15839D1*
X32855Y-15854D1*
X32869Y-15869D1*
X32879Y-15884D1*
X32887Y-15899D1*
X32892Y-15914D1*
X32898Y-15929D1*
X32903Y-15944D1*
X32905Y-15958D1*
X32907Y-15973D1*
X32908Y-15988D1*
Y-16003D1*
Y-16018D1*
Y-16033D1*
Y-16048D1*
Y-16063D1*
Y-16078D1*
Y-16093D1*
Y-16108D1*
Y-16123D1*
Y-16138D1*
Y-16153D1*
Y-16168D1*
Y-16183D1*
Y-16198D1*
Y-16213D1*
Y-16228D1*
Y-16243D1*
Y-16258D1*
Y-16273D1*
Y-16288D1*
Y-16303D1*
Y-16318D1*
Y-16332D1*
Y-16347D1*
Y-16362D1*
Y-16377D1*
Y-16392D1*
Y-16407D1*
X33297Y-15809D2*
X33270Y-15824D1*
X33247Y-15839D1*
X33229Y-15854D1*
X33214Y-15869D1*
X33200Y-15884D1*
X33182Y-15899D1*
X33162Y-15914D1*
X33387Y-15809D2*
X33421Y-15824D1*
X33449Y-15839D1*
X33471Y-15854D1*
X33489Y-15869D1*
X33505Y-15884D1*
X33519Y-15899D1*
X33530Y-15914D1*
X33538Y-15929D1*
X33545Y-15944D1*
X33551Y-15958D1*
X33556Y-15973D1*
X33561Y-15988D1*
X33564Y-16003D1*
X33568Y-16018D1*
X33572Y-16033D1*
X33576Y-16048D1*
X33579Y-16063D1*
X33580Y-16078D1*
X33581Y-16093D1*
Y-16108D1*
Y-16123D1*
Y-16138D1*
X33579Y-16153D1*
X33575Y-16168D1*
X33571Y-16183D1*
X33569Y-16198D1*
X33567Y-16213D1*
X33564Y-16228D1*
X33560Y-16243D1*
X33554Y-16258D1*
X33547Y-16273D1*
X33539Y-16288D1*
X33531Y-16303D1*
X33521Y-16318D1*
X33511Y-16332D1*
X33498Y-16347D1*
X33482Y-16362D1*
X33462Y-16377D1*
X33437Y-16392D1*
X33406Y-16407D1*
X33372Y-16422D1*
X29362Y-15809D2*
X29359Y-15824D1*
X29353Y-15839D1*
X29343Y-15854D1*
X29331Y-15869D1*
X29319Y-15884D1*
X29308Y-15899D1*
X29297Y-15914D1*
X29286Y-15929D1*
X29274Y-15944D1*
X29263Y-15958D1*
X29253Y-15973D1*
X29241Y-15988D1*
X29229Y-16003D1*
X29218Y-16018D1*
X29208Y-16033D1*
X29196Y-16048D1*
X29184Y-16063D1*
X29174Y-16078D1*
X29163Y-16093D1*
X29151Y-16108D1*
X29138Y-16123D1*
X29392Y-15809D2*
Y-15824D1*
Y-15839D1*
Y-15854D1*
Y-15869D1*
Y-15884D1*
Y-15899D1*
Y-15914D1*
Y-15929D1*
Y-15944D1*
Y-15958D1*
Y-15973D1*
Y-15988D1*
Y-16003D1*
Y-16018D1*
Y-16033D1*
Y-16048D1*
Y-16063D1*
Y-16078D1*
Y-16093D1*
Y-16108D1*
Y-16123D1*
X32100Y-15824D2*
Y-15839D1*
Y-15854D1*
Y-15869D1*
Y-15884D1*
Y-15899D1*
Y-15914D1*
Y-15929D1*
Y-15944D1*
Y-15958D1*
Y-15973D1*
Y-15988D1*
Y-16003D1*
Y-16018D1*
Y-16033D1*
Y-16048D1*
Y-16063D1*
Y-16078D1*
Y-16093D1*
Y-16108D1*
Y-16123D1*
Y-16138D1*
Y-16153D1*
Y-16168D1*
Y-16183D1*
Y-16198D1*
Y-16213D1*
Y-16228D1*
Y-16243D1*
Y-16258D1*
Y-16273D1*
Y-16288D1*
Y-16303D1*
Y-16318D1*
Y-16332D1*
Y-16347D1*
Y-16362D1*
Y-16377D1*
Y-16392D1*
Y-16407D1*
X32190Y-15824D2*
Y-15839D1*
Y-15854D1*
X32191Y-15869D1*
X32193Y-15884D1*
X32198Y-15899D1*
X32205Y-15914D1*
X33073Y-15824D2*
Y-15839D1*
Y-15854D1*
Y-15869D1*
Y-15884D1*
Y-15899D1*
Y-15914D1*
Y-15929D1*
Y-15944D1*
Y-15958D1*
Y-15973D1*
Y-15988D1*
Y-16003D1*
Y-16018D1*
Y-16033D1*
Y-16048D1*
Y-16063D1*
Y-16078D1*
Y-16093D1*
Y-16108D1*
Y-16123D1*
Y-16138D1*
Y-16153D1*
Y-16168D1*
Y-16183D1*
Y-16198D1*
Y-16213D1*
Y-16228D1*
Y-16243D1*
Y-16258D1*
Y-16273D1*
Y-16288D1*
Y-16303D1*
Y-16318D1*
Y-16332D1*
Y-16347D1*
Y-16362D1*
Y-16377D1*
Y-16392D1*
Y-16407D1*
Y-16422D1*
Y-16437D1*
Y-16452D1*
Y-16467D1*
Y-16482D1*
Y-16497D1*
Y-16512D1*
Y-16527D1*
Y-16542D1*
Y-16557D1*
Y-16572D1*
Y-16587D1*
Y-16602D1*
Y-16617D1*
Y-16632D1*
X33162Y-15824D2*
Y-15839D1*
Y-15854D1*
X33163Y-15869D1*
X33165Y-15884D1*
X33170Y-15899D1*
X33177Y-15914D1*
X33970Y-15824D2*
X33978Y-15839D1*
X33984Y-15854D1*
X33990Y-15869D1*
X33995Y-15884D1*
X34000Y-15899D1*
X34006Y-15914D1*
X34012Y-15929D1*
X34019Y-15944D1*
X34025Y-15958D1*
X34030Y-15973D1*
X34035Y-15988D1*
X34040Y-16003D1*
X34045Y-16018D1*
X34050Y-16033D1*
X34055Y-16048D1*
X34060Y-16063D1*
X34065Y-16078D1*
X34070Y-16093D1*
X34075Y-16108D1*
X34080Y-16123D1*
X34085Y-16138D1*
X34090Y-16153D1*
X34096Y-16168D1*
X34102Y-16183D1*
X34108Y-16198D1*
X34114Y-16213D1*
X34119Y-16228D1*
X34125Y-16243D1*
X34130Y-16258D1*
X34135Y-16273D1*
X34140Y-16288D1*
X34145Y-16303D1*
X34150Y-16318D1*
X34155Y-16332D1*
X34160Y-16347D1*
X34165Y-16362D1*
X34170Y-16377D1*
X34175Y-16392D1*
X34180Y-16407D1*
X34060Y-15824D2*
X34068Y-15839D1*
X34074Y-15854D1*
X34080Y-15869D1*
X34087Y-15884D1*
X34093Y-15899D1*
X34099Y-15914D1*
X34105Y-15929D1*
X34110Y-15944D1*
X34115Y-15958D1*
X34120Y-15973D1*
X34125Y-15988D1*
X34130Y-16003D1*
X34135Y-16018D1*
X34140Y-16033D1*
X34145Y-16048D1*
X34150Y-16063D1*
X34155Y-16078D1*
X34162Y-16093D1*
X34168Y-16108D1*
X34174Y-16123D1*
X34179Y-16138D1*
X34185Y-16153D1*
X34190Y-16168D1*
X34195Y-16183D1*
X34200Y-16198D1*
X34205Y-16213D1*
X34210Y-16228D1*
X34215Y-16243D1*
X34222Y-16258D1*
X34230Y-16273D1*
X34240Y-16288D1*
X34419Y-15824D2*
X34412Y-15839D1*
X34405Y-15854D1*
X34399Y-15869D1*
X34392Y-15884D1*
X34386Y-15899D1*
X34380Y-15914D1*
X34375Y-15929D1*
X34369Y-15944D1*
X34364Y-15958D1*
X34359Y-15973D1*
X34354Y-15988D1*
X34349Y-16003D1*
X34344Y-16018D1*
X34339Y-16033D1*
X34334Y-16048D1*
X34329Y-16063D1*
X34324Y-16078D1*
X34319Y-16093D1*
X34314Y-16108D1*
X34309Y-16123D1*
X34304Y-16138D1*
X34299Y-16153D1*
X34294Y-16168D1*
X34287Y-16183D1*
X34281Y-16198D1*
X34275Y-16213D1*
X34270Y-16228D1*
X34264Y-16243D1*
X34257Y-16258D1*
X34249Y-16273D1*
X34240Y-16288D1*
X34509Y-15824D2*
X34501Y-15839D1*
X34495Y-15854D1*
X34489Y-15869D1*
X34484Y-15884D1*
X34479Y-15899D1*
X34474Y-15914D1*
X34469Y-15929D1*
X34464Y-15944D1*
X34458Y-15958D1*
X34452Y-15973D1*
X34445Y-15988D1*
X34440Y-16003D1*
X34434Y-16018D1*
X34429Y-16033D1*
X34424Y-16048D1*
X34419Y-16063D1*
X34414Y-16078D1*
X34409Y-16093D1*
X34404Y-16108D1*
X34399Y-16123D1*
X34394Y-16138D1*
X34389Y-16153D1*
X34384Y-16168D1*
X34379Y-16183D1*
X34374Y-16198D1*
X34369Y-16213D1*
X34364Y-16228D1*
X34359Y-16243D1*
X34354Y-16258D1*
X34347Y-16273D1*
X34341Y-16288D1*
X34335Y-16303D1*
X34330Y-16318D1*
X34324Y-16332D1*
X34319Y-16347D1*
X34314Y-16362D1*
X34309Y-16377D1*
X34304Y-16392D1*
X34299Y-16407D1*
X28689Y-15884D2*
X28655Y-15899D1*
X28624Y-15914D1*
X28597Y-15929D1*
X28569Y-15944D1*
X28764Y-15884D2*
X28798Y-15899D1*
X28826Y-15914D1*
X28848Y-15929D1*
X28866Y-15944D1*
X28880Y-15958D1*
X28892Y-15973D1*
X28901Y-15988D1*
X28909Y-16003D1*
X28917Y-16018D1*
X28922Y-16033D1*
X28926Y-16048D1*
X28930Y-16063D1*
X28934Y-16078D1*
X28938Y-16093D1*
X28941Y-16108D1*
X28942Y-16123D1*
X28943Y-16138D1*
Y-16153D1*
Y-16168D1*
X28941Y-16183D1*
X28937Y-16198D1*
X28933Y-16213D1*
X28928Y-16228D1*
X28923Y-16243D1*
X28918Y-16258D1*
X28913Y-16273D1*
X28906Y-16288D1*
X28897Y-16303D1*
X28888Y-16318D1*
X28878Y-16332D1*
X28865Y-16347D1*
X28849Y-16362D1*
X28828Y-16377D1*
X28802Y-16392D1*
X28769Y-16407D1*
X28734Y-16422D1*
X32310Y-15899D2*
X32283Y-15914D1*
X32260Y-15929D1*
X32242Y-15944D1*
X32228Y-15958D1*
X32218Y-15973D1*
X32209Y-15988D1*
X32202Y-16003D1*
X32196Y-16018D1*
X32193Y-16033D1*
X32191Y-16048D1*
X32190Y-16063D1*
Y-16078D1*
Y-16093D1*
Y-16108D1*
Y-16123D1*
Y-16138D1*
Y-16153D1*
Y-16168D1*
Y-16183D1*
Y-16198D1*
Y-16213D1*
Y-16228D1*
Y-16243D1*
Y-16258D1*
Y-16273D1*
Y-16288D1*
Y-16303D1*
Y-16318D1*
Y-16332D1*
Y-16347D1*
Y-16362D1*
Y-16377D1*
Y-16392D1*
Y-16407D1*
X32369Y-15899D2*
X32396Y-15914D1*
X32418Y-15929D1*
X32433Y-15944D1*
X32444Y-15958D1*
X32452Y-15973D1*
X32456Y-15988D1*
X32458Y-16003D1*
X32459Y-16018D1*
Y-16033D1*
Y-16048D1*
Y-16063D1*
Y-16078D1*
Y-16093D1*
Y-16108D1*
Y-16123D1*
Y-16138D1*
Y-16153D1*
Y-16168D1*
Y-16183D1*
Y-16198D1*
Y-16213D1*
Y-16228D1*
Y-16243D1*
Y-16258D1*
Y-16273D1*
Y-16288D1*
Y-16303D1*
Y-16318D1*
Y-16332D1*
Y-16347D1*
Y-16362D1*
Y-16377D1*
Y-16392D1*
Y-16407D1*
X32669Y-15899D2*
X32642Y-15914D1*
X32618Y-15929D1*
X32599Y-15944D1*
X32583Y-15958D1*
X32571Y-15973D1*
X32562Y-15988D1*
X32556Y-16003D1*
X32552Y-16018D1*
X32550Y-16033D1*
Y-16048D1*
X32549Y-16063D1*
Y-16078D1*
Y-16093D1*
Y-16108D1*
Y-16123D1*
Y-16138D1*
Y-16153D1*
Y-16168D1*
Y-16183D1*
Y-16198D1*
Y-16213D1*
Y-16228D1*
Y-16243D1*
Y-16258D1*
Y-16273D1*
Y-16288D1*
Y-16303D1*
Y-16318D1*
Y-16332D1*
Y-16347D1*
Y-16362D1*
Y-16377D1*
Y-16392D1*
Y-16407D1*
X32729Y-15899D2*
X32755Y-15914D1*
X32777Y-15929D1*
X32792Y-15944D1*
X32804Y-15958D1*
X32811Y-15973D1*
X32815Y-15988D1*
X32817Y-16003D1*
X32818Y-16018D1*
Y-16033D1*
Y-16048D1*
Y-16063D1*
Y-16078D1*
Y-16093D1*
Y-16108D1*
Y-16123D1*
Y-16138D1*
Y-16153D1*
Y-16168D1*
Y-16183D1*
Y-16198D1*
Y-16213D1*
Y-16228D1*
Y-16243D1*
Y-16258D1*
Y-16273D1*
Y-16288D1*
Y-16303D1*
Y-16318D1*
Y-16332D1*
Y-16347D1*
Y-16362D1*
Y-16377D1*
Y-16392D1*
Y-16407D1*
X33282Y-15899D2*
X33265Y-15914D1*
X33246Y-15929D1*
X33228Y-15944D1*
X33212Y-15958D1*
X33200Y-15973D1*
X33191Y-15988D1*
X33184Y-16003D1*
X33178Y-16018D1*
X33173Y-16033D1*
X33168Y-16048D1*
X33165Y-16063D1*
X33164Y-16078D1*
X33163Y-16093D1*
Y-16108D1*
X33162Y-16123D1*
Y-16138D1*
Y-16153D1*
X33163Y-16168D1*
X33165Y-16183D1*
X33169Y-16198D1*
X33173Y-16213D1*
X33178Y-16228D1*
X33186Y-16243D1*
X33196Y-16258D1*
X33210Y-16273D1*
X33230Y-16288D1*
X33267Y-16303D1*
X33327Y-16318D1*
X33402Y-16332D1*
X33357Y-15899D2*
X33384Y-15914D1*
X33408Y-15929D1*
X33427Y-15944D1*
X33444Y-15958D1*
X33458Y-15973D1*
X33468Y-15988D1*
X33475Y-16003D1*
X33481Y-16018D1*
X33486Y-16033D1*
X33489Y-16048D1*
X33490Y-16063D1*
X33491Y-16078D1*
Y-16093D1*
Y-16108D1*
X33492Y-16123D1*
Y-16138D1*
X33491Y-16153D1*
Y-16168D1*
X33489Y-16183D1*
X33485Y-16198D1*
X33479Y-16213D1*
X33472Y-16228D1*
X33465Y-16243D1*
X33455Y-16258D1*
X33443Y-16273D1*
X33427Y-16288D1*
X33388Y-16303D1*
X33327Y-16318D1*
X33252Y-16332D1*
X28644Y-15973D2*
X28615Y-15988D1*
X28587Y-16003D1*
X28563Y-16018D1*
X28540Y-16033D1*
X28734Y-15973D2*
X28761Y-15988D1*
X28785Y-16003D1*
X28804Y-16018D1*
X28820Y-16033D1*
X28831Y-16048D1*
X28840Y-16063D1*
X28847Y-16078D1*
X28851Y-16093D1*
X28852Y-16108D1*
X28853Y-16123D1*
X28854Y-16138D1*
Y-16153D1*
Y-16168D1*
X28853Y-16183D1*
X28851Y-16198D1*
X28847Y-16213D1*
X28841Y-16228D1*
X28834Y-16243D1*
X28826Y-16258D1*
X28816Y-16273D1*
X28792Y-16288D1*
X28750Y-16303D1*
X28683Y-16318D1*
X28599Y-16332D1*
X29931Y-16018D2*
X30006Y-16003D2*
X30035Y-16018D1*
X30062Y-16033D1*
X30084Y-16048D1*
X30100Y-16063D1*
X30113Y-16078D1*
X30124Y-16093D1*
X30132Y-16108D1*
X30137Y-16123D1*
X30139Y-16138D1*
X30140Y-16153D1*
Y-16168D1*
Y-16183D1*
X30138Y-16198D1*
X30134Y-16213D1*
X30128Y-16228D1*
X30121Y-16243D1*
X30113Y-16258D1*
X30103Y-16273D1*
X30079Y-16288D1*
X30037Y-16303D1*
X29969Y-16318D1*
X29886Y-16332D1*
X31442Y-16153D2*
X31440Y-16168D1*
X31436Y-16183D1*
X31431Y-16198D1*
X31427Y-16213D1*
X31421Y-16228D1*
X31415Y-16243D1*
X31408Y-16258D1*
X31403Y-16273D1*
X31397Y-16288D1*
X31392Y-16303D1*
X31387Y-16318D1*
X31382Y-16332D1*
X31377Y-16347D1*
X31370Y-16362D1*
X31364Y-16377D1*
X31357Y-16392D1*
X31352Y-16407D1*
X31831Y-16153D2*
X31833Y-16168D1*
X31837Y-16183D1*
X31841Y-16198D1*
X31846Y-16213D1*
X31851Y-16228D1*
X31858Y-16243D1*
X31864Y-16258D1*
X31870Y-16273D1*
X31875Y-16288D1*
X31881Y-16303D1*
X31886Y-16318D1*
X31891Y-16332D1*
X31896Y-16347D1*
X31903Y-16362D1*
X31909Y-16377D1*
X31915Y-16392D1*
X31921Y-16407D1*
X28495Y-16198D2*
X28463Y-16213D1*
X28435Y-16228D1*
X28442Y-16243D1*
X28449Y-16258D1*
X28455Y-16273D1*
X28462Y-16288D1*
X28469Y-16303D1*
X28477Y-16318D1*
X28486Y-16332D1*
X28498Y-16347D1*
X28514Y-16362D1*
X28535Y-16377D1*
X28562Y-16392D1*
X28594Y-16407D1*
X28629Y-16422D1*
X28525Y-16198D2*
X28527Y-16213D1*
X28531Y-16228D1*
X28538Y-16243D1*
X28546Y-16258D1*
X28559Y-16273D1*
X28574Y-16288D1*
X28616Y-16303D1*
X28682Y-16318D1*
X28764Y-16332D1*
X29781Y-16198D2*
X29750Y-16213D1*
X29721Y-16228D1*
X29729Y-16243D1*
X29735Y-16258D1*
X29741Y-16273D1*
X29748Y-16288D1*
X29755Y-16303D1*
X29763Y-16318D1*
X29773Y-16332D1*
X29785Y-16347D1*
X29801Y-16362D1*
X29822Y-16377D1*
X29848Y-16392D1*
X29881Y-16407D1*
X29916Y-16422D1*
X29811Y-16198D2*
X29816Y-16213D1*
X29821Y-16228D1*
X29827Y-16243D1*
X29834Y-16258D1*
X29846Y-16273D1*
X29861Y-16288D1*
X29903Y-16303D1*
X29969Y-16318D1*
X30051Y-16332D1*
X29392Y-16213D2*
Y-16228D1*
Y-16243D1*
Y-16258D1*
Y-16273D1*
Y-16288D1*
Y-16303D1*
Y-16318D1*
Y-16332D1*
Y-16347D1*
Y-16362D1*
Y-16377D1*
Y-16392D1*
Y-16407D1*
X34644Y-16318D2*
Y-16332D1*
Y-16347D1*
Y-16362D1*
Y-16377D1*
Y-16392D1*
Y-16407D1*
X34733Y-16318D2*
Y-16332D1*
Y-16347D1*
Y-16362D1*
Y-16377D1*
Y-16392D1*
Y-16407D1*
X35601Y-16318D2*
Y-16332D1*
Y-16347D1*
Y-16362D1*
Y-16377D1*
Y-16392D1*
Y-16407D1*
X35691Y-16318D2*
Y-16332D1*
Y-16347D1*
Y-16362D1*
Y-16377D1*
Y-16392D1*
Y-16407D1*
X33162Y-16332D2*
Y-16347D1*
Y-16362D1*
Y-16377D1*
Y-16392D1*
Y-16407D1*
Y-16422D1*
Y-16437D1*
Y-16452D1*
Y-16467D1*
Y-16482D1*
Y-16497D1*
Y-16512D1*
Y-16527D1*
Y-16542D1*
Y-16557D1*
Y-16572D1*
Y-16587D1*
Y-16602D1*
Y-16617D1*
Y-16632D1*
X33177Y-16332D2*
X33192Y-16347D1*
X33207Y-16362D1*
X33224Y-16377D1*
X33243Y-16392D1*
X33268Y-16407D1*
X33297Y-16422D1*
X5574Y-28248D2*
D98*
X5555Y-28210D1*
X5517Y-28171D1*
X5479Y-28152D1*
X5402D1*
X5364Y-28171D1*
X5326Y-28210D1*
X5306Y-28248D1*
X5287Y-28305D1*
Y-28401D1*
X5306Y-28458D1*
X5326Y-28497D1*
X5364Y-28535D1*
X5402Y-28554D1*
X5479D1*
X5517Y-28535D1*
X5555Y-28497D1*
X5574Y-28458D1*
X5698Y-28229D2*
X5736Y-28210D1*
X5794Y-28153D1*
Y-28554D1*
X5532Y-29248D2*
X5513Y-29210D1*
X5475Y-29171D1*
X5437Y-29152D1*
X5360D1*
X5322Y-29171D1*
X5284Y-29210D1*
X5264Y-29248D1*
X5245Y-29305D1*
Y-29401D1*
X5264Y-29458D1*
X5284Y-29497D1*
X5322Y-29535D1*
X5360Y-29554D1*
X5437D1*
X5475Y-29535D1*
X5513Y-29497D1*
X5532Y-29458D1*
X5675Y-29248D2*
Y-29229D1*
X5694Y-29191D1*
X5713Y-29172D1*
X5752Y-29153D1*
X5828D1*
X5866Y-29172D1*
X5885Y-29191D1*
X5905Y-29229D1*
Y-29267D1*
X5885Y-29306D1*
X5847Y-29363D1*
X5656Y-29554D1*
X5924D1*
X1998Y-30905D2*
X1960Y-30924D1*
X1921Y-30963D1*
X1902Y-31001D1*
Y-31077D1*
X1921Y-31116D1*
X1960Y-31154D1*
X1998Y-31173D1*
X2055Y-31192D1*
X2151D1*
X2208Y-31173D1*
X2247Y-31154D1*
X2285Y-31116D1*
X2304Y-31077D1*
Y-31001D1*
X2285Y-30963D1*
X2247Y-30924D1*
X2208Y-30905D1*
X1903Y-30743D2*
Y-30533D1*
X2056Y-30648D1*
Y-30590D1*
X2075Y-30552D1*
X2094Y-30533D1*
X2151Y-30514D1*
X2189D1*
X2247Y-30533D1*
X2285Y-30571D1*
X2304Y-30629D1*
Y-30686D1*
X2285Y-30743D1*
X2266Y-30762D1*
X2228Y-30782D1*
X4748Y-30959D2*
X4710Y-30978D1*
X4671Y-31016D1*
X4652Y-31054D1*
Y-31131D1*
X4671Y-31169D1*
X4710Y-31207D1*
X4748Y-31227D1*
X4805Y-31246D1*
X4901D1*
X4958Y-31227D1*
X4997Y-31207D1*
X5035Y-31169D1*
X5054Y-31131D1*
Y-31054D1*
X5035Y-31016D1*
X4997Y-30978D1*
X4958Y-30959D1*
X5054Y-30644D2*
X4653D1*
X4920Y-30835D1*
Y-30548D1*
X7485Y-29885D2*
X7466Y-29847D1*
X7428Y-29808D1*
X7390Y-29789D1*
X7313D1*
X7275Y-29808D1*
X7237Y-29847D1*
X7217Y-29885D1*
X7198Y-29942D1*
Y-30038D1*
X7217Y-30095D1*
X7237Y-30134D1*
X7275Y-30172D1*
X7313Y-30191D1*
X7390D1*
X7428Y-30172D1*
X7466Y-30134D1*
X7485Y-30095D1*
X7838Y-29790D2*
X7647D1*
X7628Y-29962D1*
X7647Y-29943D1*
X7705Y-29923D1*
X7762D1*
X7819Y-29943D1*
X7858Y-29981D1*
X7877Y-30038D1*
Y-30076D1*
X7858Y-30134D1*
X7819Y-30172D1*
X7762Y-30191D1*
X7705D1*
X7647Y-30172D1*
X7628Y-30153D1*
X7609Y-30115D1*
X14935Y-27730D2*
X14897Y-27749D1*
X14859Y-27788D1*
X14840Y-27826D1*
Y-27902D1*
X14859Y-27940D1*
X14897Y-27979D1*
X14935Y-27998D1*
X14993Y-28017D1*
X15089D1*
X15146Y-27998D1*
X15184Y-27979D1*
X15222Y-27940D1*
X15242Y-27902D1*
Y-27826D1*
X15222Y-27788D1*
X15184Y-27749D1*
X15146Y-27730D1*
X14897Y-27377D2*
X14859Y-27396D1*
X14840Y-27454D1*
Y-27492D1*
X14859Y-27549D1*
X14917Y-27588D1*
X15012Y-27607D1*
X15108D1*
X15184Y-27588D1*
X15223Y-27549D1*
X15242Y-27492D1*
Y-27473D1*
X15223Y-27416D1*
X15184Y-27377D1*
X15127Y-27358D1*
X15108D1*
X15050Y-27377D1*
X15012Y-27416D1*
X14993Y-27473D1*
Y-27492D1*
X15012Y-27549D1*
X15050Y-27588D1*
X15108Y-27607D1*
X12385Y-26373D2*
X12366Y-26335D1*
X12328Y-26296D1*
X12290Y-26277D1*
X12213D1*
X12175Y-26296D1*
X12137Y-26335D1*
X12117Y-26373D1*
X12098Y-26430D1*
Y-26526D1*
X12117Y-26583D1*
X12137Y-26622D1*
X12175Y-26660D1*
X12213Y-26679D1*
X12290D1*
X12328Y-26660D1*
X12366Y-26622D1*
X12385Y-26583D1*
X12585Y-26679D2*
X12777Y-26278D1*
X12509D1*
X12073Y-28060D2*
X12054Y-28022D1*
X12015Y-27984D1*
X11977Y-27965D1*
X11901D1*
X11863Y-27984D1*
X11824Y-28022D1*
X11805Y-28060D1*
X11786Y-28118D1*
Y-28214D1*
X11805Y-28271D1*
X11824Y-28309D1*
X11863Y-28347D1*
X11901Y-28367D1*
X11977D1*
X12015Y-28347D1*
X12054Y-28309D1*
X12073Y-28271D1*
X12292Y-27965D2*
X12235Y-27984D1*
X12215Y-28022D1*
Y-28061D1*
X12235Y-28099D1*
X12273Y-28118D1*
X12349Y-28137D1*
X12407Y-28156D1*
X12445Y-28195D1*
X12464Y-28233D1*
Y-28290D1*
X12445Y-28328D1*
X12426Y-28348D1*
X12368Y-28367D1*
X12292D1*
X12235Y-28348D1*
X12215Y-28328D1*
X12196Y-28290D1*
Y-28233D1*
X12215Y-28195D1*
X12254Y-28156D1*
X12311Y-28137D1*
X12387Y-28118D1*
X12426Y-28099D1*
X12445Y-28061D1*
Y-28022D1*
X12426Y-27984D1*
X12368Y-27965D1*
X12292D1*
X15435Y-25730D2*
X15397Y-25749D1*
X15359Y-25788D1*
X15340Y-25826D1*
Y-25902D1*
X15359Y-25941D1*
X15397Y-25979D1*
X15435Y-25998D1*
X15493Y-26017D1*
X15589D1*
X15646Y-25998D1*
X15684Y-25979D1*
X15722Y-25941D1*
X15742Y-25902D1*
Y-25826D1*
X15722Y-25788D1*
X15684Y-25749D1*
X15646Y-25730D1*
X15474Y-25358D2*
X15531Y-25377D1*
X15570Y-25415D1*
X15589Y-25473D1*
Y-25492D1*
X15570Y-25549D1*
X15531Y-25587D1*
X15474Y-25607D1*
X15455D1*
X15397Y-25587D1*
X15359Y-25549D1*
X15340Y-25492D1*
Y-25473D1*
X15359Y-25415D1*
X15397Y-25377D1*
X15474Y-25358D1*
X15570D1*
X15665Y-25377D1*
X15723Y-25415D1*
X15742Y-25473D1*
Y-25511D1*
X15723Y-25568D1*
X15684Y-25587D1*
X14391Y-29310D2*
X14372Y-29272D1*
X14334Y-29234D1*
X14296Y-29215D1*
X14219D1*
X14181Y-29234D1*
X14143Y-29272D1*
X14123Y-29310D1*
X14104Y-29368D1*
Y-29464D1*
X14123Y-29521D1*
X14143Y-29559D1*
X14181Y-29597D1*
X14219Y-29617D1*
X14296D1*
X14334Y-29597D1*
X14372Y-29559D1*
X14391Y-29521D1*
X14515Y-29292D2*
X14553Y-29272D1*
X14610Y-29215D1*
Y-29617D1*
X14925D2*
Y-29215D1*
X14734Y-29483D1*
X15021D1*
X13035Y-32623D2*
X13016Y-32585D1*
X12978Y-32546D1*
X12940Y-32527D1*
X12863D1*
X12825Y-32546D1*
X12787Y-32585D1*
X12767Y-32623D1*
X12748Y-32680D1*
Y-32776D1*
X12767Y-32833D1*
X12787Y-32872D1*
X12825Y-32910D1*
X12863Y-32929D1*
X12940D1*
X12978Y-32910D1*
X13016Y-32872D1*
X13035Y-32833D1*
X13159Y-32604D2*
X13197Y-32585D1*
X13255Y-32528D1*
Y-32929D1*
X13608Y-32585D2*
X13589Y-32547D1*
X13531Y-32528D1*
X13493D1*
X13436Y-32547D1*
X13397Y-32604D1*
X13378Y-32700D1*
Y-32795D1*
X13397Y-32872D1*
X13436Y-32910D1*
X13493Y-32929D1*
X13512D1*
X13569Y-32910D1*
X13608Y-32872D1*
X13627Y-32814D1*
Y-32795D1*
X13608Y-32738D1*
X13569Y-32700D1*
X13512Y-32681D1*
X13493D1*
X13436Y-32700D1*
X13397Y-32738D1*
X13378Y-32795D1*
X34736Y-13310D2*
X34717Y-13272D1*
X34679Y-13234D1*
X34641Y-13215D1*
X34564D1*
X34526Y-13234D1*
X34488Y-13272D1*
X34468Y-13310D1*
X34449Y-13368D1*
Y-13464D1*
X34468Y-13521D1*
X34488Y-13559D1*
X34526Y-13597D1*
X34564Y-13617D1*
X34641D1*
X34679Y-13597D1*
X34717Y-13559D1*
X34736Y-13521D1*
X34860Y-13292D2*
X34898Y-13272D1*
X34956Y-13215D1*
Y-13617D1*
X35194Y-13215D2*
X35137Y-13234D1*
X35098Y-13292D1*
X35079Y-13387D1*
Y-13445D1*
X35098Y-13540D1*
X35137Y-13598D1*
X35194Y-13617D1*
X35232D1*
X35290Y-13598D1*
X35328Y-13540D1*
X35347Y-13445D1*
Y-13387D1*
X35328Y-13292D1*
X35290Y-13234D1*
X35232Y-13215D1*
X35194D1*
X35328Y-13292D2*
X35098Y-13540D1*
X35720Y-13349D2*
X35700Y-13406D1*
X35662Y-13445D1*
X35605Y-13464D1*
X35586D1*
X35528Y-13445D1*
X35490Y-13406D1*
X35471Y-13349D1*
Y-13330D1*
X35490Y-13272D1*
X35528Y-13234D1*
X35586Y-13215D1*
X35605D1*
X35662Y-13234D1*
X35700Y-13272D1*
X35720Y-13349D1*
Y-13445D1*
X35700Y-13540D1*
X35662Y-13598D1*
X35605Y-13617D1*
X35567D1*
X35509Y-13598D1*
X35490Y-13559D1*
X7935Y-7562D2*
X7897Y-7581D1*
X7859Y-7620D1*
X7840Y-7658D1*
Y-7734D1*
X7859Y-7773D1*
X7897Y-7811D1*
X7935Y-7830D1*
X7993Y-7849D1*
X8089D1*
X8146Y-7830D1*
X8184Y-7811D1*
X8222Y-7773D1*
X8242Y-7734D1*
Y-7658D1*
X8222Y-7620D1*
X8184Y-7581D1*
X8146Y-7562D1*
X7917Y-7439D2*
X7897Y-7400D1*
X7840Y-7343D1*
X8242D1*
X7917Y-7219D2*
X7897Y-7181D1*
X7840Y-7123D1*
X8242D1*
X7936Y-6980D2*
X7917D1*
X7878Y-6961D1*
X7859Y-6942D1*
X7840Y-6904D1*
Y-6827D1*
X7859Y-6789D1*
X7878Y-6770D1*
X7917Y-6751D1*
X7955D1*
X7993Y-6770D1*
X8050Y-6808D1*
X8242Y-7000D1*
Y-6732D1*
X5474Y-10197D2*
X5455Y-10159D1*
X5416Y-10121D1*
X5378Y-10102D1*
X5302D1*
X5263Y-10121D1*
X5225Y-10159D1*
X5206Y-10197D1*
X5187Y-10255D1*
Y-10351D1*
X5206Y-10408D1*
X5225Y-10446D1*
X5263Y-10484D1*
X5302Y-10504D1*
X5378D1*
X5416Y-10484D1*
X5455Y-10446D1*
X5474Y-10408D1*
X5597Y-10179D2*
X5636Y-10159D1*
X5693Y-10102D1*
Y-10504D1*
X5817Y-10179D2*
X5855Y-10159D1*
X5913Y-10102D1*
Y-10504D1*
X6075Y-10102D2*
X6285D1*
X6170Y-10255D1*
X6228D1*
X6266Y-10274D1*
X6285Y-10293D1*
X6304Y-10351D1*
Y-10389D1*
X6285Y-10446D1*
X6247Y-10485D1*
X6189Y-10504D1*
X6132D1*
X6075Y-10485D1*
X6056Y-10465D1*
X6036Y-10427D1*
X10259Y-7493D2*
X10240Y-7455D1*
X10201Y-7416D1*
X10163Y-7397D1*
X10087D1*
X10048Y-7416D1*
X10010Y-7455D1*
X9991Y-7493D1*
X9972Y-7550D1*
Y-7646D1*
X9991Y-7703D1*
X10010Y-7742D1*
X10048Y-7780D1*
X10087Y-7799D1*
X10163D1*
X10201Y-7780D1*
X10240Y-7742D1*
X10259Y-7703D1*
X10382Y-7474D2*
X10421Y-7455D1*
X10478Y-7398D1*
Y-7799D1*
X10602Y-7474D2*
X10640Y-7455D1*
X10698Y-7398D1*
Y-7799D1*
X11013D2*
Y-7398D1*
X10821Y-7665D1*
X11108D1*
X6135Y-13623D2*
X6116Y-13585D1*
X6078Y-13546D1*
X6040Y-13527D1*
X5963D1*
X5925Y-13546D1*
X5887Y-13585D1*
X5867Y-13623D1*
X5848Y-13680D1*
Y-13776D1*
X5867Y-13833D1*
X5887Y-13872D1*
X5925Y-13910D1*
X5963Y-13929D1*
X6040D1*
X6078Y-13910D1*
X6116Y-13872D1*
X6135Y-13833D1*
X6259Y-13604D2*
X6297Y-13585D1*
X6355Y-13528D1*
Y-13929D1*
X6478Y-13604D2*
X6517Y-13585D1*
X6574Y-13528D1*
Y-13929D1*
X6927Y-13585D2*
X6908Y-13547D1*
X6851Y-13528D1*
X6813D1*
X6755Y-13547D1*
X6717Y-13604D1*
X6698Y-13700D1*
Y-13795D1*
X6717Y-13872D1*
X6755Y-13910D1*
X6813Y-13929D1*
X6832D1*
X6889Y-13910D1*
X6927Y-13872D1*
X6946Y-13814D1*
Y-13795D1*
X6927Y-13738D1*
X6889Y-13700D1*
X6832Y-13681D1*
X6813D1*
X6755Y-13700D1*
X6717Y-13738D1*
X6698Y-13795D1*
X32632Y-1098D2*
X32613Y-1060D1*
X32574Y-1021D1*
X32536Y-1002D1*
X32460D1*
X32421Y-1021D1*
X32383Y-1060D1*
X32364Y-1098D1*
X32345Y-1155D1*
Y-1251D1*
X32364Y-1308D1*
X32383Y-1347D1*
X32421Y-1385D1*
X32460Y-1404D1*
X32536D1*
X32574Y-1385D1*
X32613Y-1347D1*
X32632Y-1308D1*
X32755Y-1079D2*
X32794Y-1060D1*
X32851Y-1003D1*
Y-1404D1*
X32975Y-1079D2*
X33013Y-1060D1*
X33070Y-1003D1*
Y-1404D1*
X33290Y-1003D2*
X33232Y-1022D1*
X33213Y-1060D1*
Y-1098D1*
X33232Y-1136D1*
X33270Y-1156D1*
X33347Y-1175D1*
X33404Y-1194D1*
X33442Y-1232D1*
X33462Y-1270D1*
Y-1328D1*
X33442Y-1366D1*
X33423Y-1385D1*
X33366Y-1404D1*
X33290D1*
X33232Y-1385D1*
X33213Y-1366D1*
X33194Y-1328D1*
Y-1270D1*
X33213Y-1232D1*
X33251Y-1194D1*
X33309Y-1175D1*
X33385Y-1156D1*
X33423Y-1136D1*
X33442Y-1098D1*
Y-1060D1*
X33423Y-1022D1*
X33366Y-1003D1*
X33290D1*
X26572Y-3248D2*
X26553Y-3210D1*
X26515Y-3171D1*
X26477Y-3152D1*
X26400D1*
X26362Y-3171D1*
X26324Y-3210D1*
X26304Y-3248D1*
X26285Y-3305D1*
Y-3401D1*
X26304Y-3458D1*
X26324Y-3497D1*
X26362Y-3535D1*
X26400Y-3554D1*
X26477D1*
X26515Y-3535D1*
X26553Y-3497D1*
X26572Y-3458D1*
X26696Y-3229D2*
X26734Y-3210D1*
X26792Y-3153D1*
Y-3554D1*
X26915Y-3229D2*
X26954Y-3210D1*
X27011Y-3153D1*
Y-3554D1*
X27384Y-3286D2*
X27364Y-3344D1*
X27326Y-3382D1*
X27269Y-3401D1*
X27250D1*
X27192Y-3382D1*
X27154Y-3344D1*
X27135Y-3286D1*
Y-3267D1*
X27154Y-3210D1*
X27192Y-3172D1*
X27250Y-3153D1*
X27269D1*
X27326Y-3172D1*
X27364Y-3210D1*
X27384Y-3286D1*
Y-3382D1*
X27364Y-3478D1*
X27326Y-3535D1*
X27269Y-3554D1*
X27231D1*
X27173Y-3535D1*
X27154Y-3497D1*
X33060Y-4380D2*
X33022Y-4399D1*
X32984Y-4437D1*
X32965Y-4475D1*
Y-4552D1*
X32984Y-4590D1*
X33022Y-4628D1*
X33060Y-4648D1*
X33118Y-4667D1*
X33214D1*
X33271Y-4648D1*
X33309Y-4628D1*
X33347Y-4590D1*
X33367Y-4552D1*
Y-4475D1*
X33347Y-4437D1*
X33309Y-4399D1*
X33271Y-4380D1*
X33042Y-4256D2*
X33022Y-4218D1*
X32965Y-4160D1*
X33367D1*
X33061Y-4017D2*
X33042D1*
X33003Y-3998D1*
X32984Y-3979D1*
X32965Y-3941D1*
Y-3864D1*
X32984Y-3826D1*
X33003Y-3807D1*
X33042Y-3788D1*
X33080D1*
X33118Y-3807D1*
X33175Y-3845D1*
X33367Y-4037D1*
Y-3769D1*
X33061Y-3626D2*
X33042D1*
X33003Y-3607D1*
X32984Y-3588D1*
X32965Y-3549D1*
Y-3473D1*
X32984Y-3435D1*
X33003Y-3416D1*
X33042Y-3396D1*
X33080D1*
X33118Y-3416D1*
X33175Y-3454D1*
X33367Y-3645D1*
Y-3377D1*
X29986Y-4060D2*
X29967Y-4022D1*
X29928Y-3984D1*
X29890Y-3965D1*
X29814D1*
X29775Y-3984D1*
X29737Y-4022D1*
X29718Y-4060D1*
X29699Y-4118D1*
Y-4214D1*
X29718Y-4271D1*
X29737Y-4309D1*
X29775Y-4347D1*
X29814Y-4367D1*
X29890D1*
X29928Y-4347D1*
X29967Y-4309D1*
X29986Y-4271D1*
X30109Y-4042D2*
X30148Y-4022D1*
X30205Y-3965D1*
Y-4367D1*
X30348Y-4061D2*
Y-4042D1*
X30367Y-4003D1*
X30386Y-3984D1*
X30425Y-3965D1*
X30501D1*
X30539Y-3984D1*
X30558Y-4003D1*
X30578Y-4042D1*
Y-4080D1*
X30558Y-4118D1*
X30520Y-4175D1*
X30329Y-4367D1*
X30597D1*
X30912D2*
Y-3965D1*
X30720Y-4233D1*
X31007D1*
X30685Y-19248D2*
X30647Y-19267D1*
X30609Y-19305D1*
X30590Y-19343D1*
Y-19420D1*
X30609Y-19458D1*
X30647Y-19496D1*
X30685Y-19516D1*
X30743Y-19535D1*
X30839D1*
X30896Y-19516D1*
X30934Y-19496D1*
X30972Y-19458D1*
X30992Y-19420D1*
Y-19343D1*
X30972Y-19305D1*
X30934Y-19267D1*
X30896Y-19248D1*
X30667Y-19124D2*
X30647Y-19086D1*
X30590Y-19028D1*
X30992D1*
X30590Y-18867D2*
Y-18656D1*
X30743Y-18771D1*
Y-18714D1*
X30762Y-18676D1*
X30781Y-18656D1*
X30839Y-18637D1*
X30877D1*
X30934Y-18656D1*
X30973Y-18695D1*
X30992Y-18752D1*
Y-18809D1*
X30973Y-18867D1*
X30953Y-18886D1*
X30915Y-18905D1*
X30590Y-18399D2*
X30609Y-18456D1*
X30667Y-18495D1*
X30762Y-18514D1*
X30820D1*
X30915Y-18495D1*
X30973Y-18456D1*
X30992Y-18399D1*
Y-18361D1*
X30973Y-18303D1*
X30915Y-18265D1*
X30820Y-18246D1*
X30762D1*
X30667Y-18265D1*
X30609Y-18303D1*
X30590Y-18361D1*
Y-18399D1*
X30667Y-18265D2*
X30915Y-18495D1*
X32620Y-19373D2*
X32601Y-19335D1*
X32563Y-19296D1*
X32525Y-19277D1*
X32448D1*
X32410Y-19296D1*
X32372Y-19335D1*
X32352Y-19373D1*
X32333Y-19430D1*
Y-19526D1*
X32352Y-19583D1*
X32372Y-19622D1*
X32410Y-19660D1*
X32448Y-19679D1*
X32525D1*
X32563Y-19660D1*
X32601Y-19622D1*
X32620Y-19583D1*
X32744Y-19354D2*
X32782Y-19335D1*
X32840Y-19278D1*
Y-19679D1*
X33002Y-19278D2*
X33212D1*
X33097Y-19431D1*
X33155D1*
X33193Y-19450D1*
X33212Y-19469D1*
X33231Y-19526D1*
Y-19564D1*
X33212Y-19622D1*
X33174Y-19660D1*
X33116Y-19679D1*
X33059D1*
X33002Y-19660D1*
X32983Y-19641D1*
X32963Y-19603D1*
X33393Y-19278D2*
X33603D1*
X33489Y-19431D1*
X33546D1*
X33584Y-19450D1*
X33603Y-19469D1*
X33623Y-19526D1*
Y-19564D1*
X33603Y-19622D1*
X33565Y-19660D1*
X33508Y-19679D1*
X33450D1*
X33393Y-19660D1*
X33374Y-19641D1*
X33355Y-19603D1*
X26780Y-18748D2*
X26761Y-18710D1*
X26722Y-18671D1*
X26684Y-18652D1*
X26608D1*
X26569Y-18671D1*
X26531Y-18710D1*
X26512Y-18748D1*
X26493Y-18805D1*
Y-18901D1*
X26512Y-18958D1*
X26531Y-18997D1*
X26569Y-19035D1*
X26608Y-19054D1*
X26684D1*
X26722Y-19035D1*
X26761Y-18997D1*
X26780Y-18958D1*
X26903Y-18729D2*
X26942Y-18710D1*
X26999Y-18653D1*
Y-19054D1*
X27161Y-18653D2*
X27371D1*
X27257Y-18806D1*
X27314D1*
X27352Y-18825D1*
X27371Y-18844D1*
X27391Y-18901D1*
Y-18939D1*
X27371Y-18997D1*
X27333Y-19035D1*
X27276Y-19054D1*
X27218D1*
X27161Y-19035D1*
X27142Y-19016D1*
X27123Y-18978D1*
X27706Y-19054D2*
Y-18653D1*
X27514Y-18920D1*
X27801D1*
X31995Y-21935D2*
X31976Y-21897D1*
X31938Y-21859D1*
X31900Y-21840D1*
X31823D1*
X31785Y-21859D1*
X31747Y-21897D1*
X31727Y-21935D1*
X31708Y-21993D1*
Y-22089D1*
X31727Y-22146D1*
X31747Y-22184D1*
X31785Y-22222D1*
X31823Y-22242D1*
X31900D1*
X31938Y-22222D1*
X31976Y-22184D1*
X31995Y-22146D1*
X32119Y-21917D2*
X32157Y-21897D1*
X32215Y-21840D1*
Y-22242D1*
X32377Y-21840D2*
X32587D1*
X32472Y-21993D1*
X32530D1*
X32568Y-22012D1*
X32587Y-22031D1*
X32606Y-22089D1*
Y-22127D1*
X32587Y-22184D1*
X32549Y-22223D1*
X32491Y-22242D1*
X32434D1*
X32377Y-22223D1*
X32358Y-22203D1*
X32338Y-22165D1*
X32806Y-22242D2*
X32998Y-21840D1*
X32730D1*
X7256Y-24447D2*
Y-24849D1*
X7390D1*
X7448Y-24829D1*
X7486Y-24791D1*
X7505Y-24753D1*
X7524Y-24696D1*
Y-24600D1*
X7505Y-24542D1*
X7486Y-24504D1*
X7448Y-24466D1*
X7390Y-24447D1*
X7256D1*
X7648Y-24524D2*
X7686Y-24504D1*
X7744Y-24447D1*
Y-24849D1*
X15486Y-37414D2*
Y-37720D1*
X15467Y-37778D1*
X15448Y-37797D1*
X15410Y-37816D1*
X15371D1*
X15333Y-37797D1*
X15314Y-37778D1*
X15295Y-37720D1*
Y-37682D1*
X15610Y-37491D2*
X15648Y-37472D1*
X15705Y-37415D1*
Y-37816D1*
X12912Y-38323D2*
Y-38725D1*
X13055Y-38419D2*
Y-38400D1*
X13074Y-38362D1*
X13093Y-38343D1*
X13131Y-38324D1*
X13207D1*
X13246Y-38343D1*
X13265Y-38362D1*
X13284Y-38400D1*
Y-38438D1*
X13265Y-38477D1*
X13227Y-38534D1*
X13035Y-38725D1*
X13303D1*
X13713Y-38419D2*
X13694Y-38381D1*
X13656Y-38342D1*
X13618Y-38323D1*
X13541D1*
X13503Y-38342D1*
X13465Y-38381D1*
X13446Y-38419D1*
X13427Y-38476D1*
Y-38572D1*
X13446Y-38629D1*
X13465Y-38668D1*
X13503Y-38706D1*
X13541Y-38725D1*
X13618D1*
X13656Y-38706D1*
X13694Y-38668D1*
X13713Y-38629D1*
X10228Y-27602D2*
Y-27908D1*
X10209Y-27965D1*
X10189Y-27984D1*
X10151Y-28004D1*
X10113D1*
X10075Y-27984D1*
X10056Y-27965D1*
X10036Y-27908D1*
Y-27870D1*
X10351Y-27812D2*
X10524D1*
X10581Y-27793D1*
X10600Y-27774D1*
X10619Y-27736D1*
Y-27678D1*
X10600Y-27640D1*
X10581Y-27621D1*
X10524Y-27602D1*
X10351D1*
Y-28004D1*
X10743Y-27679D2*
X10781Y-27659D1*
X10839Y-27602D1*
Y-28004D1*
X9386Y-24727D2*
Y-25129D1*
X9529Y-24823D2*
Y-24804D1*
X9548Y-24765D1*
X9567Y-24746D1*
X9605Y-24727D1*
X9682D1*
X9720Y-24746D1*
X9739Y-24765D1*
X9758Y-24804D1*
Y-24842D1*
X9739Y-24880D1*
X9701Y-24937D1*
X9509Y-25129D1*
X9777D1*
X10188Y-24822D2*
X10169Y-24784D1*
X10130Y-24746D1*
X10092Y-24727D1*
X10016D1*
X9977Y-24746D1*
X9939Y-24784D1*
X9920Y-24822D1*
X9901Y-24880D1*
Y-24976D1*
X9920Y-25033D1*
X9939Y-25071D1*
X9977Y-25109D1*
X10016Y-25129D1*
X10092D1*
X10130Y-25109D1*
X10169Y-25071D1*
X10188Y-25033D1*
X11006Y-25129D2*
X10853Y-24727D1*
X10700Y-25129D1*
X10757Y-24995D2*
X10949D1*
X11359Y-24727D2*
Y-25129D1*
Y-24918D2*
X11321Y-24880D1*
X11283Y-24861D1*
X11225D1*
X11187Y-24880D1*
X11149Y-24918D1*
X11130Y-24976D1*
Y-25014D1*
X11149Y-25071D1*
X11187Y-25109D1*
X11225Y-25129D1*
X11283D1*
X11321Y-25109D1*
X11359Y-25071D1*
X11712Y-24727D2*
Y-25129D1*
Y-24918D2*
X11674Y-24880D1*
X11636Y-24861D1*
X11578D1*
X11540Y-24880D1*
X11502Y-24918D1*
X11483Y-24976D1*
Y-25014D1*
X11502Y-25071D1*
X11540Y-25109D1*
X11578Y-25129D1*
X11636D1*
X11674Y-25109D1*
X11712Y-25071D1*
X11836Y-24861D2*
Y-25129D1*
Y-24976D2*
X11855Y-24918D1*
X11893Y-24880D1*
X11932Y-24861D1*
X11989D1*
X10530Y-32453D2*
X10492Y-32472D1*
X10454Y-32510D1*
X10435Y-32549D1*
X10415Y-32606D1*
Y-32702D1*
X10435Y-32759D1*
X10454Y-32797D1*
X10492Y-32836D1*
X10530Y-32855D1*
X10607D1*
X10645Y-32836D1*
X10683Y-32797D1*
X10702Y-32759D1*
X10722Y-32702D1*
Y-32606D1*
X10702Y-32549D1*
X10683Y-32510D1*
X10645Y-32472D1*
X10607Y-32453D1*
X10530D1*
X10588Y-32778D2*
X10702Y-32893D1*
X10845Y-32530D2*
X10884Y-32511D1*
X10941Y-32454D1*
Y-32855D1*
X4969Y-27557D2*
Y-27385D1*
X4949Y-27328D1*
X4930Y-27308D1*
X4892Y-27289D1*
X4854D1*
X4816Y-27308D1*
X4796Y-27328D1*
X4777Y-27385D1*
Y-27557D1*
X5179D1*
X4969Y-27423D2*
X5179Y-27289D1*
X4854Y-27166D2*
X4835Y-27127D1*
X4778Y-27070D1*
X5179D1*
X11795Y-27344D2*
X11967D1*
X12025Y-27324D1*
X12044Y-27305D1*
X12063Y-27267D1*
Y-27229D1*
X12044Y-27191D1*
X12025Y-27171D1*
X11967Y-27152D1*
X11795D1*
Y-27554D1*
X11929Y-27344D2*
X12063Y-27554D1*
X12206Y-27248D2*
Y-27229D1*
X12225Y-27191D1*
X12244Y-27172D1*
X12283Y-27153D1*
X12359D1*
X12397Y-27172D1*
X12416Y-27191D1*
X12436Y-27229D1*
Y-27267D1*
X12416Y-27306D1*
X12378Y-27363D1*
X12187Y-27554D1*
X12455D1*
X12108Y-25719D2*
X12280D1*
X12337Y-25699D1*
X12357Y-25680D1*
X12376Y-25642D1*
Y-25604D1*
X12357Y-25566D1*
X12337Y-25546D1*
X12280Y-25527D1*
X12108D1*
Y-25929D1*
X12242Y-25719D2*
X12376Y-25929D1*
X12538Y-25528D2*
X12748D1*
X12633Y-25681D1*
X12691D1*
X12729Y-25700D1*
X12748Y-25719D1*
X12767Y-25776D1*
Y-25814D1*
X12748Y-25872D1*
X12710Y-25910D1*
X12652Y-25929D1*
X12595D1*
X12538Y-25910D1*
X12519Y-25891D1*
X12499Y-25853D1*
X8219Y-26651D2*
Y-26479D1*
X8199Y-26421D1*
X8180Y-26402D1*
X8142Y-26383D1*
X8104D1*
X8066Y-26402D1*
X8046Y-26421D1*
X8027Y-26479D1*
Y-26651D1*
X8429D1*
X8219Y-26517D2*
X8429Y-26383D1*
Y-26068D2*
X8028D1*
X8295Y-26259D1*
Y-25972D1*
X10358Y-29469D2*
X10530D1*
X10587Y-29449D1*
X10607Y-29430D1*
X10626Y-29392D1*
Y-29354D1*
X10607Y-29316D1*
X10587Y-29296D1*
X10530Y-29277D1*
X10358D1*
Y-29679D1*
X10492Y-29469D2*
X10626Y-29679D1*
X10979Y-29278D2*
X10788D1*
X10769Y-29450D1*
X10788Y-29431D1*
X10845Y-29411D1*
X10902D1*
X10960Y-29431D1*
X10998Y-29469D1*
X11017Y-29526D1*
Y-29564D1*
X10998Y-29622D1*
X10960Y-29660D1*
X10902Y-29679D1*
X10845D1*
X10788Y-29660D1*
X10769Y-29641D1*
X10749Y-29603D1*
X13844Y-37321D2*
Y-37149D1*
X13824Y-37091D1*
X13805Y-37072D1*
X13767Y-37053D1*
X13729D1*
X13691Y-37072D1*
X13671Y-37091D1*
X13652Y-37149D1*
Y-37321D1*
X14054D1*
X13844Y-37187D2*
X14054Y-37053D1*
X13710Y-36700D2*
X13672Y-36719D1*
X13653Y-36777D1*
Y-36815D1*
X13672Y-36872D1*
X13729Y-36910D1*
X13825Y-36929D1*
X13920D1*
X13997Y-36910D1*
X14035Y-36872D1*
X14054Y-36815D1*
Y-36796D1*
X14035Y-36738D1*
X13997Y-36700D1*
X13939Y-36681D1*
X13920D1*
X13863Y-36700D1*
X13825Y-36738D1*
X13806Y-36796D1*
Y-36815D1*
X13825Y-36872D1*
X13863Y-36910D1*
X13920Y-36929D1*
X16094Y-37331D2*
Y-37159D1*
X16074Y-37101D1*
X16055Y-37082D1*
X16017Y-37063D1*
X15979D1*
X15941Y-37082D1*
X15921Y-37101D1*
X15902Y-37159D1*
Y-37331D1*
X16304D1*
X16094Y-37197D2*
X16304Y-37063D1*
Y-36863D2*
X15903Y-36671D1*
Y-36939D1*
X32741Y-13406D2*
X32913D1*
X32970Y-13387D1*
X32990Y-13368D1*
X33009Y-13330D1*
Y-13291D1*
X32990Y-13253D1*
X32970Y-13234D1*
X32913Y-13215D1*
X32741D1*
Y-13617D1*
X32875Y-13406D2*
X33009Y-13617D1*
X33132Y-13292D2*
X33171Y-13272D1*
X33228Y-13215D1*
Y-13617D1*
X33467Y-13215D2*
X33409Y-13234D1*
X33371Y-13292D1*
X33352Y-13387D1*
Y-13445D1*
X33371Y-13540D1*
X33409Y-13598D1*
X33467Y-13617D1*
X33505D1*
X33562Y-13598D1*
X33600Y-13540D1*
X33620Y-13445D1*
Y-13387D1*
X33600Y-13292D1*
X33562Y-13234D1*
X33505Y-13215D1*
X33467D1*
X33600Y-13292D2*
X33371Y-13540D1*
X33782Y-13215D2*
X33992D1*
X33877Y-13368D1*
X33935D1*
X33973Y-13387D1*
X33992Y-13406D1*
X34011Y-13464D1*
Y-13502D1*
X33992Y-13559D1*
X33954Y-13598D1*
X33896Y-13617D1*
X33839D1*
X33782Y-13598D1*
X33763Y-13578D1*
X33743Y-13540D1*
X9053Y-5594D2*
X9225D1*
X9283Y-5574D1*
X9302Y-5555D1*
X9321Y-5517D1*
Y-5479D1*
X9302Y-5441D1*
X9283Y-5421D1*
X9225Y-5402D1*
X9053D1*
Y-5804D1*
X9187Y-5594D2*
X9321Y-5804D1*
X9445Y-5479D2*
X9483Y-5460D1*
X9541Y-5403D1*
Y-5804D1*
X9779Y-5403D2*
X9722Y-5422D1*
X9683Y-5479D1*
X9664Y-5575D1*
Y-5632D1*
X9683Y-5728D1*
X9722Y-5785D1*
X9779Y-5804D1*
X9817D1*
X9875Y-5785D1*
X9913Y-5728D1*
X9932Y-5632D1*
Y-5575D1*
X9913Y-5479D1*
X9875Y-5422D1*
X9817Y-5403D1*
X9779D1*
X9913Y-5479D2*
X9683Y-5728D1*
X10285Y-5403D2*
X10094D1*
X10075Y-5575D1*
X10094Y-5556D1*
X10152Y-5536D1*
X10209D1*
X10266Y-5556D1*
X10305Y-5594D1*
X10324Y-5651D1*
Y-5689D1*
X10305Y-5747D1*
X10266Y-5785D1*
X10209Y-5804D1*
X10152D1*
X10094Y-5785D1*
X10075Y-5766D1*
X10056Y-5728D1*
X4732Y-12426D2*
Y-12254D1*
X4712Y-12196D1*
X4693Y-12177D1*
X4655Y-12158D1*
X4617D1*
X4579Y-12177D1*
X4559Y-12196D1*
X4540Y-12254D1*
Y-12426D1*
X4942D1*
X4732Y-12292D2*
X4942Y-12158D1*
X4617Y-12034D2*
X4598Y-11996D1*
X4541Y-11939D1*
X4942D1*
X4541Y-11700D2*
X4560Y-11758D1*
X4617Y-11796D1*
X4713Y-11815D1*
X4770D1*
X4866Y-11796D1*
X4923Y-11758D1*
X4942Y-11700D1*
Y-11662D1*
X4923Y-11605D1*
X4866Y-11567D1*
X4770Y-11547D1*
X4713D1*
X4617Y-11567D1*
X4560Y-11605D1*
X4541Y-11662D1*
Y-11700D1*
X4617Y-11567D2*
X4866Y-11796D1*
X4598Y-11194D2*
X4560Y-11213D1*
X4541Y-11271D1*
Y-11309D1*
X4560Y-11366D1*
X4617Y-11405D1*
X4713Y-11424D1*
X4808D1*
X4885Y-11405D1*
X4923Y-11366D1*
X4942Y-11309D1*
Y-11290D1*
X4923Y-11233D1*
X4885Y-11194D1*
X4827Y-11175D1*
X4808D1*
X4751Y-11194D1*
X4713Y-11233D1*
X4694Y-11290D1*
Y-11309D1*
X4713Y-11366D1*
X4751Y-11405D1*
X4808Y-11424D1*
X2781Y-13011D2*
Y-12839D1*
X2762Y-12781D1*
X2743Y-12762D1*
X2705Y-12743D1*
X2666D1*
X2628Y-12762D1*
X2609Y-12781D1*
X2590Y-12839D1*
Y-13011D1*
X2992D1*
X2781Y-12877D2*
X2992Y-12743D1*
X2667Y-12619D2*
X2647Y-12581D1*
X2590Y-12524D1*
X2992D1*
X2590Y-12285D2*
X2609Y-12343D1*
X2667Y-12381D1*
X2762Y-12400D1*
X2820D1*
X2915Y-12381D1*
X2973Y-12343D1*
X2992Y-12285D1*
Y-12247D1*
X2973Y-12190D1*
X2915Y-12152D1*
X2820Y-12132D1*
X2762D1*
X2667Y-12152D1*
X2609Y-12190D1*
X2590Y-12247D1*
Y-12285D1*
X2667Y-12152D2*
X2915Y-12381D1*
X2590Y-11913D2*
X2609Y-11970D1*
X2647Y-11990D1*
X2686D1*
X2724Y-11970D1*
X2743Y-11932D1*
X2762Y-11856D1*
X2781Y-11798D1*
X2820Y-11760D1*
X2858Y-11741D1*
X2915D1*
X2953Y-11760D1*
X2973Y-11779D1*
X2992Y-11837D1*
Y-11913D1*
X2973Y-11970D1*
X2953Y-11990D1*
X2915Y-12009D1*
X2858D1*
X2820Y-11990D1*
X2781Y-11951D1*
X2762Y-11894D1*
X2743Y-11818D1*
X2724Y-11779D1*
X2686Y-11760D1*
X2647D1*
X2609Y-11779D1*
X2590Y-11837D1*
Y-11913D1*
X24031Y-4298D2*
Y-4126D1*
X24012Y-4069D1*
X23993Y-4049D1*
X23955Y-4030D1*
X23916D1*
X23878Y-4049D1*
X23859Y-4069D1*
X23840Y-4126D1*
Y-4298D1*
X24242D1*
X24031Y-4164D2*
X24242Y-4030D1*
X23917Y-3907D2*
X23897Y-3868D1*
X23840Y-3811D1*
X24242D1*
X23917Y-3687D2*
X23897Y-3649D1*
X23840Y-3591D1*
X24242D1*
X23840Y-3429D2*
Y-3219D1*
X23993Y-3334D1*
Y-3276D1*
X24012Y-3238D1*
X24031Y-3219D1*
X24089Y-3200D1*
X24127D1*
X24184Y-3219D1*
X24223Y-3257D1*
X24242Y-3315D1*
Y-3372D1*
X24223Y-3429D1*
X24203Y-3448D1*
X24165Y-3468D1*
X31969Y-4560D2*
Y-4388D1*
X31949Y-4330D1*
X31930Y-4311D1*
X31892Y-4292D1*
X31854D1*
X31816Y-4311D1*
X31796Y-4330D1*
X31777Y-4388D1*
Y-4560D1*
X32179D1*
X31969Y-4426D2*
X32179Y-4292D1*
X31854Y-4168D2*
X31835Y-4130D1*
X31778Y-4072D1*
X32179D1*
X31854Y-3949D2*
X31835Y-3910D1*
X31778Y-3853D1*
X32179D1*
Y-3538D2*
X31778D1*
X32045Y-3729D1*
Y-3442D1*
X6452Y-16719D2*
X6624D1*
X6681Y-16699D1*
X6701Y-16680D1*
X6720Y-16642D1*
Y-16604D1*
X6701Y-16566D1*
X6681Y-16546D1*
X6624Y-16527D1*
X6452D1*
Y-16929D1*
X6586Y-16719D2*
X6720Y-16929D1*
X6843Y-16604D2*
X6882Y-16585D1*
X6939Y-16528D1*
Y-16929D1*
X7063Y-16604D2*
X7101Y-16585D1*
X7159Y-16528D1*
Y-16929D1*
X7512Y-16528D2*
X7321D1*
X7302Y-16700D1*
X7321Y-16681D1*
X7378Y-16661D1*
X7435D1*
X7493Y-16681D1*
X7531Y-16719D1*
X7550Y-16776D1*
Y-16814D1*
X7531Y-16872D1*
X7493Y-16910D1*
X7435Y-16929D1*
X7378D1*
X7321Y-16910D1*
X7302Y-16891D1*
X7282Y-16853D1*
X32450Y-17094D2*
X32622D1*
X32680Y-17074D1*
X32699Y-17055D1*
X32718Y-17017D1*
Y-16979D1*
X32699Y-16941D1*
X32680Y-16921D1*
X32622Y-16902D1*
X32450D1*
Y-17304D1*
X32584Y-17094D2*
X32718Y-17304D1*
X32842Y-16979D2*
X32880Y-16960D1*
X32937Y-16903D1*
Y-17304D1*
X33061Y-16979D2*
X33099Y-16960D1*
X33157Y-16903D1*
Y-17304D1*
X33376Y-16903D2*
X33319Y-16922D1*
X33299Y-16960D1*
Y-16998D1*
X33319Y-17036D1*
X33357Y-17056D1*
X33433Y-17075D1*
X33491Y-17094D1*
X33529Y-17132D1*
X33548Y-17170D1*
Y-17228D1*
X33529Y-17266D1*
X33510Y-17285D1*
X33452Y-17304D1*
X33376D1*
X33319Y-17285D1*
X33299Y-17266D1*
X33280Y-17228D1*
Y-17170D1*
X33299Y-17132D1*
X33338Y-17094D1*
X33395Y-17075D1*
X33471Y-17056D1*
X33510Y-17036D1*
X33529Y-16998D1*
Y-16960D1*
X33510Y-16922D1*
X33452Y-16903D1*
X33376D1*
X5032Y-19540D2*
Y-19368D1*
X5013Y-19310D1*
X4994Y-19291D1*
X4956Y-19272D1*
X4917D1*
X4879Y-19291D1*
X4860Y-19310D1*
X4841Y-19368D1*
Y-19540D1*
X5243D1*
X5032Y-19406D2*
X5243Y-19272D1*
X4918Y-19148D2*
X4898Y-19110D1*
X4841Y-19052D1*
X5243D1*
X4918Y-18929D2*
X4898Y-18890D1*
X4841Y-18833D1*
X5243D1*
X4975Y-18460D2*
X5032Y-18480D1*
X5071Y-18518D1*
X5090Y-18575D1*
Y-18594D1*
X5071Y-18652D1*
X5032Y-18690D1*
X4975Y-18709D1*
X4956D1*
X4898Y-18690D1*
X4860Y-18652D1*
X4841Y-18594D1*
Y-18575D1*
X4860Y-18518D1*
X4898Y-18480D1*
X4975Y-18460D1*
X5071D1*
X5166Y-18480D1*
X5224Y-18518D1*
X5243Y-18575D1*
Y-18613D1*
X5224Y-18671D1*
X5185Y-18690D1*
X24469Y-20636D2*
Y-20464D1*
X24449Y-20407D1*
X24430Y-20387D1*
X24392Y-20368D1*
X24354D1*
X24316Y-20387D1*
X24296Y-20407D1*
X24277Y-20464D1*
Y-20636D1*
X24679D1*
X24469Y-20502D2*
X24679Y-20368D1*
X24354Y-20245D2*
X24335Y-20206D1*
X24278Y-20149D1*
X24679D1*
X24373Y-20006D2*
X24354D1*
X24316Y-19987D1*
X24297Y-19968D1*
X24278Y-19929D1*
Y-19853D1*
X24297Y-19815D1*
X24316Y-19796D1*
X24354Y-19776D1*
X24392D1*
X24431Y-19796D1*
X24488Y-19834D1*
X24679Y-20025D1*
Y-19757D1*
X24278Y-19519D2*
X24297Y-19576D1*
X24354Y-19615D1*
X24450Y-19634D1*
X24507D1*
X24603Y-19615D1*
X24660Y-19576D1*
X24679Y-19519D1*
Y-19481D1*
X24660Y-19423D1*
X24603Y-19385D1*
X24507Y-19366D1*
X24450D1*
X24354Y-19385D1*
X24297Y-19423D1*
X24278Y-19481D1*
Y-19519D1*
X24354Y-19385D2*
X24603Y-19615D1*
X7950Y-22214D2*
X8122D1*
X8180Y-22195D1*
X8199Y-22176D1*
X8218Y-22138D1*
Y-22099D1*
X8199Y-22061D1*
X8180Y-22042D1*
X8122Y-22023D1*
X7950D1*
Y-22425D1*
X8084Y-22214D2*
X8218Y-22425D1*
X8342Y-22100D2*
X8380Y-22080D1*
X8437Y-22023D1*
Y-22425D1*
X8580Y-22119D2*
Y-22100D1*
X8599Y-22061D1*
X8618Y-22042D1*
X8657Y-22023D1*
X8733D1*
X8771Y-22042D1*
X8790Y-22061D1*
X8810Y-22100D1*
Y-22138D1*
X8790Y-22176D1*
X8752Y-22233D1*
X8561Y-22425D1*
X8829D1*
X8952Y-22100D2*
X8991Y-22080D1*
X9048Y-22023D1*
Y-22425D1*
X1197Y-28608D2*
Y-28895D1*
X1216Y-28953D1*
X1255Y-28991D1*
X1312Y-29010D1*
X1350D1*
X1408Y-28991D1*
X1446Y-28953D1*
X1465Y-28895D1*
Y-28608D1*
X1589Y-28685D2*
X1627Y-28666D1*
X1684Y-28609D1*
Y-29010D1*
X17973Y-31988D2*
Y-32275D1*
X17992Y-32333D1*
X18030Y-32371D1*
X18088Y-32390D1*
X18126D1*
X18183Y-32371D1*
X18222Y-32333D1*
X18241Y-32275D1*
Y-31988D1*
X18384Y-32084D2*
Y-32065D1*
X18403Y-32027D1*
X18422Y-32008D1*
X18460Y-31989D1*
X18537D1*
X18575Y-32008D1*
X18594Y-32027D1*
X18613Y-32065D1*
Y-32103D1*
X18594Y-32142D1*
X18556Y-32199D1*
X18364Y-32390D1*
X18632D1*
X18077Y-30988D2*
X18479D1*
X18077Y-31122D2*
Y-30854D1*
X18479Y-30424D2*
X18077Y-30577D1*
X18479Y-30730D1*
X18345Y-30673D2*
Y-30482D1*
X18135Y-30033D2*
X18096Y-30071D1*
X18077Y-30128D1*
Y-30205D1*
X18096Y-30262D1*
X18135Y-30301D1*
X18173D1*
X18211Y-30281D1*
X18230Y-30262D1*
X18249Y-30224D1*
X18288Y-30109D1*
X18307Y-30071D1*
X18326Y-30052D1*
X18364Y-30033D1*
X18422D1*
X18460Y-30071D1*
X18479Y-30128D1*
Y-30205D1*
X18460Y-30262D1*
X18422Y-30301D1*
X18078Y-29680D2*
Y-29871D1*
X18250Y-29890D1*
X18231Y-29871D1*
X18211Y-29813D1*
Y-29756D1*
X18231Y-29699D1*
X18269Y-29660D1*
X18326Y-29641D1*
X18364D1*
X18422Y-29660D1*
X18460Y-29699D1*
X18479Y-29756D1*
Y-29813D1*
X18460Y-29871D1*
X18441Y-29890D1*
X18403Y-29909D1*
X18078Y-29288D2*
Y-29479D1*
X18250Y-29498D1*
X18231Y-29479D1*
X18211Y-29422D1*
Y-29365D1*
X18231Y-29307D1*
X18269Y-29269D1*
X18326Y-29250D1*
X18364D1*
X18422Y-29269D1*
X18460Y-29307D1*
X18479Y-29365D1*
Y-29422D1*
X18460Y-29479D1*
X18441Y-29498D1*
X18403Y-29518D1*
X18479Y-28935D2*
X18078D1*
X18345Y-29126D1*
Y-28839D1*
X18078Y-28620D2*
X18097Y-28677D1*
X18135Y-28697D1*
X18173D1*
X18211Y-28677D1*
X18231Y-28639D1*
X18250Y-28563D1*
X18269Y-28505D1*
X18307Y-28467D1*
X18345Y-28448D1*
X18403D1*
X18441Y-28467D1*
X18460Y-28486D1*
X18479Y-28544D1*
Y-28620D1*
X18460Y-28677D1*
X18441Y-28697D1*
X18403Y-28716D1*
X18345D1*
X18307Y-28697D1*
X18269Y-28658D1*
X18250Y-28601D1*
X18231Y-28525D1*
X18211Y-28486D1*
X18173Y-28467D1*
X18135D1*
X18097Y-28486D1*
X18078Y-28544D1*
Y-28620D1*
X14238Y-8692D2*
Y-8979D1*
X14257Y-9036D1*
X14296Y-9074D1*
X14353Y-9094D1*
X14391D1*
X14449Y-9074D1*
X14487Y-9036D1*
X14506Y-8979D1*
Y-8692D1*
X14630Y-8769D2*
X14668Y-8749D1*
X14726Y-8692D1*
Y-9094D1*
X14964Y-8692D2*
X14907Y-8711D1*
X14868Y-8769D1*
X14849Y-8864D1*
Y-8922D1*
X14868Y-9017D1*
X14907Y-9075D1*
X14964Y-9094D1*
X15002D1*
X15060Y-9075D1*
X15098Y-9017D1*
X15117Y-8922D1*
Y-8864D1*
X15098Y-8769D1*
X15060Y-8711D1*
X15002Y-8692D1*
X14964D1*
X15098Y-8769D2*
X14868Y-9017D1*
X15260Y-8788D2*
Y-8769D1*
X15279Y-8730D1*
X15298Y-8711D1*
X15337Y-8692D1*
X15413D1*
X15451Y-8711D1*
X15470Y-8730D1*
X15490Y-8769D1*
Y-8807D1*
X15470Y-8845D1*
X15432Y-8902D1*
X15241Y-9094D1*
X15509D1*
X10019Y-11697D2*
Y-12099D1*
X9885Y-11697D2*
X10153D1*
X10583Y-12099D2*
X10429Y-11697D1*
X10276Y-12099D1*
X10334Y-11965D2*
X10525D1*
X10974Y-11755D2*
X10936Y-11716D1*
X10879Y-11697D1*
X10802D1*
X10745Y-11716D1*
X10706Y-11755D1*
Y-11793D1*
X10726Y-11831D1*
X10745Y-11850D1*
X10783Y-11869D1*
X10898Y-11908D1*
X10936Y-11927D1*
X10955Y-11946D1*
X10974Y-11984D1*
Y-12042D1*
X10936Y-12080D1*
X10879Y-12099D1*
X10802D1*
X10745Y-12080D1*
X10706Y-12042D1*
X11327Y-11698D2*
X11136D1*
X11117Y-11870D1*
X11136Y-11851D1*
X11194Y-11831D1*
X11251D1*
X11308Y-11851D1*
X11347Y-11889D1*
X11366Y-11946D1*
Y-11984D1*
X11347Y-12042D1*
X11308Y-12080D1*
X11251Y-12099D1*
X11194D1*
X11136Y-12080D1*
X11117Y-12061D1*
X11098Y-12023D1*
X11719Y-11755D2*
X11700Y-11717D1*
X11642Y-11698D1*
X11604D1*
X11547Y-11717D1*
X11508Y-11774D1*
X11489Y-11870D1*
Y-11965D1*
X11508Y-12042D1*
X11547Y-12080D1*
X11604Y-12099D1*
X11623D1*
X11680Y-12080D1*
X11719Y-12042D1*
X11738Y-11984D1*
Y-11965D1*
X11719Y-11908D1*
X11680Y-11870D1*
X11623Y-11851D1*
X11604D1*
X11547Y-11870D1*
X11508Y-11908D1*
X11489Y-11965D1*
X11900Y-11698D2*
X12110D1*
X11995Y-11851D1*
X12053D1*
X12091Y-11870D1*
X12110Y-11889D1*
X12129Y-11946D1*
Y-11984D1*
X12110Y-12042D1*
X12072Y-12080D1*
X12014Y-12099D1*
X11957D1*
X11900Y-12080D1*
X11881Y-12061D1*
X11861Y-12023D1*
X12253Y-11774D2*
X12291Y-11755D1*
X12349Y-11698D1*
Y-12099D1*
X12472Y-11697D2*
Y-12099D1*
X12645D1*
X12702Y-12080D1*
X12721Y-12061D1*
X12740Y-12023D1*
Y-11965D1*
X12721Y-11927D1*
X12702Y-11908D1*
X12645Y-11889D1*
X12702Y-11869D1*
X12721Y-11850D1*
X12740Y-11812D1*
Y-11774D1*
X12721Y-11736D1*
X12702Y-11716D1*
X12645Y-11697D1*
X12472D1*
Y-11889D2*
X12645D1*
X3239Y-27194D2*
X3507Y-27596D1*
Y-27194D2*
X3239Y-27596D1*
X3630Y-27271D2*
X3669Y-27251D1*
X3726Y-27194D1*
Y-27596D1*
X2224Y-25819D2*
Y-26164D1*
X2052Y-25992D2*
X2396D1*
X2749Y-25791D2*
X2558D1*
X2539Y-25963D1*
X2558Y-25944D1*
X2616Y-25924D1*
X2673D1*
X2730Y-25944D1*
X2769Y-25982D1*
X2788Y-26039D1*
Y-26077D1*
X2769Y-26135D1*
X2730Y-26173D1*
X2673Y-26192D1*
X2616D1*
X2558Y-26173D1*
X2539Y-26154D1*
X2520Y-26116D1*
X19045Y-26164D2*
X19313Y-26566D1*
Y-26164D2*
X19045Y-26566D1*
X19456Y-26260D2*
Y-26241D1*
X19475Y-26203D1*
X19494Y-26184D1*
X19533Y-26165D1*
X19609D1*
X19647Y-26184D1*
X19666Y-26203D1*
X19686Y-26241D1*
Y-26279D1*
X19666Y-26318D1*
X19628Y-26375D1*
X19437Y-26566D1*
X19705D1*
X18590Y-24659D2*
X18762D1*
X18819Y-24640D1*
X18839Y-24620D1*
X18858Y-24582D1*
Y-24525D1*
X18839Y-24487D1*
X18819Y-24467D1*
X18762Y-24448D1*
X18590D1*
Y-24850D1*
X18981Y-24448D2*
X19077Y-24850D1*
X19173Y-24448D1*
X19268Y-24850D1*
X19364Y-24448D1*
X19794Y-24850D2*
Y-24448D1*
X19641Y-24850D1*
X19488Y-24448D1*
Y-24850D1*
X20306Y-24448D2*
Y-24850D1*
X20535D1*
X21108Y-27227D2*
X21376Y-27629D1*
Y-27227D2*
X21108Y-27629D1*
X21538Y-27227D2*
X21748D1*
X21633Y-27380D1*
X21691D1*
X21729Y-27399D1*
X21748Y-27418D1*
X21767Y-27476D1*
Y-27514D1*
X21748Y-27571D1*
X21710Y-27610D1*
X21652Y-27629D1*
X21595D1*
X21538Y-27610D1*
X21519Y-27590D1*
X21499Y-27552D1*
X22346Y-26982D2*
Y-26810D1*
X22327Y-26753D1*
X22308Y-26733D1*
X22270Y-26714D1*
X22212D1*
X22174Y-26733D1*
X22155Y-26753D1*
X22136Y-26810D1*
Y-26982D1*
X22538D1*
X22136Y-26591D2*
X22538Y-26495D1*
X22136Y-26399D1*
X22538Y-26304D1*
X22136Y-26208D1*
X22538Y-25778D2*
X22136D1*
X22538Y-25931D1*
X22136Y-26084D1*
X22538D1*
X22193Y-25037D2*
X22155Y-25056D1*
X22136Y-25113D1*
Y-25151D1*
X22155Y-25209D1*
X22213Y-25247D1*
X22308Y-25266D1*
X22404D1*
X22480Y-25247D1*
X22519Y-25209D1*
X22538Y-25151D1*
Y-25132D1*
X22519Y-25075D1*
X22480Y-25037D1*
X22423Y-25018D1*
X22404D1*
X22346Y-25037D1*
X22308Y-25075D1*
X22289Y-25132D1*
Y-25151D1*
X22308Y-25209D1*
X22346Y-25247D1*
X22404Y-25266D1*
X16661Y-26164D2*
X16929Y-26566D1*
Y-26164D2*
X16661Y-26566D1*
X17244D2*
Y-26165D1*
X17052Y-26432D1*
X17339D1*
X15945Y-24659D2*
X16118D1*
X16175Y-24640D1*
X16194Y-24620D1*
X16213Y-24582D1*
Y-24525D1*
X16194Y-24487D1*
X16175Y-24467D1*
X16118Y-24448D1*
X15945D1*
Y-24850D1*
X16337Y-24448D2*
X16433Y-24850D1*
X16528Y-24448D1*
X16624Y-24850D1*
X16720Y-24448D1*
X17149Y-24850D2*
Y-24448D1*
X16996Y-24850D1*
X16843Y-24448D1*
Y-24850D1*
X17662Y-24640D2*
X17834D1*
X17891Y-24620D1*
X17911Y-24601D1*
X17930Y-24563D1*
Y-24525D1*
X17911Y-24487D1*
X17891Y-24467D1*
X17834Y-24448D1*
X17662D1*
Y-24850D1*
X17796Y-24640D2*
X17930Y-24850D1*
X23108Y-27227D2*
X23376Y-27629D1*
Y-27227D2*
X23108Y-27629D1*
X23729Y-27227D2*
X23538D1*
X23519Y-27399D1*
X23538Y-27380D1*
X23595Y-27361D1*
X23652D1*
X23710Y-27380D1*
X23748Y-27418D1*
X23767Y-27476D1*
Y-27514D1*
X23748Y-27571D1*
X23710Y-27610D1*
X23652Y-27629D1*
X23595D1*
X23538Y-27610D1*
X23519Y-27590D1*
X23499Y-27552D1*
X24346Y-26992D2*
Y-26820D1*
X24327Y-26763D1*
X24308Y-26743D1*
X24270Y-26724D1*
X24212D1*
X24174Y-26743D1*
X24155Y-26763D1*
X24136Y-26820D1*
Y-26992D1*
X24538D1*
X24136Y-26601D2*
X24538Y-26505D1*
X24136Y-26409D1*
X24538Y-26314D1*
X24136Y-26218D1*
X24538Y-25788D2*
X24136D1*
X24538Y-25941D1*
X24136Y-26094D1*
X24538D1*
X24136Y-25046D2*
Y-25237D1*
X24308Y-25256D1*
X24289Y-25237D1*
X24270Y-25180D1*
Y-25123D1*
X24289Y-25065D1*
X24327Y-25027D1*
X24385Y-25008D1*
X24423D1*
X24480Y-25027D1*
X24519Y-25065D1*
X24538Y-25123D1*
Y-25180D1*
X24519Y-25237D1*
X24499Y-25256D1*
X24461Y-25276D1*
X25118Y-27227D2*
X25385Y-27629D1*
Y-27227D2*
X25118Y-27629D1*
X25738Y-27284D2*
X25719Y-27246D1*
X25662Y-27227D1*
X25624D1*
X25566Y-27246D1*
X25528Y-27304D1*
X25509Y-27399D1*
Y-27495D1*
X25528Y-27571D1*
X25566Y-27610D1*
X25624Y-27629D1*
X25643D1*
X25700Y-27610D1*
X25738Y-27571D1*
X25757Y-27514D1*
Y-27495D1*
X25738Y-27437D1*
X25700Y-27399D1*
X25643Y-27380D1*
X25624D1*
X25566Y-27399D1*
X25528Y-27437D1*
X25509Y-27495D1*
X26346Y-26992D2*
Y-26819D1*
X26327Y-26762D1*
X26308Y-26743D1*
X26270Y-26724D1*
X26212D1*
X26174Y-26743D1*
X26155Y-26762D1*
X26136Y-26819D1*
Y-26992D1*
X26538D1*
X26136Y-26600D2*
X26538Y-26504D1*
X26136Y-26409D1*
X26538Y-26313D1*
X26136Y-26217D1*
X26538Y-25788D2*
X26136D1*
X26538Y-25941D1*
X26136Y-26094D1*
X26538D1*
X26136Y-25180D2*
X26155Y-25237D1*
X26193Y-25257D1*
X26232D1*
X26270Y-25237D1*
X26289Y-25199D1*
X26308Y-25123D1*
X26327Y-25065D1*
X26366Y-25027D1*
X26404Y-25008D1*
X26461D1*
X26499Y-25027D1*
X26519Y-25046D1*
X26538Y-25104D1*
Y-25180D1*
X26519Y-25237D1*
X26499Y-25257D1*
X26461Y-25276D1*
X26404D1*
X26366Y-25257D1*
X26327Y-25218D1*
X26308Y-25161D1*
X26289Y-25085D1*
X26270Y-25046D1*
X26232Y-25027D1*
X26193D1*
X26155Y-25046D1*
X26136Y-25104D1*
Y-25180D1*
X27108Y-27227D2*
X27376Y-27629D1*
Y-27227D2*
X27108Y-27629D1*
X27576D2*
X27767Y-27227D1*
X27499D1*
X28346Y-26992D2*
Y-26820D1*
X28327Y-26763D1*
X28308Y-26743D1*
X28270Y-26724D1*
X28212D1*
X28174Y-26743D1*
X28155Y-26763D1*
X28136Y-26820D1*
Y-26992D1*
X28538D1*
X28136Y-26601D2*
X28538Y-26505D1*
X28136Y-26409D1*
X28538Y-26314D1*
X28136Y-26218D1*
X28538Y-25788D2*
X28136D1*
X28538Y-25941D1*
X28136Y-26094D1*
X28538D1*
Y-25199D2*
X28136Y-25008D1*
Y-25276D1*
X29171Y-27227D2*
X29438Y-27629D1*
Y-27227D2*
X29171Y-27629D1*
X29657Y-27227D2*
X29600Y-27246D1*
X29581Y-27284D1*
Y-27323D1*
X29600Y-27361D1*
X29638Y-27380D1*
X29715Y-27399D1*
X29772Y-27418D1*
X29810Y-27457D1*
X29829Y-27495D1*
Y-27552D1*
X29810Y-27590D1*
X29791Y-27610D1*
X29734Y-27629D1*
X29657D1*
X29600Y-27610D1*
X29581Y-27590D1*
X29562Y-27552D1*
Y-27495D1*
X29581Y-27457D1*
X29619Y-27418D1*
X29676Y-27399D1*
X29753Y-27380D1*
X29791Y-27361D1*
X29810Y-27323D1*
Y-27284D1*
X29791Y-27246D1*
X29734Y-27227D1*
X29657D1*
X30346Y-27002D2*
Y-26829D1*
X30327Y-26772D1*
X30308Y-26753D1*
X30270Y-26734D1*
X30212D1*
X30174Y-26753D1*
X30155Y-26772D1*
X30136Y-26829D1*
Y-27002D1*
X30538D1*
X30136Y-26610D2*
X30538Y-26514D1*
X30136Y-26419D1*
X30538Y-26323D1*
X30136Y-26227D1*
X30538Y-25798D2*
X30136D1*
X30538Y-25951D1*
X30136Y-26104D1*
X30538D1*
Y-25094D2*
X30136D1*
X30404Y-25285D1*
Y-24998D1*
X31117Y-27227D2*
X31385Y-27629D1*
Y-27227D2*
X31117Y-27629D1*
X31758Y-27361D2*
X31738Y-27418D1*
X31700Y-27457D1*
X31643Y-27476D1*
X31624D1*
X31566Y-27457D1*
X31528Y-27418D1*
X31509Y-27361D1*
Y-27342D1*
X31528Y-27284D1*
X31566Y-27246D1*
X31624Y-27227D1*
X31643D1*
X31700Y-27246D1*
X31738Y-27284D1*
X31758Y-27361D1*
Y-27457D1*
X31738Y-27552D1*
X31700Y-27610D1*
X31643Y-27629D1*
X31605D1*
X31547Y-27610D1*
X31528Y-27571D1*
X32346Y-26992D2*
Y-26820D1*
X32327Y-26763D1*
X32308Y-26743D1*
X32270Y-26724D1*
X32212D1*
X32174Y-26743D1*
X32155Y-26763D1*
X32136Y-26820D1*
Y-26992D1*
X32538D1*
X32136Y-26601D2*
X32538Y-26505D1*
X32136Y-26409D1*
X32538Y-26314D1*
X32136Y-26218D1*
X32538Y-25788D2*
X32136D1*
X32538Y-25941D1*
X32136Y-26094D1*
X32538D1*
X32136Y-25237D2*
Y-25027D1*
X32289Y-25142D1*
Y-25084D1*
X32308Y-25046D1*
X32327Y-25027D1*
X32385Y-25008D1*
X32423D1*
X32480Y-25027D1*
X32519Y-25065D1*
X32538Y-25123D1*
Y-25180D1*
X32519Y-25237D1*
X32499Y-25256D1*
X32461Y-25276D1*
X11061Y-33164D2*
X11329Y-33566D1*
Y-33164D2*
X11061Y-33566D1*
X11452Y-33241D2*
X11490Y-33222D1*
X11548Y-33165D1*
Y-33566D1*
X11786Y-33165D2*
X11729Y-33184D1*
X11691Y-33241D1*
X11671Y-33337D1*
Y-33394D1*
X11691Y-33490D1*
X11729Y-33547D1*
X11786Y-33566D1*
X11824D1*
X11882Y-33547D1*
X11920Y-33490D1*
X11939Y-33394D1*
Y-33337D1*
X11920Y-33241D1*
X11882Y-33184D1*
X11824Y-33165D1*
X11786D1*
X11920Y-33241D2*
X11691Y-33490D1*
X10766Y-37981D2*
X10747Y-37943D1*
X10708Y-37905D1*
X10670Y-37886D1*
X10594D1*
X10555Y-37905D1*
X10517Y-37943D1*
X10498Y-37981D1*
X10479Y-38039D1*
Y-38135D1*
X10498Y-38192D1*
X10517Y-38230D1*
X10555Y-38268D1*
X10594Y-38288D1*
X10670D1*
X10708Y-38268D1*
X10747Y-38230D1*
X10766Y-38192D1*
X10985Y-38020D2*
X10947Y-38039D1*
X10908Y-38077D1*
X10889Y-38135D1*
Y-38173D1*
X10908Y-38230D1*
X10947Y-38268D1*
X10985Y-38288D1*
X11042D1*
X11081Y-38268D1*
X11119Y-38230D1*
X11138Y-38173D1*
Y-38135D1*
X11119Y-38077D1*
X11081Y-38039D1*
X11042Y-38020D1*
X10985D1*
X11262D2*
Y-38288D1*
Y-38096D2*
X11319Y-38039D1*
X11357Y-38020D1*
X11415D1*
X11453Y-38039D1*
X11472Y-38096D1*
Y-38288D1*
X11653Y-37886D2*
Y-38211D1*
X11672Y-38268D1*
X11710Y-38288D1*
X11748D1*
X11596Y-38020D2*
X11729D1*
X11872D2*
Y-38288D1*
Y-38135D2*
X11891Y-38077D1*
X11929Y-38039D1*
X11968Y-38020D1*
X12025D1*
X12244D2*
X12206Y-38039D1*
X12168Y-38077D1*
X12149Y-38135D1*
Y-38173D1*
X12168Y-38230D1*
X12206Y-38268D1*
X12244Y-38288D1*
X12302D1*
X12340Y-38268D1*
X12378Y-38230D1*
X12398Y-38173D1*
Y-38135D1*
X12378Y-38077D1*
X12340Y-38039D1*
X12302Y-38020D1*
X12244D1*
X12521Y-37886D2*
Y-38288D1*
X33147Y-27227D2*
X33415Y-27629D1*
Y-27227D2*
X33147Y-27629D1*
X33538Y-27304D2*
X33576Y-27284D1*
X33634Y-27227D1*
Y-27629D1*
X33757Y-27304D2*
X33796Y-27284D1*
X33853Y-27227D1*
Y-27629D1*
X34346Y-26992D2*
Y-26820D1*
X34327Y-26763D1*
X34308Y-26743D1*
X34270Y-26724D1*
X34212D1*
X34174Y-26743D1*
X34155Y-26763D1*
X34136Y-26820D1*
Y-26992D1*
X34538D1*
X34136Y-26601D2*
X34538Y-26505D1*
X34136Y-26409D1*
X34538Y-26314D1*
X34136Y-26218D1*
X34538Y-25788D2*
X34136D1*
X34538Y-25941D1*
X34136Y-26094D1*
X34538D1*
X34232Y-25256D2*
X34213D1*
X34174Y-25237D1*
X34155Y-25218D1*
X34136Y-25180D1*
Y-25103D1*
X34155Y-25065D1*
X34174Y-25046D1*
X34213Y-25027D1*
X34251D1*
X34289Y-25046D1*
X34346Y-25084D1*
X34538Y-25276D1*
Y-25008D1*
X22061Y-30914D2*
X22329Y-31316D1*
Y-30914D2*
X22061Y-31316D1*
X22452Y-30991D2*
X22490Y-30972D1*
X22548Y-30915D1*
Y-31316D1*
X22691Y-31010D2*
Y-30991D1*
X22710Y-30953D1*
X22729Y-30934D1*
X22767Y-30915D1*
X22844D1*
X22882Y-30934D1*
X22901Y-30953D1*
X22920Y-30991D1*
Y-31029D1*
X22901Y-31068D1*
X22863Y-31125D1*
X22671Y-31316D1*
X22939D1*
X24269Y-30823D2*
Y-31225D1*
X24412Y-30919D2*
Y-30900D1*
X24431Y-30862D1*
X24450Y-30843D1*
X24489Y-30824D1*
X24565D1*
X24603Y-30843D1*
X24622Y-30862D1*
X24642Y-30900D1*
Y-30938D1*
X24622Y-30977D1*
X24584Y-31034D1*
X24393Y-31225D1*
X24661D1*
X25052Y-30881D2*
X25014Y-30842D1*
X24957Y-30823D1*
X24880D1*
X24823Y-30842D1*
X24784Y-30881D1*
Y-30919D1*
X24804Y-30957D1*
X24823Y-30976D1*
X24861Y-30995D1*
X24976Y-31034D1*
X25014Y-31053D1*
X25033Y-31072D1*
X25052Y-31110D1*
Y-31168D1*
X25014Y-31206D1*
X24957Y-31225D1*
X24880D1*
X24823Y-31206D1*
X24784Y-31168D1*
X25679Y-30823D2*
X25641Y-30842D1*
X25603Y-30881D1*
X25583Y-30919D1*
X25564Y-30976D1*
Y-31072D1*
X25583Y-31129D1*
X25603Y-31168D1*
X25641Y-31206D1*
X25679Y-31225D1*
X25756D1*
X25794Y-31206D1*
X25832Y-31168D1*
X25851Y-31129D1*
X25870Y-31072D1*
Y-30976D1*
X25851Y-30919D1*
X25832Y-30881D1*
X25794Y-30842D1*
X25756Y-30823D1*
X25679D1*
X25994Y-30957D2*
Y-31149D1*
X26013Y-31206D1*
X26051Y-31225D1*
X26109D1*
X26147Y-31206D1*
X26204Y-31149D1*
Y-30957D2*
Y-31225D1*
X26385Y-30823D2*
Y-31149D1*
X26404Y-31206D1*
X26443Y-31225D1*
X26481D1*
X26328Y-30957D2*
X26462D1*
X35061Y-27227D2*
X35329Y-27629D1*
Y-27227D2*
X35061Y-27629D1*
X35452Y-27304D2*
X35490Y-27284D1*
X35548Y-27227D1*
Y-27629D1*
X35710Y-27227D2*
X35920D1*
X35805Y-27380D1*
X35863D1*
X35901Y-27399D1*
X35920Y-27418D1*
X35939Y-27476D1*
Y-27514D1*
X35920Y-27571D1*
X35882Y-27610D1*
X35824Y-27629D1*
X35767D1*
X35710Y-27610D1*
X35691Y-27590D1*
X35671Y-27552D1*
X36346Y-26906D2*
Y-26734D1*
X36327Y-26677D1*
X36308Y-26657D1*
X36270Y-26638D1*
X36212D1*
X36174Y-26657D1*
X36155Y-26677D1*
X36136Y-26734D1*
Y-26906D1*
X36538D1*
X36136Y-26515D2*
X36538Y-26419D1*
X36136Y-26323D1*
X36538Y-26228D1*
X36136Y-26132D1*
X36538Y-25702D2*
X36136D1*
X36538Y-25855D1*
X36136Y-26008D1*
X36538D1*
X36213Y-25190D2*
X36193Y-25151D1*
X36136Y-25094D1*
X36538D1*
X28198Y-30852D2*
X28351Y-31254D1*
X28504Y-30852D1*
X28934Y-31254D2*
X28781Y-30852D1*
X28628Y-31254D1*
X28685Y-31120D2*
X28876D1*
X29057Y-30852D2*
Y-31254D1*
X29287D1*
X29410Y-30852D2*
Y-31254D1*
X29534Y-30852D2*
Y-31254D1*
X29668D1*
X29725Y-31234D1*
X29764Y-31196D1*
X29783Y-31158D1*
X29802Y-31101D1*
Y-31005D1*
X29783Y-30947D1*
X29764Y-30909D1*
X29725Y-30871D1*
X29668Y-30852D1*
X29534D1*
X25061Y-38636D2*
X25329Y-39038D1*
Y-38636D2*
X25061Y-39038D1*
X25452Y-38713D2*
X25490Y-38693D1*
X25548Y-38636D1*
Y-39038D1*
X25901Y-38636D2*
X25710D1*
X25691Y-38808D1*
X25710Y-38789D1*
X25767Y-38770D1*
X25824D1*
X25882Y-38789D1*
X25920Y-38827D1*
X25939Y-38885D1*
Y-38923D1*
X25920Y-38980D1*
X25882Y-39019D1*
X25824Y-39038D1*
X25767D1*
X25710Y-39019D1*
X25691Y-38999D1*
X25671Y-38961D1*
X26227Y-36696D2*
X26629D1*
X26323Y-36553D2*
X26304D1*
X26265Y-36534D1*
X26246Y-36515D1*
X26227Y-36476D1*
Y-36400D1*
X26246Y-36362D1*
X26265Y-36343D1*
X26304Y-36323D1*
X26342D1*
X26380Y-36343D1*
X26437Y-36381D1*
X26629Y-36572D1*
Y-36304D1*
X26284Y-35913D2*
X26246Y-35951D1*
X26227Y-36008D1*
Y-36085D1*
X26246Y-36142D1*
X26284Y-36181D1*
X26322D1*
X26361Y-36161D1*
X26380Y-36142D1*
X26399Y-36104D1*
X26437Y-35989D1*
X26456Y-35951D1*
X26476Y-35932D1*
X26514Y-35913D1*
X26571D1*
X26609Y-35951D1*
X26629Y-36008D1*
Y-36085D1*
X26609Y-36142D1*
X26571Y-36181D1*
X26304Y-35400D2*
X26284Y-35362D1*
X26227Y-35304D1*
X26629D1*
X17320Y-33386D2*
X17588Y-33788D1*
Y-33386D2*
X17320Y-33788D1*
X17712Y-33463D2*
X17750Y-33443D1*
X17808Y-33386D1*
Y-33788D1*
X18161Y-33443D2*
X18142Y-33405D1*
X18084Y-33386D1*
X18046D1*
X17989Y-33405D1*
X17950Y-33463D1*
X17931Y-33558D1*
Y-33654D1*
X17950Y-33730D1*
X17989Y-33769D1*
X18046Y-33788D1*
X18065D1*
X18122Y-33769D1*
X18161Y-33730D1*
X18180Y-33673D1*
Y-33654D1*
X18161Y-33596D1*
X18122Y-33558D1*
X18065Y-33539D1*
X18046D1*
X17989Y-33558D1*
X17950Y-33596D1*
X17931Y-33654D1*
X19854Y-33409D2*
X19816Y-33371D1*
X19759Y-33352D1*
X19682D1*
X19625Y-33371D1*
X19586Y-33409D1*
Y-33447D1*
X19606Y-33486D1*
X19625Y-33505D1*
X19663Y-33524D1*
X19778Y-33562D1*
X19816Y-33581D1*
X19835Y-33601D1*
X19854Y-33639D1*
Y-33696D1*
X19816Y-33734D1*
X19759Y-33754D1*
X19682D1*
X19625Y-33734D1*
X19586Y-33696D1*
X20035Y-33352D2*
Y-33677D1*
X20054Y-33734D1*
X20093Y-33754D1*
X20131D1*
X19978Y-33486D2*
X20112D1*
X20254D2*
Y-33754D1*
Y-33601D2*
X20274Y-33543D1*
X20312Y-33505D1*
X20350Y-33486D1*
X20408D1*
X20531Y-33601D2*
X20761D1*
Y-33562D1*
X20742Y-33524D1*
X20723Y-33505D1*
X20684Y-33486D1*
X20627D1*
X20589Y-33505D1*
X20550Y-33543D1*
X20531Y-33601D1*
Y-33639D1*
X20550Y-33696D1*
X20589Y-33734D1*
X20627Y-33754D1*
X20684D1*
X20723Y-33734D1*
X20761Y-33696D1*
X21114Y-33486D2*
Y-33754D1*
Y-33543D2*
X21076Y-33505D1*
X21037Y-33486D1*
X20980D1*
X20942Y-33505D1*
X20904Y-33543D1*
X20884Y-33601D1*
Y-33639D1*
X20904Y-33696D1*
X20942Y-33734D1*
X20980Y-33754D1*
X21037D1*
X21076Y-33734D1*
X21114Y-33696D1*
X21237Y-33486D2*
Y-33754D1*
Y-33562D2*
X21295Y-33505D1*
X21333Y-33486D1*
X21390D1*
X21429Y-33505D1*
X21448Y-33562D1*
Y-33754D1*
Y-33562D2*
X21505Y-33505D1*
X21544Y-33486D1*
X21601D1*
X21639Y-33505D1*
X21659Y-33562D1*
Y-33754D1*
X21782Y-33601D2*
X22012D1*
Y-33562D1*
X21993Y-33524D1*
X21974Y-33505D1*
X21935Y-33486D1*
X21878D1*
X21840Y-33505D1*
X21801Y-33543D1*
X21782Y-33601D1*
Y-33639D1*
X21801Y-33696D1*
X21840Y-33734D1*
X21878Y-33754D1*
X21935D1*
X21974Y-33734D1*
X22012Y-33696D1*
X22135Y-33486D2*
Y-33754D1*
Y-33601D2*
X22155Y-33543D1*
X22193Y-33505D1*
X22231Y-33486D1*
X22289D1*
X27061Y-38636D2*
X27329Y-39038D1*
Y-38636D2*
X27061Y-39038D1*
X27452Y-38713D2*
X27490Y-38693D1*
X27548Y-38636D1*
Y-39038D1*
X27748D2*
X27939Y-38636D1*
X27671D1*
X28227Y-36719D2*
X28629D1*
X28323Y-36576D2*
X28304D1*
X28265Y-36557D1*
X28246Y-36538D1*
X28227Y-36500D1*
Y-36423D1*
X28246Y-36385D1*
X28265Y-36366D1*
X28304Y-36347D1*
X28342D1*
X28380Y-36366D1*
X28437Y-36404D1*
X28629Y-36596D1*
Y-36328D1*
X28284Y-35936D2*
X28246Y-35974D1*
X28227Y-36032D1*
Y-36108D1*
X28246Y-36166D1*
X28284Y-36204D1*
X28322D1*
X28361Y-36185D1*
X28380Y-36166D1*
X28399Y-36128D1*
X28437Y-36013D1*
X28456Y-35974D1*
X28476Y-35955D1*
X28514Y-35936D1*
X28571D1*
X28609Y-35974D1*
X28629Y-36032D1*
Y-36108D1*
X28609Y-36166D1*
X28571Y-36204D1*
X28323Y-35404D2*
X28304D1*
X28265Y-35385D1*
X28246Y-35366D1*
X28227Y-35328D1*
Y-35251D1*
X28246Y-35213D1*
X28265Y-35194D1*
X28304Y-35175D1*
X28342D1*
X28380Y-35194D1*
X28437Y-35232D1*
X28629Y-35424D1*
Y-35156D1*
X20373Y-37573D2*
X20641Y-37975D1*
Y-37573D2*
X20373Y-37975D1*
X20765Y-37650D2*
X20803Y-37631D1*
X20861Y-37574D1*
Y-37975D1*
X21080Y-37574D2*
X21023Y-37593D1*
X21003Y-37631D1*
Y-37669D1*
X21023Y-37707D1*
X21061Y-37727D1*
X21137Y-37746D1*
X21195Y-37765D1*
X21233Y-37803D1*
X21252Y-37841D1*
Y-37899D1*
X21233Y-37937D1*
X21214Y-37956D1*
X21156Y-37975D1*
X21080D1*
X21023Y-37956D1*
X21003Y-37937D1*
X20984Y-37899D1*
Y-37841D1*
X21003Y-37803D1*
X21042Y-37765D1*
X21099Y-37746D1*
X21175Y-37727D1*
X21214Y-37707D1*
X21233Y-37669D1*
Y-37631D1*
X21214Y-37593D1*
X21156Y-37574D1*
X21080D1*
X23164Y-39243D2*
X23566D1*
X23260Y-39100D2*
X23241D1*
X23203Y-39081D1*
X23184Y-39062D1*
X23165Y-39023D1*
Y-38947D1*
X23184Y-38909D1*
X23203Y-38890D1*
X23241Y-38870D1*
X23279D1*
X23318Y-38890D1*
X23375Y-38928D1*
X23566Y-39119D1*
Y-38851D1*
X23222Y-38460D2*
X23183Y-38498D1*
X23164Y-38555D1*
Y-38632D1*
X23183Y-38689D1*
X23222Y-38728D1*
X23260D1*
X23298Y-38708D1*
X23317Y-38689D1*
X23336Y-38651D1*
X23375Y-38536D1*
X23394Y-38498D1*
X23413Y-38479D1*
X23451Y-38460D1*
X23509D1*
X23547Y-38498D1*
X23566Y-38555D1*
Y-38632D1*
X23547Y-38689D1*
X23509Y-38728D1*
X23632Y-38336D2*
Y-37973D1*
X23164Y-37849D2*
X23183Y-37830D1*
X23164Y-37811D1*
X23145Y-37830D1*
X23164Y-37849D1*
X23298Y-37830D2*
X23566D1*
X23298Y-37687D2*
X23566D1*
X23375D2*
X23317Y-37630D1*
X23298Y-37591D1*
Y-37534D1*
X23317Y-37496D1*
X23375Y-37477D1*
X23566D1*
X23241Y-37353D2*
X23222Y-37315D1*
X23165Y-37257D1*
X23566D1*
X20383Y-36073D2*
X20651Y-36475D1*
Y-36073D2*
X20383Y-36475D1*
X20774Y-36150D2*
X20812Y-36131D1*
X20870Y-36074D1*
Y-36475D1*
X21242Y-36207D2*
X21223Y-36265D1*
X21185Y-36303D1*
X21127Y-36322D1*
X21108D1*
X21051Y-36303D1*
X21013Y-36265D1*
X20993Y-36207D1*
Y-36188D1*
X21013Y-36131D1*
X21051Y-36093D1*
X21108Y-36074D1*
X21127D1*
X21185Y-36093D1*
X21223Y-36131D1*
X21242Y-36207D1*
Y-36303D1*
X21223Y-36399D1*
X21185Y-36456D1*
X21127Y-36475D1*
X21089D1*
X21032Y-36456D1*
X21013Y-36418D1*
X17414Y-38329D2*
X17816D1*
X17510Y-38186D2*
X17491D1*
X17453Y-38167D1*
X17434Y-38148D1*
X17415Y-38109D1*
Y-38033D1*
X17434Y-37995D1*
X17453Y-37976D1*
X17491Y-37956D1*
X17529D1*
X17568Y-37976D1*
X17625Y-38014D1*
X17816Y-38205D1*
Y-37937D1*
X17472Y-37546D2*
X17433Y-37584D1*
X17414Y-37641D1*
Y-37718D1*
X17433Y-37775D1*
X17472Y-37814D1*
X17510D1*
X17548Y-37794D1*
X17567Y-37775D1*
X17586Y-37737D1*
X17625Y-37622D1*
X17644Y-37584D1*
X17663Y-37565D1*
X17701Y-37546D1*
X17759D1*
X17797Y-37584D1*
X17816Y-37641D1*
Y-37718D1*
X17797Y-37775D1*
X17759Y-37814D1*
X17882Y-37422D2*
Y-37059D1*
X17414Y-36935D2*
X17433Y-36916D1*
X17414Y-36897D1*
X17395Y-36916D1*
X17414Y-36935D1*
X17548Y-36916D2*
X17816D1*
X17548Y-36773D2*
X17816D1*
X17625D2*
X17567Y-36716D1*
X17548Y-36677D1*
Y-36620D1*
X17567Y-36582D1*
X17625Y-36563D1*
X17816D1*
X17510Y-36420D2*
X17491D1*
X17453Y-36401D1*
X17434Y-36382D1*
X17415Y-36343D1*
Y-36267D1*
X17434Y-36229D1*
X17453Y-36210D1*
X17491Y-36190D1*
X17529D1*
X17568Y-36210D1*
X17625Y-36248D1*
X17816Y-36439D1*
Y-36171D1*
X28975Y-38636D2*
X29243Y-39038D1*
Y-38636D2*
X28975Y-39038D1*
X29385Y-38732D2*
Y-38713D1*
X29404Y-38674D1*
X29424Y-38655D1*
X29462Y-38636D1*
X29538D1*
X29576Y-38655D1*
X29596Y-38674D1*
X29615Y-38713D1*
Y-38751D1*
X29596Y-38789D1*
X29557Y-38846D1*
X29366Y-39038D1*
X29634D1*
X29872Y-38636D2*
X29815Y-38655D1*
X29777Y-38713D1*
X29757Y-38808D1*
Y-38866D1*
X29777Y-38961D1*
X29815Y-39019D1*
X29872Y-39038D1*
X29910D1*
X29968Y-39019D1*
X30006Y-38961D1*
X30025Y-38866D1*
Y-38808D1*
X30006Y-38713D1*
X29968Y-38655D1*
X29910Y-38636D1*
X29872D1*
X30006Y-38713D2*
X29777Y-38961D1*
X30227Y-36782D2*
X30629D1*
X30323Y-36639D2*
X30304D1*
X30265Y-36620D1*
X30246Y-36601D1*
X30227Y-36562D1*
Y-36486D1*
X30246Y-36448D1*
X30265Y-36429D1*
X30304Y-36409D1*
X30342D1*
X30380Y-36429D1*
X30437Y-36467D1*
X30629Y-36658D1*
Y-36390D1*
X30284Y-35999D2*
X30246Y-36037D1*
X30227Y-36094D1*
Y-36171D1*
X30246Y-36228D1*
X30284Y-36267D1*
X30322D1*
X30361Y-36247D1*
X30380Y-36228D1*
X30399Y-36190D1*
X30437Y-36075D1*
X30456Y-36037D1*
X30476Y-36018D1*
X30514Y-35999D1*
X30571D1*
X30609Y-36037D1*
X30629Y-36094D1*
Y-36171D1*
X30609Y-36228D1*
X30571Y-36267D1*
X30227Y-35448D2*
Y-35238D1*
X30380Y-35352D1*
Y-35295D1*
X30399Y-35257D1*
X30418Y-35238D1*
X30476Y-35218D1*
X30514D1*
X30571Y-35238D1*
X30610Y-35276D1*
X30629Y-35333D1*
Y-35391D1*
X30610Y-35448D1*
X30590Y-35467D1*
X30552Y-35486D1*
X31061Y-38636D2*
X31329Y-39038D1*
Y-38636D2*
X31061Y-39038D1*
X31471Y-38732D2*
Y-38713D1*
X31490Y-38674D1*
X31510Y-38655D1*
X31548Y-38636D1*
X31624D1*
X31662Y-38655D1*
X31682Y-38674D1*
X31701Y-38713D1*
Y-38751D1*
X31682Y-38789D1*
X31643Y-38846D1*
X31452Y-39038D1*
X31720D1*
X31843Y-38713D2*
X31882Y-38693D1*
X31939Y-38636D1*
Y-39038D1*
X32227Y-36791D2*
X32629D1*
X32323Y-36648D2*
X32304D1*
X32265Y-36629D1*
X32246Y-36610D1*
X32227Y-36572D1*
Y-36495D1*
X32246Y-36457D1*
X32265Y-36438D1*
X32304Y-36419D1*
X32342D1*
X32380Y-36438D1*
X32437Y-36476D1*
X32629Y-36668D1*
Y-36400D1*
X32284Y-36008D2*
X32246Y-36046D1*
X32227Y-36104D1*
Y-36180D1*
X32246Y-36238D1*
X32284Y-36276D1*
X32322D1*
X32361Y-36257D1*
X32380Y-36238D1*
X32399Y-36200D1*
X32437Y-36085D1*
X32456Y-36046D1*
X32476Y-36027D1*
X32514Y-36008D1*
X32571D1*
X32609Y-36046D1*
X32629Y-36104D1*
Y-36180D1*
X32609Y-36238D1*
X32571Y-36276D1*
X32629Y-35304D2*
X32227D1*
X32495Y-35496D1*
Y-35209D1*
X14175Y-30503D2*
X14328Y-30695D1*
Y-30905D1*
X14481Y-30503D2*
X14328Y-30695D1*
X14604Y-30580D2*
X14643Y-30561D1*
X14700Y-30504D1*
Y-30905D1*
X33932Y-32771D2*
D99*
X33980Y-32747D1*
X34052Y-32675D1*
Y-33177D1*
X33957Y-33582D2*
Y-33558D1*
X33980Y-33510D1*
X34004Y-33487D1*
X34052Y-33463D1*
X34148D1*
X34195Y-33487D1*
X34219Y-33510D1*
X34243Y-33558D1*
Y-33606D1*
X34219Y-33654D1*
X34172Y-33725D1*
X33932Y-33965D1*
X34267D1*
X33980Y-34250D2*
X34243D1*
X34100Y-34441D1*
X34172D1*
X34219Y-34465D1*
X34243Y-34489D1*
X34267Y-34561D1*
Y-34608D1*
X34243Y-34680D1*
X34195Y-34728D1*
X34124Y-34752D1*
X34052D1*
X33980Y-34728D1*
X33957Y-34704D1*
X33932Y-34656D1*
X34172Y-35540D2*
Y-35038D1*
X33932Y-35372D1*
X34291D1*
X34219Y-35825D2*
X33980D1*
X33957Y-36040D1*
X33980Y-36016D1*
X34052Y-35992D1*
X34124D1*
X34195Y-36016D1*
X34243Y-36064D1*
X34267Y-36136D1*
Y-36183D1*
X34243Y-36255D1*
X34195Y-36303D1*
X34124Y-36327D1*
X34052D1*
X33980Y-36303D1*
X33957Y-36279D1*
X33932Y-36231D1*
X35496Y-33177D2*
Y-32675D1*
X35305Y-33177D1*
X35113Y-32675D1*
Y-33177D1*
X36009Y-32794D2*
X35985Y-32747D1*
X35937Y-32699D1*
X35890Y-32675D1*
X35794D1*
X35746Y-32699D1*
X35698Y-32747D1*
X35674Y-32794D1*
X35650Y-32866D1*
Y-32986D1*
X35674Y-33057D1*
X35698Y-33105D1*
X35746Y-33153D1*
X35794Y-33177D1*
X35890D1*
X35937Y-33153D1*
X35985Y-33105D1*
X36009Y-33057D1*
X36163Y-32675D2*
Y-33177D1*
X36450D1*
X36605Y-32675D2*
Y-33177D1*
X36940Y-32675D2*
X36605Y-33010D1*
X36724Y-32890D2*
X36940Y-33177D1*
X35113Y-33462D2*
Y-33965D1*
X35400D1*
X35555Y-33702D2*
X35770D1*
X35841Y-33677D1*
X35866Y-33654D1*
X35890Y-33606D1*
Y-33558D1*
X35866Y-33510D1*
X35841Y-33486D1*
X35770Y-33462D1*
X35555D1*
Y-33965D1*
X35722Y-33702D2*
X35890Y-33965D1*
X36403Y-33582D2*
X36379Y-33534D1*
X36331Y-33486D1*
X36283Y-33462D1*
X36188D1*
X36140Y-33486D1*
X36092Y-33534D1*
X36068Y-33582D1*
X36044Y-33654D1*
Y-33773D1*
X36068Y-33845D1*
X36092Y-33893D1*
X36140Y-33940D1*
X36188Y-33965D1*
X36283D1*
X36331Y-33940D1*
X36379Y-33893D1*
X36403Y-33845D1*
X36557Y-33462D2*
Y-33965D1*
X36844D1*
X36998Y-33462D2*
Y-33965D1*
X37333Y-33462D2*
X36998Y-33797D1*
X37118Y-33677D2*
X37333Y-33965D1*
X35448Y-34322D2*
X35401Y-34273D1*
X35329Y-34250D1*
X35233D1*
X35161Y-34273D1*
X35113Y-34322D1*
Y-34369D1*
X35138Y-34417D1*
X35161Y-34441D1*
X35209Y-34465D1*
X35353Y-34513D1*
X35401Y-34537D1*
X35425Y-34561D1*
X35448Y-34608D1*
Y-34680D1*
X35401Y-34728D1*
X35329Y-34752D1*
X35233D1*
X35161Y-34728D1*
X35113Y-34680D1*
X35961Y-34369D2*
X35938Y-34322D1*
X35890Y-34273D1*
X35842Y-34250D1*
X35746D1*
X35698Y-34273D1*
X35651Y-34322D1*
X35626Y-34369D1*
X35603Y-34441D1*
Y-34561D1*
X35626Y-34632D1*
X35651Y-34680D1*
X35698Y-34728D1*
X35746Y-34752D1*
X35842D1*
X35890Y-34728D1*
X35938Y-34680D1*
X35961Y-34632D1*
X36116Y-34250D2*
Y-34752D1*
X36403D1*
X36557Y-34250D2*
Y-34752D1*
X36892Y-34250D2*
X36557Y-34585D1*
X36676Y-34465D2*
X36892Y-34752D1*
X35113Y-35037D2*
Y-35540D1*
X35281D1*
X35353Y-35515D1*
X35401Y-35468D1*
X35425Y-35420D1*
X35448Y-35348D1*
Y-35228D1*
X35425Y-35156D1*
X35401Y-35109D1*
X35353Y-35061D1*
X35281Y-35037D1*
X35113D1*
X35986Y-35540D2*
X35794Y-35037D1*
X35603Y-35540D1*
X35675Y-35372D2*
X35914D1*
X36308Y-35037D2*
Y-35540D1*
X36140Y-35037D2*
X36475D1*
X37012Y-35540D2*
X36821Y-35037D1*
X36629Y-35540D1*
X36701Y-35372D2*
X36941D1*
X35472Y-35944D2*
X35448Y-35896D1*
X35400Y-35848D1*
X35353Y-35825D1*
X35257D1*
X35209Y-35848D1*
X35161Y-35896D1*
X35137Y-35944D1*
X35113Y-36016D1*
Y-36136D1*
X35137Y-36207D1*
X35161Y-36255D1*
X35209Y-36303D1*
X35257Y-36327D1*
X35353D1*
X35400Y-36303D1*
X35448Y-36255D1*
X35472Y-36207D1*
Y-36136D1*
X35353D1*
X35961Y-35825D2*
Y-36327D1*
X35626Y-35825D1*
Y-36327D1*
X36116Y-35825D2*
Y-36327D1*
X36283D1*
X36355Y-36303D1*
X36403Y-36255D1*
X36427Y-36207D1*
X36451Y-36136D1*
Y-36016D1*
X36427Y-35944D1*
X36403Y-35896D1*
X36355Y-35848D1*
X36283Y-35825D1*
X36116D1*
X3307Y-32584D2*
X3355Y-32559D1*
X3427Y-32488D1*
Y-32990D1*
X3332Y-33395D2*
Y-33371D1*
X3355Y-33323D1*
X3379Y-33299D1*
X3427Y-33275D1*
X3523D1*
X3570Y-33299D1*
X3594Y-33323D1*
X3618Y-33371D1*
Y-33418D1*
X3594Y-33467D1*
X3547Y-33538D1*
X3307Y-33777D1*
X3642D1*
X3355Y-34063D2*
X3618D1*
X3475Y-34254D1*
X3547D1*
X3594Y-34278D1*
X3618Y-34301D1*
X3642Y-34373D1*
Y-34421D1*
X3618Y-34493D1*
X3570Y-34541D1*
X3499Y-34565D1*
X3427D1*
X3355Y-34541D1*
X3332Y-34516D1*
X3307Y-34469D1*
X3547Y-35352D2*
Y-34850D1*
X3307Y-35185D1*
X3666D1*
X3594Y-35638D2*
X3355D1*
X3332Y-35853D1*
X3355Y-35829D1*
X3427Y-35804D1*
X3499D1*
X3570Y-35829D1*
X3618Y-35876D1*
X3642Y-35948D1*
Y-35996D1*
X3618Y-36068D1*
X3570Y-36116D1*
X3499Y-36139D1*
X3427D1*
X3355Y-36116D1*
X3332Y-36091D1*
X3307Y-36044D1*
X3594Y-36496D2*
X3570Y-36449D1*
X3499Y-36425D1*
X3451D1*
X3379Y-36449D1*
X3331Y-36521D1*
X3307Y-36640D1*
Y-36759D1*
X3331Y-36855D1*
X3379Y-36903D1*
X3451Y-36927D1*
X3475D1*
X3546Y-36903D1*
X3594Y-36855D1*
X3618Y-36783D1*
Y-36759D1*
X3594Y-36687D1*
X3546Y-36640D1*
X3475Y-36616D1*
X3451D1*
X3379Y-36640D1*
X3331Y-36687D1*
X3307Y-36759D1*
X3403Y-37714D2*
X3642Y-37212D1*
X3307D1*
X3427Y-38000D2*
X3355Y-38024D1*
X3331Y-38071D1*
Y-38119D1*
X3355Y-38167D1*
X3403Y-38191D1*
X3499Y-38215D1*
X3570Y-38239D1*
X3618Y-38287D1*
X3642Y-38334D1*
Y-38406D1*
X3618Y-38454D1*
X3594Y-38478D1*
X3522Y-38502D1*
X3427D1*
X3355Y-38478D1*
X3331Y-38454D1*
X3307Y-38406D1*
Y-38334D1*
X3331Y-38287D1*
X3379Y-38239D1*
X3450Y-38215D1*
X3546Y-38191D1*
X3594Y-38167D1*
X3618Y-38119D1*
Y-38071D1*
X3594Y-38024D1*
X3522Y-38000D1*
X3427D1*
X4799Y-32487D2*
X4488D1*
Y-32990D1*
X4799D1*
X4488Y-32727D2*
X4680D1*
X5336Y-32990D2*
Y-32487D1*
X5145Y-32990D1*
X4953Y-32487D1*
Y-32990D1*
X5634Y-32487D2*
X5586Y-32511D1*
X5538Y-32559D1*
X5514Y-32607D1*
X5490Y-32679D1*
Y-32799D1*
X5514Y-32870D1*
X5538Y-32918D1*
X5586Y-32965D1*
X5634Y-32990D1*
X5730D1*
X5777Y-32965D1*
X5825Y-32918D1*
X5849Y-32870D1*
X5873Y-32799D1*
Y-32679D1*
X5849Y-32607D1*
X5825Y-32559D1*
X5777Y-32511D1*
X5730Y-32487D1*
X5634D1*
X6027Y-32584D2*
X6075Y-32559D1*
X6147Y-32488D1*
Y-32990D1*
X4608Y-33383D2*
Y-33670D1*
X4488Y-33454D2*
X4728Y-33598D1*
Y-33454D2*
X4488Y-33598D1*
X4882Y-33514D2*
X5097D1*
X5169Y-33490D1*
X5193Y-33466D1*
X5217Y-33418D1*
Y-33370D1*
X5193Y-33323D1*
X5169Y-33299D1*
X5097Y-33275D1*
X4882D1*
Y-33777D1*
X5050Y-33514D2*
X5217Y-33777D1*
X5682Y-33275D2*
X5371D1*
Y-33777D1*
X5682D1*
X5371Y-33514D2*
X5563D1*
X6171Y-33347D2*
X6124Y-33299D1*
X6052Y-33275D1*
X5956D1*
X5885Y-33299D1*
X5836Y-33347D1*
Y-33394D1*
X5861Y-33442D1*
X5885Y-33466D1*
X5932Y-33490D1*
X6076Y-33538D1*
X6124Y-33562D1*
X6148Y-33586D1*
X6171Y-33633D1*
Y-33705D1*
X6124Y-33753D1*
X6052Y-33777D1*
X5956D1*
X5885Y-33753D1*
X5836Y-33705D1*
X6636Y-33275D2*
X6326D1*
Y-33777D1*
X6636D1*
X6326Y-33514D2*
X6517D1*
X6958Y-33275D2*
Y-33777D1*
X6791Y-33275D2*
X7126D1*
X4608Y-34170D2*
Y-34457D1*
X4488Y-34242D2*
X4728Y-34385D1*
Y-34242D2*
X4488Y-34385D1*
X4882Y-34062D2*
Y-34565D1*
X5217Y-34062D2*
Y-34565D1*
X4882Y-34301D2*
X5217D1*
X5371Y-34325D2*
X5587D1*
X5658Y-34301D1*
X5683Y-34277D1*
X5706Y-34230D1*
Y-34158D1*
X5683Y-34110D1*
X5658Y-34086D1*
X5587Y-34062D1*
X5371D1*
Y-34565D1*
X6682Y-34134D2*
X6634Y-34086D1*
X6562Y-34062D1*
X6467D1*
X6395Y-34086D1*
X6347Y-34134D1*
Y-34182D1*
X6371Y-34230D1*
X6395Y-34253D1*
X6442Y-34277D1*
X6586Y-34325D1*
X6634Y-34349D1*
X6658Y-34373D1*
X6682Y-34421D1*
Y-34493D1*
X6634Y-34540D1*
X6562Y-34565D1*
X6467D1*
X6395Y-34540D1*
X6347Y-34493D1*
X7147Y-34062D2*
X6836D1*
Y-34565D1*
X7147D1*
X6836Y-34301D2*
X7027D1*
X7301Y-34062D2*
Y-34565D1*
X7588D1*
X4608Y-34958D2*
Y-35244D1*
X4488Y-35029D2*
X4728Y-35173D1*
Y-35029D2*
X4488Y-35173D1*
X4882Y-35113D2*
X5098D1*
X5169Y-35089D1*
X5193Y-35065D1*
X5217Y-35017D1*
Y-34945D1*
X5193Y-34898D1*
X5169Y-34873D1*
X5098Y-34850D1*
X4882D1*
Y-35352D1*
X5371Y-34850D2*
Y-35352D1*
X5539D1*
X5611Y-35328D1*
X5659Y-35280D1*
X5683Y-35232D1*
X5706Y-35161D1*
Y-35041D1*
X5683Y-34969D1*
X5659Y-34921D1*
X5611Y-34873D1*
X5539Y-34850D1*
X5371D1*
X6196D2*
Y-35352D1*
X5861Y-34850D1*
Y-35352D1*
X4608Y-35745D2*
Y-36032D1*
X4488Y-35816D2*
X4728Y-35960D1*
Y-35816D2*
X4488Y-35960D1*
X5265Y-36139D2*
Y-35637D1*
X5073Y-36139D1*
X4882Y-35637D1*
Y-36139D1*
X5419Y-35637D2*
Y-35996D1*
X5443Y-36068D1*
X5491Y-36115D1*
X5563Y-36139D1*
X5610D1*
X5682Y-36115D1*
X5730Y-36068D1*
X5754Y-35996D1*
Y-35637D1*
X6076D2*
Y-36139D1*
X5908Y-35637D2*
X6243D1*
X6708D2*
X6398D1*
Y-36139D1*
X6708D1*
X6398Y-35876D2*
X6589D1*
X4488Y-36424D2*
X4680Y-36927D1*
X4871Y-36424D1*
X5408Y-36927D2*
X5216Y-36424D1*
X5025Y-36927D1*
X5097Y-36759D2*
X5336D1*
X5563Y-36424D2*
Y-36927D1*
X5850D1*
X6004Y-36424D2*
Y-36927D1*
X6158Y-36424D2*
Y-36927D1*
X6326D1*
X6398Y-36902D1*
X6446Y-36855D1*
X6469Y-36807D1*
X6493Y-36736D1*
Y-36616D1*
X6469Y-36544D1*
X6446Y-36496D1*
X6398Y-36448D1*
X6326Y-36424D1*
X6158D1*
X4608Y-37320D2*
Y-37607D1*
X4488Y-37391D2*
X4728Y-37535D1*
Y-37391D2*
X4488Y-37535D1*
X4882Y-37212D2*
Y-37714D1*
X5098D1*
X5170Y-37690D1*
X5193Y-37666D1*
X5217Y-37619D1*
Y-37547D1*
X5193Y-37499D1*
X5170Y-37475D1*
X5098Y-37451D1*
X5170Y-37427D1*
X5193Y-37403D1*
X5217Y-37355D1*
Y-37307D1*
X5193Y-37260D1*
X5170Y-37236D1*
X5098Y-37212D1*
X4882D1*
Y-37451D2*
X5098D1*
X5371Y-37212D2*
Y-37714D1*
X5706Y-37212D2*
X5371Y-37547D1*
X5491Y-37427D2*
X5706Y-37714D1*
X6196Y-37212D2*
Y-37714D1*
X5861Y-37212D1*
Y-37714D1*
X6350Y-37212D2*
Y-37714D1*
X6518D1*
X6589Y-37690D1*
X6637Y-37642D1*
X6661Y-37594D1*
X6685Y-37523D1*
Y-37403D1*
X6661Y-37331D1*
X6637Y-37284D1*
X6589Y-37236D1*
X6518Y-37212D1*
X6350D1*
X7636D2*
X7325D1*
Y-37714D1*
X7636D1*
X7325Y-37451D2*
X7517D1*
X7790D2*
X8005D1*
X8077Y-37427D1*
X8102Y-37403D1*
X8125Y-37355D1*
Y-37307D1*
X8102Y-37260D1*
X8077Y-37236D1*
X8005Y-37212D1*
X7790D1*
Y-37714D1*
X7958Y-37451D2*
X8125Y-37714D1*
X8280Y-37451D2*
X8495D1*
X8567Y-37427D1*
X8591Y-37403D1*
X8615Y-37355D1*
Y-37307D1*
X8591Y-37260D1*
X8567Y-37236D1*
X8495Y-37212D1*
X8280D1*
Y-37714D1*
X8447Y-37451D2*
X8615Y-37714D1*
X4847Y-38119D2*
X4823Y-38071D1*
X4775Y-38023D1*
X4728Y-37999D1*
X4632D1*
X4584Y-38023D1*
X4536Y-38071D1*
X4512Y-38119D1*
X4488Y-38190D1*
Y-38310D1*
X4512Y-38382D1*
X4536Y-38430D1*
X4584Y-38477D1*
X4632Y-38502D1*
X4728D1*
X4775Y-38477D1*
X4823Y-38430D1*
X4847Y-38382D1*
Y-38310D1*
X4728D1*
X5336Y-37999D2*
Y-38502D1*
X5001Y-37999D1*
Y-38502D1*
X5491Y-37999D2*
Y-38502D1*
X5658D1*
X5730Y-38477D1*
X5778Y-38430D1*
X5802Y-38382D1*
X5826Y-38310D1*
Y-38190D1*
X5802Y-38119D1*
X5778Y-38071D1*
X5730Y-38023D1*
X5658Y-37999D1*
X5491D1*
X34389Y-29612D2*
X34340Y-29636D1*
X34293Y-29684D1*
X34269Y-29732D1*
X34245Y-29804D1*
Y-29924D1*
X34269Y-29995D1*
X34293Y-30043D1*
X34340Y-30090D1*
X34389Y-30115D1*
X34484D1*
X34532Y-30090D1*
X34580Y-30043D1*
X34604Y-29995D1*
X34627Y-29924D1*
Y-29804D1*
X34604Y-29732D1*
X34580Y-29684D1*
X34532Y-29636D1*
X34484Y-29612D1*
X34389D1*
X35117D2*
Y-30115D1*
X34782Y-29612D1*
Y-30115D1*
X34389Y-30400D2*
X34340Y-30424D1*
X34293Y-30472D1*
X34269Y-30519D1*
X34245Y-30591D1*
Y-30711D1*
X34269Y-30782D1*
X34293Y-30830D1*
X34340Y-30878D1*
X34389Y-30902D1*
X34484D1*
X34532Y-30878D1*
X34580Y-30830D1*
X34604Y-30782D1*
X34627Y-30711D1*
Y-30591D1*
X34604Y-30519D1*
X34580Y-30472D1*
X34532Y-30424D1*
X34484Y-30400D1*
X34389D1*
X35093D2*
X34782D1*
Y-30902D1*
Y-30639D2*
X34973D1*
X35558Y-30400D2*
X35247D1*
Y-30902D1*
Y-30639D2*
X35438D1*
X36751Y-29613D2*
X36679Y-29637D1*
X36631Y-29709D1*
X36607Y-29828D1*
Y-29900D1*
X36631Y-30019D1*
X36679Y-30091D1*
X36751Y-30115D1*
X36798D1*
X36870Y-30091D1*
X36918Y-30019D1*
X36942Y-29900D1*
Y-29828D1*
X36918Y-29709D1*
X36870Y-29637D1*
X36798Y-29613D1*
X36751D1*
X36918Y-29709D2*
X36631Y-30019D1*
X37096Y-29780D2*
X37359Y-30115D1*
Y-29780D2*
X37096Y-30115D1*
X37562Y-29613D2*
X37824D1*
X37681Y-29804D1*
X37753D1*
X37801Y-29828D1*
X37824Y-29852D1*
X37849Y-29924D1*
Y-29971D1*
X37824Y-30043D1*
X37777Y-30091D1*
X37705Y-30115D1*
X37633D1*
X37562Y-30091D1*
X37538Y-30067D1*
X37514Y-30019D1*
X38242Y-30115D2*
Y-29613D1*
X38003Y-29947D1*
X38362D1*
X36751Y-30400D2*
X36679Y-30424D1*
X36631Y-30496D1*
X36607Y-30615D1*
Y-30687D1*
X36631Y-30807D1*
X36679Y-30878D1*
X36751Y-30902D1*
X36798D1*
X36870Y-30878D1*
X36918Y-30807D1*
X36942Y-30687D1*
Y-30615D1*
X36918Y-30496D1*
X36870Y-30424D1*
X36798Y-30400D1*
X36751D1*
X36918Y-30496D2*
X36631Y-30807D1*
X37096Y-30567D2*
X37359Y-30902D1*
Y-30567D2*
X37096Y-30902D1*
X37562Y-30400D2*
X37824D1*
X37681Y-30592D1*
X37753D1*
X37801Y-30615D1*
X37824Y-30639D1*
X37849Y-30711D1*
Y-30758D1*
X37824Y-30830D1*
X37777Y-30878D1*
X37705Y-30902D1*
X37633D1*
X37562Y-30878D1*
X37538Y-30854D1*
X37514Y-30807D1*
X38290Y-30472D2*
X38266Y-30424D1*
X38194Y-30400D1*
X38147D1*
X38075Y-30424D1*
X38027Y-30496D1*
X38003Y-30615D1*
Y-30735D1*
X38027Y-30830D1*
X38075Y-30878D1*
X38147Y-30902D1*
X38171D1*
X38242Y-30878D1*
X38290Y-30830D1*
X38314Y-30758D1*
Y-30735D1*
X38290Y-30663D1*
X38242Y-30615D1*
X38171Y-30592D1*
X38147D1*
X38075Y-30615D1*
X38027Y-30663D1*
X38003Y-30735D1*
X35359Y-31766D2*
D101*
Y-32369D1*
X35573Y-31910D2*
Y-31881D1*
X35602Y-31824D1*
X35630Y-31795D1*
X35688Y-31767D1*
X35803D1*
X35860Y-31795D1*
X35888Y-31824D1*
X35917Y-31881D1*
Y-31938D1*
X35888Y-31996D1*
X35831Y-32082D1*
X35544Y-32369D1*
X35946D1*
X36533Y-31852D2*
X36476Y-31795D1*
X36390Y-31766D1*
X36275D1*
X36189Y-31795D1*
X36131Y-31852D1*
Y-31909D1*
X36160Y-31967D1*
X36189Y-31995D1*
X36246Y-32024D1*
X36418Y-32082D1*
X36476Y-32110D1*
X36505Y-32139D1*
X36533Y-32196D1*
Y-32283D1*
X36476Y-32340D1*
X36390Y-32369D1*
X36275D1*
X36189Y-32340D1*
X36131Y-32283D1*
X35396Y-28641D2*
Y-29100D1*
X35367Y-29186D1*
X35338Y-29215D1*
X35281Y-29244D1*
X35224D1*
X35167Y-29215D1*
X35138Y-29186D1*
X35109Y-29100D1*
Y-29043D1*
X35581Y-28957D2*
X35840D1*
X35925Y-28928D1*
X35955Y-28899D1*
X35983Y-28842D1*
Y-28756D1*
X35955Y-28699D1*
X35925Y-28670D1*
X35840Y-28641D1*
X35581D1*
Y-29244D1*
X36168Y-28756D2*
X36226Y-28727D1*
X36312Y-28642D1*
Y-29244D1*
X36527Y-28842D2*
X36498Y-28871D1*
X36527Y-28900D1*
X36555Y-28871D1*
X36527Y-28842D1*
Y-29186D2*
X36498Y-29215D1*
X36527Y-29244D1*
X36555Y-29215D1*
X36527Y-29186D1*
X36741Y-28641D2*
Y-29244D1*
X36955Y-28785D2*
Y-28756D1*
X36984Y-28699D1*
X37012Y-28670D1*
X37070Y-28642D1*
X37185D1*
X37242Y-28670D1*
X37270Y-28699D1*
X37299Y-28756D1*
Y-28813D1*
X37270Y-28871D1*
X37213Y-28957D1*
X36926Y-29244D1*
X37328D1*
X37944Y-28784D2*
X37915Y-28727D1*
X37857Y-28670D1*
X37800Y-28641D1*
X37686D1*
X37628Y-28670D1*
X37571Y-28727D1*
X37542Y-28784D1*
X37513Y-28870D1*
Y-29014D1*
X37542Y-29100D1*
X37571Y-29158D1*
X37628Y-29215D1*
X37686Y-29244D1*
X37800D1*
X37857Y-29215D1*
X37915Y-29158D1*
X37944Y-29100D1*
X5664Y-31659D2*
X5636Y-31602D1*
X5578Y-31545D1*
X5521Y-31516D1*
X5406D1*
X5349Y-31545D1*
X5292Y-31602D1*
X5262Y-31659D1*
X5234Y-31745D1*
Y-31889D1*
X5262Y-31975D1*
X5292Y-32033D1*
X5349Y-32090D1*
X5406Y-32119D1*
X5521D1*
X5578Y-32090D1*
X5636Y-32033D1*
X5664Y-31975D1*
X5993Y-31717D2*
X5936Y-31745D1*
X5878Y-31803D1*
X5850Y-31889D1*
Y-31946D1*
X5878Y-32033D1*
X5936Y-32090D1*
X5993Y-32119D1*
X6079D1*
X6137Y-32090D1*
X6194Y-32033D1*
X6223Y-31946D1*
Y-31889D1*
X6194Y-31803D1*
X6137Y-31745D1*
X6079Y-31717D1*
X5993D1*
X6408D2*
Y-32119D1*
Y-31832D2*
X6494Y-31745D1*
X6552Y-31717D1*
X6638D1*
X6695Y-31745D1*
X6724Y-31832D1*
Y-32119D1*
X6995Y-31516D2*
Y-32004D1*
X7024Y-32090D1*
X7082Y-32119D1*
X7139D1*
X6909Y-31717D2*
X7110D1*
X7324D2*
Y-32119D1*
Y-31889D2*
X7353Y-31803D1*
X7410Y-31745D1*
X7468Y-31717D1*
X7554D1*
X7883D2*
X7826Y-31745D1*
X7768Y-31803D1*
X7739Y-31889D1*
Y-31946D1*
X7768Y-32033D1*
X7826Y-32090D1*
X7883Y-32119D1*
X7969D1*
X8027Y-32090D1*
X8084Y-32033D1*
X8113Y-31946D1*
Y-31889D1*
X8084Y-31803D1*
X8027Y-31745D1*
X7969Y-31717D1*
X7883D1*
X8298Y-31516D2*
Y-32119D1*
X790Y-36806D2*
Y-36548D1*
X761Y-36462D1*
X732Y-36433D1*
X675Y-36404D1*
X589D1*
X532Y-36433D1*
X503Y-36462D1*
X474Y-36548D1*
Y-36806D1*
X1077D1*
X474Y-36219D2*
X1077Y-36075D1*
X474Y-35932D1*
X1077Y-35789D1*
X474Y-35645D1*
X1077Y-35001D2*
X474D1*
X1077Y-35230D1*
X474Y-35460D1*
X1077D1*
X475Y-33888D2*
Y-34174D1*
X733Y-34203D1*
X704Y-34174D1*
X675Y-34088D1*
Y-34003D1*
X704Y-33916D1*
X761Y-33859D1*
X847Y-33830D1*
X904D1*
X991Y-33859D1*
X1048Y-33916D1*
X1077Y-34003D1*
Y-34088D1*
X1048Y-34174D1*
X1019Y-34203D1*
X962Y-34232D1*
X475Y-33301D2*
Y-33587D1*
X733Y-33616D1*
X704Y-33587D1*
X675Y-33501D1*
Y-33415D1*
X704Y-33329D1*
X761Y-33272D1*
X847Y-33243D1*
X904D1*
X991Y-33272D1*
X1048Y-33329D1*
X1077Y-33415D1*
Y-33501D1*
X1048Y-33587D1*
X1019Y-33616D1*
X962Y-33645D1*
X1077Y-32771D2*
X475D1*
X876Y-33058D1*
Y-32627D1*
X475Y-32299D2*
X503Y-32384D1*
X560Y-32414D1*
X618D1*
X675Y-32384D1*
X704Y-32327D1*
X733Y-32213D1*
X761Y-32126D1*
X819Y-32069D1*
X876Y-32041D1*
X962D1*
X1019Y-32069D1*
X1048Y-32098D1*
X1077Y-32184D1*
Y-32299D1*
X1048Y-32384D1*
X1019Y-32414D1*
X962Y-32442D1*
X876D1*
X819Y-32414D1*
X761Y-32356D1*
X733Y-32270D1*
X704Y-32156D1*
X675Y-32098D1*
X618Y-32069D1*
X560D1*
X503Y-32098D1*
X475Y-32184D1*
Y-32299D1*
X675Y-31272D2*
X1077Y-31100D1*
X675Y-30928D1*
X1019Y-30714D2*
X1048Y-30743D1*
X1077Y-30714D1*
X1048Y-30685D1*
X1019Y-30714D1*
X589Y-30500D2*
X560Y-30442D1*
X475Y-30356D1*
X1077D1*
X1019Y-30142D2*
X1048Y-30171D1*
X1077Y-30142D1*
X1048Y-30113D1*
X1019Y-30142D1*
X475Y-29755D2*
X503Y-29841D1*
X589Y-29899D1*
X733Y-29928D1*
X819D1*
X962Y-29899D1*
X1048Y-29841D1*
X1077Y-29755D1*
Y-29698D1*
X1048Y-29612D1*
X962Y-29555D1*
X819Y-29526D1*
X733D1*
X589Y-29555D1*
X503Y-29612D1*
X475Y-29698D1*
Y-29755D1*
X589Y-29555D2*
X962Y-29899D1*
X5562Y-33786D2*
D99*
X5610Y-33762D1*
X5682Y-33691D1*
Y-34192D1*
X21748Y-32161D2*
X21796Y-32136D1*
X21868Y-32065D1*
Y-32567D1*
X32224Y-33325D2*
X32272Y-33300D1*
X32344Y-33229D1*
Y-33731D1*
X23161Y-33700D2*
X23209Y-33675D1*
X23281Y-33604D1*
Y-34106D1*
X10161Y-33637D2*
X10209Y-33613D1*
X10281Y-33542D1*
Y-34043D1*
X5501Y-24515D2*
Y-24945D1*
X5286Y-24730D2*
X5717D1*
M02*
