G04 DipTrace 2.3.1.0*
%INamp_tas5631.gbo*%
%MOIN*%
%ADD10C,0.0098*%
%ADD14C,0.013*%
%ADD29C,0.006*%
%ADD33C,0.016*%
%ADD46C,0.0313*%
%ADD98C,0.0062*%
%ADD99C,0.0077*%
%ADD100C,0.0124*%
%ADD101C,0.0093*%
%FSLAX44Y44*%
G04*
G70*
G90*
G75*
G01*
%LNBotSilk*%
%LPD*%
X4125Y-4525D2*
G02X4125Y-4525I1000J0D01*
G01*
X4425Y-4025D2*
D29*
Y-4225D1*
X4525Y-4125D2*
X4325D1*
X6500Y-4525D2*
G02X6500Y-4525I1000J0D01*
G01*
X6800Y-4025D2*
Y-4225D1*
X6900Y-4125D2*
X6700D1*
X13120Y-3621D2*
G02X13120Y-3621I3250J0D01*
G01*
G36*
X16720Y-4371D2*
X16472D1*
Y-2871D1*
X16720D1*
Y-4371D1*
G37*
X16621Y-3621D2*
D29*
X17171D1*
X16021D2*
X15570D1*
X16021Y-4371D2*
Y-3621D1*
Y-2871D2*
X16270D1*
Y-4371D1*
X16021D1*
Y-3621D2*
Y-2871D1*
X13421Y-3621D2*
X14021D1*
X13720Y-3321D2*
Y-3921D1*
X18246Y-8434D2*
G02X18246Y-8434I3250J0D01*
G01*
G36*
X22246Y-8085D2*
X20746D1*
Y-8333D1*
X22246D1*
Y-8085D1*
G37*
X21496Y-8184D2*
D29*
Y-7634D1*
Y-8784D2*
Y-9234D1*
X22246Y-8784D2*
X21496D1*
X20746D2*
Y-8534D1*
X22246D1*
Y-8784D1*
X21496D2*
X20746D1*
X21496Y-11384D2*
Y-10784D1*
X21196Y-11084D2*
X21796D1*
X32025Y-9688D2*
G02X32025Y-9688I1350J0D01*
G01*
X33375Y-10887D2*
Y-10587D1*
X33225Y-10738D2*
X33525D1*
X31852Y-2468D2*
D33*
Y-1969D1*
X32202Y-2468D2*
Y-1969D1*
X34603D2*
D29*
X32202D1*
D33*
Y-1469D1*
X31602Y-1969D2*
D29*
X31852D1*
D33*
Y-1469D1*
X30703Y-3169D2*
D29*
X35502D1*
X35702Y-2969D2*
Y-968D1*
X35502Y-769D2*
X30703D1*
X30502Y-968D2*
Y-2969D1*
X35502Y-3169D2*
G03X35702Y-2969I0J200D01*
G01*
X35502Y-769D2*
G02X35702Y-968I1J-199D01*
G01*
X30502D2*
G02X30703Y-769I200J0D01*
G01*
X30502Y-2969D2*
G03X30703Y-3169I200J0D01*
G01*
X18309Y-15122D2*
G02X18309Y-15122I3250J0D01*
G01*
G36*
X20809Y-15472D2*
X22309D1*
Y-15223D1*
X20809D1*
Y-15472D1*
G37*
X21559Y-15372D2*
D29*
Y-15922D1*
Y-14772D2*
Y-14322D1*
X20809Y-14772D2*
X21559D1*
X22309D2*
Y-15022D1*
X20809D1*
Y-14772D1*
X21559D2*
X22309D1*
X21559Y-12172D2*
Y-12772D1*
X21859Y-12472D2*
X21258D1*
X27500Y-6437D2*
D33*
Y-5937D1*
X27850Y-6437D2*
Y-5937D1*
X30250D2*
D29*
X27850D1*
D33*
Y-5438D1*
X27250Y-5937D2*
D29*
X27500D1*
D33*
Y-5438D1*
X26350Y-7137D2*
D29*
X31150D1*
X31350Y-6938D2*
Y-4937D1*
X31150Y-4737D2*
X26350D1*
X26150Y-4937D2*
Y-6938D1*
X31150Y-7137D2*
G03X31350Y-6938I0J200D01*
G01*
X31150Y-4737D2*
G02X31350Y-4937I1J-199D01*
G01*
X26150D2*
G02X26350Y-4737I200J0D01*
G01*
X26150Y-6938D2*
G03X26350Y-7137I200J0D01*
G01*
X30063Y-17188D2*
D33*
Y-17687D1*
X29713Y-17188D2*
Y-17687D1*
X27312D2*
D29*
X29713D1*
D33*
Y-18187D1*
X30313Y-17687D2*
D29*
X30063D1*
D33*
Y-18187D1*
X31212Y-16487D2*
D29*
X26413D1*
X26212Y-16687D2*
Y-18688D1*
X26413Y-18887D2*
X31212D1*
X31412Y-18688D2*
Y-16687D1*
X26413Y-16487D2*
G03X26212Y-16687I0J-200D01*
G01*
X26413Y-18887D2*
G02X26212Y-18688I-1J199D01*
G01*
X31412D2*
G02X31212Y-18887I-200J0D01*
G01*
X31412Y-16687D2*
G03X31212Y-16487I-200J0D01*
G01*
X34352Y-21547D2*
D33*
Y-22047D1*
X34002Y-21547D2*
Y-22047D1*
X31602D2*
D29*
X34002D1*
D33*
Y-22547D1*
X34603Y-22047D2*
D29*
X34352D1*
D33*
Y-22547D1*
X35502Y-20847D2*
D29*
X30703D1*
X30502Y-21047D2*
Y-23047D1*
X30703Y-23247D2*
X35502D1*
X35702Y-23047D2*
Y-21047D1*
X30703Y-20847D2*
G03X30502Y-21047I0J-200D01*
G01*
X30703Y-23247D2*
G02X30502Y-23047I-1J199D01*
G01*
X35702D2*
G02X35502Y-23247I-200J0D01*
G01*
X35702Y-21047D2*
G03X35502Y-20847I-200J0D01*
G01*
X13120Y-19810D2*
G02X13120Y-19810I3250J0D01*
G01*
G36*
X16720Y-20560D2*
X16472D1*
Y-19060D1*
X16720D1*
Y-20560D1*
G37*
X16621Y-19810D2*
D29*
X17171D1*
X16021D2*
X15570D1*
X16021Y-20560D2*
Y-19810D1*
Y-19060D2*
X16270D1*
Y-20560D1*
X16021D1*
Y-19810D2*
Y-19060D1*
X13421Y-19810D2*
X14021D1*
X13720Y-19510D2*
Y-20111D1*
X12209Y-916D2*
D10*
X10791D1*
X12209D2*
G02X10747Y-942I-721J-525D01*
G01*
X10479Y-21479D2*
Y-22896D1*
Y-21479D2*
G02X10505Y-22940I525J-721D01*
G01*
X9500Y-19000D2*
Y-18000D1*
X6500D1*
Y-19000D2*
Y-18000D1*
X9500Y-19000D2*
X6500D1*
X9500Y-20000D2*
Y-19000D1*
X6500D1*
Y-20000D2*
Y-19000D1*
X9500Y-20000D2*
X6500D1*
X9500Y-21000D2*
Y-20000D1*
X6500D1*
Y-21000D2*
Y-20000D1*
X9500Y-21000D2*
X6500D1*
X25739Y-3808D2*
X20614D1*
X25739Y-808D2*
Y-3808D1*
Y-808D2*
X20614D1*
Y-3808D1*
X31368Y-11187D2*
X26243D1*
X31368Y-8187D2*
Y-11187D1*
Y-8187D2*
X26243D1*
Y-11187D1*
X31368Y-15437D2*
X26243D1*
X31368Y-12437D2*
Y-15437D1*
Y-12437D2*
X26243D1*
Y-15437D1*
X25618Y-22937D2*
X20493D1*
X25618Y-19937D2*
Y-22937D1*
Y-19937D2*
X20493D1*
Y-22937D1*
X4469Y-2500D2*
X8406D1*
Y-729D1*
X4469D1*
Y-2500D1*
Y-2146D2*
X8406D1*
X3281Y-5408D2*
X1340D1*
Y-2908D1*
X3281D1*
Y-5408D1*
X3250Y-3375D2*
X1375D1*
D46*
X3594Y-4656D3*
X38969Y-9248D2*
D10*
X35031D1*
Y-15429D1*
X38969D1*
Y-9248D1*
X36000Y-9250D2*
Y-15375D1*
D46*
X37373Y-8951D3*
X4500Y-18500D2*
D10*
Y-19500D1*
X2500Y-18500D2*
X4500D1*
X2500D2*
Y-19500D1*
X4500D1*
Y-20500D1*
X2500Y-19500D2*
X4500D1*
X2500D2*
Y-20500D1*
X4500D1*
X306Y-8496D2*
D29*
Y-8996D1*
X556Y-9246D1*
X306Y-9496D1*
Y-9996D1*
X556Y-10246D1*
X306Y-8496D2*
X556Y-8246D1*
Y-10246D2*
X306Y-10496D1*
Y-10996D1*
X556Y-11246D1*
X306Y-11496D2*
Y-11996D1*
Y-11496D2*
X556Y-11246D1*
X306Y-11996D2*
X556Y-12246D1*
X2056D1*
Y-9246D2*
X2306Y-8996D1*
X2056Y-10246D2*
X2306Y-9996D1*
Y-9496D1*
X2056Y-9246D1*
X556Y-8246D2*
X2056D1*
X2306Y-8496D1*
Y-8996D2*
Y-8496D1*
X2056Y-11246D2*
X2306Y-10996D1*
Y-10496D1*
X2056Y-10246D1*
Y-11246D2*
X2306Y-11496D1*
Y-11996D2*
Y-11496D1*
X2056Y-12246D2*
X2306Y-11996D1*
X4369Y-17185D2*
Y-16685D1*
X4119Y-16435D1*
X4369Y-16185D1*
Y-15685D1*
X4119Y-15435D1*
X4369Y-17185D2*
X4119Y-17435D1*
Y-15435D2*
X4369Y-15185D1*
Y-14685D1*
X4119Y-14435D1*
X4369Y-14185D2*
Y-13685D1*
Y-14185D2*
X4119Y-14435D1*
X4369Y-13685D2*
X4119Y-13435D1*
X2619D1*
Y-16435D2*
X2369Y-16685D1*
X2619Y-15435D2*
X2369Y-15685D1*
Y-16185D1*
X2619Y-16435D1*
X4119Y-17435D2*
X2619D1*
X2369Y-17185D1*
Y-16685D2*
Y-17185D1*
X2619Y-14435D2*
X2369Y-14685D1*
Y-15185D1*
X2619Y-15435D1*
Y-14435D2*
X2369Y-14185D1*
Y-13685D2*
Y-14185D1*
X2619Y-13435D2*
X2369Y-13685D1*
X38969Y-4248D2*
D10*
X35031D1*
Y-7307D1*
X38969D1*
Y-4248D1*
X36000Y-4250D2*
Y-7313D1*
D46*
X37373Y-3951D3*
X38969Y-16748D2*
D10*
X35031D1*
Y-19807D1*
X38969D1*
Y-16748D1*
X36000Y-16750D2*
Y-19813D1*
D46*
X37373Y-16451D3*
X2000Y-8563D2*
D14*
X2500Y-8063D1*
X2688Y-17125D2*
X2063Y-17625D1*
X0Y-24016D2*
X39370D1*
X15185Y-25753D2*
D98*
X15147Y-25734D1*
X15109Y-25696D1*
X15090Y-25658D1*
Y-25581D1*
X15109Y-25543D1*
X15147Y-25505D1*
X15185Y-25485D1*
X15243Y-25466D1*
X15339D1*
X15396Y-25485D1*
X15434Y-25505D1*
X15472Y-25543D1*
X15492Y-25581D1*
Y-25658D1*
X15472Y-25696D1*
X15434Y-25734D1*
X15396Y-25753D1*
X15167Y-25877D2*
X15147Y-25915D1*
X15090Y-25973D1*
X15492D1*
X15090Y-26211D2*
X15109Y-26154D1*
X15167Y-26115D1*
X15262Y-26096D1*
X15320D1*
X15415Y-26115D1*
X15473Y-26154D1*
X15492Y-26211D1*
Y-26249D1*
X15473Y-26307D1*
X15415Y-26345D1*
X15320Y-26364D1*
X15262D1*
X15167Y-26345D1*
X15109Y-26307D1*
X15090Y-26249D1*
Y-26211D1*
X15167Y-26345D2*
X15415Y-26115D1*
X14429Y-27810D2*
X14448Y-27772D1*
X14486Y-27734D1*
X14524Y-27715D1*
X14601D1*
X14639Y-27734D1*
X14677Y-27772D1*
X14697Y-27810D1*
X14716Y-27868D1*
Y-27964D1*
X14697Y-28021D1*
X14677Y-28059D1*
X14639Y-28097D1*
X14601Y-28117D1*
X14524D1*
X14486Y-28097D1*
X14448Y-28059D1*
X14429Y-28021D1*
X14305Y-27792D2*
X14267Y-27772D1*
X14209Y-27715D1*
Y-28117D1*
X14086Y-27792D2*
X14047Y-27772D1*
X13990Y-27715D1*
Y-28117D1*
X21622Y-27498D2*
X21641Y-27460D1*
X21679Y-27421D1*
X21717Y-27402D1*
X21794D1*
X21832Y-27421D1*
X21870Y-27460D1*
X21890Y-27498D1*
X21909Y-27555D1*
Y-27651D1*
X21890Y-27708D1*
X21870Y-27747D1*
X21832Y-27785D1*
X21794Y-27804D1*
X21717D1*
X21679Y-27785D1*
X21641Y-27747D1*
X21622Y-27708D1*
X21498Y-27479D2*
X21460Y-27460D1*
X21402Y-27403D1*
Y-27804D1*
X21259Y-27498D2*
Y-27479D1*
X21240Y-27441D1*
X21221Y-27422D1*
X21183Y-27403D1*
X21106D1*
X21068Y-27422D1*
X21049Y-27441D1*
X21030Y-27479D1*
Y-27517D1*
X21049Y-27556D1*
X21087Y-27613D1*
X21279Y-27804D1*
X21011D1*
X18747Y-26623D2*
X18766Y-26585D1*
X18804Y-26546D1*
X18842Y-26527D1*
X18919D1*
X18957Y-26546D1*
X18995Y-26585D1*
X19015Y-26623D1*
X19034Y-26680D1*
Y-26776D1*
X19015Y-26833D1*
X18995Y-26872D1*
X18957Y-26910D1*
X18919Y-26929D1*
X18842D1*
X18804Y-26910D1*
X18766Y-26872D1*
X18747Y-26833D1*
X18623Y-26604D2*
X18585Y-26585D1*
X18527Y-26528D1*
Y-26929D1*
X18365Y-26528D2*
X18155D1*
X18270Y-26681D1*
X18212D1*
X18174Y-26700D1*
X18155Y-26719D1*
X18136Y-26776D1*
Y-26814D1*
X18155Y-26872D1*
X18193Y-26910D1*
X18251Y-26929D1*
X18308D1*
X18365Y-26910D1*
X18384Y-26891D1*
X18404Y-26853D1*
X16685Y-29003D2*
X16647Y-28984D1*
X16609Y-28946D1*
X16590Y-28908D1*
Y-28831D1*
X16609Y-28793D1*
X16647Y-28755D1*
X16685Y-28735D1*
X16743Y-28716D1*
X16839D1*
X16896Y-28735D1*
X16934Y-28755D1*
X16972Y-28793D1*
X16992Y-28831D1*
Y-28908D1*
X16972Y-28946D1*
X16934Y-28984D1*
X16896Y-29003D1*
X16667Y-29127D2*
X16647Y-29165D1*
X16590Y-29223D1*
X16992D1*
X16590Y-29576D2*
Y-29385D1*
X16762Y-29366D1*
X16743Y-29385D1*
X16724Y-29442D1*
Y-29499D1*
X16743Y-29557D1*
X16781Y-29595D1*
X16839Y-29614D1*
X16877D1*
X16934Y-29595D1*
X16973Y-29557D1*
X16992Y-29499D1*
Y-29442D1*
X16973Y-29385D1*
X16953Y-29366D1*
X16915Y-29346D1*
X20099Y-30560D2*
X20118Y-30522D1*
X20157Y-30484D1*
X20195Y-30465D1*
X20271D1*
X20310Y-30484D1*
X20348Y-30522D1*
X20367Y-30560D1*
X20386Y-30618D1*
Y-30714D1*
X20367Y-30771D1*
X20348Y-30809D1*
X20310Y-30847D1*
X20271Y-30867D1*
X20195D1*
X20157Y-30847D1*
X20118Y-30809D1*
X20099Y-30771D1*
X19976Y-30542D2*
X19937Y-30522D1*
X19880Y-30465D1*
Y-30867D1*
X19680D2*
X19489Y-30465D1*
X19756D1*
X18123Y-30151D2*
X18085Y-30132D1*
X18046Y-30093D1*
X18027Y-30055D1*
Y-29979D1*
X18046Y-29940D1*
X18085Y-29902D1*
X18123Y-29883D1*
X18180Y-29864D1*
X18276D1*
X18333Y-29883D1*
X18372Y-29902D1*
X18410Y-29940D1*
X18429Y-29979D1*
Y-30055D1*
X18410Y-30093D1*
X18372Y-30132D1*
X18333Y-30151D1*
X18104Y-30274D2*
X18085Y-30313D1*
X18028Y-30370D1*
X18429D1*
X18028Y-30589D2*
X18047Y-30532D1*
X18085Y-30513D1*
X18123D1*
X18161Y-30532D1*
X18181Y-30570D1*
X18200Y-30647D1*
X18219Y-30704D1*
X18257Y-30742D1*
X18295Y-30761D1*
X18353D1*
X18391Y-30742D1*
X18410Y-30723D1*
X18429Y-30666D1*
Y-30589D1*
X18410Y-30532D1*
X18391Y-30513D1*
X18353Y-30494D1*
X18295D1*
X18257Y-30513D1*
X18219Y-30551D1*
X18200Y-30608D1*
X18181Y-30685D1*
X18161Y-30723D1*
X18123Y-30742D1*
X18085D1*
X18047Y-30723D1*
X18028Y-30666D1*
Y-30589D1*
X16152Y-33873D2*
X16172Y-33835D1*
X16210Y-33796D1*
X16248Y-33777D1*
X16324D1*
X16363Y-33796D1*
X16401Y-33835D1*
X16420Y-33873D1*
X16439Y-33930D1*
Y-34026D1*
X16420Y-34083D1*
X16401Y-34122D1*
X16363Y-34160D1*
X16324Y-34179D1*
X16248D1*
X16210Y-34160D1*
X16172Y-34122D1*
X16152Y-34083D1*
X16029Y-33854D2*
X15991Y-33835D1*
X15933Y-33778D1*
Y-34179D1*
X15561Y-33911D2*
X15580Y-33969D1*
X15618Y-34007D1*
X15676Y-34026D1*
X15695D1*
X15752Y-34007D1*
X15790Y-33969D1*
X15810Y-33911D1*
Y-33892D1*
X15790Y-33835D1*
X15752Y-33797D1*
X15695Y-33778D1*
X15676D1*
X15618Y-33797D1*
X15580Y-33835D1*
X15561Y-33911D1*
Y-34007D1*
X15580Y-34103D1*
X15618Y-34160D1*
X15676Y-34179D1*
X15714D1*
X15771Y-34160D1*
X15790Y-34122D1*
X14498Y-30185D2*
X14517Y-30147D1*
X14555Y-30109D1*
X14593Y-30090D1*
X14670D1*
X14708Y-30109D1*
X14746Y-30147D1*
X14766Y-30185D1*
X14785Y-30243D1*
Y-30339D1*
X14766Y-30396D1*
X14746Y-30434D1*
X14708Y-30472D1*
X14670Y-30492D1*
X14593D1*
X14555Y-30472D1*
X14517Y-30434D1*
X14498Y-30396D1*
X14355Y-30186D2*
Y-30167D1*
X14336Y-30128D1*
X14317Y-30109D1*
X14279Y-30090D1*
X14202D1*
X14164Y-30109D1*
X14145Y-30128D1*
X14126Y-30167D1*
Y-30205D1*
X14145Y-30243D1*
X14183Y-30300D1*
X14374Y-30492D1*
X14107D1*
X13868Y-30090D2*
X13926Y-30109D1*
X13964Y-30167D1*
X13983Y-30262D1*
Y-30320D1*
X13964Y-30415D1*
X13926Y-30473D1*
X13868Y-30492D1*
X13830D1*
X13773Y-30473D1*
X13735Y-30415D1*
X13715Y-30320D1*
Y-30262D1*
X13735Y-30167D1*
X13773Y-30109D1*
X13830Y-30090D1*
X13868D1*
X13735Y-30167D2*
X13964Y-30415D1*
X16224Y-31373D2*
X16244Y-31335D1*
X16282Y-31296D1*
X16320Y-31277D1*
X16396D1*
X16435Y-31296D1*
X16473Y-31335D1*
X16492Y-31373D1*
X16511Y-31430D1*
Y-31526D1*
X16492Y-31583D1*
X16473Y-31622D1*
X16435Y-31660D1*
X16396Y-31679D1*
X16320D1*
X16282Y-31660D1*
X16244Y-31622D1*
X16224Y-31583D1*
X16082Y-31373D2*
Y-31354D1*
X16063Y-31316D1*
X16043Y-31297D1*
X16005Y-31278D1*
X15929D1*
X15891Y-31297D1*
X15871Y-31316D1*
X15852Y-31354D1*
Y-31392D1*
X15871Y-31431D1*
X15910Y-31488D1*
X16101Y-31679D1*
X15833D1*
X15710Y-31354D2*
X15671Y-31335D1*
X15614Y-31278D1*
Y-31679D1*
X5397Y-5756D2*
X5416Y-5718D1*
X5454Y-5680D1*
X5492Y-5661D1*
X5569D1*
X5607Y-5680D1*
X5645Y-5718D1*
X5665Y-5756D1*
X5684Y-5814D1*
Y-5910D1*
X5665Y-5967D1*
X5645Y-6005D1*
X5607Y-6043D1*
X5569Y-6063D1*
X5492D1*
X5454Y-6043D1*
X5416Y-6005D1*
X5397Y-5967D1*
X5273Y-5738D2*
X5235Y-5718D1*
X5177Y-5661D1*
Y-6063D1*
X4939Y-5661D2*
X4996Y-5680D1*
X5035Y-5738D1*
X5054Y-5833D1*
Y-5891D1*
X5035Y-5986D1*
X4996Y-6044D1*
X4939Y-6063D1*
X4901D1*
X4843Y-6044D1*
X4805Y-5986D1*
X4786Y-5891D1*
Y-5833D1*
X4805Y-5738D1*
X4843Y-5680D1*
X4901Y-5661D1*
X4939D1*
X4805Y-5738D2*
X5035Y-5986D1*
X4662Y-5738D2*
X4624Y-5718D1*
X4566Y-5661D1*
Y-6063D1*
X9935Y-3183D2*
X9897Y-3164D1*
X9859Y-3125D1*
X9840Y-3087D1*
Y-3011D1*
X9859Y-2972D1*
X9897Y-2934D1*
X9935Y-2915D1*
X9993Y-2896D1*
X10089D1*
X10146Y-2915D1*
X10184Y-2934D1*
X10222Y-2972D1*
X10242Y-3011D1*
Y-3087D1*
X10222Y-3125D1*
X10184Y-3164D1*
X10146Y-3183D1*
X9917Y-3306D2*
X9897Y-3345D1*
X9840Y-3402D1*
X10242D1*
X9840Y-3641D2*
X9859Y-3583D1*
X9917Y-3545D1*
X10012Y-3526D1*
X10070D1*
X10165Y-3545D1*
X10223Y-3583D1*
X10242Y-3641D1*
Y-3679D1*
X10223Y-3736D1*
X10165Y-3774D1*
X10070Y-3794D1*
X10012D1*
X9917Y-3774D1*
X9859Y-3736D1*
X9840Y-3679D1*
Y-3641D1*
X9917Y-3774D2*
X10165Y-3545D1*
X9936Y-3937D2*
X9917D1*
X9878Y-3956D1*
X9859Y-3975D1*
X9840Y-4013D1*
Y-4090D1*
X9859Y-4128D1*
X9878Y-4147D1*
X9917Y-4166D1*
X9955D1*
X9993Y-4147D1*
X10050Y-4109D1*
X10242Y-3917D1*
Y-4185D1*
X7858Y-5756D2*
X7877Y-5718D1*
X7915Y-5680D1*
X7953Y-5661D1*
X8030D1*
X8068Y-5680D1*
X8106Y-5718D1*
X8125Y-5756D1*
X8144Y-5814D1*
Y-5910D1*
X8125Y-5967D1*
X8106Y-6005D1*
X8068Y-6043D1*
X8030Y-6063D1*
X7953D1*
X7915Y-6043D1*
X7877Y-6005D1*
X7858Y-5967D1*
X7734Y-5738D2*
X7696Y-5718D1*
X7638Y-5661D1*
Y-6063D1*
X7400Y-5661D2*
X7457Y-5680D1*
X7496Y-5738D1*
X7515Y-5833D1*
Y-5891D1*
X7496Y-5986D1*
X7457Y-6044D1*
X7400Y-6063D1*
X7362D1*
X7304Y-6044D1*
X7266Y-5986D1*
X7247Y-5891D1*
Y-5833D1*
X7266Y-5738D1*
X7304Y-5680D1*
X7362Y-5661D1*
X7400D1*
X7266Y-5738D2*
X7496Y-5986D1*
X7085Y-5661D2*
X6875D1*
X6989Y-5814D1*
X6932D1*
X6894Y-5833D1*
X6875Y-5852D1*
X6855Y-5910D1*
Y-5948D1*
X6875Y-6005D1*
X6913Y-6044D1*
X6970Y-6063D1*
X7028D1*
X7085Y-6044D1*
X7104Y-6024D1*
X7123Y-5986D1*
X11412Y-9801D2*
X11431Y-9763D1*
X11470Y-9724D1*
X11508Y-9705D1*
X11584D1*
X11623Y-9724D1*
X11661Y-9763D1*
X11680Y-9801D1*
X11699Y-9858D1*
Y-9954D1*
X11680Y-10011D1*
X11661Y-10050D1*
X11623Y-10088D1*
X11584Y-10107D1*
X11508D1*
X11470Y-10088D1*
X11431Y-10050D1*
X11412Y-10011D1*
X11289Y-9782D2*
X11250Y-9763D1*
X11193Y-9706D1*
Y-10107D1*
X10954Y-9706D2*
X11012Y-9725D1*
X11050Y-9782D1*
X11069Y-9878D1*
Y-9935D1*
X11050Y-10031D1*
X11012Y-10088D1*
X10954Y-10107D1*
X10916D1*
X10859Y-10088D1*
X10821Y-10031D1*
X10801Y-9935D1*
Y-9878D1*
X10821Y-9782D1*
X10859Y-9725D1*
X10916Y-9706D1*
X10954D1*
X10821Y-9782D2*
X11050Y-10031D1*
X10486Y-10107D2*
Y-9706D1*
X10678Y-9973D1*
X10391D1*
X12630Y-3263D2*
X12592Y-3244D1*
X12554Y-3206D1*
X12535Y-3168D1*
Y-3091D1*
X12554Y-3053D1*
X12592Y-3015D1*
X12630Y-2995D1*
X12688Y-2976D1*
X12784D1*
X12841Y-2995D1*
X12879Y-3015D1*
X12917Y-3053D1*
X12937Y-3091D1*
Y-3168D1*
X12917Y-3206D1*
X12879Y-3244D1*
X12841Y-3263D1*
X12612Y-3387D2*
X12592Y-3425D1*
X12535Y-3483D1*
X12937D1*
X12535Y-3721D2*
X12554Y-3664D1*
X12612Y-3625D1*
X12707Y-3606D1*
X12765D1*
X12860Y-3625D1*
X12918Y-3664D1*
X12937Y-3721D1*
Y-3759D1*
X12918Y-3817D1*
X12860Y-3855D1*
X12765Y-3874D1*
X12707D1*
X12612Y-3855D1*
X12554Y-3817D1*
X12535Y-3759D1*
Y-3721D1*
X12612Y-3855D2*
X12860Y-3625D1*
X12535Y-4227D2*
Y-4036D1*
X12707Y-4017D1*
X12688Y-4036D1*
X12669Y-4094D1*
Y-4151D1*
X12688Y-4208D1*
X12726Y-4247D1*
X12784Y-4266D1*
X12822D1*
X12879Y-4247D1*
X12918Y-4208D1*
X12937Y-4151D1*
Y-4094D1*
X12918Y-4036D1*
X12898Y-4017D1*
X12860Y-3998D1*
X17756Y-8086D2*
X17718Y-8067D1*
X17679Y-8029D1*
X17660Y-7991D1*
Y-7914D1*
X17679Y-7876D1*
X17718Y-7838D1*
X17756Y-7818D1*
X17813Y-7799D1*
X17909D1*
X17966Y-7818D1*
X18005Y-7838D1*
X18043Y-7876D1*
X18062Y-7914D1*
Y-7991D1*
X18043Y-8029D1*
X18005Y-8067D1*
X17966Y-8086D1*
X17737Y-8210D2*
X17718Y-8248D1*
X17661Y-8306D1*
X18062D1*
X17661Y-8544D2*
X17680Y-8487D1*
X17737Y-8448D1*
X17833Y-8429D1*
X17890D1*
X17986Y-8448D1*
X18043Y-8487D1*
X18062Y-8544D1*
Y-8582D1*
X18043Y-8640D1*
X17986Y-8678D1*
X17890Y-8697D1*
X17833D1*
X17737Y-8678D1*
X17680Y-8640D1*
X17661Y-8582D1*
Y-8544D1*
X17737Y-8678D2*
X17986Y-8448D1*
X17718Y-9050D2*
X17680Y-9031D1*
X17661Y-8974D1*
Y-8936D1*
X17680Y-8878D1*
X17737Y-8840D1*
X17833Y-8821D1*
X17928D1*
X18005Y-8840D1*
X18043Y-8878D1*
X18062Y-8936D1*
Y-8955D1*
X18043Y-9012D1*
X18005Y-9050D1*
X17947Y-9069D1*
X17928D1*
X17871Y-9050D1*
X17833Y-9012D1*
X17814Y-8955D1*
Y-8936D1*
X17833Y-8878D1*
X17871Y-8840D1*
X17928Y-8821D1*
X33733Y-7847D2*
X33752Y-7809D1*
X33790Y-7771D1*
X33828Y-7752D1*
X33905D1*
X33943Y-7771D1*
X33981Y-7809D1*
X34001Y-7847D1*
X34020Y-7905D1*
Y-8001D1*
X34001Y-8058D1*
X33981Y-8096D1*
X33943Y-8134D1*
X33905Y-8154D1*
X33828D1*
X33790Y-8134D1*
X33752Y-8096D1*
X33733Y-8058D1*
X33609Y-7829D2*
X33571Y-7809D1*
X33513Y-7752D1*
Y-8154D1*
X33275Y-7752D2*
X33332Y-7771D1*
X33371Y-7829D1*
X33390Y-7924D1*
Y-7982D1*
X33371Y-8077D1*
X33332Y-8135D1*
X33275Y-8154D1*
X33237D1*
X33179Y-8135D1*
X33141Y-8077D1*
X33122Y-7982D1*
Y-7924D1*
X33141Y-7829D1*
X33179Y-7771D1*
X33237Y-7752D1*
X33275D1*
X33141Y-7829D2*
X33371Y-8077D1*
X32922Y-8154D2*
X32730Y-7752D1*
X32998D1*
X4873Y-7665D2*
X4835Y-7646D1*
X4796Y-7607D1*
X4777Y-7569D1*
Y-7493D1*
X4796Y-7454D1*
X4835Y-7416D1*
X4873Y-7397D1*
X4930Y-7378D1*
X5026D1*
X5083Y-7397D1*
X5122Y-7416D1*
X5160Y-7454D1*
X5179Y-7493D1*
Y-7569D1*
X5160Y-7607D1*
X5122Y-7646D1*
X5083Y-7665D1*
X4854Y-7788D2*
X4835Y-7827D1*
X4778Y-7884D1*
X5179D1*
X4778Y-8123D2*
X4797Y-8065D1*
X4854Y-8027D1*
X4950Y-8008D1*
X5007D1*
X5103Y-8027D1*
X5160Y-8065D1*
X5179Y-8123D1*
Y-8161D1*
X5160Y-8218D1*
X5103Y-8256D1*
X5007Y-8276D1*
X4950D1*
X4854Y-8256D1*
X4797Y-8218D1*
X4778Y-8161D1*
Y-8123D1*
X4854Y-8256D2*
X5103Y-8027D1*
X4778Y-8495D2*
X4797Y-8438D1*
X4835Y-8418D1*
X4873D1*
X4911Y-8438D1*
X4931Y-8476D1*
X4950Y-8552D1*
X4969Y-8610D1*
X5007Y-8648D1*
X5045Y-8667D1*
X5103D1*
X5141Y-8648D1*
X5160Y-8629D1*
X5179Y-8571D1*
Y-8495D1*
X5160Y-8438D1*
X5141Y-8418D1*
X5103Y-8399D1*
X5045D1*
X5007Y-8418D1*
X4969Y-8457D1*
X4950Y-8514D1*
X4931Y-8590D1*
X4911Y-8629D1*
X4873Y-8648D1*
X4835D1*
X4797Y-8629D1*
X4778Y-8571D1*
Y-8495D1*
X9243Y-7015D2*
X9205Y-6996D1*
X9166Y-6957D1*
X9147Y-6919D1*
Y-6843D1*
X9166Y-6804D1*
X9205Y-6766D1*
X9243Y-6747D1*
X9300Y-6728D1*
X9396D1*
X9453Y-6747D1*
X9492Y-6766D1*
X9530Y-6804D1*
X9549Y-6843D1*
Y-6919D1*
X9530Y-6957D1*
X9492Y-6996D1*
X9453Y-7015D1*
X9224Y-7138D2*
X9205Y-7177D1*
X9148Y-7234D1*
X9549D1*
X9224Y-7358D2*
X9205Y-7396D1*
X9148Y-7454D1*
X9549D1*
X9148Y-7692D2*
X9167Y-7635D1*
X9224Y-7596D1*
X9320Y-7577D1*
X9377D1*
X9473Y-7596D1*
X9530Y-7635D1*
X9549Y-7692D1*
Y-7730D1*
X9530Y-7788D1*
X9473Y-7826D1*
X9377Y-7845D1*
X9320D1*
X9224Y-7826D1*
X9167Y-7788D1*
X9148Y-7730D1*
Y-7692D1*
X9224Y-7826D2*
X9473Y-7596D1*
X7873Y-11042D2*
X7835Y-11023D1*
X7796Y-10985D1*
X7777Y-10947D1*
Y-10870D1*
X7796Y-10832D1*
X7835Y-10794D1*
X7873Y-10774D1*
X7930Y-10755D1*
X8026D1*
X8083Y-10774D1*
X8122Y-10794D1*
X8160Y-10832D1*
X8179Y-10870D1*
Y-10947D1*
X8160Y-10985D1*
X8122Y-11023D1*
X8083Y-11042D1*
X7854Y-11166D2*
X7835Y-11204D1*
X7778Y-11262D1*
X8179D1*
X7854Y-11385D2*
X7835Y-11424D1*
X7778Y-11481D1*
X8179D1*
X7854Y-11605D2*
X7835Y-11643D1*
X7778Y-11701D1*
X8179D1*
X12681Y-6394D2*
X12643Y-6375D1*
X12604Y-6336D1*
X12585Y-6298D1*
Y-6222D1*
X12604Y-6183D1*
X12643Y-6145D1*
X12681Y-6126D1*
X12738Y-6107D1*
X12834D1*
X12891Y-6126D1*
X12930Y-6145D1*
X12968Y-6183D1*
X12987Y-6222D1*
Y-6298D1*
X12968Y-6336D1*
X12930Y-6375D1*
X12891Y-6394D1*
X12662Y-6517D2*
X12643Y-6556D1*
X12586Y-6613D1*
X12987D1*
X12662Y-6737D2*
X12643Y-6775D1*
X12586Y-6833D1*
X12987D1*
X12586Y-7186D2*
Y-6995D1*
X12758Y-6976D1*
X12739Y-6995D1*
X12719Y-7052D1*
Y-7109D1*
X12739Y-7167D1*
X12777Y-7205D1*
X12834Y-7224D1*
X12872D1*
X12930Y-7205D1*
X12968Y-7167D1*
X12987Y-7109D1*
Y-7052D1*
X12968Y-6995D1*
X12949Y-6976D1*
X12911Y-6956D1*
X32999Y-3591D2*
X33018Y-3553D1*
X33057Y-3514D1*
X33095Y-3495D1*
X33171D1*
X33210Y-3514D1*
X33248Y-3553D1*
X33267Y-3591D1*
X33286Y-3648D1*
Y-3744D1*
X33267Y-3801D1*
X33248Y-3840D1*
X33210Y-3878D1*
X33171Y-3897D1*
X33095D1*
X33057Y-3878D1*
X33018Y-3840D1*
X32999Y-3801D1*
X32876Y-3572D2*
X32837Y-3553D1*
X32780Y-3496D1*
Y-3897D1*
X32656Y-3572D2*
X32618Y-3553D1*
X32560Y-3496D1*
Y-3897D1*
X32360D2*
X32169Y-3496D1*
X32437D1*
X32488Y-12818D2*
X32450Y-12799D1*
X32412Y-12761D1*
X32393Y-12723D1*
Y-12646D1*
X32412Y-12608D1*
X32450Y-12570D1*
X32488Y-12551D1*
X32546Y-12532D1*
X32642D1*
X32699Y-12551D1*
X32737Y-12570D1*
X32775Y-12608D1*
X32795Y-12646D1*
Y-12723D1*
X32775Y-12761D1*
X32737Y-12799D1*
X32699Y-12818D1*
X32470Y-12942D2*
X32450Y-12980D1*
X32393Y-13038D1*
X32795D1*
X32489Y-13181D2*
X32470D1*
X32431Y-13200D1*
X32412Y-13219D1*
X32393Y-13257D1*
Y-13334D1*
X32412Y-13372D1*
X32431Y-13391D1*
X32470Y-13410D1*
X32508D1*
X32546Y-13391D1*
X32603Y-13353D1*
X32795Y-13161D1*
Y-13429D1*
X32393Y-13668D2*
X32412Y-13610D1*
X32470Y-13572D1*
X32565Y-13553D1*
X32623D1*
X32718Y-13572D1*
X32776Y-13610D1*
X32795Y-13668D1*
Y-13706D1*
X32776Y-13763D1*
X32718Y-13801D1*
X32623Y-13821D1*
X32565D1*
X32470Y-13801D1*
X32412Y-13763D1*
X32393Y-13706D1*
Y-13668D1*
X32470Y-13801D2*
X32718Y-13572D1*
X21830Y-18603D2*
X21849Y-18565D1*
X21888Y-18527D1*
X21926Y-18508D1*
X22002D1*
X22041Y-18527D1*
X22079Y-18565D1*
X22098Y-18603D1*
X22117Y-18661D1*
Y-18757D1*
X22098Y-18814D1*
X22079Y-18852D1*
X22041Y-18890D1*
X22002Y-18910D1*
X21926D1*
X21888Y-18890D1*
X21849Y-18852D1*
X21830Y-18814D1*
X21707Y-18585D2*
X21668Y-18565D1*
X21611Y-18508D1*
Y-18910D1*
X21468Y-18604D2*
Y-18585D1*
X21449Y-18546D1*
X21430Y-18527D1*
X21391Y-18508D1*
X21315D1*
X21277Y-18527D1*
X21258Y-18546D1*
X21238Y-18585D1*
Y-18623D1*
X21258Y-18661D1*
X21296Y-18718D1*
X21487Y-18910D1*
X21219D1*
X21096Y-18585D2*
X21057Y-18565D1*
X21000Y-18508D1*
Y-18910D1*
X29108Y-4247D2*
X29127Y-4209D1*
X29165Y-4171D1*
X29203Y-4152D1*
X29280D1*
X29318Y-4171D1*
X29356Y-4209D1*
X29376Y-4247D1*
X29395Y-4305D1*
Y-4401D1*
X29376Y-4458D1*
X29356Y-4496D1*
X29318Y-4534D1*
X29280Y-4554D1*
X29203D1*
X29165Y-4534D1*
X29127Y-4496D1*
X29108Y-4458D1*
X28984Y-4229D2*
X28946Y-4209D1*
X28888Y-4152D1*
Y-4554D1*
X28745Y-4248D2*
Y-4229D1*
X28726Y-4190D1*
X28707Y-4171D1*
X28669Y-4152D1*
X28592D1*
X28554Y-4171D1*
X28535Y-4190D1*
X28516Y-4229D1*
Y-4267D1*
X28535Y-4305D1*
X28573Y-4362D1*
X28765Y-4554D1*
X28497D1*
X28335Y-4152D2*
X28125D1*
X28239Y-4305D1*
X28182D1*
X28144Y-4324D1*
X28125Y-4343D1*
X28105Y-4401D1*
Y-4439D1*
X28125Y-4496D1*
X28163Y-4535D1*
X28220Y-4554D1*
X28278D1*
X28335Y-4535D1*
X28354Y-4515D1*
X28373Y-4477D1*
X15118Y-10183D2*
X15080Y-10164D1*
X15042Y-10125D1*
X15023Y-10087D1*
Y-10011D1*
X15042Y-9972D1*
X15080Y-9934D1*
X15118Y-9915D1*
X15176Y-9896D1*
X15272D1*
X15329Y-9915D1*
X15367Y-9934D1*
X15405Y-9972D1*
X15425Y-10011D1*
Y-10087D1*
X15405Y-10125D1*
X15367Y-10164D1*
X15329Y-10183D1*
X15100Y-10306D2*
X15080Y-10345D1*
X15023Y-10402D1*
X15425D1*
X15119Y-10545D2*
X15100D1*
X15061Y-10564D1*
X15042Y-10583D1*
X15023Y-10622D1*
Y-10698D1*
X15042Y-10736D1*
X15061Y-10755D1*
X15100Y-10775D1*
X15138D1*
X15176Y-10755D1*
X15233Y-10717D1*
X15425Y-10526D1*
Y-10794D1*
X15023Y-11147D2*
Y-10956D1*
X15195Y-10937D1*
X15176Y-10956D1*
X15157Y-11013D1*
Y-11070D1*
X15176Y-11128D1*
X15214Y-11166D1*
X15272Y-11185D1*
X15310D1*
X15367Y-11166D1*
X15406Y-11128D1*
X15425Y-11070D1*
Y-11013D1*
X15406Y-10956D1*
X15386Y-10937D1*
X15348Y-10917D1*
X17315Y-9663D2*
X17277Y-9644D1*
X17239Y-9606D1*
X17220Y-9568D1*
Y-9491D1*
X17239Y-9453D1*
X17277Y-9415D1*
X17315Y-9395D1*
X17373Y-9376D1*
X17468D1*
X17526Y-9395D1*
X17564Y-9415D1*
X17602Y-9453D1*
X17621Y-9491D1*
Y-9568D1*
X17602Y-9606D1*
X17564Y-9644D1*
X17526Y-9663D1*
X17296Y-9787D2*
X17277Y-9825D1*
X17220Y-9883D1*
X17621D1*
X17315Y-10026D2*
X17296D1*
X17258Y-10045D1*
X17239Y-10064D1*
X17220Y-10102D1*
Y-10179D1*
X17239Y-10217D1*
X17258Y-10236D1*
X17296Y-10255D1*
X17334D1*
X17373Y-10236D1*
X17430Y-10198D1*
X17621Y-10006D1*
Y-10274D1*
X17277Y-10627D2*
X17239Y-10608D1*
X17220Y-10551D1*
Y-10513D1*
X17239Y-10455D1*
X17296Y-10417D1*
X17392Y-10398D1*
X17487D1*
X17564Y-10417D1*
X17602Y-10455D1*
X17621Y-10513D1*
Y-10532D1*
X17602Y-10589D1*
X17564Y-10627D1*
X17506Y-10646D1*
X17487D1*
X17430Y-10627D1*
X17392Y-10589D1*
X17373Y-10532D1*
Y-10513D1*
X17392Y-10455D1*
X17430Y-10417D1*
X17487Y-10398D1*
X11733Y-18298D2*
X11752Y-18260D1*
X11790Y-18222D1*
X11828Y-18203D1*
X11905D1*
X11943Y-18222D1*
X11981Y-18260D1*
X12001Y-18298D1*
X12020Y-18356D1*
Y-18452D1*
X12001Y-18509D1*
X11981Y-18547D1*
X11943Y-18585D1*
X11905Y-18605D1*
X11828D1*
X11790Y-18585D1*
X11752Y-18547D1*
X11733Y-18509D1*
X11609Y-18280D2*
X11571Y-18260D1*
X11513Y-18203D1*
Y-18605D1*
X11370Y-18299D2*
Y-18280D1*
X11351Y-18241D1*
X11332Y-18222D1*
X11294Y-18203D1*
X11217D1*
X11179Y-18222D1*
X11160Y-18241D1*
X11141Y-18280D1*
Y-18318D1*
X11160Y-18356D1*
X11198Y-18413D1*
X11390Y-18605D1*
X11122D1*
X10922D2*
X10730Y-18203D1*
X10998D1*
X15118Y-12620D2*
X15080Y-12601D1*
X15042Y-12563D1*
X15023Y-12525D1*
Y-12448D1*
X15042Y-12410D1*
X15080Y-12372D1*
X15118Y-12352D1*
X15176Y-12333D1*
X15272D1*
X15329Y-12352D1*
X15367Y-12372D1*
X15405Y-12410D1*
X15425Y-12448D1*
Y-12525D1*
X15405Y-12563D1*
X15367Y-12601D1*
X15329Y-12620D1*
X15100Y-12744D2*
X15080Y-12782D1*
X15023Y-12840D1*
X15425D1*
X15119Y-12983D2*
X15100D1*
X15061Y-13002D1*
X15042Y-13021D1*
X15023Y-13059D1*
Y-13136D1*
X15042Y-13174D1*
X15061Y-13193D1*
X15100Y-13212D1*
X15138D1*
X15176Y-13193D1*
X15233Y-13155D1*
X15425Y-12963D1*
Y-13231D1*
X15023Y-13450D2*
X15042Y-13393D1*
X15080Y-13374D1*
X15119D1*
X15157Y-13393D1*
X15176Y-13431D1*
X15195Y-13508D1*
X15214Y-13565D1*
X15253Y-13603D1*
X15291Y-13622D1*
X15348D1*
X15386Y-13603D1*
X15406Y-13584D1*
X15425Y-13527D1*
Y-13450D1*
X15406Y-13393D1*
X15386Y-13374D1*
X15348Y-13355D1*
X15291D1*
X15253Y-13374D1*
X15214Y-13412D1*
X15195Y-13469D1*
X15176Y-13546D1*
X15157Y-13584D1*
X15119Y-13603D1*
X15080D1*
X15042Y-13584D1*
X15023Y-13527D1*
Y-13450D1*
X29161Y-15997D2*
X29180Y-15959D1*
X29218Y-15921D1*
X29256Y-15902D1*
X29333D1*
X29371Y-15921D1*
X29409Y-15959D1*
X29429Y-15997D1*
X29448Y-16055D1*
Y-16151D1*
X29429Y-16208D1*
X29409Y-16246D1*
X29371Y-16284D1*
X29333Y-16304D1*
X29256D1*
X29218Y-16284D1*
X29180Y-16246D1*
X29161Y-16208D1*
X29037Y-15979D2*
X28999Y-15959D1*
X28941Y-15902D1*
Y-16304D1*
X28798Y-15998D2*
Y-15979D1*
X28779Y-15940D1*
X28760Y-15921D1*
X28722Y-15902D1*
X28645D1*
X28607Y-15921D1*
X28588Y-15940D1*
X28569Y-15979D1*
Y-16017D1*
X28588Y-16055D1*
X28626Y-16112D1*
X28818Y-16304D1*
X28550D1*
X28177Y-16036D2*
X28197Y-16093D1*
X28235Y-16132D1*
X28292Y-16151D1*
X28311D1*
X28369Y-16132D1*
X28407Y-16093D1*
X28426Y-16036D1*
Y-16017D1*
X28407Y-15959D1*
X28369Y-15921D1*
X28311Y-15902D1*
X28292D1*
X28235Y-15921D1*
X28197Y-15959D1*
X28177Y-16036D1*
Y-16132D1*
X28197Y-16227D1*
X28235Y-16285D1*
X28292Y-16304D1*
X28330D1*
X28388Y-16285D1*
X28407Y-16246D1*
X11971Y-14907D2*
X11990Y-14869D1*
X12028Y-14830D1*
X12067Y-14811D1*
X12143D1*
X12181Y-14830D1*
X12220Y-14869D1*
X12239Y-14907D1*
X12258Y-14964D1*
Y-15060D1*
X12239Y-15117D1*
X12220Y-15156D1*
X12181Y-15194D1*
X12143Y-15213D1*
X12067D1*
X12028Y-15194D1*
X11990Y-15156D1*
X11971Y-15117D1*
X11848Y-14888D2*
X11809Y-14869D1*
X11752Y-14812D1*
Y-15213D1*
X11590Y-14812D2*
X11380D1*
X11494Y-14965D1*
X11437D1*
X11399Y-14984D1*
X11380Y-15003D1*
X11360Y-15060D1*
Y-15098D1*
X11380Y-15156D1*
X11418Y-15194D1*
X11475Y-15213D1*
X11533D1*
X11590Y-15194D1*
X11609Y-15175D1*
X11628Y-15137D1*
X11237Y-14888D2*
X11198Y-14869D1*
X11141Y-14812D1*
Y-15213D1*
X17315Y-13506D2*
X17277Y-13487D1*
X17239Y-13449D1*
X17220Y-13411D1*
Y-13334D1*
X17239Y-13296D1*
X17277Y-13258D1*
X17315Y-13238D1*
X17373Y-13219D1*
X17468D1*
X17526Y-13238D1*
X17564Y-13258D1*
X17602Y-13296D1*
X17621Y-13334D1*
Y-13411D1*
X17602Y-13449D1*
X17564Y-13487D1*
X17526Y-13506D1*
X17296Y-13630D2*
X17277Y-13668D1*
X17220Y-13726D1*
X17621D1*
X17220Y-13888D2*
Y-14098D1*
X17373Y-13983D1*
Y-14040D1*
X17392Y-14079D1*
X17411Y-14098D1*
X17468Y-14117D1*
X17506D1*
X17564Y-14098D1*
X17602Y-14060D1*
X17621Y-14002D1*
Y-13945D1*
X17602Y-13888D1*
X17583Y-13868D1*
X17545Y-13849D1*
X17315Y-14260D2*
X17296D1*
X17258Y-14279D1*
X17239Y-14298D1*
X17220Y-14336D1*
Y-14413D1*
X17239Y-14451D1*
X17258Y-14470D1*
X17296Y-14489D1*
X17334D1*
X17373Y-14470D1*
X17430Y-14432D1*
X17621Y-14241D1*
Y-14508D1*
X13243Y-16852D2*
X13205Y-16833D1*
X13167Y-16794D1*
X13148Y-16756D1*
Y-16680D1*
X13167Y-16641D1*
X13205Y-16603D1*
X13243Y-16584D1*
X13301Y-16565D1*
X13397D1*
X13454Y-16584D1*
X13492Y-16603D1*
X13530Y-16641D1*
X13550Y-16680D1*
Y-16756D1*
X13530Y-16794D1*
X13492Y-16833D1*
X13454Y-16852D1*
X13225Y-16975D2*
X13205Y-17014D1*
X13148Y-17071D1*
X13550D1*
X13148Y-17233D2*
Y-17443D1*
X13301Y-17329D1*
Y-17386D1*
X13320Y-17424D1*
X13339Y-17443D1*
X13397Y-17463D1*
X13435D1*
X13492Y-17443D1*
X13531Y-17405D1*
X13550Y-17348D1*
Y-17290D1*
X13531Y-17233D1*
X13511Y-17214D1*
X13473Y-17195D1*
X13148Y-17816D2*
Y-17625D1*
X13320Y-17606D1*
X13301Y-17625D1*
X13282Y-17682D1*
Y-17739D1*
X13301Y-17797D1*
X13339Y-17835D1*
X13397Y-17854D1*
X13435D1*
X13492Y-17835D1*
X13531Y-17797D1*
X13550Y-17739D1*
Y-17682D1*
X13531Y-17625D1*
X13511Y-17606D1*
X13473Y-17586D1*
X33450Y-20357D2*
X33469Y-20319D1*
X33508Y-20280D1*
X33546Y-20261D1*
X33622D1*
X33661Y-20280D1*
X33699Y-20319D1*
X33718Y-20357D1*
X33737Y-20414D1*
Y-20510D1*
X33718Y-20567D1*
X33699Y-20606D1*
X33661Y-20644D1*
X33622Y-20663D1*
X33546D1*
X33508Y-20644D1*
X33469Y-20606D1*
X33450Y-20567D1*
X33327Y-20338D2*
X33288Y-20319D1*
X33231Y-20262D1*
Y-20663D1*
X33069Y-20262D2*
X32859D1*
X32973Y-20415D1*
X32916D1*
X32878Y-20434D1*
X32859Y-20453D1*
X32839Y-20510D1*
Y-20548D1*
X32859Y-20606D1*
X32897Y-20644D1*
X32954Y-20663D1*
X33012D1*
X33069Y-20644D1*
X33088Y-20625D1*
X33107Y-20587D1*
X32486Y-20319D2*
X32505Y-20281D1*
X32563Y-20262D1*
X32601D1*
X32658Y-20281D1*
X32697Y-20338D1*
X32716Y-20434D1*
Y-20529D1*
X32697Y-20606D1*
X32658Y-20644D1*
X32601Y-20663D1*
X32582D1*
X32525Y-20644D1*
X32486Y-20606D1*
X32467Y-20548D1*
Y-20529D1*
X32486Y-20472D1*
X32525Y-20434D1*
X32582Y-20415D1*
X32601D1*
X32658Y-20434D1*
X32697Y-20472D1*
X32716Y-20529D1*
X15103Y-23104D2*
X15122Y-23066D1*
X15160Y-23027D1*
X15198Y-23008D1*
X15275D1*
X15313Y-23027D1*
X15351Y-23066D1*
X15371Y-23104D1*
X15390Y-23161D1*
Y-23257D1*
X15371Y-23314D1*
X15351Y-23353D1*
X15313Y-23391D1*
X15275Y-23410D1*
X15198D1*
X15160Y-23391D1*
X15122Y-23353D1*
X15103Y-23314D1*
X14979Y-23085D2*
X14941Y-23066D1*
X14884Y-23009D1*
Y-23410D1*
X14722Y-23009D2*
X14511D1*
X14626Y-23162D1*
X14569D1*
X14531Y-23181D1*
X14511Y-23200D1*
X14492Y-23257D1*
Y-23295D1*
X14511Y-23353D1*
X14550Y-23391D1*
X14607Y-23410D1*
X14664D1*
X14722Y-23391D1*
X14741Y-23372D1*
X14760Y-23334D1*
X14273Y-23009D2*
X14330Y-23028D1*
X14350Y-23066D1*
Y-23104D1*
X14330Y-23142D1*
X14292Y-23162D1*
X14216Y-23181D1*
X14158Y-23200D1*
X14120Y-23238D1*
X14101Y-23276D1*
Y-23334D1*
X14120Y-23372D1*
X14139Y-23391D1*
X14197Y-23410D1*
X14273D1*
X14330Y-23391D1*
X14350Y-23372D1*
X14369Y-23334D1*
Y-23276D1*
X14350Y-23238D1*
X14311Y-23200D1*
X14254Y-23181D1*
X14178Y-23162D1*
X14139Y-23142D1*
X14120Y-23104D1*
Y-23066D1*
X14139Y-23028D1*
X14197Y-23009D1*
X14273D1*
X11374Y-12238D2*
X11393Y-12200D1*
X11432Y-12162D1*
X11470Y-12143D1*
X11546D1*
X11585Y-12162D1*
X11623Y-12200D1*
X11642Y-12238D1*
X11661Y-12296D1*
Y-12392D1*
X11642Y-12449D1*
X11623Y-12487D1*
X11585Y-12525D1*
X11546Y-12545D1*
X11470D1*
X11432Y-12525D1*
X11393Y-12487D1*
X11374Y-12449D1*
X11251Y-12220D2*
X11212Y-12200D1*
X11155Y-12143D1*
Y-12545D1*
X10993Y-12143D2*
X10783D1*
X10897Y-12296D1*
X10840D1*
X10802Y-12315D1*
X10783Y-12334D1*
X10763Y-12392D1*
Y-12430D1*
X10783Y-12487D1*
X10821Y-12526D1*
X10878Y-12545D1*
X10936D1*
X10993Y-12526D1*
X11012Y-12506D1*
X11031Y-12468D1*
X10391Y-12277D2*
X10410Y-12334D1*
X10448Y-12373D1*
X10506Y-12392D1*
X10525D1*
X10582Y-12373D1*
X10620Y-12334D1*
X10640Y-12277D1*
Y-12258D1*
X10620Y-12200D1*
X10582Y-12162D1*
X10525Y-12143D1*
X10506D1*
X10448Y-12162D1*
X10410Y-12200D1*
X10391Y-12277D1*
Y-12373D1*
X10410Y-12468D1*
X10448Y-12526D1*
X10506Y-12545D1*
X10544D1*
X10601Y-12526D1*
X10620Y-12487D1*
X2908Y-6810D2*
X2927Y-6772D1*
X2965Y-6734D1*
X3003Y-6715D1*
X3080D1*
X3118Y-6734D1*
X3156Y-6772D1*
X3176Y-6810D1*
X3195Y-6868D1*
Y-6964D1*
X3176Y-7021D1*
X3156Y-7059D1*
X3118Y-7097D1*
X3080Y-7117D1*
X3003D1*
X2965Y-7097D1*
X2927Y-7059D1*
X2908Y-7021D1*
X2784Y-6792D2*
X2746Y-6772D1*
X2688Y-6715D1*
Y-7117D1*
X2373D2*
Y-6715D1*
X2565Y-6983D1*
X2278D1*
X2039Y-6715D2*
X2097Y-6734D1*
X2135Y-6792D1*
X2154Y-6887D1*
Y-6945D1*
X2135Y-7040D1*
X2097Y-7098D1*
X2039Y-7117D1*
X2001D1*
X1944Y-7098D1*
X1906Y-7040D1*
X1886Y-6945D1*
Y-6887D1*
X1906Y-6792D1*
X1944Y-6734D1*
X2001Y-6715D1*
X2039D1*
X1906Y-6792D2*
X2135Y-7040D1*
X12036Y-414D2*
Y-816D1*
X11902D1*
X11845Y-796D1*
X11806Y-758D1*
X11787Y-720D1*
X11768Y-663D1*
Y-567D1*
X11787Y-509D1*
X11806Y-471D1*
X11845Y-433D1*
X11902Y-414D1*
X12036D1*
X11645Y-491D2*
X11606Y-471D1*
X11549Y-414D1*
Y-816D1*
X11310Y-414D2*
X11368Y-433D1*
X11406Y-491D1*
X11425Y-586D1*
Y-644D1*
X11406Y-739D1*
X11368Y-797D1*
X11310Y-816D1*
X11272D1*
X11215Y-797D1*
X11177Y-739D1*
X11157Y-644D1*
Y-586D1*
X11177Y-491D1*
X11215Y-433D1*
X11272Y-414D1*
X11310D1*
X11177Y-491D2*
X11406Y-739D1*
X11034Y-491D2*
X10995Y-471D1*
X10938Y-414D1*
Y-816D1*
X10573Y-23115D2*
Y-23517D1*
X10439D1*
X10381Y-23497D1*
X10343Y-23459D1*
X10324Y-23421D1*
X10305Y-23364D1*
Y-23268D1*
X10324Y-23210D1*
X10343Y-23172D1*
X10381Y-23134D1*
X10439Y-23115D1*
X10573D1*
X10181Y-23192D2*
X10143Y-23172D1*
X10085Y-23115D1*
Y-23517D1*
X9847Y-23115D2*
X9904Y-23134D1*
X9943Y-23192D1*
X9962Y-23287D1*
Y-23345D1*
X9943Y-23440D1*
X9904Y-23498D1*
X9847Y-23517D1*
X9809D1*
X9751Y-23498D1*
X9713Y-23440D1*
X9694Y-23345D1*
Y-23287D1*
X9713Y-23192D1*
X9751Y-23134D1*
X9809Y-23115D1*
X9847D1*
X9713Y-23192D2*
X9943Y-23440D1*
X9551Y-23211D2*
Y-23192D1*
X9532Y-23153D1*
X9513Y-23134D1*
X9474Y-23115D1*
X9398D1*
X9360Y-23134D1*
X9341Y-23153D1*
X9321Y-23192D1*
Y-23230D1*
X9341Y-23268D1*
X9379Y-23325D1*
X9570Y-23517D1*
X9302D1*
X5832Y-18629D2*
Y-18227D1*
X5985Y-18629D1*
X6138Y-18227D1*
Y-18629D1*
X5708Y-18304D2*
X5670Y-18284D1*
X5612Y-18227D1*
Y-18629D1*
X5855Y-19691D2*
Y-19289D1*
X6008Y-19691D1*
X6161Y-19289D1*
Y-19691D1*
X5712Y-19385D2*
Y-19366D1*
X5693Y-19328D1*
X5674Y-19309D1*
X5636Y-19290D1*
X5559D1*
X5521Y-19309D1*
X5502Y-19328D1*
X5483Y-19366D1*
Y-19404D1*
X5502Y-19443D1*
X5540Y-19500D1*
X5732Y-19691D1*
X5464D1*
X5855Y-20754D2*
Y-20352D1*
X6008Y-20754D1*
X6161Y-20352D1*
Y-20754D1*
X5693Y-20352D2*
X5483D1*
X5598Y-20505D1*
X5540D1*
X5502Y-20524D1*
X5483Y-20543D1*
X5464Y-20601D1*
Y-20639D1*
X5483Y-20696D1*
X5521Y-20735D1*
X5579Y-20754D1*
X5636D1*
X5693Y-20735D1*
X5712Y-20715D1*
X5732Y-20677D1*
X24129Y-3973D2*
Y-4374D1*
X23899D1*
X23776Y-4049D2*
X23737Y-4030D1*
X23680Y-3973D1*
Y-4374D1*
X23441Y-3973D2*
X23499Y-3992D1*
X23537Y-4049D1*
X23556Y-4145D1*
Y-4202D1*
X23537Y-4298D1*
X23499Y-4355D1*
X23441Y-4374D1*
X23403D1*
X23346Y-4355D1*
X23308Y-4298D1*
X23288Y-4202D1*
Y-4145D1*
X23308Y-4049D1*
X23346Y-3992D1*
X23403Y-3973D1*
X23441D1*
X23308Y-4049D2*
X23537Y-4298D1*
X23165Y-4049D2*
X23126Y-4030D1*
X23069Y-3973D1*
Y-4374D1*
X29406Y-7602D2*
Y-8004D1*
X29177D1*
X29053Y-7679D2*
X29015Y-7659D1*
X28957Y-7602D1*
Y-8004D1*
X28719Y-7602D2*
X28776Y-7621D1*
X28815Y-7679D1*
X28834Y-7774D1*
Y-7832D1*
X28815Y-7927D1*
X28776Y-7985D1*
X28719Y-8004D1*
X28681D1*
X28623Y-7985D1*
X28585Y-7927D1*
X28566Y-7832D1*
Y-7774D1*
X28585Y-7679D1*
X28623Y-7621D1*
X28681Y-7602D1*
X28719D1*
X28585Y-7679D2*
X28815Y-7927D1*
X28423Y-7698D2*
Y-7679D1*
X28404Y-7640D1*
X28385Y-7621D1*
X28346Y-7602D1*
X28270D1*
X28232Y-7621D1*
X28213Y-7640D1*
X28193Y-7679D1*
Y-7717D1*
X28213Y-7755D1*
X28251Y-7812D1*
X28442Y-8004D1*
X28174D1*
X29406Y-11852D2*
Y-12254D1*
X29177D1*
X29053Y-11929D2*
X29015Y-11909D1*
X28957Y-11852D1*
Y-12254D1*
X28719Y-11852D2*
X28776Y-11871D1*
X28815Y-11929D1*
X28834Y-12024D1*
Y-12082D1*
X28815Y-12177D1*
X28776Y-12235D1*
X28719Y-12254D1*
X28681D1*
X28623Y-12235D1*
X28585Y-12177D1*
X28566Y-12082D1*
Y-12024D1*
X28585Y-11929D1*
X28623Y-11871D1*
X28681Y-11852D1*
X28719D1*
X28585Y-11929D2*
X28815Y-12177D1*
X28404Y-11852D2*
X28194D1*
X28308Y-12005D1*
X28251D1*
X28213Y-12024D1*
X28194Y-12043D1*
X28174Y-12101D1*
Y-12139D1*
X28194Y-12196D1*
X28232Y-12235D1*
X28289Y-12254D1*
X28347D1*
X28404Y-12235D1*
X28423Y-12215D1*
X28442Y-12177D1*
X23666Y-19352D2*
Y-19754D1*
X23436D1*
X23313Y-19429D2*
X23274Y-19409D1*
X23217Y-19352D1*
Y-19754D1*
X22978Y-19352D2*
X23036Y-19371D1*
X23074Y-19429D1*
X23093Y-19524D1*
Y-19582D1*
X23074Y-19677D1*
X23036Y-19735D1*
X22978Y-19754D1*
X22940D1*
X22883Y-19735D1*
X22845Y-19677D1*
X22825Y-19582D1*
Y-19524D1*
X22845Y-19429D1*
X22883Y-19371D1*
X22940Y-19352D1*
X22978D1*
X22845Y-19429D2*
X23074Y-19677D1*
X22510Y-19754D2*
Y-19352D1*
X22702Y-19620D1*
X22415D1*
X10173Y-1156D2*
X10001D1*
X9944Y-1137D1*
X9924Y-1118D1*
X9905Y-1080D1*
Y-1041D1*
X9924Y-1003D1*
X9944Y-984D1*
X10001Y-965D1*
X10173D1*
Y-1367D1*
X10039Y-1156D2*
X9905Y-1367D1*
X9782Y-1042D2*
X9743Y-1022D1*
X9686Y-965D1*
Y-1367D1*
X9447Y-965D2*
X9505Y-984D1*
X9543Y-1042D1*
X9562Y-1137D1*
Y-1195D1*
X9543Y-1290D1*
X9505Y-1348D1*
X9447Y-1367D1*
X9409D1*
X9352Y-1348D1*
X9314Y-1290D1*
X9294Y-1195D1*
Y-1137D1*
X9314Y-1042D1*
X9352Y-984D1*
X9409Y-965D1*
X9447D1*
X9314Y-1042D2*
X9543Y-1290D1*
X9171Y-1042D2*
X9132Y-1022D1*
X9075Y-965D1*
Y-1367D1*
X12219Y-20551D2*
Y-20723D1*
X12199Y-20781D1*
X12180Y-20800D1*
X12142Y-20819D1*
X12104D1*
X12066Y-20800D1*
X12046Y-20781D1*
X12027Y-20723D1*
Y-20551D1*
X12429D1*
X12219Y-20685D2*
X12429Y-20819D1*
X12104Y-20943D2*
X12085Y-20981D1*
X12028Y-21039D1*
X12429D1*
X12028Y-21277D2*
X12047Y-21220D1*
X12104Y-21181D1*
X12200Y-21162D1*
X12257D1*
X12353Y-21181D1*
X12410Y-21220D1*
X12429Y-21277D1*
Y-21315D1*
X12410Y-21373D1*
X12353Y-21411D1*
X12257Y-21430D1*
X12200D1*
X12104Y-21411D1*
X12047Y-21373D1*
X12028Y-21315D1*
Y-21277D1*
X12104Y-21411D2*
X12353Y-21181D1*
X12123Y-21573D2*
X12104D1*
X12066Y-21592D1*
X12047Y-21611D1*
X12028Y-21650D1*
Y-21726D1*
X12047Y-21764D1*
X12066Y-21783D1*
X12104Y-21803D1*
X12142D1*
X12181Y-21783D1*
X12238Y-21745D1*
X12429Y-21554D1*
Y-21822D1*
X11043Y-5195D2*
Y-5367D1*
X11024Y-5425D1*
X11005Y-5444D1*
X10967Y-5463D1*
X10928D1*
X10890Y-5444D1*
X10871Y-5425D1*
X10852Y-5367D1*
Y-5195D1*
X11254D1*
X11043Y-5329D2*
X11254Y-5463D1*
X10929Y-5587D2*
X10909Y-5625D1*
X10852Y-5683D1*
X11254D1*
X10852Y-5921D2*
X10871Y-5864D1*
X10929Y-5825D1*
X11024Y-5806D1*
X11082D1*
X11177Y-5825D1*
X11235Y-5864D1*
X11254Y-5921D1*
Y-5959D1*
X11235Y-6017D1*
X11177Y-6055D1*
X11082Y-6074D1*
X11024D1*
X10929Y-6055D1*
X10871Y-6017D1*
X10852Y-5959D1*
Y-5921D1*
X10929Y-6055D2*
X11177Y-5825D1*
X11254Y-6389D2*
X10852D1*
X11120Y-6198D1*
Y-6485D1*
X6531Y-7366D2*
Y-7538D1*
X6512Y-7595D1*
X6493Y-7615D1*
X6455Y-7634D1*
X6416D1*
X6378Y-7615D1*
X6359Y-7595D1*
X6340Y-7538D1*
Y-7366D1*
X6742D1*
X6531Y-7500D2*
X6742Y-7634D1*
X6417Y-7757D2*
X6397Y-7796D1*
X6340Y-7853D1*
X6742D1*
X6340Y-8092D2*
X6359Y-8034D1*
X6417Y-7996D1*
X6512Y-7977D1*
X6570D1*
X6665Y-7996D1*
X6723Y-8034D1*
X6742Y-8092D1*
Y-8130D1*
X6723Y-8187D1*
X6665Y-8225D1*
X6570Y-8245D1*
X6512D1*
X6417Y-8225D1*
X6359Y-8187D1*
X6340Y-8130D1*
Y-8092D1*
X6417Y-8225D2*
X6665Y-7996D1*
X6742Y-8445D2*
X6340Y-8636D1*
Y-8368D1*
X4589Y-8043D2*
X4417D1*
X4359Y-8024D1*
X4340Y-8005D1*
X4321Y-7967D1*
Y-7928D1*
X4340Y-7890D1*
X4359Y-7871D1*
X4417Y-7852D1*
X4589D1*
Y-8254D1*
X4455Y-8043D2*
X4321Y-8254D1*
X4197Y-7929D2*
X4159Y-7909D1*
X4102Y-7852D1*
Y-8254D1*
X3863Y-7852D2*
X3921Y-7871D1*
X3959Y-7929D1*
X3978Y-8024D1*
Y-8082D1*
X3959Y-8177D1*
X3921Y-8235D1*
X3863Y-8254D1*
X3825D1*
X3768Y-8235D1*
X3730Y-8177D1*
X3710Y-8082D1*
Y-8024D1*
X3730Y-7929D1*
X3768Y-7871D1*
X3825Y-7852D1*
X3863D1*
X3730Y-7929D2*
X3959Y-8177D1*
X3338Y-7986D2*
X3357Y-8043D1*
X3395Y-8082D1*
X3453Y-8101D1*
X3472D1*
X3529Y-8082D1*
X3567Y-8043D1*
X3587Y-7986D1*
Y-7967D1*
X3567Y-7909D1*
X3529Y-7871D1*
X3472Y-7852D1*
X3453D1*
X3395Y-7871D1*
X3357Y-7909D1*
X3338Y-7986D1*
Y-8082D1*
X3357Y-8177D1*
X3395Y-8235D1*
X3453Y-8254D1*
X3491D1*
X3548Y-8235D1*
X3567Y-8196D1*
X6012Y-9731D2*
X5840D1*
X5783Y-9711D1*
X5764Y-9692D1*
X5745Y-9654D1*
Y-9616D1*
X5764Y-9578D1*
X5783Y-9558D1*
X5840Y-9539D1*
X6012D1*
Y-9941D1*
X5878Y-9731D2*
X5745Y-9941D1*
X5621Y-9616D2*
X5583Y-9597D1*
X5525Y-9540D1*
Y-9941D1*
X5402Y-9616D2*
X5363Y-9597D1*
X5306Y-9540D1*
Y-9941D1*
X5067Y-9540D2*
X5125Y-9559D1*
X5163Y-9616D1*
X5182Y-9712D1*
Y-9769D1*
X5163Y-9865D1*
X5125Y-9922D1*
X5067Y-9941D1*
X5029D1*
X4972Y-9922D1*
X4934Y-9865D1*
X4914Y-9769D1*
Y-9712D1*
X4934Y-9616D1*
X4972Y-9559D1*
X5029Y-9540D1*
X5067D1*
X4934Y-9616D2*
X5163Y-9865D1*
X5801Y-10668D2*
X5629D1*
X5572Y-10649D1*
X5553Y-10630D1*
X5534Y-10592D1*
Y-10553D1*
X5553Y-10515D1*
X5572Y-10496D1*
X5629Y-10477D1*
X5801D1*
Y-10879D1*
X5667Y-10668D2*
X5534Y-10879D1*
X5410Y-10554D2*
X5372Y-10534D1*
X5314Y-10477D1*
Y-10879D1*
X5191Y-10554D2*
X5152Y-10534D1*
X5095Y-10477D1*
Y-10879D1*
X4971Y-10554D2*
X4933Y-10534D1*
X4875Y-10477D1*
Y-10879D1*
X4512Y-12231D2*
X4340D1*
X4283Y-12211D1*
X4264Y-12192D1*
X4245Y-12154D1*
Y-12116D1*
X4264Y-12078D1*
X4283Y-12058D1*
X4340Y-12039D1*
X4512D1*
Y-12441D1*
X4378Y-12231D2*
X4245Y-12441D1*
X4121Y-12116D2*
X4083Y-12097D1*
X4025Y-12040D1*
Y-12441D1*
X3902Y-12116D2*
X3863Y-12097D1*
X3806Y-12040D1*
Y-12441D1*
X3663Y-12135D2*
Y-12116D1*
X3644Y-12078D1*
X3625Y-12059D1*
X3586Y-12040D1*
X3510D1*
X3472Y-12059D1*
X3453Y-12078D1*
X3433Y-12116D1*
Y-12154D1*
X3453Y-12193D1*
X3491Y-12250D1*
X3682Y-12441D1*
X3414D1*
X8853Y-16339D2*
X8681D1*
X8624Y-16319D1*
X8604Y-16300D1*
X8585Y-16262D1*
Y-16224D1*
X8604Y-16186D1*
X8624Y-16166D1*
X8681Y-16147D1*
X8853D1*
Y-16549D1*
X8719Y-16339D2*
X8585Y-16549D1*
X8462Y-16224D2*
X8423Y-16205D1*
X8366Y-16148D1*
Y-16549D1*
X8242Y-16224D2*
X8204Y-16205D1*
X8146Y-16148D1*
Y-16549D1*
X7793Y-16205D2*
X7812Y-16167D1*
X7870Y-16148D1*
X7908D1*
X7965Y-16167D1*
X8004Y-16224D1*
X8023Y-16320D1*
Y-16415D1*
X8004Y-16492D1*
X7965Y-16530D1*
X7908Y-16549D1*
X7889D1*
X7832Y-16530D1*
X7793Y-16492D1*
X7774Y-16434D1*
Y-16415D1*
X7793Y-16358D1*
X7832Y-16320D1*
X7889Y-16301D1*
X7908D1*
X7965Y-16320D1*
X8004Y-16358D1*
X8023Y-16415D1*
X8850Y-15357D2*
X8678D1*
X8620Y-15337D1*
X8601Y-15318D1*
X8582Y-15280D1*
Y-15242D1*
X8601Y-15204D1*
X8620Y-15184D1*
X8678Y-15165D1*
X8850D1*
Y-15567D1*
X8716Y-15357D2*
X8582Y-15567D1*
X8458Y-15242D2*
X8420Y-15223D1*
X8362Y-15166D1*
Y-15567D1*
X8239Y-15242D2*
X8200Y-15223D1*
X8143Y-15166D1*
Y-15567D1*
X7943D2*
X7751Y-15166D1*
X8019D1*
X3883Y-1066D2*
X4170D1*
X4228Y-1085D1*
X4266Y-1123D1*
X4285Y-1180D1*
Y-1218D1*
X4266Y-1276D1*
X4228Y-1314D1*
X4170Y-1333D1*
X3883D1*
X3960Y-1457D2*
X3941Y-1495D1*
X3884Y-1553D1*
X4285D1*
X3884Y-1791D2*
X3903Y-1734D1*
X3960Y-1695D1*
X4056Y-1676D1*
X4113D1*
X4209Y-1695D1*
X4266Y-1734D1*
X4285Y-1791D1*
Y-1829D1*
X4266Y-1887D1*
X4209Y-1925D1*
X4113Y-1944D1*
X4056D1*
X3960Y-1925D1*
X3903Y-1887D1*
X3884Y-1829D1*
Y-1791D1*
X3960Y-1925D2*
X4209Y-1695D1*
X3960Y-2068D2*
X3941Y-2106D1*
X3884Y-2164D1*
X4285D1*
X3094Y-2322D2*
X2826Y-2724D1*
Y-2322D2*
X3094Y-2724D1*
X2703Y-2399D2*
X2664Y-2380D1*
X2607Y-2323D1*
Y-2724D1*
X2368Y-2323D2*
X2426Y-2342D1*
X2464Y-2399D1*
X2483Y-2495D1*
Y-2552D1*
X2464Y-2648D1*
X2426Y-2705D1*
X2368Y-2724D1*
X2330D1*
X2273Y-2705D1*
X2235Y-2648D1*
X2215Y-2552D1*
Y-2495D1*
X2235Y-2399D1*
X2273Y-2342D1*
X2330Y-2323D1*
X2368D1*
X2235Y-2399D2*
X2464Y-2648D1*
X2092Y-2399D2*
X2053Y-2380D1*
X1996Y-2323D1*
Y-2724D1*
X613Y-3727D2*
X958D1*
X786Y-3555D2*
Y-3900D1*
X661Y-4023D2*
X642Y-4062D1*
X585Y-4119D1*
X986D1*
X585Y-4472D2*
Y-4281D1*
X757Y-4262D1*
X738Y-4281D1*
X718Y-4339D1*
Y-4396D1*
X738Y-4453D1*
X776Y-4492D1*
X833Y-4511D1*
X871D1*
X929Y-4492D1*
X967Y-4453D1*
X986Y-4396D1*
Y-4339D1*
X967Y-4281D1*
X948Y-4262D1*
X910Y-4243D1*
X37635Y-8209D2*
X37367Y-8611D1*
Y-8209D2*
X37635Y-8611D1*
X37244Y-8286D2*
X37205Y-8267D1*
X37148Y-8210D1*
Y-8611D1*
X36909Y-8210D2*
X36967Y-8229D1*
X37005Y-8286D1*
X37024Y-8382D1*
Y-8439D1*
X37005Y-8535D1*
X36967Y-8592D1*
X36909Y-8611D1*
X36871D1*
X36814Y-8592D1*
X36776Y-8535D1*
X36756Y-8439D1*
Y-8382D1*
X36776Y-8286D1*
X36814Y-8229D1*
X36871Y-8210D1*
X36909D1*
X36776Y-8286D2*
X37005Y-8535D1*
X36613Y-8305D2*
Y-8286D1*
X36594Y-8248D1*
X36575Y-8229D1*
X36537Y-8210D1*
X36460D1*
X36422Y-8229D1*
X36403Y-8248D1*
X36384Y-8286D1*
Y-8324D1*
X36403Y-8363D1*
X36441Y-8420D1*
X36633Y-8611D1*
X36365D1*
X4292Y-18106D2*
X4120D1*
X4063Y-18086D1*
X4043Y-18067D1*
X4024Y-18029D1*
Y-17991D1*
X4043Y-17953D1*
X4063Y-17933D1*
X4120Y-17914D1*
X4292D1*
Y-18316D1*
X4158Y-18106D2*
X4024Y-18316D1*
X3901Y-18163D2*
X3671D1*
Y-18125D1*
X3690Y-18086D1*
X3709Y-18067D1*
X3748Y-18048D1*
X3805D1*
X3843Y-18067D1*
X3882Y-18106D1*
X3901Y-18163D1*
Y-18201D1*
X3882Y-18259D1*
X3843Y-18297D1*
X3805Y-18316D1*
X3748D1*
X3709Y-18297D1*
X3671Y-18259D1*
X3337Y-18106D2*
X3356Y-18067D1*
X3414Y-18048D1*
X3471D1*
X3529Y-18067D1*
X3548Y-18106D1*
X3529Y-18144D1*
X3490Y-18163D1*
X3395Y-18182D1*
X3356Y-18201D1*
X3337Y-18240D1*
Y-18259D1*
X3356Y-18297D1*
X3414Y-18316D1*
X3471D1*
X3529Y-18297D1*
X3548Y-18259D1*
X3214Y-18163D2*
X2984D1*
Y-18125D1*
X3003Y-18086D1*
X3022Y-18067D1*
X3061Y-18048D1*
X3118D1*
X3156Y-18067D1*
X3195Y-18106D1*
X3214Y-18163D1*
Y-18201D1*
X3195Y-18259D1*
X3156Y-18297D1*
X3118Y-18316D1*
X3061D1*
X3022Y-18297D1*
X2984Y-18259D1*
X2803Y-17914D2*
Y-18240D1*
X2784Y-18297D1*
X2746Y-18316D1*
X2708D1*
X2861Y-18048D2*
X2727D1*
X4292Y-20827D2*
X4120D1*
X4063Y-20808D1*
X4043Y-20789D1*
X4024Y-20751D1*
Y-20712D1*
X4043Y-20674D1*
X4063Y-20655D1*
X4120Y-20636D1*
X4292D1*
Y-21038D1*
X4158Y-20827D2*
X4024Y-21038D1*
X3901Y-20885D2*
X3671D1*
Y-20846D1*
X3690Y-20808D1*
X3709Y-20789D1*
X3748Y-20770D1*
X3805D1*
X3843Y-20789D1*
X3882Y-20827D1*
X3901Y-20885D1*
Y-20923D1*
X3882Y-20980D1*
X3843Y-21018D1*
X3805Y-21038D1*
X3748D1*
X3709Y-21018D1*
X3671Y-20980D1*
X3337Y-20827D2*
X3356Y-20789D1*
X3414Y-20770D1*
X3471D1*
X3529Y-20789D1*
X3548Y-20827D1*
X3529Y-20865D1*
X3490Y-20885D1*
X3395Y-20904D1*
X3356Y-20923D1*
X3337Y-20961D1*
Y-20980D1*
X3356Y-21018D1*
X3414Y-21038D1*
X3471D1*
X3529Y-21018D1*
X3548Y-20980D1*
X3214Y-20885D2*
X2984D1*
Y-20846D1*
X3003Y-20808D1*
X3022Y-20789D1*
X3061Y-20770D1*
X3118D1*
X3156Y-20789D1*
X3195Y-20827D1*
X3214Y-20885D1*
Y-20923D1*
X3195Y-20980D1*
X3156Y-21018D1*
X3118Y-21038D1*
X3061D1*
X3022Y-21018D1*
X2984Y-20980D1*
X2803Y-20636D2*
Y-20961D1*
X2784Y-21018D1*
X2746Y-21038D1*
X2708D1*
X2861Y-20770D2*
X2727D1*
X1941Y-7661D2*
X1674Y-8063D1*
Y-7661D2*
X1941Y-8063D1*
X1550Y-7738D2*
X1512Y-7718D1*
X1454Y-7661D1*
Y-8063D1*
X1216Y-7661D2*
X1273Y-7680D1*
X1312Y-7738D1*
X1331Y-7833D1*
Y-7891D1*
X1312Y-7986D1*
X1273Y-8044D1*
X1216Y-8063D1*
X1178D1*
X1120Y-8044D1*
X1082Y-7986D1*
X1063Y-7891D1*
Y-7833D1*
X1082Y-7738D1*
X1120Y-7680D1*
X1178Y-7661D1*
X1216D1*
X1082Y-7738D2*
X1312Y-7986D1*
X710Y-7661D2*
X901D1*
X920Y-7833D1*
X901Y-7814D1*
X843Y-7795D1*
X786D1*
X729Y-7814D1*
X690Y-7852D1*
X671Y-7910D1*
Y-7948D1*
X690Y-8005D1*
X729Y-8044D1*
X786Y-8063D1*
X843D1*
X901Y-8044D1*
X920Y-8024D1*
X939Y-7986D1*
X1908Y-12593D2*
X1736D1*
X1679Y-12574D1*
X1659Y-12554D1*
X1640Y-12516D1*
Y-12459D1*
X1659Y-12421D1*
X1679Y-12401D1*
X1736Y-12382D1*
X1908D1*
Y-12784D1*
X1517Y-12382D2*
X1421Y-12784D1*
X1325Y-12382D1*
X1230Y-12784D1*
X1134Y-12382D1*
X704Y-12784D2*
Y-12382D1*
X857Y-12784D1*
X1010Y-12382D1*
Y-12784D1*
X3995Y-12849D2*
X3727Y-13251D1*
Y-12849D2*
X3995Y-13251D1*
X3603Y-12926D2*
X3565Y-12907D1*
X3507Y-12850D1*
Y-13251D1*
X3269Y-12850D2*
X3326Y-12869D1*
X3365Y-12926D1*
X3384Y-13022D1*
Y-13079D1*
X3365Y-13175D1*
X3326Y-13232D1*
X3269Y-13251D1*
X3231D1*
X3173Y-13232D1*
X3135Y-13175D1*
X3116Y-13079D1*
Y-13022D1*
X3135Y-12926D1*
X3173Y-12869D1*
X3231Y-12850D1*
X3269D1*
X3135Y-12926D2*
X3365Y-13175D1*
X2763Y-12907D2*
X2782Y-12869D1*
X2839Y-12850D1*
X2877D1*
X2935Y-12869D1*
X2973Y-12926D1*
X2992Y-13022D1*
Y-13117D1*
X2973Y-13194D1*
X2935Y-13232D1*
X2877Y-13251D1*
X2858D1*
X2801Y-13232D1*
X2763Y-13194D1*
X2744Y-13136D1*
Y-13117D1*
X2763Y-13060D1*
X2801Y-13022D1*
X2858Y-13003D1*
X2877D1*
X2935Y-13022D1*
X2973Y-13060D1*
X2992Y-13117D1*
X1879Y-14701D2*
X1841Y-14682D1*
X1803Y-14643D1*
X1784Y-14605D1*
Y-14529D1*
X1803Y-14490D1*
X1841Y-14452D1*
X1879Y-14433D1*
X1936Y-14414D1*
X2032D1*
X2089Y-14433D1*
X2128Y-14452D1*
X2166Y-14490D1*
X2185Y-14529D1*
Y-14605D1*
X2166Y-14643D1*
X2128Y-14682D1*
X2089Y-14701D1*
X1917Y-14920D2*
X1936Y-14882D1*
X1975Y-14843D1*
X2032Y-14824D1*
X2070D1*
X2128Y-14843D1*
X2166Y-14882D1*
X2185Y-14920D1*
Y-14977D1*
X2166Y-15016D1*
X2128Y-15054D1*
X2070Y-15073D1*
X2032D1*
X1975Y-15054D1*
X1936Y-15016D1*
X1917Y-14977D1*
Y-14920D1*
Y-15197D2*
X2185D1*
X1994D2*
X1936Y-15254D1*
X1917Y-15293D1*
Y-15350D1*
X1936Y-15388D1*
X1994Y-15407D1*
X2185D1*
X1784Y-15588D2*
X2109D1*
X2166Y-15607D1*
X2185Y-15646D1*
Y-15684D1*
X1917Y-15531D2*
Y-15665D1*
Y-15807D2*
X2185D1*
X2032D2*
X1975Y-15826D1*
X1936Y-15865D1*
X1917Y-15903D1*
Y-15960D1*
Y-16179D2*
X1936Y-16141D1*
X1975Y-16103D1*
X2032Y-16084D1*
X2070D1*
X2128Y-16103D1*
X2166Y-16141D1*
X2185Y-16179D1*
Y-16237D1*
X2166Y-16275D1*
X2128Y-16313D1*
X2070Y-16333D1*
X2032D1*
X1975Y-16313D1*
X1936Y-16275D1*
X1917Y-16237D1*
Y-16179D1*
X1784Y-16456D2*
X2185D1*
X34823Y-5334D2*
X34555Y-5736D1*
Y-5334D2*
X34823Y-5736D1*
X34431Y-5411D2*
X34393Y-5392D1*
X34335Y-5335D1*
Y-5736D1*
X34097Y-5335D2*
X34154Y-5354D1*
X34193Y-5411D1*
X34212Y-5507D1*
Y-5564D1*
X34193Y-5660D1*
X34154Y-5717D1*
X34097Y-5736D1*
X34059D1*
X34001Y-5717D1*
X33963Y-5660D1*
X33944Y-5564D1*
Y-5507D1*
X33963Y-5411D1*
X34001Y-5354D1*
X34059Y-5335D1*
X34097D1*
X33963Y-5411D2*
X34193Y-5660D1*
X33744Y-5736D2*
X33552Y-5335D1*
X33820D1*
X37328Y-7544D2*
X37347Y-7506D1*
X37385Y-7467D1*
X37423Y-7448D1*
X37500D1*
X37538Y-7467D1*
X37576Y-7506D1*
X37596Y-7544D1*
X37615Y-7601D1*
Y-7697D1*
X37596Y-7754D1*
X37576Y-7793D1*
X37538Y-7831D1*
X37500Y-7850D1*
X37423D1*
X37385Y-7831D1*
X37347Y-7793D1*
X37328Y-7754D1*
X37204Y-7448D2*
Y-7850D1*
Y-7659D2*
X37147Y-7601D1*
X37108Y-7582D1*
X37051D1*
X37013Y-7601D1*
X36994Y-7659D1*
Y-7850D1*
X36481Y-7525D2*
X36443Y-7506D1*
X36385Y-7449D1*
Y-7850D1*
X34697Y-18147D2*
X34429Y-18549D1*
Y-18147D2*
X34697Y-18549D1*
X34306Y-18224D2*
X34268Y-18204D1*
X34210Y-18147D1*
Y-18549D1*
X33972Y-18147D2*
X34029Y-18166D1*
X34068Y-18224D1*
X34087Y-18319D1*
Y-18377D1*
X34068Y-18472D1*
X34029Y-18530D1*
X33972Y-18549D1*
X33934D1*
X33876Y-18530D1*
X33838Y-18472D1*
X33819Y-18377D1*
Y-18319D1*
X33838Y-18224D1*
X33876Y-18166D1*
X33934Y-18147D1*
X33972D1*
X33838Y-18224D2*
X34068Y-18472D1*
X33600Y-18147D2*
X33657Y-18166D1*
X33676Y-18204D1*
Y-18243D1*
X33657Y-18281D1*
X33619Y-18300D1*
X33542Y-18319D1*
X33485Y-18338D1*
X33447Y-18377D1*
X33428Y-18415D1*
Y-18472D1*
X33447Y-18510D1*
X33466Y-18530D1*
X33523Y-18549D1*
X33600D1*
X33657Y-18530D1*
X33676Y-18510D1*
X33695Y-18472D1*
Y-18415D1*
X33676Y-18377D1*
X33638Y-18338D1*
X33581Y-18319D1*
X33504Y-18300D1*
X33466Y-18281D1*
X33447Y-18243D1*
Y-18204D1*
X33466Y-18166D1*
X33523Y-18147D1*
X33600D1*
X37414Y-20044D2*
X37433Y-20006D1*
X37471Y-19967D1*
X37509Y-19948D1*
X37586D1*
X37624Y-19967D1*
X37662Y-20006D1*
X37682Y-20044D1*
X37701Y-20101D1*
Y-20197D1*
X37682Y-20254D1*
X37662Y-20293D1*
X37624Y-20331D1*
X37586Y-20350D1*
X37509D1*
X37471Y-20331D1*
X37433Y-20293D1*
X37414Y-20254D1*
X37290Y-19948D2*
Y-20350D1*
Y-20159D2*
X37233Y-20101D1*
X37194Y-20082D1*
X37137D1*
X37099Y-20101D1*
X37080Y-20159D1*
Y-20350D1*
X36548Y-20044D2*
Y-20025D1*
X36529Y-19987D1*
X36510Y-19968D1*
X36471Y-19949D1*
X36395D1*
X36357Y-19968D1*
X36338Y-19987D1*
X36318Y-20025D1*
Y-20063D1*
X36338Y-20102D1*
X36376Y-20159D1*
X36567Y-20350D1*
X36299D1*
X34532Y-10954D2*
D100*
Y-11643D1*
X34876Y-11299D2*
X34187D1*
X34537Y-14645D2*
Y-15087D1*
X34389Y-3909D2*
X35078D1*
X34734Y-3565D2*
Y-4253D1*
X34657Y-16142D2*
Y-16831D1*
X35001Y-16487D2*
X34312D1*
X3907Y-2954D2*
Y-3643D1*
X4251Y-3299D2*
X3562D1*
X6831Y-17210D2*
D101*
X6774Y-17181D1*
X6687Y-17095D1*
Y-17698D1*
X9354Y-17158D2*
X9441Y-17186D1*
X9498Y-17273D1*
X9527Y-17416D1*
Y-17502D1*
X9498Y-17645D1*
X9441Y-17732D1*
X9354Y-17760D1*
X9297D1*
X9211Y-17732D1*
X9154Y-17645D1*
X9125Y-17502D1*
Y-17416D1*
X9154Y-17273D1*
X9211Y-17186D1*
X9297Y-17158D1*
X9354D1*
X9154Y-17273D2*
X9498Y-17645D1*
X31514Y-28645D2*
X31255D1*
X31170Y-28617D1*
X31140Y-28587D1*
X31112Y-28530D1*
Y-28444D1*
X31140Y-28387D1*
X31170Y-28358D1*
X31255Y-28330D1*
X31514D1*
Y-28932D1*
X30927Y-28330D2*
X30783Y-28932D1*
X30639Y-28330D1*
X30496Y-28932D1*
X30352Y-28330D1*
X29708Y-28932D2*
Y-28330D1*
X29937Y-28932D1*
X30167Y-28330D1*
Y-28932D1*
X28595Y-28330D2*
X28882D1*
X28910Y-28588D1*
X28882Y-28560D1*
X28796Y-28530D1*
X28710D1*
X28624Y-28560D1*
X28566Y-28617D1*
X28538Y-28703D1*
Y-28760D1*
X28566Y-28846D1*
X28624Y-28904D1*
X28710Y-28932D1*
X28796D1*
X28882Y-28904D1*
X28910Y-28875D1*
X28939Y-28818D1*
X28008Y-28330D2*
X28295D1*
X28323Y-28588D1*
X28295Y-28560D1*
X28208Y-28530D1*
X28123D1*
X28037Y-28560D1*
X27979Y-28617D1*
X27950Y-28703D1*
Y-28760D1*
X27979Y-28846D1*
X28037Y-28904D1*
X28123Y-28932D1*
X28208D1*
X28295Y-28904D1*
X28323Y-28875D1*
X28352Y-28818D1*
X27478Y-28932D2*
Y-28330D1*
X27765Y-28731D1*
X27335D1*
X27006Y-28330D2*
X27092Y-28359D1*
X27121Y-28416D1*
Y-28473D1*
X27092Y-28530D1*
X27035Y-28560D1*
X26920Y-28588D1*
X26834Y-28617D1*
X26777Y-28674D1*
X26748Y-28731D1*
Y-28818D1*
X26777Y-28875D1*
X26805Y-28904D1*
X26891Y-28932D1*
X27006D1*
X27092Y-28904D1*
X27121Y-28875D1*
X27149Y-28818D1*
Y-28731D1*
X27121Y-28674D1*
X27063Y-28617D1*
X26978Y-28588D1*
X26863Y-28560D1*
X26805Y-28530D1*
X26777Y-28473D1*
Y-28416D1*
X26805Y-28359D1*
X26891Y-28330D1*
X27006D1*
X25980Y-28530D2*
X25807Y-28932D1*
X25635Y-28530D1*
X25422Y-28875D2*
X25450Y-28904D1*
X25422Y-28932D1*
X25392Y-28904D1*
X25422Y-28875D1*
X25207Y-28445D2*
X25149Y-28416D1*
X25063Y-28330D1*
Y-28932D1*
X24849Y-28875D2*
X24878Y-28904D1*
X24849Y-28932D1*
X24820Y-28904D1*
X24849Y-28875D1*
X24463Y-28330D2*
X24549Y-28359D1*
X24607Y-28445D1*
X24635Y-28588D1*
Y-28674D1*
X24607Y-28818D1*
X24549Y-28904D1*
X24463Y-28932D1*
X24406D1*
X24319Y-28904D1*
X24262Y-28818D1*
X24233Y-28674D1*
Y-28588D1*
X24262Y-28445D1*
X24319Y-28359D1*
X24406Y-28330D1*
X24463D1*
X24262Y-28445D2*
X24607Y-28818D1*
X1870Y-17288D2*
D99*
X1822Y-17264D1*
X1750Y-17192D1*
Y-17694D1*
X4748Y-17249D2*
Y-17225D1*
X4724Y-17177D1*
X4700Y-17154D1*
X4652Y-17130D1*
X4556D1*
X4509Y-17154D1*
X4485Y-17177D1*
X4461Y-17225D1*
Y-17273D1*
X4485Y-17321D1*
X4533Y-17392D1*
X4772Y-17632D1*
X4437D1*
X4652Y-13380D2*
X4723Y-13404D1*
X4748Y-13451D1*
Y-13500D1*
X4723Y-13547D1*
X4676Y-13571D1*
X4580Y-13595D1*
X4508Y-13619D1*
X4461Y-13667D1*
X4437Y-13715D1*
Y-13786D1*
X4461Y-13834D1*
X4485Y-13858D1*
X4556Y-13882D1*
X4652D1*
X4723Y-13858D1*
X4748Y-13834D1*
X4771Y-13786D1*
Y-13715D1*
X4748Y-13667D1*
X4700Y-13619D1*
X4628Y-13595D1*
X4533Y-13571D1*
X4485Y-13547D1*
X4461Y-13500D1*
Y-13451D1*
X4485Y-13404D1*
X4556Y-13380D1*
X4652D1*
X33200Y-34317D2*
Y-33815D1*
X33392Y-34317D1*
X33583Y-33815D1*
Y-34317D1*
X32687Y-33934D2*
X32711Y-33887D1*
X32759Y-33839D1*
X32807Y-33815D1*
X32902D1*
X32950Y-33839D1*
X32998Y-33887D1*
X33022Y-33934D1*
X33046Y-34006D1*
Y-34126D1*
X33022Y-34198D1*
X32998Y-34246D1*
X32950Y-34293D1*
X32902Y-34317D1*
X32807D1*
X32759Y-34293D1*
X32711Y-34246D1*
X32687Y-34198D1*
X33664Y-34815D2*
Y-35317D1*
X33377D1*
X33223Y-35054D2*
X33008D1*
X32936Y-35030D1*
X32912Y-35006D1*
X32888Y-34959D1*
Y-34911D1*
X32912Y-34863D1*
X32936Y-34839D1*
X33008Y-34815D1*
X33223D1*
Y-35317D1*
X33055Y-35054D2*
X32888Y-35317D1*
X32375Y-34934D2*
X32399Y-34887D1*
X32447Y-34839D1*
X32494Y-34815D1*
X32590D1*
X32638Y-34839D1*
X32686Y-34887D1*
X32710Y-34934D1*
X32734Y-35006D1*
Y-35126D1*
X32710Y-35197D1*
X32686Y-35246D1*
X32638Y-35293D1*
X32590Y-35317D1*
X32494D1*
X32447Y-35293D1*
X32399Y-35246D1*
X32375Y-35197D1*
X33325Y-35887D2*
X33373Y-35839D1*
X33445Y-35815D1*
X33540D1*
X33612Y-35839D1*
X33660Y-35887D1*
Y-35934D1*
X33636Y-35982D1*
X33612Y-36006D1*
X33565Y-36030D1*
X33421Y-36078D1*
X33373Y-36102D1*
X33349Y-36126D1*
X33325Y-36174D1*
Y-36245D1*
X33373Y-36293D1*
X33445Y-36317D1*
X33540D1*
X33612Y-36293D1*
X33660Y-36245D1*
X32812Y-35934D2*
X32836Y-35887D1*
X32884Y-35839D1*
X32932Y-35815D1*
X33027D1*
X33075Y-35839D1*
X33123Y-35887D1*
X33147Y-35934D1*
X33171Y-36006D1*
Y-36126D1*
X33147Y-36197D1*
X33123Y-36245D1*
X33075Y-36293D1*
X33027Y-36317D1*
X32932D1*
X32884Y-36293D1*
X32836Y-36245D1*
X32812Y-36197D1*
X33674Y-36815D2*
Y-37317D1*
X33507D1*
X33435Y-37293D1*
X33387Y-37245D1*
X33363Y-37197D1*
X33339Y-37126D1*
Y-37006D1*
X33363Y-36934D1*
X33387Y-36887D1*
X33435Y-36839D1*
X33507Y-36815D1*
X33674D1*
X32802Y-37317D2*
X32994Y-36815D1*
X33185Y-37317D1*
X33113Y-37150D2*
X32874D1*
X32480Y-36815D2*
Y-37317D1*
X32647Y-36815D2*
X32312D1*
X34532Y-12704D2*
D100*
Y-13393D1*
X34876Y-13049D2*
X34187D1*
X34599Y-9645D2*
Y-10087D1*
X2687Y-9071D2*
D99*
X2879Y-8568D1*
X3071Y-9071D1*
X2999Y-8903D2*
X2759D1*
X2687Y-10500D2*
X2711Y-10453D1*
X2759Y-10405D1*
X2807Y-10381D1*
X2902D1*
X2951Y-10405D1*
X2998Y-10453D1*
X3022Y-10500D1*
X3046Y-10572D1*
Y-10692D1*
X3022Y-10763D1*
X2998Y-10812D1*
X2951Y-10859D1*
X2902Y-10883D1*
X2807D1*
X2759Y-10859D1*
X2711Y-10812D1*
X2687Y-10763D1*
X3022Y-9443D2*
Y-9946D1*
X2807D1*
X2735Y-9922D1*
X2711Y-9898D1*
X2687Y-9850D1*
Y-9778D1*
X2711Y-9730D1*
X2735Y-9707D1*
X2807Y-9683D1*
X2735Y-9658D1*
X2711Y-9635D1*
X2687Y-9587D1*
Y-9539D1*
X2711Y-9492D1*
X2735Y-9467D1*
X2807Y-9443D1*
X3022D1*
Y-9683D2*
X2807D1*
X2960Y-11443D2*
Y-11946D1*
X2792D1*
X2721Y-11922D1*
X2673Y-11874D1*
X2649Y-11826D1*
X2625Y-11755D1*
Y-11635D1*
X2649Y-11563D1*
X2673Y-11515D1*
X2721Y-11467D1*
X2792Y-11443D1*
X2960D1*
X9918Y-21443D2*
Y-21946D1*
X9750D1*
X9679Y-21922D1*
X9631Y-21874D1*
X9607Y-21826D1*
X9583Y-21755D1*
Y-21635D1*
X9607Y-21563D1*
X9631Y-21515D1*
X9679Y-21467D1*
X9750Y-21443D1*
X9918D1*
X9429Y-21755D2*
X9142D1*
Y-21707D1*
X9166Y-21658D1*
X9189Y-21635D1*
X9237Y-21611D1*
X9309D1*
X9357Y-21635D1*
X9405Y-21683D1*
X9429Y-21755D1*
Y-21802D1*
X9405Y-21874D1*
X9357Y-21922D1*
X9309Y-21946D1*
X9237D1*
X9189Y-21922D1*
X9142Y-21874D1*
X8796Y-21443D2*
X8844D1*
X8892Y-21467D1*
X8915Y-21539D1*
Y-21946D1*
X8987Y-21611D2*
X8820D1*
X8355D2*
Y-21946D1*
Y-21683D2*
X8402Y-21635D1*
X8450Y-21611D1*
X8522D1*
X8570Y-21635D1*
X8617Y-21683D1*
X8642Y-21755D1*
Y-21802D1*
X8617Y-21874D1*
X8570Y-21922D1*
X8522Y-21946D1*
X8450D1*
X8402Y-21922D1*
X8355Y-21874D1*
X8200Y-21611D2*
Y-21850D1*
X8177Y-21922D1*
X8129Y-21946D1*
X8057D1*
X8009Y-21922D1*
X7937Y-21850D1*
Y-21611D2*
Y-21946D1*
X7783Y-21443D2*
Y-21946D1*
X7557Y-21443D2*
Y-21850D1*
X7533Y-21922D1*
X7485Y-21946D1*
X7437D1*
X7629Y-21611D2*
X7461D1*
X6415Y-21946D2*
Y-21443D1*
X6606Y-21946D1*
X6797Y-21443D1*
Y-21946D1*
X6141Y-21611D2*
X6188Y-21635D1*
X6236Y-21683D1*
X6260Y-21755D1*
Y-21802D1*
X6236Y-21874D1*
X6188Y-21922D1*
X6141Y-21946D1*
X6069D1*
X6021Y-21922D1*
X5973Y-21874D1*
X5949Y-21802D1*
Y-21755D1*
X5973Y-21683D1*
X6021Y-21635D1*
X6069Y-21611D1*
X6141D1*
X5508Y-21443D2*
Y-21946D1*
Y-21683D2*
X5555Y-21635D1*
X5603Y-21611D1*
X5675D1*
X5723Y-21635D1*
X5771Y-21683D1*
X5795Y-21755D1*
Y-21802D1*
X5771Y-21874D1*
X5723Y-21922D1*
X5675Y-21946D1*
X5603D1*
X5555Y-21922D1*
X5508Y-21874D1*
X5353Y-21755D2*
X5066D1*
Y-21707D1*
X5090Y-21658D1*
X5114Y-21635D1*
X5162Y-21611D1*
X5234D1*
X5281Y-21635D1*
X5330Y-21683D1*
X5353Y-21755D1*
Y-21802D1*
X5330Y-21874D1*
X5281Y-21922D1*
X5234Y-21946D1*
X5162D1*
X5114Y-21922D1*
X5066Y-21874D1*
X4888Y-21611D2*
X4912Y-21635D1*
X4888Y-21659D1*
X4864Y-21635D1*
X4888Y-21611D1*
Y-21898D2*
X4912Y-21922D1*
X4888Y-21946D1*
X4864Y-21922D1*
X4888Y-21898D1*
X4080Y-21444D2*
X4152Y-21468D1*
X4200Y-21540D1*
X4224Y-21659D1*
Y-21731D1*
X4200Y-21850D1*
X4152Y-21922D1*
X4080Y-21946D1*
X4032D1*
X3961Y-21922D1*
X3913Y-21850D1*
X3889Y-21731D1*
Y-21659D1*
X3913Y-21540D1*
X3961Y-21468D1*
X4032Y-21444D1*
X4080D1*
X3913Y-21540D2*
X4200Y-21850D1*
X3734Y-21540D2*
X3686Y-21515D1*
X3614Y-21444D1*
Y-21946D1*
X3316Y-21444D2*
X3388Y-21468D1*
X3436Y-21540D1*
X3460Y-21659D1*
Y-21731D1*
X3436Y-21850D1*
X3388Y-21922D1*
X3316Y-21946D1*
X3269D1*
X3197Y-21922D1*
X3149Y-21850D1*
X3125Y-21731D1*
Y-21659D1*
X3149Y-21540D1*
X3197Y-21468D1*
X3269Y-21444D1*
X3316D1*
X3149Y-21540D2*
X3436Y-21850D1*
X4214Y-22250D2*
X4262Y-22298D1*
X4310Y-22369D1*
X4358Y-22465D1*
X4382Y-22585D1*
Y-22681D1*
X4358Y-22800D1*
X4310Y-22896D1*
X4262Y-22967D1*
X4214Y-23015D1*
X4060Y-22381D2*
Y-22883D1*
X3844D1*
X3772Y-22859D1*
X3749Y-22835D1*
X3725Y-22788D1*
Y-22716D1*
X3749Y-22668D1*
X3772Y-22644D1*
X3844Y-22620D1*
X3772Y-22596D1*
X3749Y-22572D1*
X3725Y-22525D1*
Y-22477D1*
X3749Y-22429D1*
X3772Y-22405D1*
X3844Y-22381D1*
X4060D1*
Y-22620D2*
X3844D1*
X3570Y-22381D2*
Y-22883D1*
X3403D1*
X3331Y-22859D1*
X3283Y-22812D1*
X3259Y-22763D1*
X3235Y-22692D1*
Y-22572D1*
X3259Y-22500D1*
X3283Y-22453D1*
X3331Y-22405D1*
X3403Y-22381D1*
X3570D1*
X3081Y-22250D2*
X3033Y-22298D1*
X2985Y-22369D1*
X2937Y-22465D1*
X2914Y-22585D1*
Y-22681D1*
X2937Y-22800D1*
X2985Y-22896D1*
X3033Y-22967D1*
X3081Y-23015D1*
M02*
