G04 DipTrace 2.3.1.0*
%INamp_tas5631.gtl*%
%MOIN*%
%ADD14C,0.013*%
%ADD18C,0.011*%
%ADD19C,0.0197*%
%ADD20C,0.026*%
%ADD24C,0.0236*%
%ADD26C,0.025*%
%ADD30C,0.052*%
%ADD31C,0.124*%
%ADD32C,0.063*%
%ADD34C,0.05*%
%ADD35R,0.05X0.05*%
%ADD36R,0.0591X0.0591*%
%ADD37C,0.0591*%
%ADD38R,0.1772X0.1772*%
%ADD39R,0.0787X0.0787*%
%ADD41R,0.0236X0.0433*%
%ADD42R,0.058X0.011*%
%ADD43R,0.145X0.267*%
%ADD44R,0.0748X0.0748*%
%ADD45C,0.0748*%
%ADD47R,0.0787X0.1181*%
%ADD48O,0.0787X0.1181*%
%ADD49R,0.1575X0.1181*%
%ADD50O,0.1575X0.1181*%
%ADD51R,0.0551X0.0453*%
%ADD52C,0.04*%
%FSLAX44Y44*%
G04*
G70*
G90*
G75*
G01*
%LNTop*%
%LPD*%
X17870Y-3621D2*
D14*
X18183D1*
X21496Y-6934D1*
X8313Y-11452D2*
Y-11762D1*
X13673Y-8922D2*
X14109D1*
X14308Y-9122D1*
Y-9558D1*
Y-10188D1*
X14313Y-10192D1*
X9583Y-8922D2*
Y-9497D1*
X9892D1*
X10212D1*
X10500D1*
X10522D1*
X10842D1*
X11183D1*
Y-8952D1*
X11153Y-8922D1*
X10843D2*
X10842Y-9497D1*
X10523Y-8922D2*
X10522Y-9497D1*
X10213Y-8922D2*
X10212Y-9497D1*
X9893Y-8922D2*
X9892Y-9497D1*
X14308Y-9558D2*
X14312Y-9562D1*
X14313Y-9872D1*
Y-13652D2*
Y-13972D1*
Y-14282D1*
Y-14367D1*
X13808Y-14872D1*
X13723D1*
X13673Y-14922D1*
X10843D2*
X11153D1*
X14313Y-13652D2*
Y-14247D1*
X15814D1*
X15560D1*
X16188Y-14875D1*
X16281Y-14969D1*
X16746Y-15433D1*
Y-15310D1*
X17810D1*
X19122Y-16622D1*
X21559D1*
X8813Y-6956D2*
X9875D1*
X9892D1*
X10625D1*
X10706Y-6875D1*
X11153Y-8922D2*
X10875D1*
Y-7750D1*
X10706Y-7580D1*
Y-6875D1*
X9893Y-8922D2*
X9892Y-6956D1*
X9875Y-6250D2*
Y-6956D1*
X17870Y-19810D2*
X18370D1*
X19715Y-18465D1*
X21559Y-16622D1*
X17870Y-19810D2*
Y-18935D1*
X15062Y-16126D1*
X13808Y-14872D1*
X14313Y-9562D2*
X15375D1*
X17367D1*
X19996Y-6934D1*
X21496D1*
X13673Y-8922D2*
X13944D1*
X17870Y-4996D1*
Y-3621D1*
X10875Y-12062D2*
X10500D1*
Y-11763D1*
Y-11250D1*
Y-10562D1*
Y-9497D1*
X10250Y-10500D2*
Y-10562D1*
X10500D1*
X10250Y-11250D2*
X10500D1*
X32438Y-22813D2*
Y-22835D1*
X35102D1*
Y-22047D1*
X26812Y-17687D2*
X30063D1*
Y-18875D1*
X31625D1*
X30018Y-4937D2*
X26750D1*
Y-5937D1*
X33313Y-2000D2*
X34125D1*
Y-1969D1*
X35102D1*
X21496Y-6934D2*
X25753D1*
X25763Y-6924D1*
X26750Y-5937D1*
X35102Y-22047D2*
Y-21727D1*
X32563Y-19187D1*
Y-18688D1*
X32581D1*
X27482Y-19625D2*
Y-18357D1*
X26812Y-17687D1*
X21559Y-16622D2*
X25000D1*
Y-16250D1*
X28375Y-19625D1*
X27482D1*
X26812Y-17687D2*
X29000Y-19875D1*
X30812D1*
X32985Y-22047D1*
X35102D1*
X26750Y-5937D2*
X28437Y-4250D1*
X31313D1*
X33594Y-1969D1*
X35102D1*
Y-2812D1*
X35063D1*
Y-1181D1*
X38625D1*
Y-7687D1*
X26813D1*
X26527D1*
X25763Y-6924D1*
X35102Y-22047D2*
Y-21125D1*
X32313D1*
Y-19875D1*
X31625D1*
X29438D1*
X25938Y-23375D1*
X25000D1*
X23625Y-22000D1*
Y-20375D1*
X21559Y-18309D1*
Y-16622D1*
X33125Y-5794D2*
X35063D1*
Y-2773D1*
X35102Y-2812D1*
X27169Y-4125D2*
Y-5831D1*
X27063Y-5937D1*
X26750D1*
X14313Y-10192D2*
X14745D1*
X15375Y-9562D1*
X14313Y-13652D2*
X15219D1*
X15814Y-14247D1*
X16813Y-15063D2*
X16719Y-14969D1*
X16281D1*
X11000Y-22937D2*
Y-23375D1*
X13313D1*
X17500D1*
X20000D1*
X25000D1*
X16813Y-8875D2*
X16188D1*
X16813D2*
Y-6510D1*
X17870Y-4996D1*
X16250Y-15063D2*
X16813D1*
X16188D1*
Y-14875D1*
X8313Y-11762D2*
X10500Y-11763D1*
X19625Y-18375D2*
X19715Y-18465D1*
X26813Y-7500D2*
Y-7687D1*
X17500Y-23000D2*
Y-23375D1*
X14813Y-16188D2*
X14874Y-16126D1*
X15062D1*
X4625Y-13063D2*
X5500D1*
X5563Y-13000D1*
Y-11063D2*
Y-9875D1*
X5750Y-9688D1*
X13875Y-688D2*
Y-500D1*
X24313D1*
X22812Y-2000D1*
Y-5618D1*
X21496Y-6934D1*
X26688Y-23000D2*
Y-23375D1*
X25000D1*
X20000Y-23000D2*
Y-23375D1*
X13313Y-23250D2*
Y-23375D1*
X13063Y-25688D2*
Y-26461D1*
X13103Y-26500D1*
X16812Y-27915D2*
D18*
X17167D1*
D14*
X17290D1*
X17937Y-28562D1*
Y-29420D1*
X18302Y-29785D1*
X12853Y-32125D2*
Y-31942D1*
X11537D1*
X10688Y-31500D2*
Y-31942D1*
X11537D1*
X10875Y-28813D2*
Y-29000D1*
X12563D1*
X12938Y-29375D1*
X13103D1*
X19792Y-31065D2*
D18*
X18940D1*
D14*
X18302Y-30427D1*
Y-29785D1*
X19792Y-28115D2*
D18*
X19428D1*
D14*
X19063Y-27750D1*
X18688D1*
X18250Y-28188D1*
Y-28750D1*
Y-29733D1*
X18302Y-29785D1*
X19792Y-31855D2*
D18*
X20147D1*
D14*
X21043D1*
X21250Y-32063D1*
X4125Y-31169D2*
X2893D1*
X2875Y-31188D1*
X4750Y-28250D2*
D20*
X5624D1*
Y-29250D1*
X4794D1*
X4750Y-28250D2*
X5563D1*
X5688Y-28125D1*
Y-27688D1*
X5750D1*
X16812Y-27915D2*
D18*
X16478D1*
D14*
X16188Y-27625D1*
Y-27063D1*
X16062Y-26938D1*
X18062Y-28750D2*
X18250D1*
X16062Y-26938D2*
Y-26250D1*
X15750D1*
X10688Y-31500D2*
Y-30813D1*
X10875Y-28813D2*
Y-29375D1*
X9688D1*
X11813Y-26688D2*
Y-26500D1*
X13103D1*
X9813Y-36375D2*
X9125D1*
Y-31875D1*
X4831D1*
X4125Y-31169D1*
X3938Y-33500D2*
X2812D1*
Y-31188D1*
X2875D1*
X6312Y-24625D2*
Y-23438D1*
X6437Y-23313D1*
X16812Y-29485D2*
D18*
X17167D1*
D14*
X18002D1*
X18302Y-29785D1*
X9000Y-18500D2*
Y-19500D1*
Y-20500D2*
X9375Y-20875D1*
X10375D1*
X4000Y-19000D2*
Y-20000D1*
X10250Y-12687D2*
Y-13437D1*
X8873Y-21500D2*
Y-20627D1*
X9000Y-20500D1*
X6627Y-17500D2*
X6000D1*
X37000Y-10000D2*
X38500D1*
Y-14750D1*
X37073D1*
X37000Y-14677D1*
Y-10000D2*
Y-8437D1*
X36938Y-8375D1*
X34188D1*
X33375Y-9188D1*
X35419Y-14188D2*
X36510D1*
X37000Y-14677D1*
X31625Y-18875D2*
Y-19875D1*
X24312Y-35875D2*
Y-36063D1*
X22063D1*
X21500Y-35500D1*
X18437Y-31438D2*
Y-29920D1*
X18302Y-29785D1*
X28563Y-34563D2*
X31875D1*
X32812Y-35500D1*
X28563Y-34563D2*
X26625D1*
X26563Y-34500D1*
X26625Y-35500D2*
X28437D1*
X28500Y-35563D1*
X30500D1*
X36625D1*
X37250Y-36188D1*
X18500Y-38500D2*
X18750D1*
X19250Y-39000D1*
X23688D1*
X23938Y-38750D1*
X10625Y-17500D2*
D19*
Y-16500D1*
X10875Y-16250D1*
Y-15200D1*
X11153Y-14922D1*
X13871Y-31065D2*
D14*
X13752D1*
X13122Y-30435D1*
X13004D1*
X13871Y-31065D2*
Y-31433D1*
X14063Y-31625D1*
X13004Y-30435D2*
X12313Y-30438D1*
X8688Y-24625D2*
X8188D1*
Y-26438D1*
X8498Y-26748D1*
X9000D1*
X5750Y-27688D2*
D20*
X5313D1*
X4750Y-27125D1*
Y-27063D1*
X5563Y-26250D1*
X4750Y-28250D2*
Y-27125D1*
X8313Y-9562D2*
D14*
X8187D1*
X7688Y-9063D1*
X7313D1*
X5502Y-12063D2*
X3623D1*
X3563Y-12002D1*
X8313Y-9872D2*
X7935D1*
X7500Y-9438D1*
X6938D1*
X6500Y-9000D1*
X5750D1*
X4813D1*
X3625Y-10188D1*
Y-11939D1*
X3563Y-12002D1*
X5750Y-9000D2*
D3*
X8313Y-10192D2*
X9245D1*
X8313Y-10502D2*
X7438D1*
Y-10375D1*
X8313Y-10822D2*
X7010D1*
X6875Y-10687D1*
X8313Y-12392D2*
X7580D1*
X7500Y-12313D1*
Y-12937D2*
Y-12750D1*
X8275D1*
X8313Y-12712D1*
X6232Y-11063D2*
Y-11132D1*
X8313D1*
X2869Y-14935D2*
X3367Y-14438D1*
X7312D1*
X7437Y-14313D1*
X8283D1*
X8313Y-14282D1*
X2869Y-15935D2*
X2877D1*
X3313Y-15500D1*
X5375D1*
X8375D1*
X8953Y-14922D1*
X5375Y-15500D2*
D3*
X9263Y-14922D2*
Y-15300D1*
X8125Y-16437D1*
X5375D1*
X3367D1*
X2869Y-16935D1*
X5375Y-16438D2*
Y-16437D1*
X9583Y-14922D2*
Y-15480D1*
X8125Y-16937D1*
X5687D1*
X3872D1*
X3869Y-16935D1*
X5687Y-16938D2*
Y-16937D1*
X11250Y-16250D2*
Y-15562D1*
X11500Y-15312D1*
Y-14922D1*
X11473D1*
X11783D2*
Y-15592D1*
X11625Y-15750D1*
X15312Y-11875D2*
Y-11750D1*
X14312D1*
X14313Y-11762D2*
X15200D1*
X15312Y-11875D1*
X12413Y-14922D2*
X12733D1*
X20375Y-21437D2*
X14562D1*
X12500Y-19375D1*
Y-18250D1*
X12733Y-14922D2*
Y-18017D1*
X12500Y-18250D1*
X11473Y-8922D2*
X11500D1*
Y-8250D1*
X11375D1*
X12103Y-14922D2*
X12063D1*
Y-16000D1*
X11938Y-16125D1*
Y-16312D1*
X11783Y-8922D2*
Y-8033D1*
X11375Y-7625D1*
Y-6875D1*
Y-5750D1*
X12413Y-8922D2*
X12733D1*
Y-6170D1*
X12125Y-5562D1*
X12500D1*
Y-4375D1*
X14000Y-2875D1*
Y-2500D1*
X14250Y-2250D1*
X20438D1*
X20496Y-2308D1*
X32643Y-2000D2*
X31102D1*
Y-1969D1*
X24813Y-3375D2*
Y-3323D1*
X25827Y-2308D1*
X14313Y-12082D2*
X13730D1*
X13563Y-11938D1*
Y-12000D1*
X13500Y-11938D1*
X30688Y-4937D2*
X30750D1*
Y-5937D1*
X31938D1*
X32000Y-5875D1*
X14313Y-13342D2*
Y-13022D1*
Y-13250D1*
X13625D1*
X14313D2*
Y-13375D1*
X15562D1*
X16188Y-14000D1*
X18375D1*
X19625Y-15250D1*
X25563D1*
X26535Y-14278D1*
X26688Y-14125D1*
Y-13750D1*
X23125D1*
X22062Y-14812D1*
X20750D1*
X19250Y-13313D1*
X15125D1*
X14835Y-13022D1*
X14313D1*
X26125Y-13937D2*
X26195D1*
X26535Y-14278D1*
X32000Y-5127D2*
Y-5125D1*
X33125D1*
X24813Y-4123D2*
Y-4125D1*
X26500D1*
X14313Y-10822D2*
Y-10502D1*
X13625Y-10625D2*
Y-10500D1*
X17500D1*
X17875Y-10125D1*
X20000Y-8000D1*
X25000D1*
X26688Y-9687D1*
X26125D1*
X14313Y-10822D2*
X19178D1*
X20125Y-9875D1*
Y-9375D1*
X20875Y-8625D1*
X22250D1*
X23125Y-9500D1*
Y-9812D1*
X26500D1*
X26625Y-9687D1*
X26125D1*
X15310Y-10503D2*
X15688Y-10125D1*
X17875D1*
X31625Y-18206D2*
Y-17687D1*
X30812D1*
X32563D1*
Y-17750D1*
X9263Y-8922D2*
Y-8075D1*
X8813Y-7625D1*
X33250Y-18688D2*
Y-17750D1*
X33311D1*
X25250Y-19627D2*
Y-19625D1*
X26813D1*
X12103Y-8922D2*
Y-7853D1*
X11812Y-7562D1*
X31768Y-22813D2*
X31102D1*
Y-22047D1*
X25250Y-20375D2*
Y-20982D1*
X25706Y-21437D1*
X33750Y-14188D2*
X34750D1*
X3563Y-12750D2*
X3250D1*
X2869Y-13131D1*
Y-13935D1*
X3000Y-19000D2*
Y-20000D1*
X2869Y-13935D2*
X2565D1*
X2250Y-14250D1*
Y-18250D1*
X3000Y-19000D1*
X8182Y-8559D2*
D24*
X8495D1*
X8858Y-8922D1*
X8953D1*
X9000Y-4875D2*
X9625D1*
X10627Y-5877D1*
Y-5750D1*
X7500Y-4125D2*
X8250D1*
X9000Y-4875D1*
X13043Y-8922D2*
D14*
X13363D1*
X14313Y-11132D2*
Y-11452D1*
Y-12392D2*
Y-12712D1*
X13043Y-14922D2*
X13363D1*
X14313Y-12712D2*
X16500D1*
X20649D1*
X21559Y-13622D1*
X14313Y-11132D2*
X16500D1*
X20298D1*
X21496Y-9934D1*
X13363Y-14922D2*
Y-13875D1*
X13000D1*
Y-13180D1*
X13433Y-12747D1*
X14278D1*
X14313Y-12712D1*
X13363Y-14922D2*
Y-15800D1*
X14750Y-17187D1*
Y-19690D1*
X14870Y-19810D1*
X12313Y-14188D2*
Y-13875D1*
X13000D1*
X12125Y-11813D2*
Y-12500D1*
Y-13180D1*
X13000D1*
X13363Y-8922D2*
Y-8012D1*
X14750Y-6625D1*
Y-3741D1*
X14870Y-3621D1*
X33002Y-14188D2*
Y-13002D1*
X31687Y-11687D1*
X33187Y-10188D1*
X33375D1*
X21496Y-9934D2*
Y-11680D1*
Y-13559D1*
X21559Y-13622D1*
X33002Y-13002D2*
Y-12500D1*
X27995D1*
Y-11680D1*
X22125D1*
X21496D1*
X14125Y-11375D2*
Y-11187D1*
X12375D1*
Y-10000D1*
X13063D1*
Y-8942D1*
X13043Y-8922D1*
X31750Y-12500D2*
X31687Y-12437D1*
Y-11687D1*
X28000Y-11750D2*
X27995Y-12500D1*
X22125Y-11875D2*
Y-11680D1*
X12125Y-12500D2*
D3*
X16500Y-12625D2*
Y-12712D1*
Y-11188D2*
Y-11132D1*
X8313Y-13972D2*
X5687D1*
X3907D1*
X3869Y-13935D1*
X5687Y-13938D2*
Y-13972D1*
X8313Y-13022D2*
D19*
X9062D1*
Y-12082D1*
X8313D1*
X6250Y-12063D2*
D14*
Y-12982D1*
X6232Y-13000D1*
X8313Y-12082D2*
X8020D1*
X7875Y-11938D1*
X6375D1*
X6250Y-12063D1*
X8313Y-13022D2*
X7978D1*
X7438Y-13563D1*
X7000Y-19500D2*
X5939D1*
X5813Y-19374D1*
X13871Y-30435D2*
Y-29473D1*
X13772Y-29375D1*
X12187Y-29500D2*
Y-29938D1*
X13373D1*
X13871Y-30435D1*
X16812Y-29095D2*
D18*
X16457D1*
D14*
X14052D1*
X13772Y-29375D1*
X13004Y-31065D2*
X11920D1*
X11537Y-30683D1*
X13522Y-32125D2*
Y-31583D1*
X13004Y-31065D1*
X11438Y-29500D2*
X11500D1*
Y-30438D1*
X11745Y-30683D1*
X11537D1*
X16812Y-29295D2*
D18*
X16457D1*
D14*
X14705D1*
X14500Y-29500D1*
Y-32125D1*
X13522D1*
X19792Y-28305D2*
X19055D1*
X18938Y-28188D1*
X16812Y-28705D2*
D18*
Y-28688D1*
X15500D1*
X15312Y-28500D1*
X19792Y-31265D2*
D14*
X19172D1*
X19000Y-31438D1*
X2875Y-30518D2*
D20*
X4107D1*
X4125Y-30500D1*
X2875Y-29375D2*
Y-30518D1*
X4125Y-30500D2*
X6250D1*
X7938Y-28813D1*
Y-28688D1*
X8125D1*
X8750Y-28063D1*
X16812Y-29685D2*
D14*
X15312D1*
Y-29625D1*
X15250Y-35938D2*
X15189D1*
X14500Y-36627D1*
X16688Y-34250D2*
Y-36439D1*
X16875Y-36627D1*
X7375Y-25687D2*
X7188D1*
Y-26438D1*
X8781Y-28031D1*
X8125Y-28688D1*
X7938D1*
X8750Y-28063D2*
X8625D1*
X7938Y-28750D1*
Y-28815D1*
X9805Y-30683D1*
X16812Y-32445D2*
Y-32750D1*
X17063Y-33000D1*
X14938Y-25728D2*
X13852D1*
X13812Y-25688D1*
X14938Y-26397D2*
Y-26563D1*
X13835D1*
X13772Y-26500D1*
X16812Y-28115D2*
D18*
X16303D1*
D14*
X15438Y-27250D1*
Y-26938D1*
X14897Y-26397D1*
X14938D1*
X14438Y-27353D2*
Y-27313D1*
X13562D1*
X13499Y-27375D1*
X16812Y-28305D2*
D18*
X15993D1*
D14*
X15000Y-27313D1*
X14500D1*
X14540Y-27353D1*
X14438D1*
Y-28022D2*
Y-28125D1*
X13522D1*
X13460Y-28188D1*
X16812Y-28505D2*
D18*
X15818D1*
D14*
X15312Y-28000D1*
X14438D1*
Y-28022D1*
X12790Y-28188D2*
Y-27414D1*
X12751Y-27375D1*
X16812Y-28895D2*
D18*
X16457D1*
D14*
X12895D1*
X12688Y-28688D1*
X12313D1*
X10500Y-26875D1*
X19792Y-27915D2*
D18*
X20147D1*
D14*
X20353D1*
X20563Y-28125D1*
X16812Y-29885D2*
D18*
X15552D1*
D14*
X14812Y-30625D1*
Y-32313D1*
X14312Y-32813D1*
X12437D1*
X11000Y-34250D1*
X4081Y-28250D2*
D20*
Y-29206D1*
X4125Y-29250D1*
X2127Y-28313D2*
D14*
Y-28814D1*
X2188Y-28875D1*
X2813D1*
X2875Y-28813D1*
Y-28313D1*
D20*
Y-27875D1*
X4500Y-26250D1*
Y-25687D1*
X4437D1*
X4081Y-28250D2*
X2938D1*
X2875Y-28313D1*
X16812Y-30085D2*
D18*
X15665D1*
D14*
X15081Y-30669D1*
Y-32607D1*
X14313Y-33375D1*
X12875D1*
X12000Y-34250D1*
X16812Y-30275D2*
D18*
X15787D1*
D14*
X15312Y-30750D1*
Y-33438D1*
X14875Y-33875D1*
X13438D1*
X13250D1*
X12438Y-34688D1*
X11562D1*
X11000Y-35250D1*
X16812Y-30475D2*
D18*
X15900D1*
D14*
X15563Y-30813D1*
Y-34000D1*
X15125Y-34438D1*
X13438D1*
X13375D1*
X12563Y-35250D1*
X12000D1*
X16812Y-30675D2*
D18*
X16075D1*
D14*
X15812Y-30938D1*
Y-34500D1*
X15375Y-34938D1*
X13562D1*
X12750Y-35750D1*
X11500D1*
X11000Y-36250D1*
X16812Y-30865D2*
D18*
X16457D1*
D14*
X16197D1*
X16063Y-31000D1*
Y-36937D1*
X14500Y-38500D1*
Y-37375D2*
Y-38500D1*
X16812Y-31065D2*
D18*
X16457D1*
D14*
X16312D1*
Y-37375D1*
Y-37688D1*
X15500Y-38500D1*
X16875Y-37375D2*
X16312D1*
X16812Y-31265D2*
D18*
X17167D1*
D14*
X17765D1*
X19875Y-33375D1*
X21375D1*
X22500Y-34500D1*
X22812Y-34188D1*
X24688D1*
X25500Y-35000D1*
X27500D1*
X29500D1*
X31500D1*
X16812Y-31455D2*
D18*
X17167D1*
D14*
X17643D1*
X19813Y-33625D1*
X20625D1*
X21500Y-34500D1*
X25500Y-36000D2*
X27500D1*
X29500D1*
X31500D1*
X16812Y-31655D2*
D18*
X17167D1*
D14*
X17530D1*
X20500Y-34625D1*
Y-34500D1*
X20562D1*
X21125Y-35063D1*
X24563D1*
X24875Y-35375D1*
Y-36437D1*
X25438Y-37000D1*
X25500D1*
X31500Y-34000D2*
Y-33813D1*
X29500D1*
Y-34000D1*
Y-33813D2*
X27500D1*
Y-34000D1*
Y-33813D2*
X25500D1*
Y-34000D1*
X16812Y-31855D2*
D18*
X17167D1*
D14*
X17418D1*
X19500Y-33938D1*
Y-34500D1*
X19625D1*
X20063Y-34938D1*
X20563D1*
X21000Y-35375D1*
Y-35750D1*
X21750Y-36500D1*
X24063D1*
X25063Y-37500D1*
X27500D1*
Y-37000D1*
X16812Y-32045D2*
D18*
X17167D1*
D14*
X17295D1*
X18500Y-33250D1*
Y-34500D1*
X18625D1*
X19062Y-34938D1*
X19625D1*
X20000Y-35313D1*
Y-35813D1*
X21000Y-36813D1*
Y-37312D1*
X21188Y-37500D1*
X23875D1*
X24875Y-38500D1*
X28000D1*
X29500Y-37000D1*
X16812Y-32245D2*
D18*
X17183D1*
D14*
X17500Y-32563D1*
Y-34500D1*
X31500Y-37000D2*
X31438D1*
X29625Y-38813D1*
X24750D1*
X23750Y-37813D1*
X20500D1*
X20000Y-37312D1*
Y-36812D1*
X19063Y-35875D1*
Y-35375D1*
X18688Y-35000D1*
X18000D1*
X17500Y-34500D1*
X19792Y-32445D2*
D18*
X20147D1*
D14*
Y-32585D1*
X20688Y-33125D1*
X24375D1*
X25500Y-32000D1*
X19792Y-32245D2*
D18*
X20147D1*
D14*
X20245D1*
X20812Y-32813D1*
X23812D1*
X24625Y-32000D1*
X24500D1*
X19792Y-32045D2*
D18*
X20147D1*
D14*
X20545D1*
X21063Y-32563D1*
X23062D1*
X23625Y-32000D1*
X23500D1*
X19792Y-31655D2*
D18*
X21655D1*
D14*
X22000Y-32000D1*
X22500D1*
X19792Y-30675D2*
D18*
X20147D1*
D14*
X31325D1*
X35500Y-26500D1*
X19792Y-30475D2*
D18*
X20147D1*
D14*
X30525D1*
X35500Y-25500D1*
X19792Y-30275D2*
D18*
X20147D1*
D14*
X29725D1*
X33500Y-26500D1*
X19792Y-30085D2*
D18*
X20147D1*
D14*
X28915D1*
X33500Y-25500D1*
X19792Y-29885D2*
D18*
X20147D1*
D14*
X28115D1*
X31500Y-26500D1*
X19792Y-29685D2*
D18*
X20147D1*
D14*
X27315D1*
X31500Y-25500D1*
X19792Y-29485D2*
D18*
X20147D1*
D14*
X26515D1*
X29500Y-26500D1*
X19792Y-29295D2*
D18*
X20147D1*
D14*
X25705D1*
X29500Y-25500D1*
X19792Y-29095D2*
D18*
X20147D1*
D14*
X24905D1*
X27500Y-26500D1*
X19792Y-28895D2*
D18*
X20147D1*
D14*
X24105D1*
X27500Y-25500D1*
X19792Y-28705D2*
D18*
X20147D1*
D14*
X23295D1*
X25500Y-26500D1*
X19792Y-28505D2*
D18*
X20147D1*
D14*
X22495D1*
X25500Y-25500D1*
X19792Y-27715D2*
D18*
X20147D1*
D14*
X22285D1*
X23500Y-26500D1*
X19792Y-27525D2*
D18*
X21600D1*
D14*
X22688Y-26437D1*
Y-25563D1*
X23500D1*
Y-25500D1*
X19792Y-27325D2*
D18*
X20147D1*
D14*
X20675D1*
X21500Y-26500D1*
X19792Y-27125D2*
X19875D1*
X21500Y-25500D1*
X19000D2*
X18563D1*
Y-26687D1*
X17725Y-27525D1*
D18*
X16812D1*
Y-27715D2*
X18035D1*
D14*
X20000Y-25750D1*
Y-25500D1*
X16812Y-27125D2*
X16500D1*
Y-25500D1*
X16812Y-27325D2*
D18*
X17313D1*
D14*
X17500D1*
Y-25500D1*
X21625Y-31063D2*
X21437Y-30875D1*
X19802D1*
D18*
X19792Y-30865D1*
X21625Y-31063D2*
D14*
X27563D1*
X28500Y-32000D1*
X19792Y-31455D2*
D18*
X20147D1*
D14*
X20920D1*
X21062Y-31313D1*
X5750Y-26939D2*
X6375D1*
Y-25687D1*
X9893Y-14922D2*
Y-15732D1*
X8000Y-17625D1*
Y-17652D1*
Y-18500D1*
X7375Y-17500D2*
X7848D1*
X8000Y-17652D1*
X10213Y-14922D2*
Y-15912D1*
X8500Y-17625D1*
Y-19000D1*
X8000Y-19500D1*
X7500Y-19000D1*
X6500D1*
X6126Y-18626D1*
X5813D1*
X8000Y-20500D2*
X8500Y-20000D1*
X9500D1*
Y-17187D1*
X10500Y-16187D1*
Y-14945D1*
X10523Y-14922D1*
X8000Y-20500D2*
Y-21375D1*
X8125Y-21500D1*
X10500Y-25875D2*
X9125D1*
X9000Y-26000D1*
D52*
X9688Y-29375D3*
X9245Y-10192D3*
X12500Y-18250D3*
X11375Y-8250D3*
X11938Y-16312D3*
X13625Y-13250D3*
X12375Y-10000D3*
X15312Y-11875D3*
X13500Y-11938D3*
X7438Y-10375D3*
X6875Y-10687D3*
X7500Y-12313D3*
Y-12937D3*
X7313Y-9063D3*
X11250Y-16250D3*
X11625Y-15750D3*
X8182Y-8559D3*
X9000Y-4875D3*
X9875Y-6250D3*
X12313Y-14188D3*
X10250Y-12687D3*
Y-13437D3*
X12125Y-11813D3*
X9250Y-14000D3*
X10250Y-10500D3*
Y-11250D3*
X11500Y-14125D3*
X15688Y-3188D3*
X10625Y-17500D3*
X20750Y-11875D3*
X7000Y-11563D3*
X13625Y-10625D3*
X11812Y-7562D3*
X12125Y-5562D3*
X10000Y-2500D3*
X3500Y-2625D3*
X25188Y-16750D3*
Y-17938D3*
X21813Y-20250D3*
X25000Y-11125D3*
X10062Y-4438D3*
X3500Y-813D3*
X10375Y-625D3*
X8250Y-2875D3*
X25000Y-12500D3*
X31750D3*
X28000Y-11750D3*
X22125Y-11875D3*
X15875Y-17938D3*
X15938Y-5625D3*
X3875Y-5875D3*
X22750Y-22188D3*
X6313Y-5250D3*
X6500Y-6875D3*
X7375Y-5875D3*
X1063Y-7000D3*
X3938Y-7375D3*
X19625Y-18375D3*
X16688Y-34250D3*
X15250Y-35938D3*
X7438Y-13563D3*
X6000Y-15937D3*
Y-14937D3*
X6437Y-23313D3*
X8938D3*
X11000Y-22937D3*
X5500Y-21062D3*
X14312Y-32813D3*
X10875Y-12062D3*
X19438Y-5313D3*
X27938Y-15875D3*
X21062Y-31313D3*
X4625Y-13063D3*
X5750Y-9000D3*
X16250Y-20125D3*
X28188Y-18313D3*
X16813Y-15063D3*
X16250D3*
X16813Y-8875D3*
X16188D3*
X28563Y-10688D3*
X29125Y-13063D3*
X28250Y-9000D3*
Y-5688D3*
X26813Y-7500D3*
X24063Y-1063D3*
X33750D3*
X38188Y-2000D3*
X18875Y-813D3*
X17500Y-23000D3*
X787Y-2362D3*
X1181Y-21654D3*
X5687Y-16938D3*
X5375Y-16438D3*
Y-15500D3*
X5687Y-13938D3*
X5375Y-14438D3*
X26563Y-34500D3*
X23438Y-4875D3*
X24813Y-6437D3*
X23563Y-18625D3*
X8063Y-14875D3*
X12125Y-12500D3*
X16500Y-12625D3*
Y-11188D3*
X16625Y-16188D3*
X14813D3*
X16438Y-7625D3*
X14688Y-7813D3*
X5750Y-9688D3*
X6500D3*
X26625Y-35500D3*
X13875Y-688D3*
X22062Y-1438D3*
X22188Y-2938D3*
X38438Y-12375D3*
X22500Y-17500D3*
X24000Y-21500D3*
X26688Y-23000D3*
X20000D3*
X13313Y-23250D3*
X10375Y-20875D3*
X3375Y-17875D3*
X4813Y-22438D3*
X6000Y-17500D3*
X1000Y-15000D3*
Y-16500D3*
Y-18500D3*
Y-20000D3*
X14313Y-33375D3*
X13438Y-33875D3*
Y-34438D3*
X15375Y-34938D3*
X15312Y-28500D3*
X17500Y-28875D3*
X20563Y-28125D3*
X18938Y-28188D3*
X19000Y-31438D3*
X17063Y-33000D3*
X10688Y-31500D3*
X10875Y-28813D3*
X15312Y-29625D3*
X28500Y-35563D3*
X30500D3*
X12313Y-30438D3*
X14063Y-31625D3*
X18875Y-28813D3*
X21625Y-31063D3*
X17875Y-33313D3*
X21250Y-32063D3*
X8750Y-28063D3*
X18875Y-29313D3*
X16062Y-26938D3*
X18062Y-28750D3*
X15750Y-26250D3*
X6312Y-24625D3*
X11813Y-26688D3*
X8688Y-24625D3*
X23062Y-31437D3*
X10688Y-30813D3*
X23938Y-38750D3*
X24312Y-35875D3*
X28500Y-37063D3*
X28563Y-34563D3*
X27500Y-32938D3*
X30500Y-37063D3*
X26500D3*
X31313Y-31938D3*
X1625Y-33000D3*
X3500Y-31750D3*
X7062Y-32687D3*
X1625Y-35563D3*
X38438Y-33688D3*
X33688Y-29563D3*
X23813Y-36938D3*
X24000Y-33813D3*
X13500Y-24688D3*
X15500D3*
X9813Y-36375D3*
X3938Y-33500D3*
X9313Y-38250D3*
X1313Y-30313D3*
X625Y-28063D3*
X1500Y-26875D3*
X18437Y-31438D3*
X13625Y-35750D3*
X32500Y-25375D3*
X34500D3*
X30438D3*
X28500D3*
X26563D3*
X24438D3*
X22500Y-25000D3*
X20750Y-24688D3*
X18125Y-24625D3*
X36625Y-25375D3*
X35563Y-28313D3*
X33625Y-23063D3*
X32813Y-38688D3*
X38500Y-15875D3*
X38000Y-22688D3*
X37563Y-28313D3*
X30500Y-34500D3*
X37250Y-36188D3*
X7250Y-30313D3*
X32812Y-35500D3*
X5938Y-28625D3*
X5563Y-26250D3*
X3375Y-29688D3*
X8188Y-34375D3*
X34438Y-32938D3*
X35750Y-37875D3*
X37250Y-31813D3*
X23688Y-34563D3*
X14438Y-35563D3*
X13313Y-37625D3*
X11687Y-38750D3*
X6563Y-38313D3*
X2500Y-37625D3*
X7563Y-35938D3*
X20007Y-8124D2*
D26*
X25743D1*
X19750Y-8372D2*
X26051D1*
X19496Y-8621D2*
X26364D1*
X19242Y-8870D2*
X26676D1*
X18984Y-9118D2*
X21129D1*
X21863D2*
X26985D1*
X18730Y-9367D2*
X20793D1*
X22199D2*
X27227D1*
X18472Y-9616D2*
X20645D1*
X22347D2*
X27227D1*
X18218Y-9865D2*
X20590D1*
X22402D2*
X27227D1*
X15738Y-10113D2*
X20496D1*
X15464Y-10362D2*
X20289D1*
X14212Y-10611D2*
X20090D1*
X20617Y-10015D2*
X20616Y-9840D1*
X20638Y-9717D1*
X20678Y-9598D1*
X20733Y-9486D1*
X20804Y-9383D1*
X20888Y-9291D1*
X20985Y-9212D1*
X21092Y-9147D1*
X21206Y-9098D1*
X21327Y-9066D1*
X21451Y-9050D1*
X21576Y-9053D1*
X21699Y-9073D1*
X21818Y-9110D1*
X21931Y-9164D1*
X22035Y-9233D1*
X22129Y-9316D1*
X22210Y-9411D1*
X22276Y-9516D1*
X22327Y-9630D1*
X22362Y-9750D1*
X22381Y-9938D1*
X22597Y-10063D1*
X27250D1*
Y-9311D1*
X25458Y-7876D1*
X20236Y-7875D1*
X18021Y-10028D1*
X17937Y-10062D1*
X15787D1*
X15640Y-10161D1*
X15272Y-10527D1*
X15188Y-10562D1*
X14187D1*
Y-10750D1*
X20004D1*
X20463Y-10175D1*
X20615Y-10021D1*
X14742Y-13311D2*
X20102D1*
X15843Y-13560D2*
X20293D1*
X16121Y-13809D2*
X20485D1*
X22558D2*
X27100D1*
X17644Y-14057D2*
X20672D1*
X22449D2*
X27100D1*
X17921Y-14306D2*
X20973D1*
X22144D2*
X27100D1*
X18195Y-14555D2*
X27090D1*
X18472Y-14803D2*
X26621D1*
X18750Y-15052D2*
X26153D1*
X19027Y-15301D2*
X25680D1*
X19300Y-15549D2*
X25211D1*
X22285Y-14124D2*
X22232Y-14196D1*
X22144Y-14285D1*
X22045Y-14361D1*
X21936Y-14422D1*
X21820Y-14468D1*
X21698Y-14496D1*
X21574Y-14507D1*
X21449Y-14500D1*
X21326Y-14476D1*
X21209Y-14435D1*
X21098Y-14377D1*
X20996Y-14305D1*
X20905Y-14219D1*
X20830Y-14124D1*
X20809Y-14123D1*
X20725Y-14089D1*
X19939Y-13063D1*
X16660Y-13062D1*
X16604Y-13078D1*
X16480Y-13090D1*
X16347Y-13063D1*
X14355Y-13067D1*
X14278Y-13077D1*
X14126D1*
X14125Y-13301D1*
X14636Y-13298D1*
X14750Y-13312D1*
X15503Y-13314D1*
X15584Y-13345D1*
X16235Y-13937D1*
X17441Y-13939D1*
X17521Y-13970D1*
X19359Y-15624D1*
X20437Y-15625D1*
X25096D1*
X27128Y-14548D1*
X27125Y-13562D1*
X22645D1*
X22427Y-14051D1*
X22330Y-14124D1*
X22285Y-14125D1*
X28023Y-9874D2*
X30559D1*
X32351D2*
X35922D1*
X21195Y-10122D2*
X21907D1*
X28023D2*
X30719D1*
X32195D2*
X35922D1*
X21000Y-10371D2*
X22082D1*
X28023D2*
X35922D1*
X20808Y-10620D2*
X22254D1*
X28011D2*
X35922D1*
X20617Y-10868D2*
X37391D1*
X20425Y-11117D2*
X37387D1*
X14150Y-11366D2*
X37387D1*
X15722Y-11615D2*
X37383D1*
X15800Y-11863D2*
X37379D1*
X15738Y-12112D2*
X37375D1*
X14843Y-12361D2*
X37371D1*
X14150Y-12609D2*
X37368D1*
X20390Y-12858D2*
X37364D1*
X20586Y-13107D2*
X37360D1*
X20781Y-13355D2*
X22227D1*
X27961D2*
X31067D1*
X31843D2*
X37356D1*
X20972Y-13604D2*
X22114D1*
X27961D2*
X30633D1*
X32281D2*
X32539D1*
X35921D2*
X37352D1*
X27961Y-13853D2*
X30532D1*
X27961Y-14101D2*
X30551D1*
X32824D2*
X33204D1*
X27961Y-14350D2*
X30700D1*
X32214D2*
X32375D1*
X33229Y-14202D2*
Y-13999D1*
X32797Y-14000D1*
X32799Y-14320D1*
X33228Y-14206D1*
X32399Y-14422D2*
Y-13800D1*
X32437Y-13683D1*
X32540Y-13611D1*
X32599Y-13601D1*
X34156Y-13602D1*
X34249Y-13611D1*
X34308Y-13601D1*
X35861D1*
X35981Y-13641D1*
X36023Y-13685D1*
X37250Y-13688D1*
X37377Y-13686D1*
X37416Y-10855D1*
X35948D1*
Y-9625D1*
X33723D1*
X33683Y-9666D1*
X33577Y-9731D1*
X33496Y-9743D1*
X33254D1*
X33133Y-9714D1*
X33026Y-9624D1*
X32355Y-9625D1*
X32357Y-9744D1*
X32341Y-9834D1*
X32268Y-10004D1*
X32185Y-10104D1*
X32115Y-10163D1*
X31950Y-10246D1*
X31776Y-10273D1*
X31088Y-10269D1*
X30908Y-10227D1*
X30796Y-10162D1*
X30725Y-10103D1*
X30615Y-9955D1*
X30570Y-9833D1*
X30554Y-9743D1*
Y-9626D1*
X28000Y-9625D1*
Y-10562D1*
X27939Y-10668D1*
X27875Y-10687D1*
X22387Y-10682D1*
X22282Y-10621D1*
X21925Y-10111D1*
X21299Y-9954D1*
X20283Y-11265D1*
X20205Y-11311D1*
X14125Y-11312D1*
Y-11410D1*
X14636Y-11408D1*
X14812Y-11420D1*
X15371Y-11414D1*
X15492Y-11446D1*
X15599Y-11509D1*
X15686Y-11598D1*
X15746Y-11708D1*
X15777Y-11875D1*
X15761Y-11999D1*
X15712Y-12113D1*
X15634Y-12211D1*
X15533Y-12284D1*
X15417Y-12328D1*
X15293Y-12340D1*
X15170Y-12318D1*
X15058Y-12264D1*
X14964Y-12182D1*
X14905Y-12095D1*
X14898Y-12172D1*
X14871Y-12288D1*
X14796Y-12381D1*
X14685Y-12431D1*
X14633Y-12437D1*
X14125D1*
Y-12625D1*
X20128Y-12627D1*
X20212Y-12660D1*
X21065Y-13756D1*
X22048Y-13808D1*
X22324Y-13198D1*
X22420Y-13126D1*
X27812Y-13125D1*
X27918Y-13186D1*
X27937Y-13250D1*
X27938Y-14500D1*
X30979D1*
X30892Y-14468D1*
X30737Y-14367D1*
X30654Y-14268D1*
X30608Y-14188D1*
X30554Y-14011D1*
Y-13881D1*
X30570Y-13791D1*
X30643Y-13621D1*
X30726Y-13521D1*
X30797Y-13462D1*
X30962Y-13379D1*
X31135Y-13352D1*
X31823Y-13356D1*
X32003Y-13398D1*
X32116Y-13463D1*
X32186Y-13522D1*
X32297Y-13670D1*
X32342Y-13792D1*
X32358Y-13882D1*
X32347Y-14067D1*
X32303Y-14189D1*
X32257Y-14269D1*
X32130Y-14403D1*
X32018Y-14469D1*
X31938Y-14500D1*
X32107D1*
X32016Y-14470D1*
X31947Y-14497D1*
X32112Y-14499D1*
X32399Y-14424D1*
X21712Y-686D2*
X38852D1*
X21712Y-935D2*
X38852D1*
X21712Y-1184D2*
X38852D1*
X21712Y-1432D2*
X30907D1*
X31296D2*
X32090D1*
X33867D2*
X38852D1*
X21712Y-1681D2*
X25407D1*
X26250D2*
X30598D1*
X33980D2*
X38852D1*
X21712Y-1930D2*
X25067D1*
X26586D2*
X30536D1*
X33980D2*
X38852D1*
X21712Y-2178D2*
X24957D1*
X26695D2*
X30551D1*
X33980D2*
X38852D1*
X21712Y-2427D2*
X24957D1*
X26695D2*
X30770D1*
X31437D2*
X31981D1*
X33976D2*
X38852D1*
X21712Y-2676D2*
X24969D1*
X26593D2*
X38852D1*
X21712Y-2924D2*
X24207D1*
X26281D2*
X38852D1*
X21712Y-3173D2*
X24200D1*
X25453D2*
X38852D1*
X21712Y-3422D2*
X24200D1*
X25425D2*
X38852D1*
X21712Y-3670D2*
X24200D1*
X25425D2*
X25844D1*
X27824D2*
X38852D1*
X21712Y-3919D2*
X24200D1*
X27836D2*
X38852D1*
X21712Y-4168D2*
X24200D1*
X27836D2*
X35922D1*
X38078D2*
X38852D1*
X21712Y-4417D2*
X24200D1*
X27836D2*
X29403D1*
X31304D2*
X35922D1*
X38078D2*
X38852D1*
X21712Y-4665D2*
X24258D1*
X25367D2*
X25903D1*
X27765D2*
X29352D1*
X33738D2*
X35922D1*
X38078D2*
X38852D1*
X21712Y-4914D2*
X29352D1*
X33738D2*
X35922D1*
X38078D2*
X38852D1*
X21712Y-5163D2*
X29352D1*
X33738D2*
X35922D1*
X38078D2*
X38852D1*
X21712Y-5411D2*
X29371D1*
X33738D2*
X35922D1*
X38078D2*
X38852D1*
X21712Y-5660D2*
X30239D1*
X33738D2*
X35922D1*
X38078D2*
X38852D1*
X21712Y-5909D2*
X30184D1*
X33738D2*
X36223D1*
X37777D2*
X38852D1*
X21712Y-6157D2*
X30204D1*
X33738D2*
X36024D1*
X37976D2*
X38852D1*
X21712Y-6406D2*
X30426D1*
X31074D2*
X31434D1*
X33644D2*
X35938D1*
X38062D2*
X38852D1*
X21712Y-6655D2*
X35930D1*
X38070D2*
X38852D1*
X21712Y-6903D2*
X35996D1*
X38004D2*
X38852D1*
X21712Y-7152D2*
X36161D1*
X37839D2*
X38852D1*
X25601Y-7401D2*
X36625D1*
X37375D2*
X38852D1*
X25945Y-7649D2*
X38852D1*
X26289Y-7898D2*
X38852D1*
X26629Y-8147D2*
X38852D1*
X26972Y-8396D2*
X38852D1*
X27316Y-8644D2*
X38852D1*
X27660Y-8893D2*
X38852D1*
X28004Y-9142D2*
X30868D1*
X32046D2*
X38852D1*
X31493Y-1592D2*
X31569Y-1670D1*
X32005D1*
X32001Y-1613D1*
X32039Y-1496D1*
X32142Y-1423D1*
X32201Y-1413D1*
X33755D1*
X33872Y-1451D1*
X33944Y-1554D1*
X33955Y-1613D1*
Y-2387D1*
X33917Y-2504D1*
X33814Y-2577D1*
X33755Y-2587D1*
X32201D1*
X32084Y-2549D1*
X32011Y-2446D1*
X32001Y-2328D1*
X31506Y-2330D1*
X31404Y-2433D1*
X31298Y-2498D1*
X31217Y-2511D1*
X30988D1*
X30866Y-2481D1*
X30800Y-2433D1*
X30638Y-2271D1*
X30573Y-2164D1*
X30560Y-2083D1*
Y-1854D1*
X30590Y-1733D1*
X30638Y-1666D1*
X30800Y-1504D1*
X30907Y-1439D1*
X30988Y-1426D1*
X31217D1*
X31338Y-1456D1*
X31404Y-1504D1*
X31493Y-1592D1*
X31105Y-5525D2*
X31189Y-5610D1*
X31410Y-5608D1*
X31413Y-4724D1*
X31451Y-4607D1*
X31554Y-4534D1*
X31613Y-4524D1*
X32387D1*
X32506Y-4565D1*
X32549Y-4608D1*
X32576Y-4566D1*
X32679Y-4493D1*
X32738Y-4483D1*
X33512D1*
X33629Y-4521D1*
X33702Y-4624D1*
X33712Y-4683D1*
Y-6236D1*
X33674Y-6353D1*
X33571Y-6426D1*
X33512Y-6436D1*
X32738D1*
X32619Y-6395D1*
X32576Y-6352D1*
X32549Y-6395D1*
X32446Y-6468D1*
X32387Y-6478D1*
X31613D1*
X31496Y-6440D1*
X31423Y-6337D1*
X31413Y-6266D1*
X31184Y-6267D1*
X31052Y-6402D1*
X30946Y-6467D1*
X30865Y-6480D1*
X30635D1*
X30514Y-6450D1*
X30448Y-6402D1*
X30286Y-6240D1*
X30221Y-6133D1*
X30208Y-6052D1*
Y-5823D1*
X30237Y-5702D1*
X30286Y-5635D1*
X30395Y-5526D1*
X29576Y-5524D1*
X29459Y-5487D1*
X29386Y-5384D1*
X29376Y-5325D1*
Y-4550D1*
X29414Y-4433D1*
X29517Y-4361D1*
X29576Y-4351D1*
X31130D1*
X31247Y-4388D1*
X31319Y-4491D1*
X31330Y-4550D1*
Y-5325D1*
X31292Y-5442D1*
X31189Y-5514D1*
X31102Y-5524D1*
X25049Y-2618D2*
X25000Y-2500D1*
X24975Y-2377D1*
X24974Y-2253D1*
X24996Y-2130D1*
X25041Y-2013D1*
X25107Y-1908D1*
X25192Y-1816D1*
X25293Y-1742D1*
X25406Y-1689D1*
X25527Y-1658D1*
X25755Y-1650D1*
X26024Y-1654D1*
X26169Y-1666D1*
X26287Y-1705D1*
X26396Y-1765D1*
X26492Y-1845D1*
X26571Y-1942D1*
X26630Y-2052D1*
X26668Y-2171D1*
X26682Y-2308D1*
X26670Y-2433D1*
X26635Y-2552D1*
X26578Y-2663D1*
X26501Y-2762D1*
X26407Y-2844D1*
X26299Y-2906D1*
X26182Y-2948D1*
X26023Y-2965D1*
X25634Y-2967D1*
X25400Y-3202D1*
X25399Y-3796D1*
X25855Y-3795D1*
X25858Y-3738D1*
X25896Y-3621D1*
X25999Y-3548D1*
X26058Y-3538D1*
X27611D1*
X27728Y-3576D1*
X27801Y-3679D1*
X27811Y-3738D1*
Y-4512D1*
X27774Y-4629D1*
X27671Y-4702D1*
X27611Y-4712D1*
X26058D1*
X25941Y-4674D1*
X25868Y-4571D1*
X25858Y-4453D1*
X25402Y-4455D1*
X25399Y-4526D1*
X25362Y-4643D1*
X25259Y-4716D1*
X25200Y-4726D1*
X24425D1*
X24308Y-4688D1*
X24236Y-4585D1*
X24226Y-4526D1*
Y-2972D1*
X24263Y-2855D1*
X24366Y-2782D1*
X24425Y-2772D1*
X24898D1*
X25052Y-2617D1*
X30831Y-9188D2*
X30922Y-9122D1*
X31035Y-9068D1*
X31156Y-9037D1*
X31384Y-9029D1*
X31653Y-9033D1*
X31798Y-9045D1*
X31916Y-9084D1*
X32025Y-9145D1*
X32076Y-9187D1*
X38875Y-9188D1*
Y-438D1*
X21687D1*
Y-7375D1*
X25503Y-7377D1*
X25573Y-7399D1*
X28040Y-9187D1*
X30832Y-9188D1*
X36073Y-4145D2*
X38052D1*
Y-5855D1*
X37681D1*
X37744Y-5901D1*
X37834Y-5988D1*
X37910Y-6087D1*
X37971Y-6196D1*
X38016Y-6313D1*
X38043Y-6434D1*
X38052Y-6559D1*
X38043Y-6684D1*
X38016Y-6806D1*
X37971Y-6922D1*
X37910Y-7031D1*
X37834Y-7130D1*
X37744Y-7217D1*
X37643Y-7289D1*
X37531Y-7346D1*
X37413Y-7387D1*
X37290Y-7409D1*
X37072Y-7415D1*
X36803Y-7411D1*
X36648Y-7400D1*
X36527Y-7369D1*
X36412Y-7320D1*
X36305Y-7255D1*
X36209Y-7175D1*
X36126Y-7082D1*
X36057Y-6978D1*
X36004Y-6865D1*
X35968Y-6745D1*
X35950Y-6622D1*
Y-6497D1*
X35968Y-6373D1*
X36004Y-6254D1*
X36057Y-6140D1*
X36126Y-6036D1*
X36209Y-5943D1*
X36315Y-5857D1*
X35948Y-5855D1*
Y-4145D1*
X36073D1*
X36336Y-8561D2*
X38850D1*
X36336Y-8810D2*
X38850D1*
X36336Y-9059D2*
X38850D1*
X36336Y-9307D2*
X38850D1*
X36336Y-9556D2*
X38850D1*
X36336Y-9805D2*
X38850D1*
X36336Y-10053D2*
X38850D1*
X36336Y-10302D2*
X38850D1*
X37812Y-10551D2*
X38850D1*
X37836Y-10799D2*
X38850D1*
X37906Y-11048D2*
X38850D1*
X38035Y-11297D2*
X38850D1*
X38078Y-11545D2*
X38850D1*
X38043Y-11794D2*
X38850D1*
X37925Y-12043D2*
X38850D1*
X37836Y-12292D2*
X38850D1*
X37851Y-12540D2*
X38850D1*
X38011Y-12789D2*
X38850D1*
X38074Y-13038D2*
X38850D1*
X38062Y-13286D2*
X38850D1*
X37968Y-13535D2*
X38850D1*
X37836Y-13784D2*
X38850D1*
X37836Y-14032D2*
X38850D1*
X36086Y-14281D2*
X38850D1*
X36086Y-14530D2*
X38850D1*
X33261Y-14778D2*
X38850D1*
X27316Y-15027D2*
X38850D1*
X26847Y-15276D2*
X38850D1*
X26375Y-15524D2*
X38850D1*
X25902Y-15773D2*
X38850D1*
X25433Y-16022D2*
X38850D1*
X22150Y-16271D2*
X38850D1*
X22150Y-16519D2*
X38850D1*
X22150Y-16768D2*
X35922D1*
X38078D2*
X38850D1*
X22150Y-17017D2*
X35922D1*
X38078D2*
X38850D1*
X22150Y-17265D2*
X30442D1*
X31183D2*
X31961D1*
X33914D2*
X35922D1*
X38078D2*
X38850D1*
X22150Y-17514D2*
X30250D1*
X33937D2*
X35922D1*
X38078D2*
X38850D1*
X22150Y-17763D2*
X30246D1*
X33937D2*
X35922D1*
X38078D2*
X38850D1*
X22150Y-18011D2*
X30344D1*
X33937D2*
X35922D1*
X38078D2*
X38850D1*
X22150Y-18260D2*
X31012D1*
X33914D2*
X35922D1*
X38078D2*
X38850D1*
X22150Y-18509D2*
X31012D1*
X33918D2*
X36121D1*
X37879D2*
X38850D1*
X22150Y-18757D2*
X31012D1*
X33918D2*
X35977D1*
X38023D2*
X38850D1*
X22150Y-19006D2*
X31012D1*
X33918D2*
X35926D1*
X38074D2*
X38850D1*
X22150Y-19255D2*
X24637D1*
X25863D2*
X26145D1*
X28148D2*
X31012D1*
X33804D2*
X35946D1*
X38054D2*
X38850D1*
X22150Y-19503D2*
X24637D1*
X28148D2*
X31141D1*
X32109D2*
X36047D1*
X37953D2*
X38850D1*
X22150Y-19752D2*
X24637D1*
X28148D2*
X36278D1*
X37722D2*
X38850D1*
X22150Y-20001D2*
X24637D1*
X25863D2*
X26145D1*
X28148D2*
X38850D1*
X22150Y-20250D2*
X24637D1*
X25863D2*
X38850D1*
X22150Y-20498D2*
X24637D1*
X25863D2*
X38850D1*
X22150Y-20747D2*
X24637D1*
X25863D2*
X38850D1*
X22150Y-20996D2*
X24895D1*
X26418D2*
X38850D1*
X22150Y-21244D2*
X24856D1*
X26558D2*
X38850D1*
X22150Y-21493D2*
X24829D1*
X26586D2*
X38850D1*
X22150Y-21742D2*
X24899D1*
X26511D2*
X30618D1*
X31589D2*
X38850D1*
X22150Y-21990D2*
X25125D1*
X26285D2*
X30536D1*
X31668D2*
X38850D1*
X22150Y-22239D2*
X30547D1*
X32976D2*
X38850D1*
X22150Y-22488D2*
X30746D1*
X33105D2*
X38850D1*
X22150Y-22736D2*
X30746D1*
X33105D2*
X38850D1*
X22150Y-22985D2*
X30797D1*
X33105D2*
X38850D1*
X22150Y-23234D2*
X31106D1*
X33101D2*
X38850D1*
X22150Y-23482D2*
X38850D1*
X30422Y-18064D2*
X30348Y-17990D1*
X30283Y-17883D1*
X30270Y-17802D1*
Y-17573D1*
X30300Y-17452D1*
X30348Y-17385D1*
X30510Y-17223D1*
X30617Y-17158D1*
X30698Y-17145D1*
X30927D1*
X31048Y-17175D1*
X31115Y-17223D1*
X31252Y-17360D1*
X31957Y-17358D1*
X31969Y-17303D1*
X32040Y-17203D1*
X32160Y-17163D1*
X33713D1*
X33830Y-17201D1*
X33903Y-17304D1*
X33913Y-17363D1*
X33912Y-18141D1*
X33892Y-18300D1*
Y-19075D1*
X33854Y-19192D1*
X33751Y-19264D1*
X33692Y-19274D1*
X32212D1*
Y-19317D1*
X32174Y-19434D1*
X32071Y-19507D1*
X32012Y-19517D1*
X31238D1*
X31121Y-19479D1*
X31048Y-19376D1*
X31038Y-19317D1*
Y-18204D1*
X31008Y-18217D1*
X30927Y-18230D1*
X30698D1*
X30577Y-18200D1*
X30510Y-18152D1*
X30422Y-18064D1*
X30770Y-22481D2*
X30638Y-22349D1*
X30573Y-22243D1*
X30560Y-22162D1*
Y-21932D1*
X30590Y-21811D1*
X30638Y-21745D1*
X30800Y-21583D1*
X30907Y-21518D1*
X30988Y-21505D1*
X31217D1*
X31338Y-21534D1*
X31404Y-21583D1*
X31567Y-21745D1*
X31632Y-21851D1*
X31644Y-21932D1*
Y-22167D1*
X31701Y-22226D1*
X32880D1*
X32997Y-22263D1*
X33069Y-22366D1*
X33080Y-22425D1*
Y-23200D1*
X33042Y-23317D1*
X32939Y-23389D1*
X32880Y-23399D1*
X31326D1*
X31209Y-23362D1*
X31136Y-23259D1*
X31126Y-23141D1*
X30980Y-23119D1*
X30876Y-23052D1*
X30803Y-22951D1*
X30772Y-22813D1*
Y-22480D1*
X25508Y-22094D2*
X25419Y-22090D1*
X25297Y-22061D1*
X25183Y-22010D1*
X25081Y-21938D1*
X24994Y-21849D1*
X24926Y-21744D1*
X24879Y-21629D1*
X24854Y-21506D1*
X24853Y-21382D1*
X24875Y-21259D1*
X24943Y-21106D1*
X24920Y-20978D1*
X24921Y-20987D1*
X24863Y-20978D1*
X24746Y-20940D1*
X24673Y-20837D1*
X24663Y-20778D1*
Y-19224D1*
X24701Y-19107D1*
X24804Y-19034D1*
X24863Y-19024D1*
X25637D1*
X25754Y-19062D1*
X25827Y-19165D1*
X25837Y-19298D1*
X26168Y-19295D1*
X26170Y-19238D1*
X26208Y-19121D1*
X26311Y-19048D1*
X26370Y-19038D1*
X27924D1*
X28041Y-19076D1*
X28114Y-19179D1*
X28124Y-19238D1*
Y-20012D1*
X28086Y-20129D1*
X27983Y-20202D1*
X27924Y-20212D1*
X26370D1*
X26253Y-20174D1*
X26181Y-20071D1*
X26170Y-19953D1*
X25840Y-19955D1*
X25837Y-20599D1*
X25836Y-20781D1*
X25903Y-20783D1*
X26048Y-20795D1*
X26166Y-20834D1*
X26275Y-20895D1*
X26371Y-20975D1*
X26450Y-21071D1*
X26509Y-21181D1*
X26547Y-21300D1*
X26561Y-21437D1*
X26549Y-21562D1*
X26514Y-21682D1*
X26457Y-21793D1*
X26380Y-21891D1*
X26286Y-21973D1*
X26178Y-22036D1*
X26061Y-22077D1*
X25902Y-22094D1*
X25509Y-22096D1*
Y-22092D1*
X38043Y-11684D2*
X38016Y-11806D1*
X37971Y-11922D1*
X37910Y-12031D1*
X37814Y-12149D1*
X37813Y-12527D1*
X37910Y-12646D1*
X37971Y-12755D1*
X38016Y-12872D1*
X38043Y-12993D1*
X38052Y-13118D1*
X38043Y-13243D1*
X38016Y-13365D1*
X37971Y-13481D1*
X37910Y-13590D1*
X37814Y-13708D1*
X37813Y-14063D1*
X37751Y-14168D1*
X37688Y-14188D1*
X36059D1*
X36061Y-14575D1*
X36024Y-14692D1*
X35921Y-14764D1*
X35861Y-14774D1*
X34304Y-14773D1*
X34212Y-14764D1*
X34153Y-14774D1*
X33250D1*
X32518Y-14999D1*
X27562Y-15000D1*
X27340D1*
X25121Y-16173D1*
X25063Y-16188D1*
X22125Y-16187D1*
Y-23625D1*
X38875D1*
Y-8316D1*
X36313Y-8375D1*
Y-10500D1*
X37688D1*
X37793Y-10561D1*
X37813Y-10625D1*
Y-10965D1*
X37910Y-11087D1*
X37971Y-11196D1*
X38016Y-11313D1*
X38043Y-11434D1*
X38052Y-11559D1*
X38043Y-11684D1*
X36073Y-16645D2*
X38052D1*
Y-18355D1*
X37681D1*
X37744Y-18401D1*
X37834Y-18488D1*
X37910Y-18587D1*
X37971Y-18696D1*
X38016Y-18813D1*
X38043Y-18934D1*
X38052Y-19059D1*
X38043Y-19184D1*
X38016Y-19306D1*
X37971Y-19422D1*
X37910Y-19531D1*
X37834Y-19630D1*
X37744Y-19717D1*
X37643Y-19789D1*
X37531Y-19846D1*
X37413Y-19887D1*
X37290Y-19909D1*
X37072Y-19915D1*
X36803Y-19911D1*
X36648Y-19900D1*
X36527Y-19869D1*
X36412Y-19820D1*
X36305Y-19755D1*
X36209Y-19675D1*
X36126Y-19582D1*
X36057Y-19478D1*
X36004Y-19365D1*
X35968Y-19245D1*
X35950Y-19122D1*
Y-18997D1*
X35968Y-18873D1*
X36004Y-18754D1*
X36057Y-18640D1*
X36126Y-18536D1*
X36209Y-18443D1*
X36315Y-18357D1*
X35948Y-18355D1*
Y-16645D1*
X36073D1*
X13775Y-13936D2*
X15610D1*
X13775Y-14185D2*
X15860D1*
X13775Y-14434D2*
X17371D1*
X13775Y-14682D2*
X17645D1*
X13775Y-14931D2*
X17918D1*
X13775Y-15180D2*
X18192D1*
X14015Y-15428D2*
X18465D1*
X14277Y-15677D2*
X18739D1*
X14535Y-15926D2*
X19012D1*
X14793Y-16174D2*
X19286D1*
X15050Y-16423D2*
X22161D1*
X15312Y-16672D2*
X22161D1*
X15570Y-16920D2*
X22161D1*
X15828Y-17169D2*
X22161D1*
X16089Y-17418D2*
X22161D1*
X16347Y-17666D2*
X22161D1*
X16605Y-17915D2*
X22161D1*
X16867Y-18164D2*
X22161D1*
X16898Y-18413D2*
X22161D1*
X16898Y-18661D2*
X22161D1*
X16898Y-18910D2*
X22161D1*
X16898Y-19159D2*
X22161D1*
X16898Y-19407D2*
X22161D1*
X16898Y-19656D2*
X22161D1*
X16898Y-19905D2*
X22161D1*
X16898Y-20153D2*
X22161D1*
X16898Y-20402D2*
X22161D1*
X14246Y-13697D2*
X13929Y-13690D1*
X13785Y-13687D1*
X13750Y-13812D1*
Y-15199D1*
X16837Y-18160D1*
X16874Y-18232D1*
X16875Y-20437D1*
X22187D1*
Y-16187D1*
X19372Y-16186D1*
X19291Y-16155D1*
X17282Y-14329D1*
X16184D1*
X16059Y-14311D1*
X15974Y-14276D1*
X15402Y-13704D1*
X14309D1*
X14246Y-13698D1*
X12150Y-11999D2*
X13016D1*
X12150Y-12247D2*
X13129D1*
X12150Y-12496D2*
X14133D1*
X12150Y-12745D2*
X13664D1*
X12150Y-12993D2*
X13211D1*
X12150Y-13242D2*
X13137D1*
X12150Y-13491D2*
X13204D1*
X12150Y-13740D2*
X13289D1*
X12150Y-13988D2*
X13289D1*
X12402Y-14237D2*
X13289D1*
X13125Y-14486D2*
X13289D1*
X13148Y-14734D2*
X13286D1*
X13148Y-14983D2*
X13286D1*
X13148Y-15232D2*
X13286D1*
X13148Y-15480D2*
X13340D1*
X13148Y-15729D2*
X13606D1*
X13226Y-15978D2*
X13871D1*
X13445Y-16226D2*
X14137D1*
X13664Y-16475D2*
X14403D1*
X13882Y-16724D2*
X14668D1*
X14101Y-16972D2*
X14930D1*
X14320Y-17221D2*
X15196D1*
X14523Y-17470D2*
X15461D1*
X14523Y-17719D2*
X15727D1*
X14523Y-17967D2*
X15993D1*
X14523Y-18216D2*
X16254D1*
X14523Y-18465D2*
X16352D1*
X14523Y-18713D2*
X16352D1*
X14523Y-18962D2*
X16352D1*
X14523Y-19211D2*
X16352D1*
X14523Y-19459D2*
X16352D1*
X14523Y-19708D2*
X16352D1*
X14687Y-19957D2*
X16352D1*
X15000Y-20205D2*
X16352D1*
X13608Y-12389D2*
X13480Y-12402D1*
X13358Y-12380D1*
X13245Y-12326D1*
X13151Y-12245D1*
X13082Y-12141D1*
X13043Y-12023D1*
X13037Y-11898D1*
X13077Y-11752D1*
X12125Y-11750D1*
Y-14160D1*
X12697Y-14337D1*
X12823Y-14338D1*
X12939Y-14364D1*
X13037Y-14443D1*
X13120Y-14533D1*
X13125Y-14687D1*
Y-15887D1*
X14415Y-17356D1*
X14470Y-17421D1*
X14500Y-17500D1*
Y-19768D1*
X14825Y-20145D1*
X15086Y-20250D1*
X16375D1*
Y-18301D1*
X15139Y-17143D1*
X13351Y-15463D1*
X13312Y-15375D1*
X13314Y-13622D1*
X13207Y-13453D1*
X13168Y-13335D1*
X13162Y-13211D1*
X13189Y-13089D1*
X13247Y-12979D1*
X13333Y-12888D1*
X13439Y-12824D1*
X13559Y-12790D1*
X13688D1*
X13699Y-12760D1*
X13795Y-12689D1*
X13895Y-12688D1*
X13993Y-12668D1*
X14215D1*
X14139Y-12437D1*
X13929Y-12430D1*
X13813Y-12412D1*
X13653Y-12403D1*
X12484Y-14999D2*
X12664D1*
X12484Y-15247D2*
X12664D1*
X12462Y-15496D2*
X12664D1*
X12462Y-15745D2*
X12664D1*
X12462Y-15993D2*
X12664D1*
X12462Y-16242D2*
X12832D1*
X12462Y-16491D2*
X13051D1*
X12462Y-16739D2*
X13270D1*
X12462Y-16988D2*
X13489D1*
X12462Y-17237D2*
X13711D1*
X12462Y-17486D2*
X13930D1*
X12462Y-17734D2*
X14039D1*
X12462Y-17983D2*
X14039D1*
X12462Y-18232D2*
X14039D1*
X12462Y-18480D2*
X14039D1*
X12462Y-18729D2*
X14039D1*
X12462Y-18978D2*
X14039D1*
X12462Y-19226D2*
X14039D1*
X12462Y-19475D2*
X14028D1*
X12462Y-19724D2*
X13965D1*
X12535Y-19972D2*
X13977D1*
X12632Y-20221D2*
X14039D1*
X12730Y-20470D2*
X14254D1*
X12828Y-20718D2*
X14641D1*
X12921Y-20967D2*
X21477D1*
X13019Y-21216D2*
X21477D1*
X13117Y-21465D2*
X21477D1*
X13214Y-21713D2*
X21477D1*
X13312Y-21962D2*
X21477D1*
X13410Y-22211D2*
X21477D1*
X13507Y-22459D2*
X21477D1*
X14524Y-20624D2*
X14410Y-20566D1*
X14260Y-20448D1*
X14118Y-20354D1*
X14064Y-20245D1*
X14063Y-20168D1*
X14029Y-20086D1*
X13999Y-19965D1*
X13986Y-19841D1*
X13991Y-19716D1*
X14013Y-19593D1*
X14064Y-19450D1*
X14063Y-17611D1*
X12718Y-16079D1*
X12687Y-16000D1*
Y-14750D1*
X12457D1*
Y-15246D1*
X12437Y-15437D1*
X12436Y-18066D1*
X12437Y-19793D1*
X13523Y-22563D1*
X17340Y-22562D1*
X17434Y-22540D1*
X17559Y-22539D1*
X17645Y-22562D1*
X19840D1*
X19934Y-22540D1*
X20059Y-22539D1*
X20145Y-22562D1*
X21500D1*
Y-20875D1*
X14934Y-20873D1*
X14868Y-20854D1*
X14520Y-20622D1*
X14605Y-3374D2*
X15850D1*
X14375Y-3622D2*
X15850D1*
X14312Y-3871D2*
X15850D1*
X14254Y-4120D2*
X15850D1*
X14191Y-4368D2*
X15850D1*
X14132Y-4617D2*
X15850D1*
X14070Y-4866D2*
X15850D1*
X14011Y-5115D2*
X15850D1*
X13949Y-5363D2*
X15850D1*
X13890Y-5612D2*
X15850D1*
X13828Y-5861D2*
X15850D1*
X13765Y-6109D2*
X15750D1*
X13707Y-6358D2*
X15504D1*
X13644Y-6607D2*
X15254D1*
X13586Y-6855D2*
X15004D1*
X13523Y-7104D2*
X14758D1*
X13464Y-7353D2*
X14508D1*
X13402Y-7601D2*
X14258D1*
X13343Y-7850D2*
X14012D1*
X13281Y-8099D2*
X13762D1*
X13222Y-8347D2*
X13485D1*
X13160Y-8596D2*
X13286D1*
X13129Y-8845D2*
X13293D1*
X13113Y-9094D2*
X13293D1*
X13093Y-9342D2*
X13309D1*
X12445Y-9591D2*
X13317D1*
X12238Y-9840D2*
X13325D1*
X12150Y-10088D2*
X13332D1*
X12150Y-10337D2*
X13235D1*
X12150Y-10586D2*
X13137D1*
X12150Y-10834D2*
X13184D1*
X12150Y-11083D2*
X13520D1*
X12150Y-11332D2*
X14340D1*
X12150Y-11580D2*
X13176D1*
X13162Y-11624D2*
X13208Y-11576D1*
X13314Y-11511D1*
X13434Y-11477D1*
X13559Y-11476D1*
X13679Y-11509D1*
X13757Y-11554D1*
X13806Y-11485D1*
X13912Y-11420D1*
X13993Y-11408D1*
X14536D1*
X14008Y-11177D1*
X13872Y-11149D1*
X13777Y-11064D1*
X13729Y-11078D1*
X13605Y-11090D1*
X13483Y-11068D1*
X13370Y-11014D1*
X13276Y-10932D1*
X13207Y-10828D1*
X13168Y-10710D1*
X13162Y-10586D1*
X13189Y-10464D1*
X13247Y-10354D1*
X13333Y-10263D1*
X13363Y-10245D1*
X13333Y-9329D1*
X13318Y-9243D1*
X13314Y-8625D1*
X13325Y-8539D1*
X13379Y-8433D1*
X13477Y-8360D1*
X13427Y-8388D1*
X13545Y-8341D1*
X15876Y-6010D1*
X15875Y-4187D1*
Y-3125D1*
X14861D1*
X14361Y-3568D1*
X13123Y-8648D1*
X13087Y-9007D1*
X13088Y-9243D1*
X13059Y-9363D1*
X12978Y-9457D1*
X12860Y-9504D1*
X12639Y-9507D1*
X12197Y-9681D1*
X12215Y-9812D1*
X12198Y-9936D1*
X12149Y-10051D1*
X12123Y-10084D1*
X12125Y-11500D1*
Y-11625D1*
X13152D1*
X16398Y-3374D2*
X21668D1*
X16398Y-3622D2*
X21672D1*
X16398Y-3871D2*
X21676D1*
X16398Y-4120D2*
X21676D1*
X16398Y-4368D2*
X21680D1*
X16398Y-4617D2*
X21684D1*
X16398Y-4866D2*
X21688D1*
X16398Y-5115D2*
X21692D1*
X16398Y-5363D2*
X21696D1*
X16398Y-5612D2*
X21700D1*
X16398Y-5861D2*
X21704D1*
X16343Y-6109D2*
X21707D1*
X16093Y-6358D2*
X21707D1*
X15843Y-6607D2*
X21711D1*
X15597Y-6855D2*
X21715D1*
X15347Y-7104D2*
X21719D1*
X15097Y-7353D2*
X21723D1*
X14851Y-7601D2*
X19696D1*
X14601Y-7850D2*
X19450D1*
X14351Y-8099D2*
X19200D1*
X14105Y-8347D2*
X18950D1*
X13855Y-8596D2*
X18704D1*
X13775Y-8845D2*
X18454D1*
X13775Y-9094D2*
X18204D1*
X13775Y-9342D2*
X17957D1*
X13775Y-9591D2*
X17707D1*
X13775Y-9840D2*
X15270D1*
X13775Y-10088D2*
X15024D1*
X16250Y-6177D2*
X13750Y-8677D1*
Y-10125D1*
X15010D1*
X15415Y-9723D1*
X15500Y-9687D1*
X17635D1*
X19915Y-7411D1*
X20000Y-7375D1*
X21746D1*
X21703Y-4127D1*
X21688Y-3125D1*
X16375D1*
X16373Y-6003D1*
X16338Y-6088D1*
X16250Y-6177D1*
X12820Y-1561D2*
X21227D1*
X12718Y-1810D2*
X21227D1*
X12617Y-2059D2*
X21227D1*
X12519Y-2307D2*
X21227D1*
X12418Y-2556D2*
X21227D1*
X12316Y-2805D2*
X14161D1*
X12394Y-3053D2*
X14094D1*
X12394Y-3302D2*
X14020D1*
X12394Y-3551D2*
X13965D1*
X12394Y-3799D2*
X13903D1*
X12394Y-4048D2*
X13836D1*
X12394Y-4297D2*
X13770D1*
X12394Y-4545D2*
X13707D1*
X12394Y-4794D2*
X13641D1*
X12394Y-5043D2*
X13575D1*
X12150Y-5291D2*
X13512D1*
X12150Y-5540D2*
X13446D1*
X12150Y-5789D2*
X13383D1*
X12150Y-6038D2*
X13317D1*
X12150Y-6286D2*
X13250D1*
X12150Y-6535D2*
X13188D1*
X12150Y-6784D2*
X13121D1*
X12150Y-7032D2*
X13059D1*
X12207Y-7281D2*
X12993D1*
X12300Y-7530D2*
X12926D1*
X12449Y-7778D2*
X12864D1*
X12457Y-8027D2*
X12797D1*
X12457Y-8276D2*
X12735D1*
X12472Y-8524D2*
X12668D1*
X12484Y-8773D2*
X12661D1*
X12484Y-9022D2*
X12661D1*
X13990Y-3553D2*
X14013Y-3403D1*
X14071Y-3246D1*
X14192Y-2781D1*
X14277Y-2694D1*
X14312Y-2687D1*
X21250D1*
Y-1312D1*
X12895D1*
X12218Y-2983D1*
X12371D1*
Y-5285D1*
X12125D1*
Y-7215D1*
X12186Y-7286D1*
X12246Y-7395D1*
X12277Y-7561D1*
X12336Y-7619D1*
X12406Y-7722D1*
X12433Y-7853D1*
Y-8489D1*
X12458Y-8602D1*
Y-9122D1*
X12687Y-9125D1*
X12692Y-8531D1*
X13988Y-3561D1*
X400Y-686D2*
X11606D1*
X400Y-935D2*
X4774D1*
X6101D2*
X7020D1*
X7855D2*
X11610D1*
X400Y-1184D2*
X4774D1*
X6101D2*
X6825D1*
X8050D2*
X11610D1*
X400Y-1432D2*
X4774D1*
X6101D2*
X6774D1*
X8101D2*
X11614D1*
X400Y-1681D2*
X4774D1*
X6101D2*
X6821D1*
X8054D2*
X11215D1*
X400Y-1930D2*
X4774D1*
X6101D2*
X7004D1*
X7871D2*
X11000D1*
X400Y-2178D2*
X10961D1*
X400Y-2427D2*
X11059D1*
X400Y-2676D2*
X11633D1*
X400Y-2924D2*
X11633D1*
X400Y-3173D2*
X11637D1*
X400Y-3422D2*
X2129D1*
X3496D2*
X11641D1*
X400Y-3670D2*
X2129D1*
X3496D2*
X4836D1*
X5414D2*
X7211D1*
X7789D2*
X11645D1*
X400Y-3919D2*
X2129D1*
X3496D2*
X4618D1*
X5632D2*
X6993D1*
X8609D2*
X11649D1*
X400Y-4168D2*
X2129D1*
X3496D2*
X4579D1*
X5671D2*
X6954D1*
X8859D2*
X11653D1*
X400Y-4417D2*
X2129D1*
X3496D2*
X4664D1*
X5586D2*
X7039D1*
X9109D2*
X11657D1*
X400Y-4665D2*
X2129D1*
X3496D2*
X8223D1*
X9980D2*
X11657D1*
X400Y-4914D2*
X2129D1*
X3496D2*
X8473D1*
X10230D2*
X11661D1*
X400Y-5163D2*
X8610D1*
X10480D2*
X11664D1*
X400Y-5411D2*
X9594D1*
X400Y-5660D2*
X9844D1*
X400Y-5909D2*
X10000D1*
X400Y-6157D2*
X10000D1*
X400Y-6406D2*
X8231D1*
X9394D2*
X10055D1*
X400Y-6655D2*
X8200D1*
X9425D2*
X10039D1*
X400Y-6903D2*
X8200D1*
X8652D2*
X8973D1*
X9425D2*
X10039D1*
X10488D2*
X10829D1*
X400Y-7152D2*
X8200D1*
X9425D2*
X10039D1*
X400Y-7401D2*
X8200D1*
X9425D2*
X10094D1*
X400Y-7649D2*
X8200D1*
X9425D2*
X11020D1*
X400Y-7898D2*
X8200D1*
X9566D2*
X11047D1*
X400Y-8147D2*
X7942D1*
X9617D2*
X10895D1*
X400Y-8396D2*
X1368D1*
X2246D2*
X7723D1*
X9617D2*
X10907D1*
X400Y-8644D2*
X1239D1*
X2375D2*
X5426D1*
X6074D2*
X7086D1*
X7539D2*
X7699D1*
X9644D2*
X11094D1*
X400Y-8893D2*
X1243D1*
X2371D2*
X4430D1*
X9644D2*
X11094D1*
X400Y-9142D2*
X1411D1*
X2203D2*
X4180D1*
X9644D2*
X11094D1*
X400Y-9390D2*
X1371D1*
X2242D2*
X3930D1*
X4914D2*
X5473D1*
X6027D2*
X6399D1*
X9597D2*
X11137D1*
X400Y-9639D2*
X1239D1*
X2375D2*
X3684D1*
X4664D2*
X6649D1*
X8921D2*
X11715D1*
X400Y-9888D2*
X1243D1*
X2371D2*
X3434D1*
X4418D2*
X7457D1*
X9621D2*
X11629D1*
X400Y-10136D2*
X1407D1*
X2207D2*
X3274D1*
X4168D2*
X7012D1*
X9730D2*
X11602D1*
X400Y-10385D2*
X1375D1*
X2238D2*
X3270D1*
X3980D2*
X6496D1*
X9695D2*
X11602D1*
X400Y-10634D2*
X1239D1*
X2375D2*
X3270D1*
X3980D2*
X4899D1*
X8918D2*
X9075D1*
X9418D2*
X11602D1*
X400Y-10882D2*
X1239D1*
X2371D2*
X3270D1*
X3980D2*
X4895D1*
X5343D2*
X5688D1*
X8921D2*
X11602D1*
X400Y-11131D2*
X1399D1*
X2214D2*
X3270D1*
X3980D2*
X4895D1*
X5343D2*
X5688D1*
X8921D2*
X11602D1*
X400Y-11380D2*
X1383D1*
X2230D2*
X3270D1*
X3980D2*
X4895D1*
X8871D2*
X11602D1*
X400Y-11628D2*
X1239D1*
X2375D2*
X2950D1*
X4175D2*
X4879D1*
X8015D2*
X11602D1*
X400Y-11877D2*
X1239D1*
X2375D2*
X2950D1*
X9386D2*
X11602D1*
X400Y-12126D2*
X1395D1*
X2218D2*
X2950D1*
X9449D2*
X11602D1*
X400Y-12375D2*
X2950D1*
X6879D2*
X7016D1*
X9449D2*
X11602D1*
X400Y-12623D2*
X2887D1*
X4175D2*
X4895D1*
X6898D2*
X7129D1*
X9449D2*
X11602D1*
X400Y-12872D2*
X2637D1*
X4175D2*
X4895D1*
X5343D2*
X5688D1*
X6898D2*
X7016D1*
X9449D2*
X11602D1*
X400Y-13121D2*
X2516D1*
X4175D2*
X4895D1*
X5343D2*
X5688D1*
X6898D2*
X7047D1*
X9437D2*
X11602D1*
X400Y-13369D2*
X2516D1*
X3222D2*
X4895D1*
X6898D2*
X6989D1*
X9195D2*
X11602D1*
X400Y-13618D2*
X2395D1*
X4343D2*
X5325D1*
X6050D2*
X6950D1*
X8671D2*
X11602D1*
X400Y-13867D2*
X2141D1*
X8921D2*
X11602D1*
X400Y-14115D2*
X1922D1*
X8918D2*
X11633D1*
X400Y-14364D2*
X1895D1*
X10754D2*
X11243D1*
X400Y-14613D2*
X1895D1*
X10902D2*
X11096D1*
X400Y-14861D2*
X1895D1*
X3437D2*
X5161D1*
X5589D2*
X8524D1*
X10902D2*
X11096D1*
X400Y-15110D2*
X1895D1*
X3429D2*
X5098D1*
X5652D2*
X8274D1*
X10902D2*
X11096D1*
X400Y-15359D2*
X1895D1*
X10875D2*
X10968D1*
X400Y-15607D2*
X1895D1*
X400Y-15856D2*
X1895D1*
X3449D2*
X5051D1*
X5699D2*
X8215D1*
X400Y-16105D2*
X1895D1*
X3429D2*
X5024D1*
X5726D2*
X7965D1*
X400Y-16354D2*
X1895D1*
X400Y-16602D2*
X1895D1*
X10578D2*
X10922D1*
X400Y-16851D2*
X1895D1*
X10328D2*
X11805D1*
X400Y-17100D2*
X1895D1*
X10078D2*
X11805D1*
X400Y-17348D2*
X1895D1*
X3246D2*
X3493D1*
X4246D2*
X5446D1*
X6449D2*
X6829D1*
X9855D2*
X11805D1*
X400Y-17597D2*
X1895D1*
X2605D2*
X6000D1*
X6449D2*
X6829D1*
X9019D2*
X9145D1*
X9855D2*
X11809D1*
X400Y-17846D2*
X1895D1*
X2605D2*
X6000D1*
X8855D2*
X9145D1*
X9855D2*
X11809D1*
X400Y-18094D2*
X1895D1*
X2605D2*
X5250D1*
X8855D2*
X9145D1*
X9855D2*
X11813D1*
X400Y-18343D2*
X1911D1*
X2836D2*
X5204D1*
X8855D2*
X9145D1*
X9855D2*
X11813D1*
X400Y-18592D2*
X2102D1*
X3586D2*
X5204D1*
X8855D2*
X9145D1*
X9855D2*
X11817D1*
X400Y-18840D2*
X2348D1*
X3586D2*
X5204D1*
X8855D2*
X9145D1*
X9855D2*
X11817D1*
X400Y-19089D2*
X2414D1*
X3586D2*
X5204D1*
X8843D2*
X9145D1*
X9855D2*
X11817D1*
X400Y-19338D2*
X2414D1*
X3586D2*
X5204D1*
X8652D2*
X9145D1*
X9855D2*
X11821D1*
X400Y-19586D2*
X2414D1*
X3586D2*
X5204D1*
X8578D2*
X9145D1*
X9855D2*
X11821D1*
X400Y-19835D2*
X2414D1*
X3586D2*
X5211D1*
X6418D2*
X6524D1*
X9855D2*
X11825D1*
X400Y-20084D2*
X2414D1*
X3586D2*
X6602D1*
X7398D2*
X7602D1*
X9843D2*
X11825D1*
X400Y-20333D2*
X2414D1*
X3586D2*
X6442D1*
X8660D2*
X11829D1*
X400Y-20581D2*
X6422D1*
X8578D2*
X11829D1*
X400Y-20830D2*
X6524D1*
X8476D2*
X11829D1*
X400Y-21079D2*
X7500D1*
X9500D2*
X11832D1*
X400Y-21327D2*
X7496D1*
X8671D2*
X9051D1*
X9500D2*
X11832D1*
X400Y-21576D2*
X7496D1*
X8671D2*
X9051D1*
X9500D2*
X11836D1*
X400Y-21825D2*
X7496D1*
X9500D2*
X11297D1*
X400Y-22073D2*
X7625D1*
X9375D2*
X11161D1*
X400Y-22322D2*
X11164D1*
X400Y-22571D2*
X11317D1*
X400Y-22819D2*
X11844D1*
X400Y-23068D2*
X11844D1*
X400Y-23317D2*
X11848D1*
X400Y-23565D2*
X11848D1*
X5635Y-4249D2*
X5592Y-4366D1*
X5522Y-4469D1*
X5429Y-4553D1*
X5320Y-4613D1*
X5199Y-4645D1*
X5075Y-4648D1*
X4953Y-4621D1*
X4841Y-4566D1*
X4745Y-4487D1*
X4670Y-4387D1*
X4621Y-4272D1*
X4601Y-4149D1*
X4610Y-4025D1*
X4648Y-3906D1*
X4713Y-3800D1*
X4801Y-3712D1*
X4908Y-3647D1*
X5027Y-3610D1*
X5151Y-3601D1*
X5274Y-3622D1*
X5389Y-3671D1*
X5488Y-3746D1*
X5567Y-3843D1*
X5622Y-3955D1*
X5650Y-4125D1*
X5635Y-4249D1*
X7853Y-4508D2*
X7804Y-4553D1*
X7695Y-4613D1*
X7574Y-4645D1*
X7449Y-4648D1*
X7328Y-4621D1*
X7215Y-4566D1*
X7119Y-4487D1*
X7045Y-4387D1*
X6996Y-4272D1*
X6975Y-4149D1*
X6985Y-4025D1*
X7023Y-3906D1*
X7088Y-3800D1*
X7176Y-3712D1*
X7283Y-3647D1*
X7402Y-3610D1*
X7526Y-3601D1*
X7649Y-3622D1*
X7764Y-3671D1*
X7860Y-3744D1*
X8250Y-3742D1*
X8373Y-3762D1*
X8485Y-3824D1*
X8698Y-4031D1*
X9087Y-4421D1*
X9179Y-4446D1*
X9257Y-4491D1*
X9625Y-4492D1*
X9748Y-4512D1*
X9860Y-4574D1*
X10073Y-4781D1*
X10457Y-5165D1*
X11689Y-5163D1*
X11656Y-2616D1*
X11559Y-2636D1*
X11434Y-2635D1*
X11313Y-2605D1*
X11203Y-2546D1*
X11111Y-2462D1*
X11041Y-2358D1*
X10998Y-2241D1*
X10985Y-2117D1*
X11002Y-1994D1*
X11048Y-1878D1*
X11120Y-1777D1*
X11215Y-1696D1*
X11327Y-1640D1*
X11448Y-1612D1*
X11573Y-1615D1*
X11645Y-1634D1*
X11627Y-436D1*
X5625Y-438D1*
X375D1*
Y-23625D1*
X11871D1*
X11867Y-22670D1*
X11746Y-22699D1*
X11622Y-22698D1*
X11501Y-22667D1*
X11391Y-22608D1*
X11298Y-22525D1*
X11229Y-22421D1*
X11186Y-22304D1*
X11173Y-22180D1*
X11190Y-22057D1*
X11236Y-21941D1*
X11308Y-21839D1*
X11403Y-21758D1*
X11514Y-21703D1*
X11636Y-21675D1*
X11761Y-21678D1*
X11862Y-21705D1*
X11828Y-16763D1*
X11683Y-16701D1*
X11589Y-16620D1*
X11569Y-16591D1*
X11471Y-16659D1*
X11354Y-16703D1*
X11230Y-16715D1*
X11108Y-16693D1*
X10995Y-16639D1*
X10901Y-16557D1*
X10832Y-16453D1*
X10794Y-16339D1*
X10733Y-16421D1*
X9830Y-17324D1*
Y-20000D1*
X9807Y-20122D1*
X9740Y-20227D1*
X9639Y-20299D1*
X9500Y-20330D1*
X8637D1*
X8554Y-20413D1*
X8560Y-20500D1*
X8546Y-20624D1*
X8505Y-20742D1*
X8439Y-20848D1*
X8376Y-20911D1*
X9276Y-20913D1*
X9393Y-20951D1*
X9466Y-21054D1*
X9476Y-21113D1*
Y-21887D1*
X9438Y-22004D1*
X9335Y-22077D1*
X9276Y-22087D1*
X7722D1*
X7605Y-22049D1*
X7533Y-21946D1*
X7522Y-21887D1*
Y-21113D1*
X7563Y-20994D1*
X7606Y-20951D1*
X7567Y-20855D1*
X7501Y-20754D1*
X7439Y-20848D1*
X7351Y-20936D1*
X7246Y-21003D1*
X7129Y-21045D1*
X7005Y-21060D1*
X6881Y-21047D1*
X6763Y-21007D1*
X6656Y-20942D1*
X6567Y-20855D1*
X6499Y-20751D1*
X6456Y-20634D1*
X6440Y-20510D1*
X6452Y-20386D1*
X6490Y-20267D1*
X6555Y-20160D1*
X6641Y-20070D1*
X6749Y-20000D1*
X6656Y-19942D1*
X6552Y-19832D1*
X6395Y-19830D1*
X6320Y-19937D1*
X6200Y-19977D1*
X5426D1*
X5309Y-19939D1*
X5237Y-19836D1*
X5227Y-19777D1*
Y-18223D1*
X5264Y-18106D1*
X5367Y-18033D1*
X5426Y-18023D1*
X6079D1*
X6064Y-18007D1*
X6024Y-17887D1*
Y-17266D1*
X5908Y-17347D1*
X5792Y-17391D1*
X5668Y-17402D1*
X5545Y-17380D1*
X5433Y-17326D1*
X5365Y-17268D1*
X4301Y-17267D1*
X4171Y-17400D1*
X4065Y-17464D1*
X3984Y-17477D1*
X3754D1*
X3633Y-17448D1*
X3567Y-17400D1*
X3402Y-17233D1*
X3334Y-17237D1*
X3171Y-17400D1*
X3065Y-17464D1*
X2984Y-17477D1*
X2754D1*
X2631Y-17446D1*
X2580Y-17500D1*
Y-18113D1*
X2906Y-18439D1*
X3560Y-18440D1*
X3556Y-19560D1*
X3560Y-19815D1*
Y-20560D1*
X2440D1*
X2444Y-19440D1*
X2440Y-19185D1*
Y-18908D1*
X2017Y-18483D1*
X1947Y-18380D1*
X1920Y-18250D1*
Y-14250D1*
X1943Y-14128D1*
X2017Y-14017D1*
X2542Y-13496D1*
X2539Y-13131D1*
X2563Y-13009D1*
X2636Y-12897D1*
X2976Y-12558D1*
Y-11599D1*
X3013Y-11482D1*
X3116Y-11409D1*
X3175Y-11399D1*
X3297D1*
X3295Y-10188D1*
X3318Y-10065D1*
X3392Y-9954D1*
X4579Y-8767D1*
X4682Y-8697D1*
X4813Y-8670D1*
X5426D1*
X5458Y-8638D1*
X5564Y-8574D1*
X5684Y-8540D1*
X5809Y-8539D1*
X5929Y-8571D1*
X6037Y-8634D1*
X6072Y-8670D1*
X6500D1*
X6622Y-8693D1*
X6733Y-8767D1*
X6876Y-8902D1*
X6935Y-8791D1*
X7020Y-8701D1*
X7127Y-8636D1*
X7247Y-8602D1*
X7371Y-8601D1*
X7492Y-8634D1*
X7599Y-8697D1*
X7635Y-8733D1*
X7691D1*
X7725Y-8644D1*
X7719Y-8520D1*
X7746Y-8398D1*
X7805Y-8288D1*
X7890Y-8197D1*
X7997Y-8133D1*
X8117Y-8099D1*
X8229Y-8098D1*
X8226Y-7817D1*
Y-6514D1*
X8263Y-6397D1*
X8366Y-6324D1*
X8425Y-6314D1*
X9200D1*
X9317Y-6351D1*
X9389Y-6454D1*
X9399Y-6514D1*
Y-7745D1*
X9496Y-7842D1*
X9566Y-7945D1*
X9593Y-8075D1*
Y-8493D1*
X9618Y-8602D1*
Y-9242D1*
X9589Y-9363D1*
X9508Y-9457D1*
X9390Y-9504D1*
X9169Y-9507D1*
X8898D1*
Y-9861D1*
X9059Y-9766D1*
X9179Y-9732D1*
X9304Y-9731D1*
X9424Y-9764D1*
X9532Y-9827D1*
X9619Y-9916D1*
X9679Y-10025D1*
X9710Y-10192D1*
X9693Y-10316D1*
X9644Y-10431D1*
X9567Y-10528D1*
X9466Y-10601D1*
X9349Y-10645D1*
X9225Y-10657D1*
X9103Y-10635D1*
X8990Y-10581D1*
X8923Y-10523D1*
X8898Y-10532D1*
X8897Y-10916D1*
X8898Y-11222D1*
X8871Y-11338D1*
X8796Y-11431D1*
X8685Y-11481D1*
X8633Y-11487D1*
X7989Y-11486D1*
X7813Y-11462D1*
X6871D1*
X6863Y-11513D1*
X6833Y-11569D1*
X6875Y-11608D1*
X7875D1*
X7997Y-11631D1*
X8108Y-11704D1*
X8133Y-11729D1*
X8438Y-11719D1*
X9062D1*
X9185Y-11740D1*
X9293Y-11802D1*
X9374Y-11896D1*
X9419Y-12016D1*
X9426Y-12207D1*
Y-13022D1*
X9405Y-13145D1*
X9343Y-13253D1*
X9249Y-13334D1*
X9129Y-13379D1*
X8937Y-13386D1*
X8313D1*
X8263Y-13377D1*
X8090D1*
X7904Y-13562D1*
X7912Y-13630D1*
X7993Y-13618D1*
X8633D1*
X8753Y-13646D1*
X8847Y-13727D1*
X8894Y-13845D1*
X8897Y-14066D1*
X8898Y-14337D1*
X9353Y-14338D1*
X9676D1*
X9986D1*
X10306D1*
X10613D1*
X10729Y-14364D1*
X10821Y-14439D1*
X10872Y-14550D1*
X10878Y-14602D1*
Y-15242D1*
X10846Y-15366D1*
X10868Y-15309D1*
X10992Y-15356D1*
X11119Y-15227D1*
X11118Y-14602D1*
X11147Y-14482D1*
X11227Y-14388D1*
X11345Y-14341D1*
X11566Y-14338D1*
X11741D1*
X11626Y-14018D1*
X11625Y-10000D1*
X11631Y-9960D1*
X11749Y-9608D1*
X11689Y-9507D1*
X11383D1*
X11267Y-9481D1*
X11174Y-9406D1*
X11124Y-9294D1*
X11118Y-9242D1*
Y-8637D1*
X11026Y-8557D1*
X10957Y-8453D1*
X10918Y-8335D1*
X10912Y-8211D1*
X10939Y-8089D1*
X10997Y-7979D1*
X11083Y-7888D1*
X11139Y-7854D1*
X11084Y-7780D1*
X11047Y-7661D1*
X11045Y-7465D1*
X10263Y-7462D1*
X10146Y-7424D1*
X10074Y-7321D1*
X10063Y-7262D1*
Y-6488D1*
X10104Y-6369D1*
X10147Y-6326D1*
X10107Y-6299D1*
X10034Y-6196D1*
X10024Y-6137D1*
Y-5813D1*
X9464Y-5256D1*
X9262Y-5258D1*
X9221Y-5284D1*
X9104Y-5328D1*
X8980Y-5340D1*
X8858Y-5318D1*
X8745Y-5264D1*
X8651Y-5182D1*
X8582Y-5078D1*
X8543Y-4956D1*
X8091Y-4508D1*
X7856D1*
X8623Y-7104D2*
X8998D1*
X9000Y-6712D1*
X8625Y-6714D1*
Y-7103D1*
X5711Y-11252D2*
Y-10877D1*
X5319Y-10876D1*
X5320Y-11250D1*
X5710D1*
X10854Y-7065D2*
Y-6690D1*
X10461Y-6688D1*
X10463Y-7062D1*
X10853D1*
X5711Y-13190D2*
Y-12815D1*
X5318Y-12813D1*
X5320Y-13187D1*
X5710D1*
X8546Y-19624D2*
X8530Y-19672D1*
X9168Y-19670D1*
X9170Y-17625D1*
Y-17418D1*
X8830Y-17762D1*
Y-19000D1*
X8807Y-19122D1*
X8733Y-19233D1*
X8554Y-19413D1*
X8560Y-19500D1*
X8546Y-19624D1*
X7746Y-19997D2*
X7656Y-19942D1*
X7567Y-19855D1*
X7501Y-19754D1*
X7439Y-19848D1*
X7351Y-19936D1*
X7250Y-20001D1*
X7336Y-20052D1*
X7427Y-20137D1*
X7501Y-20251D1*
X7555Y-20160D1*
X7641Y-20070D1*
X7749Y-20000D1*
X6854Y-17686D2*
Y-17311D1*
X6422Y-17313D1*
X6424Y-17687D1*
X6853D1*
X8646Y-21314D2*
Y-21689D1*
X9078Y-21687D1*
X9076Y-21313D1*
X8647D1*
X4924Y-799D2*
X6076D1*
Y-2076D1*
X4799D1*
Y-799D1*
X4924D1*
X8064Y-1562D2*
X8028Y-1681D1*
X7970Y-1791D1*
X7891Y-1888D1*
X7794Y-1967D1*
X7685Y-2027D1*
X7565Y-2064D1*
X7441Y-2076D1*
X7317Y-2065D1*
X7197Y-2030D1*
X7087Y-1972D1*
X6990Y-1893D1*
X6910Y-1797D1*
X6850Y-1688D1*
X6812Y-1569D1*
X6799Y-1445D1*
X6809Y-1320D1*
X6844Y-1201D1*
X6901Y-1090D1*
X6979Y-992D1*
X7075Y-912D1*
X7184Y-851D1*
X7303Y-813D1*
X7427Y-799D1*
X7551Y-809D1*
X7671Y-843D1*
X7782Y-900D1*
X7880Y-977D1*
X7961Y-1072D1*
X8022Y-1180D1*
X8061Y-1299D1*
X8076Y-1438D1*
X8064Y-1562D1*
X8597Y-14637D2*
X8158Y-14642D1*
X7575D1*
X7449Y-14738D1*
X7349Y-14765D1*
X5699Y-14767D1*
X5596Y-14847D1*
X5479Y-14891D1*
X5355Y-14902D1*
X5233Y-14880D1*
X5120Y-14826D1*
X5053Y-14768D1*
X3504Y-14767D1*
X3410Y-14861D1*
Y-15054D1*
X3438Y-15170D1*
X5051D1*
X5083Y-15138D1*
X5189Y-15074D1*
X5309Y-15040D1*
X5434Y-15039D1*
X5554Y-15071D1*
X5662Y-15134D1*
X5697Y-15170D1*
X8238D1*
X8598Y-14811D1*
Y-14637D1*
X2279Y-3332D2*
X3471D1*
Y-5043D1*
X2154D1*
Y-3332D1*
X2279D1*
X2182Y-9137D2*
X2109Y-9209D1*
X2108Y-9282D1*
X2271Y-9444D1*
X2336Y-9551D1*
X2348Y-9632D1*
Y-9861D1*
X2319Y-9982D1*
X2271Y-10049D1*
X2109Y-10209D1*
X2108Y-10282D1*
X2271Y-10444D1*
X2336Y-10551D1*
X2348Y-10632D1*
Y-10861D1*
X2319Y-10982D1*
X2271Y-11049D1*
X2109Y-11209D1*
X2108Y-11282D1*
X2271Y-11444D1*
X2336Y-11551D1*
X2348Y-11632D1*
Y-11861D1*
X2319Y-11982D1*
X2271Y-12049D1*
X2108Y-12211D1*
X2002Y-12276D1*
X1921Y-12289D1*
X1691D1*
X1570Y-12259D1*
X1504Y-12211D1*
X1342Y-12049D1*
X1277Y-11942D1*
X1264Y-11861D1*
Y-11632D1*
X1294Y-11511D1*
X1342Y-11444D1*
X1508Y-11279D1*
X1504Y-11211D1*
X1342Y-11049D1*
X1277Y-10942D1*
X1264Y-10861D1*
Y-10632D1*
X1294Y-10511D1*
X1342Y-10444D1*
X1508Y-10279D1*
X1504Y-10211D1*
X1342Y-10049D1*
X1277Y-9942D1*
X1264Y-9861D1*
Y-9632D1*
X1294Y-9511D1*
X1342Y-9444D1*
X1508Y-9279D1*
X1504Y-9211D1*
X1342Y-9049D1*
X1277Y-8942D1*
X1264Y-8861D1*
Y-8632D1*
X1294Y-8511D1*
X1342Y-8444D1*
X1504Y-8282D1*
X1611Y-8217D1*
X1691Y-8204D1*
X1921D1*
X2042Y-8234D1*
X2108Y-8282D1*
X2271Y-8444D1*
X2336Y-8551D1*
X2348Y-8632D1*
Y-8861D1*
X2319Y-8982D1*
X2271Y-9049D1*
X2182Y-9137D1*
X3411Y-15871D2*
X3410Y-16054D1*
X3492Y-16108D1*
X5050D1*
X5083Y-16076D1*
X5189Y-16011D1*
X5309Y-15977D1*
X5434Y-15976D1*
X5554Y-16009D1*
X5662Y-16072D1*
X5697Y-16108D1*
X7988D1*
X8265Y-15831D1*
X5699Y-15830D1*
X5596Y-15909D1*
X5479Y-15953D1*
X5355Y-15965D1*
X5233Y-15943D1*
X5120Y-15889D1*
X5053Y-15830D1*
X3449D1*
X6995Y-10241D2*
X7060Y-10104D1*
X7145Y-10013D1*
X7252Y-9949D1*
X7372Y-9915D1*
X7515Y-9919D1*
X7362Y-9766D1*
X6938Y-9767D1*
X6815Y-9744D1*
X6704Y-9671D1*
X6364Y-9331D1*
X6074Y-9330D1*
X5971Y-9409D1*
X5854Y-9453D1*
X5730Y-9465D1*
X5608Y-9443D1*
X5495Y-9389D1*
X5428Y-9330D1*
X4949D1*
X3955Y-10324D1*
Y-11402D1*
X4009Y-11408D1*
X4110Y-11480D1*
X4149Y-11599D1*
Y-11736D1*
X4900Y-11733D1*
X4899Y-11675D1*
X4940Y-11556D1*
X4921Y-11450D1*
Y-10676D1*
X4958Y-10559D1*
X5061Y-10486D1*
X5120Y-10476D1*
X6460D1*
X6497Y-10416D1*
X6583Y-10326D1*
X6689Y-10261D1*
X6809Y-10227D1*
X6934Y-10226D1*
X6990Y-10241D1*
X7154Y-12622D2*
X7082Y-12516D1*
X7043Y-12398D1*
X7038Y-12269D1*
X6855Y-12267D1*
X6852Y-12453D1*
X6874Y-12613D1*
Y-13387D1*
X6836Y-13504D1*
X6733Y-13577D1*
X6674Y-13587D1*
X5990D1*
X6062Y-13643D1*
X6980D1*
X6974Y-13523D1*
X7001Y-13402D1*
X7060Y-13291D1*
X7127Y-13221D1*
X7082Y-13141D1*
X7043Y-13023D1*
X7037Y-12898D1*
X7064Y-12776D1*
X7122Y-12666D1*
X7157Y-12630D1*
X3825Y-13353D2*
X3199D1*
X3202Y-13501D1*
X3336Y-13637D1*
X3405Y-13633D1*
X3567Y-13471D1*
X3674Y-13406D1*
X3754Y-13393D1*
X3984D1*
X4105Y-13422D1*
X4171Y-13471D1*
X4336Y-13637D1*
X4657Y-13643D1*
X5325D1*
X5299Y-13587D1*
X5120D1*
X5003Y-13549D1*
X4931Y-13446D1*
X4920Y-13387D1*
X4922Y-12609D1*
X4899Y-12450D1*
Y-12391D1*
X4146Y-12392D1*
X4149Y-13153D1*
X4112Y-13270D1*
X4009Y-13343D1*
X3985Y-13393D1*
X4105Y-13422D1*
X11754Y-19932D2*
X11844D1*
X11765Y-20181D2*
X11938D1*
X11773Y-20430D2*
X12036D1*
X11785Y-20678D2*
X12133D1*
X11793Y-20927D2*
X12231D1*
X11800Y-21176D2*
X12325D1*
X11812Y-21424D2*
X12422D1*
X11820Y-21673D2*
X12520D1*
X12152Y-21922D2*
X12618D1*
X12226Y-22170D2*
X12715D1*
X12171Y-22419D2*
X12813D1*
X11898Y-22668D2*
X12911D1*
X11867Y-22916D2*
X13008D1*
X11879Y-23165D2*
X22137D1*
X11886Y-23414D2*
X22121D1*
X12187Y-22311D2*
X12143Y-22428D1*
X12072Y-22530D1*
X11978Y-22613D1*
X11867Y-22670D1*
X11833Y-22678D1*
X11870Y-23628D1*
X12250Y-23625D1*
X22137D1*
X22150Y-23368D1*
X22179Y-22935D1*
X20312Y-22937D1*
X13125D1*
X13016Y-22874D1*
X11717Y-19551D1*
X11797Y-21685D1*
X11881Y-21710D1*
X11990Y-21771D1*
X12081Y-21856D1*
X12150Y-21960D1*
X12191Y-22078D1*
X12202Y-22188D1*
X12187Y-22311D1*
X11593Y-686D2*
X21848D1*
X11597Y-935D2*
X21848D1*
X11605Y-1184D2*
X12469D1*
X11609Y-1432D2*
X12360D1*
X11785Y-1681D2*
X12246D1*
X12000Y-1930D2*
X12133D1*
X11632Y-2676D2*
X11797D1*
X12000Y-2248D2*
X11955Y-2365D1*
X11884Y-2467D1*
X11791Y-2550D1*
X11680Y-2607D1*
X11608Y-2624D1*
X11611Y-2915D1*
X11703Y-2941D1*
X12574Y-1011D1*
X12670Y-939D1*
X21875Y-937D1*
Y-438D1*
X11566D1*
X11587Y-1619D1*
X11694Y-1648D1*
X11803Y-1708D1*
X11894Y-1793D1*
X11962Y-1897D1*
X12003Y-2015D1*
X12015Y-2125D1*
X12000Y-2248D1*
X2117Y-24561D2*
X37254D1*
X2246Y-24810D2*
X37121D1*
X2308Y-25059D2*
X3754D1*
X5121D2*
X16129D1*
X18086D2*
X18629D1*
X20586D2*
X20914D1*
X22086D2*
X22914D1*
X24086D2*
X24914D1*
X26086D2*
X26914D1*
X28086D2*
X28914D1*
X30086D2*
X30914D1*
X32086D2*
X32914D1*
X34086D2*
X34914D1*
X36086D2*
X37063D1*
X2312Y-25307D2*
X3754D1*
X5121D2*
X5836D1*
X7746D2*
X12434D1*
X15550D2*
X15950D1*
X18086D2*
X18270D1*
X20586D2*
X20914D1*
X22086D2*
X22454D1*
X24086D2*
X24914D1*
X26086D2*
X26914D1*
X28086D2*
X28914D1*
X30086D2*
X30914D1*
X32086D2*
X32914D1*
X34086D2*
X34914D1*
X36086D2*
X37059D1*
X2257Y-25556D2*
X3754D1*
X5121D2*
X5836D1*
X7898D2*
X8391D1*
X11086D2*
X12434D1*
X15550D2*
X15918D1*
X20586D2*
X20914D1*
X22086D2*
X22332D1*
X24086D2*
X24914D1*
X26086D2*
X26914D1*
X28086D2*
X28914D1*
X30086D2*
X30914D1*
X32086D2*
X32914D1*
X34086D2*
X34914D1*
X36086D2*
X37114D1*
X2136Y-25805D2*
X3754D1*
X5121D2*
X5836D1*
X7902D2*
X8387D1*
X11086D2*
X12434D1*
X15550D2*
X16004D1*
X22086D2*
X22332D1*
X24086D2*
X24704D1*
X26086D2*
X26704D1*
X28086D2*
X28704D1*
X30086D2*
X30704D1*
X32086D2*
X32704D1*
X34086D2*
X34704D1*
X36086D2*
X37235D1*
X1914Y-26053D2*
X3754D1*
X5121D2*
X5836D1*
X7761D2*
X8387D1*
X11086D2*
X12434D1*
X15550D2*
X16145D1*
X22086D2*
X22332D1*
X24086D2*
X24454D1*
X26086D2*
X26454D1*
X28086D2*
X28454D1*
X30086D2*
X30454D1*
X32086D2*
X32454D1*
X34086D2*
X34454D1*
X36086D2*
X37457D1*
X462Y-26302D2*
X1047D1*
X1311D2*
X3754D1*
X5121D2*
X6020D1*
X7543D2*
X8387D1*
X9613D2*
X9914D1*
X11086D2*
X12434D1*
X15550D2*
X16145D1*
X17855D2*
X18207D1*
X19941D2*
X20207D1*
X22050D2*
X22332D1*
X24050D2*
X24207D1*
X26050D2*
X26207D1*
X28050D2*
X28207D1*
X30050D2*
X30207D1*
X32050D2*
X32207D1*
X34050D2*
X34207D1*
X36050D2*
X38055D1*
X38319D2*
X38914D1*
X462Y-26551D2*
X3618D1*
X4781D2*
X5137D1*
X7793D2*
X8387D1*
X9613D2*
X10020D1*
X10980D2*
X12434D1*
X15550D2*
X16145D1*
X17855D2*
X18207D1*
X19691D2*
X19957D1*
X36082D2*
X38914D1*
X462Y-26799D2*
X3368D1*
X4535D2*
X5137D1*
X6730D2*
X7059D1*
X8043D2*
X8387D1*
X9613D2*
X9918D1*
X11082D2*
X12258D1*
X15761D2*
X16145D1*
X36000D2*
X38914D1*
X462Y-27048D2*
X3118D1*
X4285D2*
X5137D1*
X6711D2*
X7305D1*
X9613D2*
X9942D1*
X11164D2*
X12121D1*
X15793D2*
X16145D1*
X35640D2*
X38914D1*
X462Y-27297D2*
X2871D1*
X4035D2*
X5137D1*
X6363D2*
X7555D1*
X9550D2*
X10106D1*
X11414D2*
X12121D1*
X15976D2*
X16188D1*
X35195D2*
X38914D1*
X462Y-27545D2*
X2621D1*
X3789D2*
X5137D1*
X6363D2*
X7805D1*
X8789D2*
X10680D1*
X11664D2*
X12121D1*
X34945D2*
X38914D1*
X462Y-27794D2*
X2465D1*
X6363D2*
X8051D1*
X9156D2*
X10926D1*
X11910D2*
X12125D1*
X34699D2*
X38914D1*
X462Y-28043D2*
X1719D1*
X6363D2*
X8153D1*
X9238D2*
X11176D1*
X34449D2*
X38914D1*
X462Y-28292D2*
X1719D1*
X5418D2*
X7567D1*
X9179D2*
X11426D1*
X34199D2*
X38914D1*
X462Y-28540D2*
X1719D1*
X5418D2*
X7411D1*
X8855D2*
X11672D1*
X33953D2*
X38914D1*
X462Y-28789D2*
X1719D1*
X3285D2*
X3473D1*
X5449D2*
X7379D1*
X8605D2*
X11922D1*
X33703D2*
X38914D1*
X462Y-29038D2*
X1719D1*
X3285D2*
X3457D1*
X5461D2*
X7129D1*
X8652D2*
X10825D1*
X33453D2*
X38914D1*
X462Y-29286D2*
X1719D1*
X3285D2*
X3457D1*
X5461D2*
X6879D1*
X8902D2*
X10809D1*
X33207D2*
X38914D1*
X462Y-29535D2*
X1719D1*
X3296D2*
X3457D1*
X5461D2*
X6633D1*
X7796D2*
X8164D1*
X9148D2*
X10809D1*
X32957D2*
X38914D1*
X462Y-29784D2*
X1719D1*
X3296D2*
X3524D1*
X5398D2*
X6383D1*
X7550D2*
X8414D1*
X9398D2*
X10809D1*
X32707D2*
X38914D1*
X462Y-30032D2*
X2270D1*
X4734D2*
X6133D1*
X7300D2*
X8664D1*
X10488D2*
X10856D1*
X32461D2*
X38914D1*
X462Y-30281D2*
X2262D1*
X7050D2*
X8911D1*
X10488D2*
X10856D1*
X12222D2*
X12438D1*
X32211D2*
X38914D1*
X462Y-30530D2*
X2262D1*
X6804D2*
X9121D1*
X10488D2*
X10856D1*
X12222D2*
X12438D1*
X31961D2*
X38914D1*
X462Y-30778D2*
X2262D1*
X6554D2*
X9121D1*
X10488D2*
X10856D1*
X31714D2*
X38914D1*
X462Y-31027D2*
X2262D1*
X4738D2*
X9121D1*
X10488D2*
X10856D1*
X28019D2*
X38914D1*
X462Y-31276D2*
X2262D1*
X4738D2*
X9121D1*
X10488D2*
X10856D1*
X28265D2*
X38914D1*
X462Y-31524D2*
X2262D1*
X4738D2*
X9137D1*
X10504D2*
X10856D1*
X12222D2*
X12438D1*
X23820D2*
X24180D1*
X24820D2*
X25180D1*
X25820D2*
X27532D1*
X29086D2*
X38914D1*
X462Y-31773D2*
X2325D1*
X3425D2*
X3594D1*
X4656D2*
X9137D1*
X10504D2*
X10856D1*
X26039D2*
X27782D1*
X29086D2*
X38914D1*
X462Y-32022D2*
X9137D1*
X10504D2*
X10856D1*
X21011D2*
X21532D1*
X26086D2*
X27914D1*
X29086D2*
X38914D1*
X462Y-32271D2*
X9137D1*
X10504D2*
X10856D1*
X26015D2*
X27914D1*
X29086D2*
X38914D1*
X462Y-32519D2*
X9137D1*
X10504D2*
X10856D1*
X25734D2*
X27914D1*
X29086D2*
X38914D1*
X462Y-32768D2*
X11993D1*
X25222D2*
X38914D1*
X462Y-33017D2*
X11743D1*
X24976D2*
X38914D1*
X462Y-33265D2*
X11493D1*
X17855D2*
X18027D1*
X24726D2*
X38914D1*
X462Y-33514D2*
X11246D1*
X17855D2*
X18145D1*
X22004D2*
X24914D1*
X32086D2*
X38914D1*
X462Y-33763D2*
X10414D1*
X17855D2*
X18145D1*
X22254D2*
X24914D1*
X32086D2*
X38914D1*
X462Y-34011D2*
X10414D1*
X17855D2*
X18145D1*
X32086D2*
X38914D1*
X462Y-34260D2*
X10414D1*
X26086D2*
X26914D1*
X28086D2*
X28914D1*
X30086D2*
X30914D1*
X32086D2*
X38914D1*
X462Y-34509D2*
X10414D1*
X26086D2*
X26914D1*
X28086D2*
X28914D1*
X30086D2*
X30914D1*
X32086D2*
X38914D1*
X462Y-34757D2*
X10414D1*
X32031D2*
X38914D1*
X462Y-35006D2*
X10469D1*
X32086D2*
X38914D1*
X462Y-35255D2*
X10414D1*
X32023D2*
X38914D1*
X462Y-35503D2*
X10477D1*
X13488D2*
X15059D1*
X15441D2*
X15707D1*
X21355D2*
X21914D1*
X23086D2*
X24512D1*
X25785D2*
X27215D1*
X27785D2*
X29215D1*
X29785D2*
X31215D1*
X31785D2*
X38914D1*
X462Y-35752D2*
X10719D1*
X13238D2*
X14797D1*
X21492D2*
X21973D1*
X23027D2*
X24520D1*
X32027D2*
X38914D1*
X462Y-36001D2*
X10473D1*
X12988D2*
X14633D1*
X17043D2*
X17223D1*
X17777D2*
X18223D1*
X21742D2*
X22223D1*
X22777D2*
X24520D1*
X32086D2*
X38914D1*
X462Y-36250D2*
X10414D1*
X12586D2*
X13887D1*
X17488D2*
X18946D1*
X24300D2*
X24520D1*
X32027D2*
X38914D1*
X462Y-36498D2*
X10473D1*
X12527D2*
X13887D1*
X15121D2*
X15707D1*
X17488D2*
X19196D1*
X25781D2*
X27219D1*
X27781D2*
X29219D1*
X29781D2*
X31219D1*
X31781D2*
X38914D1*
X462Y-36747D2*
X10715D1*
X11285D2*
X11715D1*
X12285D2*
X13887D1*
X15113D2*
X15707D1*
X17488D2*
X18977D1*
X26023D2*
X26977D1*
X28023D2*
X28977D1*
X30023D2*
X30977D1*
X32023D2*
X38914D1*
X462Y-36996D2*
X10477D1*
X11523D2*
X13887D1*
X15113D2*
X15512D1*
X17488D2*
X18914D1*
X23086D2*
X24067D1*
X26086D2*
X26914D1*
X28086D2*
X28914D1*
X30086D2*
X30914D1*
X32086D2*
X38914D1*
X1789Y-37244D2*
X10414D1*
X11586D2*
X13887D1*
X15113D2*
X15263D1*
X17488D2*
X18969D1*
X24109D2*
X24317D1*
X28031D2*
X28766D1*
X30031D2*
X30704D1*
X32031D2*
X37579D1*
X2070Y-37493D2*
X10469D1*
X11531D2*
X13887D1*
X17488D2*
X19207D1*
X24359D2*
X24563D1*
X27855D2*
X28516D1*
X29793D2*
X30454D1*
X31793D2*
X37297D1*
X2222Y-37742D2*
X10707D1*
X11293D2*
X13887D1*
X17488D2*
X19938D1*
X24609D2*
X24813D1*
X27750D2*
X28266D1*
X29250D2*
X30204D1*
X31187D2*
X37149D1*
X2300Y-37990D2*
X13914D1*
X16500D2*
X19243D1*
X19757D2*
X20188D1*
X24855D2*
X28020D1*
X29000D2*
X29957D1*
X30937D2*
X37071D1*
X2316Y-38239D2*
X13914D1*
X16254D2*
X18981D1*
X23086D2*
X23684D1*
X28754D2*
X29707D1*
X30691D2*
X37055D1*
X2277Y-38488D2*
X13914D1*
X16086D2*
X18914D1*
X23086D2*
X23934D1*
X30441D2*
X37094D1*
X2171Y-38736D2*
X13914D1*
X16031D2*
X18969D1*
X23086D2*
X24184D1*
X30191D2*
X37200D1*
X7423Y-28769D2*
X7413Y-28712D1*
X7422Y-28587D1*
X7460Y-28469D1*
X7526Y-28362D1*
X7614Y-28274D1*
X7721Y-28210D1*
X7839Y-28172D1*
X7964Y-28163D1*
X8045Y-28177D1*
X8254Y-27967D1*
X6954Y-26671D1*
X6884Y-26568D1*
X6858Y-26438D1*
Y-26199D1*
X6706Y-26202D1*
X6705Y-26939D1*
X6682Y-27061D1*
X6615Y-27166D1*
X6514Y-27239D1*
X6375Y-27269D1*
X6340D1*
X6337Y-27912D1*
Y-28090D1*
X6299Y-28207D1*
X6196Y-28280D1*
X6137Y-28290D1*
X5391D1*
Y-28641D1*
X5381Y-28700D1*
X5436Y-28863D1*
Y-29637D1*
X5399Y-29754D1*
X5296Y-29827D1*
X5236Y-29837D1*
X3683D1*
X3566Y-29799D1*
X3493Y-29696D1*
X3483Y-29637D1*
X3484Y-28859D1*
X3494Y-28800D1*
X3449Y-28696D1*
X3331Y-28645D1*
X3256D1*
X3258Y-28794D1*
X3207D1*
X3201Y-28862D1*
X3242Y-28894D1*
X3258D1*
Y-29281D1*
X3270Y-29375D1*
Y-29879D1*
X3322Y-29885D1*
X3422Y-29956D1*
X3462Y-30076D1*
Y-30127D1*
X3535Y-30123D1*
X3538Y-30058D1*
X3576Y-29941D1*
X3679Y-29868D1*
X3738Y-29858D1*
X4512D1*
X4629Y-29896D1*
X4702Y-29999D1*
X4712Y-30109D1*
X5250Y-30105D1*
X6090D1*
X7421Y-28771D1*
X16046Y-38624D2*
X16005Y-38742D1*
X15939Y-38848D1*
X15848Y-38938D1*
X19152D1*
X19067Y-38855D1*
X18999Y-38751D1*
X18956Y-38634D1*
X18940Y-38510D1*
X18952Y-38386D1*
X18990Y-38267D1*
X19055Y-38160D1*
X19141Y-38070D1*
X19245Y-38001D1*
X19362Y-37957D1*
X19485Y-37940D1*
X19609Y-37951D1*
X19728Y-37988D1*
X19836Y-38052D1*
X19927Y-38137D1*
X20001Y-38251D1*
X20055Y-38160D1*
X20141Y-38070D1*
X20229Y-38012D1*
X19765Y-37543D1*
X19629Y-37545D1*
X19505Y-37560D1*
X19381Y-37547D1*
X19263Y-37507D1*
X19156Y-37442D1*
X19067Y-37355D1*
X18999Y-37251D1*
X18956Y-37134D1*
X18940Y-37010D1*
X18952Y-36886D1*
X18990Y-36767D1*
X19055Y-36660D1*
X19141Y-36570D1*
X19229Y-36512D1*
X18829Y-36108D1*
X18759Y-36002D1*
X18629Y-36045D1*
X18505Y-36060D1*
X18381Y-36047D1*
X18263Y-36007D1*
X18156Y-35942D1*
X18067Y-35855D1*
X18001Y-35754D1*
X17939Y-35848D1*
X17851Y-35936D1*
X17746Y-36003D1*
X17629Y-36045D1*
X17505Y-36060D1*
X17381Y-36047D1*
X17263Y-36007D1*
X17156Y-35942D1*
X17067Y-35855D1*
X17018Y-35780D1*
X17017Y-36027D1*
X17262Y-36024D1*
X17379Y-36062D1*
X17452Y-36165D1*
X17462Y-36224D1*
Y-37778D1*
X17424Y-37895D1*
X17321Y-37968D1*
X17262Y-37978D1*
X16489D1*
X16051Y-38415D1*
X16060Y-38500D1*
X16046Y-38624D1*
X10586Y-27425D2*
X10505Y-27435D1*
X10381Y-27422D1*
X10263Y-27382D1*
X10156Y-27317D1*
X10067Y-27230D1*
X9999Y-27126D1*
X9956Y-27009D1*
X9940Y-26885D1*
X9952Y-26761D1*
X9990Y-26642D1*
X10055Y-26535D1*
X10157Y-26434D1*
X9940Y-26435D1*
Y-26205D1*
X9590D1*
X9587Y-26847D1*
Y-27151D1*
X9549Y-27268D1*
X9446Y-27341D1*
X9387Y-27351D1*
X8570Y-27353D1*
X8821Y-27605D1*
X8929Y-27634D1*
X9037Y-27697D1*
X9124Y-27786D1*
X9184Y-27895D1*
X9215Y-28063D1*
X9198Y-28186D1*
X9149Y-28301D1*
X9072Y-28398D1*
X8971Y-28472D1*
X8852Y-28518D1*
X8480Y-28891D1*
X9615Y-30026D1*
X10464Y-30024D1*
Y-31280D1*
X10479Y-31282D1*
Y-32599D1*
X9162D1*
Y-31343D1*
X9146Y-31341D1*
Y-30494D1*
X7984Y-29328D1*
X6529Y-30779D1*
X6428Y-30852D1*
X6306Y-30890D1*
X6000Y-30895D1*
X4715D1*
X4712Y-31611D1*
X4674Y-31728D1*
X4571Y-31801D1*
X4512Y-31811D1*
X3738D1*
X3621Y-31774D1*
X3548Y-31671D1*
X3538Y-31611D1*
Y-30912D1*
X3462Y-30913D1*
Y-31630D1*
X3424Y-31747D1*
X3321Y-31819D1*
X3262Y-31830D1*
X2488D1*
X2371Y-31792D1*
X2298Y-31689D1*
X2288Y-31630D1*
Y-30076D1*
X2326Y-29959D1*
X2429Y-29886D1*
X2385Y-29857D1*
X1744D1*
Y-28894D1*
X1810D1*
X1797Y-28814D1*
Y-28795D1*
X1744Y-28794D1*
Y-27831D1*
X2483D1*
X2527Y-27688D1*
X2596Y-27596D1*
X3781Y-26411D1*
X3779Y-24832D1*
X5096D1*
Y-26543D1*
X4764D1*
X3644Y-27664D1*
X5164Y-27663D1*
X5163Y-26537D1*
X5201Y-26420D1*
X5304Y-26347D1*
X5363Y-26337D1*
X6047D1*
X6042Y-26202D1*
X5860D1*
Y-25173D1*
X6890D1*
Y-25524D1*
X6923Y-25441D1*
X6996Y-25339D1*
X7090Y-25258D1*
X7202Y-25203D1*
X7324Y-25175D1*
X7448Y-25178D1*
X7569Y-25210D1*
X7678Y-25271D1*
X7769Y-25356D1*
X7837Y-25460D1*
X7878Y-25578D1*
X7890Y-25688D1*
X7875Y-25811D1*
X7830Y-25928D1*
X7759Y-26030D1*
X7666Y-26113D1*
X7555Y-26170D1*
X7521Y-26178D1*
X7517Y-26301D1*
X8418Y-27201D1*
X8413Y-26901D1*
Y-25597D1*
X8451Y-25480D1*
X8554Y-25407D1*
X8613Y-25397D1*
X9387D1*
X9504Y-25435D1*
X9577Y-25538D1*
X9750Y-25545D1*
X9941D1*
X9940Y-25315D1*
X11060D1*
Y-26435D1*
X10845D1*
X10927Y-26512D1*
X10996Y-26615D1*
X11042Y-26732D1*
X11060Y-26875D1*
X11051Y-26956D1*
X12150Y-28059D1*
X12148Y-26988D1*
X12186Y-26871D1*
X12289Y-26798D1*
X12348Y-26788D1*
X12462D1*
X12461Y-25300D1*
X12499Y-25183D1*
X12602Y-25111D1*
X12661Y-25101D1*
X14214D1*
X14334Y-25141D1*
X14376Y-25185D1*
X14487Y-25096D1*
X14550Y-25086D1*
X15325D1*
X15442Y-25124D1*
X15514Y-25227D1*
X15524Y-25286D1*
Y-26555D1*
X15671Y-26704D1*
X15741Y-26807D1*
X15767Y-26938D1*
Y-27113D1*
X16215Y-27561D1*
X16212Y-27286D1*
X16172Y-27161D1*
X16170Y-25949D1*
X16067Y-25855D1*
X15999Y-25751D1*
X15956Y-25634D1*
X15940Y-25510D1*
X15952Y-25386D1*
X15990Y-25267D1*
X16055Y-25160D1*
X16141Y-25070D1*
X16245Y-25001D1*
X16362Y-24957D1*
X16485Y-24940D1*
X16609Y-24951D1*
X16728Y-24988D1*
X16836Y-25052D1*
X16942Y-25160D1*
X16940Y-24940D1*
X18060D1*
Y-26060D1*
X17830D1*
Y-26684D1*
X18100Y-26685D1*
X18235Y-26549D1*
X18233Y-25500D1*
X18256Y-25378D1*
X18323Y-25273D1*
X18424Y-25201D1*
X18548Y-25171D1*
X18641Y-25070D1*
X18745Y-25001D1*
X18862Y-24957D1*
X18985Y-24940D1*
X19109Y-24951D1*
X19228Y-24988D1*
X19336Y-25052D1*
X19442Y-25160D1*
X19440Y-24940D1*
X20560D1*
Y-25974D1*
X20943Y-25591D1*
X20940Y-24940D1*
X22060D1*
Y-26060D1*
X21845D1*
X21927Y-26137D1*
X21996Y-26240D1*
X22042Y-26357D1*
X22060Y-26500D1*
X22048Y-26612D1*
X22358Y-26300D1*
Y-25563D1*
X22381Y-25440D1*
X22448Y-25336D1*
X22549Y-25263D1*
X22688Y-25233D1*
X22941D1*
X22940Y-24940D1*
X24060D1*
Y-26060D1*
X23845D1*
X23927Y-26137D1*
X23996Y-26240D1*
X24042Y-26357D1*
X24059Y-26476D1*
X24938Y-25595D1*
X24940Y-24940D1*
X26060D1*
Y-26060D1*
X25845D1*
X25927Y-26137D1*
X25996Y-26240D1*
X26042Y-26357D1*
X26059Y-26476D1*
X26940Y-25593D1*
Y-24940D1*
X28060D1*
Y-26060D1*
X27845D1*
X27927Y-26137D1*
X27996Y-26240D1*
X28042Y-26357D1*
X28059Y-26476D1*
X28938Y-25595D1*
X28940Y-24940D1*
X30060D1*
Y-26060D1*
X29845D1*
X29927Y-26137D1*
X29996Y-26240D1*
X30042Y-26357D1*
X30059Y-26476D1*
X30940Y-25593D1*
Y-24940D1*
X32060D1*
Y-26060D1*
X31845D1*
X31927Y-26137D1*
X31996Y-26240D1*
X32042Y-26357D1*
X32059Y-26476D1*
X32938Y-25595D1*
X32940Y-24940D1*
X34060D1*
Y-26060D1*
X33845D1*
X33927Y-26137D1*
X33996Y-26240D1*
X34042Y-26357D1*
X34059Y-26476D1*
X34940Y-25593D1*
Y-24940D1*
X36060D1*
Y-26060D1*
X35845D1*
X35927Y-26137D1*
X35996Y-26240D1*
X36042Y-26357D1*
X36060Y-26500D1*
X36046Y-26624D1*
X36005Y-26742D1*
X35939Y-26848D1*
X35851Y-26936D1*
X35746Y-27003D1*
X35629Y-27045D1*
X35505Y-27060D1*
X35416Y-27051D1*
X31558Y-30908D1*
X31455Y-30978D1*
X31325Y-31005D1*
X27973Y-31006D1*
X28406Y-31440D1*
X29060D1*
Y-32560D1*
X27940D1*
Y-31908D1*
X27424Y-31391D1*
X21949Y-31392D1*
X21900Y-31433D1*
X22065Y-31440D1*
X23060D1*
Y-31655D1*
X23141Y-31570D1*
X23245Y-31501D1*
X23362Y-31457D1*
X23485Y-31440D1*
X23609Y-31451D1*
X23728Y-31488D1*
X23836Y-31552D1*
X23927Y-31637D1*
X24001Y-31751D1*
X24055Y-31660D1*
X24141Y-31570D1*
X24245Y-31501D1*
X24362Y-31457D1*
X24485Y-31440D1*
X24609Y-31451D1*
X24728Y-31488D1*
X24836Y-31552D1*
X24927Y-31637D1*
X25001Y-31751D1*
X25055Y-31660D1*
X25141Y-31570D1*
X25245Y-31501D1*
X25362Y-31457D1*
X25485Y-31440D1*
X25609Y-31451D1*
X25728Y-31488D1*
X25836Y-31552D1*
X25927Y-31637D1*
X25996Y-31740D1*
X26042Y-31857D1*
X26060Y-32000D1*
X26046Y-32124D1*
X26005Y-32242D1*
X25939Y-32348D1*
X25851Y-32436D1*
X25746Y-32503D1*
X25629Y-32545D1*
X25505Y-32560D1*
X25416Y-32551D1*
X24608Y-33358D1*
X24505Y-33428D1*
X24375Y-33455D1*
X21918D1*
X22407Y-33940D1*
X22592D1*
X22657Y-33896D1*
X22776Y-33860D1*
X24688Y-33858D1*
X24810Y-33881D1*
X24921Y-33954D1*
X24940Y-33974D1*
Y-33440D1*
X26060D1*
Y-33483D1*
X26941D1*
X26940Y-33440D1*
X28060D1*
Y-33483D1*
X28941D1*
X28940Y-33440D1*
X30060D1*
Y-33483D1*
X30941D1*
X30940Y-33440D1*
X32060D1*
Y-34560D1*
X31845D1*
X31927Y-34637D1*
X31996Y-34740D1*
X32042Y-34857D1*
X32060Y-35000D1*
X32046Y-35124D1*
X32005Y-35242D1*
X31939Y-35348D1*
X31851Y-35436D1*
X31750Y-35501D1*
X31836Y-35552D1*
X31927Y-35637D1*
X31996Y-35740D1*
X32042Y-35857D1*
X32060Y-36000D1*
X32046Y-36124D1*
X32005Y-36242D1*
X31939Y-36348D1*
X31851Y-36436D1*
X31750Y-36501D1*
X31836Y-36552D1*
X31927Y-36637D1*
X31996Y-36740D1*
X32042Y-36857D1*
X32060Y-37000D1*
X32046Y-37124D1*
X32005Y-37242D1*
X31939Y-37348D1*
X31851Y-37436D1*
X31746Y-37503D1*
X31629Y-37545D1*
X31505Y-37560D1*
X31362Y-37541D1*
X29967Y-38938D1*
X37371D1*
X37244Y-38772D1*
X37184Y-38662D1*
X37138Y-38546D1*
X37104Y-38426D1*
X37084Y-38303D1*
X37078Y-38178D1*
X37087Y-38053D1*
X37109Y-37930D1*
X37145Y-37811D1*
X37194Y-37696D1*
X37256Y-37587D1*
X37329Y-37486D1*
X37414Y-37394D1*
X37508Y-37312D1*
X37611Y-37241D1*
X37721Y-37182D1*
X37837Y-37136D1*
X37957Y-37103D1*
X38081Y-37084D1*
X38206Y-37079D1*
X38330Y-37087D1*
X38453Y-37110D1*
X38573Y-37147D1*
X38687Y-37196D1*
X38795Y-37259D1*
X38939Y-37372D1*
X38938Y-31438D1*
Y-26020D1*
X38777Y-26139D1*
X38667Y-26199D1*
X38552Y-26247D1*
X38431Y-26281D1*
X38308Y-26301D1*
X38183Y-26307D1*
X38059Y-26300D1*
X37936Y-26278D1*
X37816Y-26243D1*
X37701Y-26194D1*
X37592Y-26133D1*
X37490Y-26060D1*
X37398Y-25976D1*
X37315Y-25882D1*
X37244Y-25780D1*
X37184Y-25670D1*
X37138Y-25554D1*
X37104Y-25434D1*
X37084Y-25311D1*
X37078Y-25186D1*
X37087Y-25061D1*
X37109Y-24938D1*
X37145Y-24819D1*
X37194Y-24704D1*
X37256Y-24595D1*
X37329Y-24494D1*
X37414Y-24402D1*
X37517Y-24313D1*
X33438Y-24322D1*
X1926Y-24372D1*
X2062Y-24520D1*
X2132Y-24623D1*
X2190Y-24734D1*
X2236Y-24850D1*
X2268Y-24971D1*
X2292Y-25197D1*
X2285Y-25322D1*
X2264Y-25445D1*
X2229Y-25565D1*
X2181Y-25680D1*
X2120Y-25789D1*
X2048Y-25891D1*
X1964Y-25984D1*
X1871Y-26067D1*
X1769Y-26139D1*
X1659Y-26199D1*
X1544Y-26247D1*
X1424Y-26281D1*
X1300Y-26301D1*
X1176Y-26307D1*
X1051Y-26300D1*
X928Y-26278D1*
X808Y-26243D1*
X693Y-26194D1*
X584Y-26133D1*
X439Y-26021D1*
X437Y-33500D1*
Y-37363D1*
X603Y-37241D1*
X713Y-37182D1*
X829Y-37136D1*
X949Y-37103D1*
X1073Y-37084D1*
X1198Y-37079D1*
X1322Y-37087D1*
X1445Y-37110D1*
X1565Y-37147D1*
X1679Y-37196D1*
X1788Y-37259D1*
X1888Y-37333D1*
X1980Y-37417D1*
X2062Y-37512D1*
X2132Y-37615D1*
X2190Y-37726D1*
X2236Y-37842D1*
X2268Y-37963D1*
X2292Y-38189D1*
X2285Y-38314D1*
X2264Y-38437D1*
X2229Y-38557D1*
X2181Y-38672D1*
X2120Y-38782D1*
X1998Y-38938D1*
X13941D1*
X13940Y-37940D1*
X13996D1*
X13923Y-37837D1*
X13913Y-37778D1*
Y-36224D1*
X13951Y-36107D1*
X14054Y-36034D1*
X14113Y-36024D1*
X14633D1*
X14789Y-35872D1*
X14814Y-35777D1*
X14872Y-35666D1*
X14958Y-35576D1*
X15064Y-35511D1*
X15184Y-35477D1*
X15309Y-35476D1*
X15429Y-35509D1*
X15537Y-35572D1*
X15624Y-35661D1*
X15684Y-35770D1*
X15715Y-35938D1*
X15698Y-36061D1*
X15649Y-36176D1*
X15572Y-36273D1*
X15471Y-36347D1*
X15354Y-36391D1*
X15230Y-36402D1*
X15196Y-36396D1*
X15089Y-36505D1*
X15087Y-37447D1*
X15733Y-36800D1*
Y-35238D1*
X15596Y-35347D1*
X15479Y-35391D1*
X15355Y-35402D1*
X15233Y-35380D1*
X15120Y-35326D1*
X15053Y-35268D1*
X13699Y-35267D1*
X12983Y-35983D1*
X12880Y-36053D1*
X12750Y-36080D1*
X12535D1*
X12560Y-36250D1*
X12546Y-36374D1*
X12505Y-36492D1*
X12439Y-36598D1*
X12351Y-36686D1*
X12246Y-36753D1*
X12129Y-36795D1*
X12005Y-36810D1*
X11881Y-36797D1*
X11763Y-36757D1*
X11656Y-36692D1*
X11567Y-36605D1*
X11501Y-36504D1*
X11439Y-36598D1*
X11351Y-36686D1*
X11250Y-36751D1*
X11336Y-36802D1*
X11427Y-36887D1*
X11496Y-36990D1*
X11542Y-37107D1*
X11560Y-37250D1*
X11546Y-37374D1*
X11505Y-37492D1*
X11439Y-37598D1*
X11351Y-37686D1*
X11246Y-37753D1*
X11129Y-37795D1*
X11005Y-37810D1*
X10881Y-37797D1*
X10763Y-37757D1*
X10656Y-37692D1*
X10567Y-37605D1*
X10499Y-37501D1*
X10456Y-37384D1*
X10440Y-37260D1*
X10452Y-37136D1*
X10490Y-37017D1*
X10555Y-36910D1*
X10641Y-36820D1*
X10749Y-36750D1*
X10656Y-36692D1*
X10567Y-36605D1*
X10499Y-36501D1*
X10456Y-36384D1*
X10440Y-36260D1*
X10452Y-36136D1*
X10490Y-36017D1*
X10555Y-35910D1*
X10641Y-35820D1*
X10749Y-35750D1*
X10656Y-35692D1*
X10567Y-35605D1*
X10499Y-35501D1*
X10456Y-35384D1*
X10440Y-35260D1*
X10452Y-35136D1*
X10490Y-35017D1*
X10555Y-34910D1*
X10657Y-34809D1*
X10440Y-34810D1*
Y-33690D1*
X11092D1*
X12207Y-32577D1*
X12196Y-32588D1*
X12211Y-32512D1*
Y-31738D1*
X12249Y-31621D1*
X12352Y-31548D1*
X12462Y-31538D1*
X12464Y-31396D1*
X12196Y-31395D1*
Y-32584D1*
X12183Y-32601D1*
X10879D1*
Y-30024D1*
X10890D1*
X10875Y-30007D1*
X10836Y-29887D1*
Y-29113D1*
X10874Y-28996D1*
X10977Y-28923D1*
X11036Y-28913D1*
X12071D1*
X10585Y-27426D1*
X12196Y-30270D2*
Y-30739D1*
X12463Y-30735D1*
X12464Y-30268D1*
X12196Y-30267D1*
X20470Y-26060D2*
X20158D1*
X19529Y-26688D1*
X19850Y-26685D1*
X20473Y-26060D1*
X26060Y-34139D2*
Y-34560D1*
X25845D1*
X25927Y-34637D1*
X25951Y-34673D1*
X27051Y-34670D1*
X27141Y-34570D1*
X27157Y-34559D1*
X26940Y-34560D1*
Y-34142D1*
X26059D1*
X25950Y-35331D2*
X25851Y-35436D1*
X25750Y-35501D1*
X25836Y-35552D1*
X25927Y-35637D1*
X25951Y-35673D1*
X27051Y-35670D1*
X27141Y-35570D1*
X27249Y-35500D1*
X27156Y-35442D1*
X27052Y-35332D1*
X25949Y-35330D1*
X25950Y-36331D2*
X25851Y-36436D1*
X25750Y-36501D1*
X25836Y-36552D1*
X25927Y-36637D1*
X25996Y-36740D1*
X26042Y-36857D1*
X26060Y-37000D1*
X26046Y-37124D1*
X26030Y-37172D1*
X26965Y-37170D1*
X26940Y-37010D1*
X26952Y-36886D1*
X26990Y-36767D1*
X27055Y-36660D1*
X27141Y-36570D1*
X27249Y-36500D1*
X27156Y-36442D1*
X27052Y-36332D1*
X25949Y-36330D1*
X23060Y-34514D2*
Y-34733D1*
X24563D1*
X24685Y-34756D1*
X24796Y-34829D1*
X24942Y-34976D1*
X24913Y-34880D1*
X24551Y-34518D1*
X23059Y-34517D1*
X23046Y-35624D2*
X23005Y-35742D1*
X22939Y-35848D1*
X22851Y-35936D1*
X22746Y-36003D1*
X22629Y-36045D1*
X22505Y-36060D1*
X22381Y-36047D1*
X22263Y-36007D1*
X22156Y-35942D1*
X22067Y-35855D1*
X21999Y-35751D1*
X21956Y-35634D1*
X21940Y-35510D1*
X21951Y-35390D1*
X21332Y-35392D1*
X21330Y-35613D1*
X21888Y-36171D1*
X24063Y-36170D1*
X24185Y-36193D1*
X24296Y-36267D1*
X24558Y-36529D1*
X24545Y-36437D1*
Y-35512D1*
X24424Y-35390D1*
X23051Y-35392D1*
X23060Y-35500D1*
X23046Y-35624D1*
X18000Y-34250D2*
X18055Y-34160D1*
X18170Y-34051D1*
Y-33387D1*
X17828Y-33044D1*
X17830Y-34051D1*
X17927Y-34137D1*
X18001Y-34251D1*
X28060Y-34139D2*
Y-34560D1*
X27845D1*
X27927Y-34637D1*
X27951Y-34673D1*
X29051Y-34670D1*
X29141Y-34570D1*
X29157Y-34559D1*
X28940Y-34560D1*
Y-34142D1*
X28059D1*
X27950Y-35331D2*
X27851Y-35436D1*
X27750Y-35501D1*
X27836Y-35552D1*
X27927Y-35637D1*
X27951Y-35673D1*
X29051Y-35670D1*
X29141Y-35570D1*
X29249Y-35500D1*
X29156Y-35442D1*
X29052Y-35332D1*
X27949Y-35330D1*
X27950Y-36331D2*
X27851Y-36436D1*
X27750Y-36501D1*
X27836Y-36552D1*
X27927Y-36637D1*
X27996Y-36740D1*
X28042Y-36857D1*
X28060Y-37000D1*
X28046Y-37124D1*
X28005Y-37242D1*
X27939Y-37348D1*
X27828Y-37451D1*
X27830Y-37500D1*
X27807Y-37622D1*
X27740Y-37727D1*
X27639Y-37799D1*
X27500Y-37830D1*
X25063D1*
X24940Y-37807D1*
X24829Y-37733D1*
X23926Y-36830D1*
X23059D1*
X23063Y-37170D1*
X23875D1*
X23997Y-37193D1*
X24108Y-37267D1*
X25012Y-38170D1*
X27863D1*
X28946Y-37087D1*
X28940Y-37010D1*
X28952Y-36886D1*
X28990Y-36767D1*
X29055Y-36660D1*
X29141Y-36570D1*
X29249Y-36500D1*
X29156Y-36442D1*
X29052Y-36332D1*
X27949Y-36330D1*
X23060Y-38139D2*
X23062Y-38938D1*
X24410D1*
X23613Y-38143D1*
X23059Y-38142D1*
X30060Y-34139D2*
Y-34560D1*
X29845D1*
X29927Y-34637D1*
X29951Y-34673D1*
X31051Y-34670D1*
X31141Y-34570D1*
X31157Y-34559D1*
X30940Y-34560D1*
Y-34142D1*
X30059D1*
X29950Y-35331D2*
X29851Y-35436D1*
X29750Y-35501D1*
X29836Y-35552D1*
X29927Y-35637D1*
X29951Y-35673D1*
X31051Y-35670D1*
X31141Y-35570D1*
X31249Y-35500D1*
X31156Y-35442D1*
X31052Y-35332D1*
X29949Y-35330D1*
X29950Y-36331D2*
X29851Y-36436D1*
X29750Y-36501D1*
X29836Y-36552D1*
X29927Y-36637D1*
X29996Y-36740D1*
X30042Y-36857D1*
X30060Y-37000D1*
X30046Y-37124D1*
X30005Y-37242D1*
X29939Y-37348D1*
X29851Y-37436D1*
X29746Y-37503D1*
X29629Y-37545D1*
X29505Y-37560D1*
X29416Y-37551D1*
X28482Y-38485D1*
X29488Y-38483D1*
X30941Y-37030D1*
X30952Y-36886D1*
X30990Y-36767D1*
X31055Y-36660D1*
X31141Y-36570D1*
X31249Y-36500D1*
X31156Y-36442D1*
X31052Y-36332D1*
X29949Y-36330D1*
X20941Y-31975D2*
X21201Y-32234D1*
X21770Y-32233D1*
X21510Y-31976D1*
X20940Y-31975D1*
X11537Y-31942D2*
D14*
Y-32601D1*
X10879Y-31942D2*
X12196D1*
X2501Y-27832D2*
Y-28313D1*
X12464Y-30435D2*
X13004D1*
G36*
X4494Y-28545D2*
X5006D1*
Y-27955D1*
X4494D1*
Y-28545D1*
G37*
G36*
X3825D2*
X4337D1*
Y-27955D1*
X3825D1*
Y-28545D1*
G37*
G36*
X4381Y-28955D2*
X3869D1*
Y-29545D1*
X4381D1*
Y-28955D1*
G37*
G36*
X5050D2*
X4538D1*
Y-29545D1*
X5050D1*
Y-28955D1*
G37*
G36*
X2580Y-30932D2*
Y-31443D1*
X3170D1*
Y-30932D1*
X2580D1*
G37*
G36*
Y-30262D2*
Y-30774D1*
X3170D1*
Y-30262D1*
X2580D1*
G37*
G36*
X4420Y-30756D2*
Y-30244D1*
X3830D1*
Y-30756D1*
X4420D1*
G37*
G36*
Y-31425D2*
Y-30913D1*
X3830D1*
Y-31425D1*
X4420D1*
G37*
D30*
X7938Y-28688D3*
G36*
X6897Y-28588D2*
X7038Y-28447D1*
X7237D1*
X7378Y-28588D1*
Y-28787D1*
X7237Y-28928D1*
X7038D1*
X6897Y-28787D1*
Y-28588D1*
G37*
G36*
X14142Y-27766D2*
Y-28278D1*
X14733D1*
Y-27766D1*
X14142D1*
G37*
G36*
Y-27097D2*
Y-27609D1*
X14733D1*
Y-27097D1*
X14142D1*
G37*
G36*
X13516Y-26795D2*
X14028D1*
Y-26205D1*
X13516D1*
Y-26795D1*
G37*
G36*
X12847D2*
X13359D1*
Y-26205D1*
X12847D1*
Y-26795D1*
G37*
G36*
X13204Y-28483D2*
X13716D1*
Y-27892D1*
X13204D1*
Y-28483D1*
G37*
G36*
X12534D2*
X13046D1*
Y-27892D1*
X12534D1*
Y-28483D1*
G37*
G36*
X14642Y-26141D2*
Y-26653D1*
X15233D1*
Y-26141D1*
X14642D1*
G37*
G36*
Y-25472D2*
Y-25984D1*
X15233D1*
Y-25472D1*
X14642D1*
G37*
G36*
X13516Y-29670D2*
X14028D1*
Y-29080D1*
X13516D1*
Y-29670D1*
G37*
G36*
X12847D2*
X13359D1*
Y-29080D1*
X12847D1*
Y-29670D1*
G37*
G36*
X13109Y-31830D2*
X12597D1*
Y-32420D1*
X13109D1*
Y-31830D1*
G37*
G36*
X13778D2*
X13266D1*
Y-32420D1*
X13778D1*
Y-31830D1*
G37*
D30*
X5125Y-4125D3*
G36*
X5225Y-5165D2*
X5365Y-5025D1*
Y-4826D1*
X5225Y-4685D1*
X5025D1*
X4885Y-4826D1*
Y-5025D1*
X5025Y-5165D1*
X5225D1*
G37*
D30*
X7500Y-4125D3*
G36*
X7599Y-5165D2*
X7740Y-5025D1*
Y-4826D1*
X7599Y-4685D1*
X7400D1*
X7260Y-4826D1*
Y-5025D1*
X7400Y-5165D1*
X7599D1*
G37*
D31*
X14870Y-3621D3*
G36*
X18443Y-3384D2*
X18108Y-3048D1*
X17633D1*
X17298Y-3384D1*
Y-3858D1*
X17633Y-4194D1*
X18108D1*
X18443Y-3858D1*
Y-3384D1*
G37*
D31*
X21496Y-9934D3*
G36*
X21259Y-6361D2*
X20923Y-6697D1*
Y-7172D1*
X21259Y-7507D1*
X21733D1*
X22069Y-7172D1*
Y-6697D1*
X21733Y-6361D1*
X21259D1*
G37*
D32*
X33375Y-10188D3*
G36*
X33254Y-8896D2*
X33084Y-9067D1*
Y-9308D1*
X33254Y-9479D1*
X33496D1*
X33666Y-9308D1*
Y-9067D1*
X33496Y-8896D1*
X33254D1*
G37*
G36*
X35006Y-13892D2*
X34494D1*
Y-14483D1*
X35006D1*
Y-13892D1*
G37*
G36*
X35675D2*
X35163D1*
Y-14483D1*
X35675D1*
Y-13892D1*
G37*
G36*
X8517Y-7369D2*
Y-7881D1*
X9108D1*
Y-7369D1*
X8517D1*
G37*
G36*
Y-6700D2*
Y-7212D1*
X9108D1*
Y-6700D1*
X8517D1*
G37*
G36*
X5819Y-10767D2*
X5307D1*
Y-11358D1*
X5819D1*
Y-10767D1*
G37*
G36*
X6488D2*
X5976D1*
Y-11358D1*
X6488D1*
Y-10767D1*
G37*
G36*
X11119Y-7170D2*
X11631D1*
Y-6580D1*
X11119D1*
Y-7170D1*
G37*
G36*
X10450D2*
X10961D1*
Y-6580D1*
X10450D1*
Y-7170D1*
G37*
G36*
X5818Y-12705D2*
X5307D1*
Y-13295D1*
X5818D1*
Y-12705D1*
G37*
G36*
X6488D2*
X5976D1*
Y-13295D1*
X6488D1*
Y-12705D1*
G37*
G36*
X31380Y-1854D2*
X31217Y-1691D1*
X30988D1*
X30825Y-1854D1*
Y-2083D1*
X30988Y-2246D1*
X31217D1*
X31380Y-2083D1*
Y-1854D1*
G37*
G36*
X35380D2*
X35217Y-1691D1*
X34988D1*
X34825Y-1854D1*
Y-2083D1*
X34988Y-2246D1*
X35217D1*
X35380Y-2083D1*
Y-1854D1*
G37*
G36*
X33057Y-2295D2*
X33568D1*
Y-1705D1*
X33057D1*
Y-2295D1*
G37*
G36*
X32387D2*
X32899D1*
Y-1705D1*
X32387D1*
Y-2295D1*
G37*
G36*
X26756Y-3830D2*
X26244D1*
Y-4420D1*
X26756D1*
Y-3830D1*
G37*
G36*
X27425D2*
X26913D1*
Y-4420D1*
X27425D1*
Y-3830D1*
G37*
D31*
X21559Y-13622D3*
G36*
X21796Y-17195D2*
X22131Y-16859D1*
Y-16385D1*
X21796Y-16049D1*
X21321D1*
X20986Y-16385D1*
Y-16859D1*
X21321Y-17195D1*
X21796D1*
G37*
G36*
X33420Y-5381D2*
Y-4869D1*
X32830D1*
Y-5381D1*
X33420D1*
G37*
G36*
Y-6050D2*
Y-5538D1*
X32830D1*
Y-6050D1*
X33420D1*
G37*
G36*
X27027Y-5823D2*
X26865Y-5660D1*
X26635D1*
X26473Y-5823D1*
Y-6052D1*
X26635Y-6215D1*
X26865D1*
X27027Y-6052D1*
Y-5823D1*
G37*
G36*
X31027D2*
X30865Y-5660D1*
X30635D1*
X30473Y-5823D1*
Y-6052D1*
X30635Y-6215D1*
X30865D1*
X31027Y-6052D1*
Y-5823D1*
G37*
G36*
X30432Y-5233D2*
X30943D1*
Y-4642D1*
X30432D1*
Y-5233D1*
G37*
G36*
X29762D2*
X30274D1*
Y-4642D1*
X29762D1*
Y-5233D1*
G37*
G36*
X30535Y-17802D2*
X30698Y-17965D1*
X30927D1*
X31090Y-17802D1*
Y-17573D1*
X30927Y-17410D1*
X30698D1*
X30535Y-17573D1*
Y-17802D1*
G37*
G36*
X26535D2*
X26698Y-17965D1*
X26927D1*
X27090Y-17802D1*
Y-17573D1*
X26927Y-17410D1*
X26698D1*
X26535Y-17573D1*
Y-17802D1*
G37*
G36*
X31330Y-18619D2*
Y-19131D1*
X31920D1*
Y-18619D1*
X31330D1*
G37*
G36*
Y-17950D2*
Y-18462D1*
X31920D1*
Y-17950D1*
X31330D1*
G37*
G36*
X32994Y-18983D2*
X33506D1*
Y-18392D1*
X32994D1*
Y-18983D1*
G37*
G36*
X32325D2*
X32837D1*
Y-18392D1*
X32325D1*
Y-18983D1*
G37*
G36*
X27068Y-19330D2*
X26557D1*
Y-19920D1*
X27068D1*
Y-19330D1*
G37*
G36*
X27738D2*
X27226D1*
Y-19920D1*
X27738D1*
Y-19330D1*
G37*
G36*
X34825Y-22162D2*
X34988Y-22324D1*
X35217D1*
X35380Y-22162D1*
Y-21932D1*
X35217Y-21770D1*
X34988D1*
X34825Y-21932D1*
Y-22162D1*
G37*
G36*
X30825D2*
X30988Y-22324D1*
X31217D1*
X31380Y-22162D1*
Y-21932D1*
X31217Y-21770D1*
X30988D1*
X30825Y-21932D1*
Y-22162D1*
G37*
G36*
X32024Y-22517D2*
X31512D1*
Y-23108D1*
X32024D1*
Y-22517D1*
G37*
G36*
X32693D2*
X32182D1*
Y-23108D1*
X32693D1*
Y-22517D1*
G37*
D31*
X14870Y-19810D3*
G36*
X18443Y-19573D2*
X18108Y-19237D1*
X17633D1*
X17298Y-19573D1*
Y-20047D1*
X17633Y-20383D1*
X18108D1*
X18443Y-20047D1*
Y-19573D1*
G37*
D34*
X7375Y-25687D3*
D35*
X6375D3*
D34*
X11500Y-2125D3*
D35*
Y-1125D3*
D34*
X11688Y-22188D3*
D35*
X10688D3*
D36*
X14500Y-38500D3*
D37*
X15500D3*
X16500D3*
D36*
X9000Y-18500D3*
D37*
X8000D3*
X7000D3*
D36*
X9000Y-19500D3*
D37*
X8000D3*
X7000D3*
D36*
X9000Y-20500D3*
D37*
X8000D3*
X7000D3*
D36*
X10500Y-25875D3*
D37*
Y-26875D3*
G36*
X20817Y-2629D2*
X20926Y-2610D1*
X21023Y-2554D1*
X21095Y-2469D1*
X21133Y-2364D1*
Y-2253D1*
X21095Y-2148D1*
X21023Y-2063D1*
X20927Y-2007D1*
X20817Y-1987D1*
X20175D1*
X20066Y-2007D1*
X19969Y-2062D1*
X19897Y-2148D1*
X19859Y-2252D1*
Y-2364D1*
X19897Y-2469D1*
X19969Y-2554D1*
X20065Y-2610D1*
X20175Y-2629D1*
X20817D1*
G37*
G36*
X26147D2*
X26257Y-2610D1*
X26354Y-2554D1*
X26425Y-2469D1*
X26464Y-2364D1*
Y-2253D1*
X26426Y-2148D1*
X26354Y-2063D1*
X26258Y-2007D1*
X26148Y-1987D1*
X25506D1*
X25396Y-2007D1*
X25300Y-2062D1*
X25228Y-2148D1*
X25190Y-2252D1*
Y-2364D1*
X25228Y-2469D1*
X25299Y-2554D1*
X25396Y-2610D1*
X25506Y-2629D1*
X26147D1*
G37*
G36*
X26446Y-10008D2*
X26555Y-9989D1*
X26652Y-9933D1*
X26724Y-9848D1*
X26762Y-9743D1*
Y-9632D1*
X26724Y-9527D1*
X26652Y-9442D1*
X26556Y-9386D1*
X26446Y-9367D1*
X25804D1*
X25695Y-9386D1*
X25598Y-9442D1*
X25526Y-9527D1*
X25488Y-9631D1*
Y-9743D1*
X25526Y-9848D1*
X25598Y-9933D1*
X25694Y-9989D1*
X25804Y-10008D1*
X26446D1*
G37*
G36*
X31776D2*
X31886Y-9989D1*
X31983Y-9933D1*
X32054Y-9848D1*
X32093Y-9743D1*
Y-9632D1*
X32055Y-9527D1*
X31983Y-9442D1*
X31887Y-9386D1*
X31777Y-9367D1*
X31135D1*
X31025Y-9386D1*
X30929Y-9442D1*
X30857Y-9527D1*
X30819Y-9631D1*
Y-9743D1*
X30857Y-9848D1*
X30928Y-9933D1*
X31025Y-9989D1*
X31135Y-10008D1*
X31776D1*
G37*
G36*
X26446Y-14258D2*
X26555Y-14239D1*
X26652Y-14183D1*
X26724Y-14098D1*
X26762Y-13993D1*
Y-13882D1*
X26724Y-13777D1*
X26652Y-13692D1*
X26556Y-13636D1*
X26446Y-13617D1*
X25804D1*
X25695Y-13636D1*
X25598Y-13692D1*
X25526Y-13777D1*
X25488Y-13881D1*
Y-13993D1*
X25526Y-14098D1*
X25598Y-14183D1*
X25694Y-14239D1*
X25804Y-14258D1*
X26446D1*
G37*
G36*
X31776D2*
X31886Y-14239D1*
X31983Y-14183D1*
X32054Y-14098D1*
X32093Y-13993D1*
Y-13882D1*
X32055Y-13777D1*
X31983Y-13692D1*
X31887Y-13636D1*
X31777Y-13617D1*
X31135D1*
X31025Y-13636D1*
X30929Y-13692D1*
X30857Y-13777D1*
X30819Y-13881D1*
Y-13993D1*
X30857Y-14098D1*
X30928Y-14183D1*
X31025Y-14239D1*
X31135Y-14258D1*
X31776D1*
G37*
G36*
X20696Y-21758D2*
X20805Y-21739D1*
X20902Y-21683D1*
X20974Y-21598D1*
X21012Y-21493D1*
Y-21382D1*
X20974Y-21277D1*
X20902Y-21192D1*
X20806Y-21136D1*
X20696Y-21117D1*
X20054D1*
X19945Y-21136D1*
X19848Y-21192D1*
X19776Y-21277D1*
X19738Y-21381D1*
Y-21493D1*
X19776Y-21598D1*
X19848Y-21683D1*
X19944Y-21739D1*
X20054Y-21758D1*
X20696D1*
G37*
G36*
X26026D2*
X26136Y-21739D1*
X26233Y-21683D1*
X26304Y-21598D1*
X26343Y-21493D1*
Y-21382D1*
X26305Y-21277D1*
X26233Y-21192D1*
X26137Y-21136D1*
X26027Y-21117D1*
X25385D1*
X25275Y-21136D1*
X25179Y-21192D1*
X25107Y-21277D1*
X25069Y-21381D1*
Y-21493D1*
X25107Y-21598D1*
X25178Y-21683D1*
X25275Y-21739D1*
X25385Y-21758D1*
X26026D1*
G37*
D38*
X28740Y-22835D3*
X11220Y-19882D3*
X28740Y-1181D3*
X1181D3*
Y-22835D3*
X11220Y-4134D3*
D39*
X9821Y-31941D3*
X11537Y-31942D3*
Y-30683D3*
X9805D3*
G36*
X5435Y-27432D2*
Y-27943D1*
X6065D1*
Y-27432D1*
X5435D1*
G37*
G36*
Y-26684D2*
Y-27195D1*
X6065D1*
Y-26684D1*
X5435D1*
G37*
G36*
X13007Y-27060D2*
X12495D1*
Y-27690D1*
X13007D1*
Y-27060D1*
G37*
G36*
X13755D2*
X13243D1*
Y-27690D1*
X13755D1*
Y-27060D1*
G37*
G36*
X13556Y-26002D2*
X14067D1*
Y-25373D1*
X13556D1*
Y-26002D1*
G37*
G36*
X12808D2*
X13319D1*
Y-25373D1*
X12808D1*
Y-26002D1*
G37*
G36*
X9315Y-26256D2*
Y-25744D1*
X8685D1*
Y-26256D1*
X9315D1*
G37*
G36*
Y-27004D2*
Y-26492D1*
X8685D1*
Y-27004D1*
X9315D1*
G37*
G36*
X11931Y-29815D2*
X12442D1*
Y-29185D1*
X11931D1*
Y-29815D1*
G37*
G36*
X11183D2*
X11694D1*
Y-29185D1*
X11183D1*
Y-29815D1*
G37*
G36*
X14185Y-37119D2*
Y-37631D1*
X14815D1*
Y-37119D1*
X14185D1*
G37*
G36*
Y-36371D2*
Y-36883D1*
X14815D1*
Y-36371D1*
X14185D1*
G37*
G36*
X16560Y-37119D2*
Y-37631D1*
X17190D1*
Y-37119D1*
X16560D1*
G37*
G36*
Y-36371D2*
Y-36883D1*
X17190D1*
Y-36371D1*
X16560D1*
G37*
G36*
X33494Y-14502D2*
X34006D1*
Y-13873D1*
X33494D1*
Y-14502D1*
G37*
G36*
X32746D2*
X33258D1*
Y-13873D1*
X32746D1*
Y-14502D1*
G37*
G36*
X11119Y-6065D2*
X11631D1*
Y-5435D1*
X11119D1*
Y-6065D1*
G37*
G36*
X10371D2*
X10883D1*
Y-5435D1*
X10371D1*
Y-6065D1*
G37*
G36*
X5994Y-12377D2*
X6506D1*
Y-11748D1*
X5994D1*
Y-12377D1*
G37*
G36*
X5246D2*
X5758D1*
Y-11748D1*
X5246D1*
Y-12377D1*
G37*
G36*
X3248Y-12494D2*
Y-13006D1*
X3877D1*
Y-12494D1*
X3248D1*
G37*
G36*
Y-11746D2*
Y-12258D1*
X3877D1*
Y-11746D1*
X3248D1*
G37*
G36*
X25127Y-3631D2*
Y-3119D1*
X24498D1*
Y-3631D1*
X25127D1*
G37*
G36*
Y-4379D2*
Y-3867D1*
X24498D1*
Y-4379D1*
X25127D1*
G37*
G36*
X31685Y-5619D2*
Y-6131D1*
X32315D1*
Y-5619D1*
X31685D1*
G37*
G36*
Y-4871D2*
Y-5383D1*
X32315D1*
Y-4871D1*
X31685D1*
G37*
G36*
X7119Y-17815D2*
X7631D1*
Y-17185D1*
X7119D1*
Y-17815D1*
G37*
G36*
X6371D2*
X6883D1*
Y-17185D1*
X6371D1*
Y-17815D1*
G37*
G36*
X32818Y-17435D2*
X32307D1*
Y-18065D1*
X32818D1*
Y-17435D1*
G37*
G36*
X33566D2*
X33055D1*
Y-18065D1*
X33566D1*
Y-17435D1*
G37*
G36*
X6128Y-18882D2*
Y-18370D1*
X5499D1*
Y-18882D1*
X6128D1*
G37*
G36*
Y-19630D2*
Y-19118D1*
X5499D1*
Y-19630D1*
X6128D1*
G37*
G36*
X24935Y-20119D2*
Y-20631D1*
X25565D1*
Y-20119D1*
X24935D1*
G37*
G36*
Y-19371D2*
Y-19883D1*
X25565D1*
Y-19371D1*
X24935D1*
G37*
G36*
X8381Y-21185D2*
X7869D1*
Y-21815D1*
X8381D1*
Y-21185D1*
G37*
G36*
X9129D2*
X8617D1*
Y-21815D1*
X9129D1*
Y-21185D1*
G37*
D41*
X2875Y-28313D3*
X2501D3*
X2127D3*
Y-29375D3*
X2875D3*
D42*
X16812Y-27125D3*
Y-27325D3*
Y-27525D3*
Y-27715D3*
Y-27915D3*
Y-28115D3*
Y-28305D3*
Y-28505D3*
Y-28705D3*
Y-28895D3*
Y-29095D3*
Y-29295D3*
Y-29485D3*
Y-29685D3*
Y-29885D3*
Y-30085D3*
Y-30275D3*
Y-30475D3*
Y-30675D3*
Y-30865D3*
Y-31065D3*
Y-31265D3*
Y-31455D3*
Y-31655D3*
Y-31855D3*
Y-32045D3*
Y-32245D3*
Y-32445D3*
X19792D3*
Y-32245D3*
Y-32045D3*
Y-31855D3*
Y-31655D3*
Y-31455D3*
Y-31265D3*
Y-31065D3*
Y-30865D3*
Y-30675D3*
Y-30475D3*
Y-30275D3*
Y-30085D3*
Y-29885D3*
Y-29685D3*
Y-29485D3*
Y-29295D3*
Y-29095D3*
Y-28895D3*
Y-28705D3*
Y-28505D3*
Y-28305D3*
Y-28115D3*
Y-27915D3*
Y-27715D3*
Y-27525D3*
Y-27325D3*
Y-27125D3*
D43*
X18302Y-29785D3*
D44*
X5438Y-1438D3*
D45*
X6438D3*
X7438D3*
G36*
X8633Y-9472D2*
Y-9652D1*
X7993D1*
Y-9472D1*
X8633D1*
G37*
G36*
Y-9782D2*
Y-9962D1*
X7993D1*
Y-9782D1*
X8633D1*
G37*
G36*
Y-10102D2*
Y-10282D1*
X7993D1*
Y-10102D1*
X8633D1*
G37*
G36*
Y-10412D2*
Y-10592D1*
X7993D1*
Y-10412D1*
X8633D1*
G37*
G36*
Y-10732D2*
Y-10912D1*
X7993D1*
Y-10732D1*
X8633D1*
G37*
G36*
Y-11042D2*
Y-11222D1*
X7993D1*
Y-11042D1*
X8633D1*
G37*
G36*
Y-11362D2*
Y-11542D1*
X7993D1*
Y-11362D1*
X8633D1*
G37*
G36*
Y-11672D2*
Y-11852D1*
X7993D1*
Y-11672D1*
X8633D1*
G37*
G36*
Y-11992D2*
Y-12172D1*
X7993D1*
Y-11992D1*
X8633D1*
G37*
G36*
Y-12302D2*
Y-12482D1*
X7993D1*
Y-12302D1*
X8633D1*
G37*
G36*
Y-12622D2*
Y-12802D1*
X7993D1*
Y-12622D1*
X8633D1*
G37*
G36*
Y-12932D2*
Y-13112D1*
X7993D1*
Y-12932D1*
X8633D1*
G37*
G36*
Y-13252D2*
Y-13432D1*
X7993D1*
Y-13252D1*
X8633D1*
G37*
G36*
Y-13562D2*
Y-13742D1*
X7993D1*
Y-13562D1*
X8633D1*
G37*
G36*
Y-13882D2*
Y-14062D1*
X7993D1*
Y-13882D1*
X8633D1*
G37*
G36*
Y-14192D2*
Y-14372D1*
X7993D1*
Y-14192D1*
X8633D1*
G37*
G36*
X9043Y-15242D2*
X8863D1*
Y-14602D1*
X9043D1*
Y-15242D1*
G37*
G36*
X9353D2*
X9173D1*
Y-14602D1*
X9353D1*
Y-15242D1*
G37*
G36*
X9673D2*
X9493D1*
Y-14602D1*
X9673D1*
Y-15242D1*
G37*
G36*
X9983D2*
X9803D1*
Y-14602D1*
X9983D1*
Y-15242D1*
G37*
G36*
X10303D2*
X10123D1*
Y-14602D1*
X10303D1*
Y-15242D1*
G37*
G36*
X10613D2*
X10433D1*
Y-14602D1*
X10613D1*
Y-15242D1*
G37*
G36*
X10933D2*
X10753D1*
Y-14602D1*
X10933D1*
Y-15242D1*
G37*
G36*
X11243D2*
X11063D1*
Y-14602D1*
X11243D1*
Y-15242D1*
G37*
G36*
X11563D2*
X11383D1*
Y-14602D1*
X11563D1*
Y-15242D1*
G37*
G36*
X11873D2*
X11693D1*
Y-14602D1*
X11873D1*
Y-15242D1*
G37*
G36*
X12193D2*
X12013D1*
Y-14602D1*
X12193D1*
Y-15242D1*
G37*
G36*
X12503D2*
X12323D1*
Y-14602D1*
X12503D1*
Y-15242D1*
G37*
G36*
X12823D2*
X12643D1*
Y-14602D1*
X12823D1*
Y-15242D1*
G37*
G36*
X13133D2*
X12953D1*
Y-14602D1*
X13133D1*
Y-15242D1*
G37*
G36*
X13453D2*
X13273D1*
Y-14602D1*
X13453D1*
Y-15242D1*
G37*
G36*
X13763D2*
X13583D1*
Y-14602D1*
X13763D1*
Y-15242D1*
G37*
G36*
X14633Y-14192D2*
Y-14372D1*
X13993D1*
Y-14192D1*
X14633D1*
G37*
G36*
Y-13882D2*
Y-14062D1*
X13993D1*
Y-13882D1*
X14633D1*
G37*
G36*
Y-13562D2*
Y-13742D1*
X13993D1*
Y-13562D1*
X14633D1*
G37*
G36*
Y-13252D2*
Y-13432D1*
X13993D1*
Y-13252D1*
X14633D1*
G37*
G36*
Y-12932D2*
Y-13112D1*
X13993D1*
Y-12932D1*
X14633D1*
G37*
G36*
Y-12622D2*
Y-12802D1*
X13993D1*
Y-12622D1*
X14633D1*
G37*
G36*
Y-12302D2*
Y-12482D1*
X13993D1*
Y-12302D1*
X14633D1*
G37*
G36*
Y-11992D2*
Y-12172D1*
X13993D1*
Y-11992D1*
X14633D1*
G37*
G36*
Y-11672D2*
Y-11852D1*
X13993D1*
Y-11672D1*
X14633D1*
G37*
G36*
Y-11362D2*
Y-11542D1*
X13993D1*
Y-11362D1*
X14633D1*
G37*
G36*
Y-11042D2*
Y-11222D1*
X13993D1*
Y-11042D1*
X14633D1*
G37*
G36*
Y-10732D2*
Y-10912D1*
X13993D1*
Y-10732D1*
X14633D1*
G37*
G36*
Y-10412D2*
Y-10592D1*
X13993D1*
Y-10412D1*
X14633D1*
G37*
G36*
Y-10102D2*
Y-10282D1*
X13993D1*
Y-10102D1*
X14633D1*
G37*
G36*
Y-9782D2*
Y-9962D1*
X13993D1*
Y-9782D1*
X14633D1*
G37*
G36*
Y-9472D2*
Y-9652D1*
X13993D1*
Y-9472D1*
X14633D1*
G37*
G36*
X13763Y-9242D2*
X13583D1*
Y-8602D1*
X13763D1*
Y-9242D1*
G37*
G36*
X13453D2*
X13273D1*
Y-8602D1*
X13453D1*
Y-9242D1*
G37*
G36*
X13133D2*
X12953D1*
Y-8602D1*
X13133D1*
Y-9242D1*
G37*
G36*
X12823D2*
X12643D1*
Y-8602D1*
X12823D1*
Y-9242D1*
G37*
G36*
X12503D2*
X12323D1*
Y-8602D1*
X12503D1*
Y-9242D1*
G37*
G36*
X12193D2*
X12013D1*
Y-8602D1*
X12193D1*
Y-9242D1*
G37*
G36*
X11873D2*
X11693D1*
Y-8602D1*
X11873D1*
Y-9242D1*
G37*
G36*
X11563D2*
X11383D1*
Y-8602D1*
X11563D1*
Y-9242D1*
G37*
G36*
X11243D2*
X11063D1*
Y-8602D1*
X11243D1*
Y-9242D1*
G37*
G36*
X10933D2*
X10753D1*
Y-8602D1*
X10933D1*
Y-9242D1*
G37*
G36*
X10613D2*
X10433D1*
Y-8602D1*
X10613D1*
Y-9242D1*
G37*
G36*
X10303D2*
X10123D1*
Y-8602D1*
X10303D1*
Y-9242D1*
G37*
G36*
X9983D2*
X9803D1*
Y-8602D1*
X9983D1*
Y-9242D1*
G37*
G36*
X9673D2*
X9493D1*
Y-8602D1*
X9673D1*
Y-9242D1*
G37*
G36*
X9353D2*
X9173D1*
Y-8602D1*
X9353D1*
Y-9242D1*
G37*
G36*
X9043D2*
X8863D1*
Y-8602D1*
X9043D1*
Y-9242D1*
G37*
D47*
X4437Y-25687D3*
D48*
X3437D3*
D36*
X20000Y-25500D3*
D37*
X19000D3*
D36*
X21500D3*
D37*
Y-26500D3*
D36*
X17500Y-25500D3*
D37*
X16500D3*
D36*
X23500D3*
D37*
Y-26500D3*
D36*
X25500Y-25500D3*
D37*
Y-26500D3*
D36*
X27500Y-25500D3*
D37*
Y-26500D3*
D36*
X29500Y-25500D3*
D37*
Y-26500D3*
D36*
X31500Y-25500D3*
D37*
Y-26500D3*
D36*
X11000Y-34250D3*
D37*
X12000D3*
X11000Y-35250D3*
X12000D3*
X11000Y-36250D3*
X12000D3*
X11000Y-37250D3*
X12000D3*
D36*
X33500Y-25500D3*
D37*
Y-26500D3*
D36*
X22500Y-32000D3*
D37*
X23500D3*
X24500D3*
X25500D3*
X26500D3*
D36*
X35500Y-25500D3*
D37*
Y-26500D3*
D36*
X28500Y-32000D3*
D37*
X29500D3*
D36*
X25500Y-34000D3*
D37*
Y-35000D3*
Y-36000D3*
Y-37000D3*
Y-38000D3*
D36*
X22500Y-34500D3*
D37*
Y-35500D3*
X21500Y-34500D3*
Y-35500D3*
X20500Y-34500D3*
Y-35500D3*
X19500Y-34500D3*
Y-35500D3*
X18500Y-34500D3*
Y-35500D3*
X17500Y-34500D3*
Y-35500D3*
D36*
X27500Y-34000D3*
D37*
Y-35000D3*
Y-36000D3*
Y-37000D3*
Y-38000D3*
D36*
X22500Y-38500D3*
D37*
X21500D3*
X20500D3*
X19500D3*
X18500D3*
D36*
X22500Y-37000D3*
D37*
X21500D3*
X20500D3*
X19500D3*
X18500D3*
D36*
X29500Y-34000D3*
D37*
Y-35000D3*
Y-36000D3*
Y-37000D3*
Y-38000D3*
D36*
X31500Y-34000D3*
D37*
Y-35000D3*
Y-36000D3*
Y-37000D3*
Y-38000D3*
D47*
X2813Y-4187D3*
D48*
X1813D3*
D49*
X37000Y-10000D3*
D50*
Y-11559D3*
Y-13118D3*
Y-14677D3*
D36*
X3000Y-19000D3*
D37*
X4000D3*
D36*
X3000Y-20000D3*
D37*
X4000D3*
G36*
X1921Y-9024D2*
X2083Y-8861D1*
Y-8632D1*
X1921Y-8469D1*
X1691D1*
X1529Y-8632D1*
Y-8861D1*
X1691Y-9024D1*
X1921D1*
G37*
G36*
X921D2*
X1083Y-8861D1*
Y-8632D1*
X921Y-8469D1*
X691D1*
X529Y-8632D1*
Y-8861D1*
X691Y-9024D1*
X921D1*
G37*
G36*
X1921Y-10024D2*
X2083Y-9861D1*
Y-9632D1*
X1921Y-9469D1*
X1691D1*
X1529Y-9632D1*
Y-9861D1*
X1691Y-10024D1*
X1921D1*
G37*
G36*
X921D2*
X1083Y-9861D1*
Y-9632D1*
X921Y-9469D1*
X691D1*
X529Y-9632D1*
Y-9861D1*
X691Y-10024D1*
X921D1*
G37*
G36*
X1921Y-11024D2*
X2083Y-10861D1*
Y-10632D1*
X1921Y-10469D1*
X1691D1*
X1529Y-10632D1*
Y-10861D1*
X1691Y-11024D1*
X1921D1*
G37*
G36*
X921D2*
X1083Y-10861D1*
Y-10632D1*
X921Y-10469D1*
X691D1*
X529Y-10632D1*
Y-10861D1*
X691Y-11024D1*
X921D1*
G37*
G36*
X1921Y-12024D2*
X2083Y-11861D1*
Y-11632D1*
X1921Y-11469D1*
X1691D1*
X1529Y-11632D1*
Y-11861D1*
X1691Y-12024D1*
X1921D1*
G37*
G36*
X921D2*
X1083Y-11861D1*
Y-11632D1*
X921Y-11469D1*
X691D1*
X529Y-11632D1*
Y-11861D1*
X691Y-12024D1*
X921D1*
G37*
G36*
X2754Y-16658D2*
X2592Y-16820D1*
Y-17050D1*
X2754Y-17212D1*
X2984D1*
X3146Y-17050D1*
Y-16820D1*
X2984Y-16658D1*
X2754D1*
G37*
G36*
X3754D2*
X3592Y-16820D1*
Y-17050D1*
X3754Y-17212D1*
X3984D1*
X4146Y-17050D1*
Y-16820D1*
X3984Y-16658D1*
X3754D1*
G37*
G36*
X2754Y-15658D2*
X2592Y-15820D1*
Y-16050D1*
X2754Y-16212D1*
X2984D1*
X3146Y-16050D1*
Y-15820D1*
X2984Y-15658D1*
X2754D1*
G37*
G36*
X3754D2*
X3592Y-15820D1*
Y-16050D1*
X3754Y-16212D1*
X3984D1*
X4146Y-16050D1*
Y-15820D1*
X3984Y-15658D1*
X3754D1*
G37*
G36*
X2754Y-14658D2*
X2592Y-14820D1*
Y-15050D1*
X2754Y-15212D1*
X2984D1*
X3146Y-15050D1*
Y-14820D1*
X2984Y-14658D1*
X2754D1*
G37*
G36*
X3754D2*
X3592Y-14820D1*
Y-15050D1*
X3754Y-15212D1*
X3984D1*
X4146Y-15050D1*
Y-14820D1*
X3984Y-14658D1*
X3754D1*
G37*
G36*
X2754Y-13658D2*
X2592Y-13820D1*
Y-14050D1*
X2754Y-14212D1*
X2984D1*
X3146Y-14050D1*
Y-13820D1*
X2984Y-13658D1*
X2754D1*
G37*
G36*
X3754D2*
X3592Y-13820D1*
Y-14050D1*
X3754Y-14212D1*
X3984D1*
X4146Y-14050D1*
Y-13820D1*
X3984Y-13658D1*
X3754D1*
G37*
D49*
X37000Y-5000D3*
D50*
Y-6559D3*
D49*
Y-17500D3*
D50*
Y-19059D3*
D51*
X13871Y-30435D3*
X13004D3*
Y-31065D3*
X13871D3*
M02*
