M48
INCH
T01C0.019
T02C0.028
T03C0.032
T04C0.0354
T05C0.0394
T06C0.04
T07C0.0433
T08C0.0512
T09C0.0787
T10C0.126
%
T01
X+015312Y-011875
X+016500Y-011188
X+016500Y-012625
X+016250Y-015063
X+016813Y-015063
X+016625Y-016188
X+014813Y-016188
X+015875Y-017938
X+016250Y-020125
X+017500Y-023000
X+018125Y-024625
X+020000Y-023000
X+020750Y-024688
X+022500Y-025000
X+024438Y-025375
X+026563Y-025375
X+028500Y-025375
X+030438Y-025375
X+032500Y-025375
X+034500Y-025375
X+036625Y-025375
X+038000Y-022688
X+033625Y-023063
X+035563Y-028313
X+037563Y-028313
X+037250Y-031813
X+038438Y-033688
X+037250Y-036188
X+035750Y-037875
X+032813Y-038688
X+030500Y-037063
X+030500Y-035563
X+030500Y-034500
X+028563Y-034563
X+028500Y-035563
X+028500Y-037063
X+026500Y-037063
X+026625Y-035500
X+026563Y-034500
X+027500Y-032938
X+024000Y-033813
X+023688Y-034563
X+024312Y-035875
X+023813Y-036938
X+023938Y-038750
X+021250Y-032063
X+021062Y-031313
X+021625Y-031063
X+023062Y-031437
X+019000Y-031438
X+018437Y-031438
X+017875Y-033313
X+017063Y-033000
X+016688Y-034250
X+015375Y-034938
X+015250Y-035938
X+014438Y-035563
X+013625Y-035750
X+013438Y-034438
X+013438Y-033875
X+014313Y-033375
X+014312Y-032813
X+014063Y-031625
X+012313Y-030438
X+010688Y-030813
X+010688Y-031500
X+009688Y-029375
X+010875Y-028813
X+008750Y-028063
X+007250Y-030313
X+005938Y-028625
X+005563Y-026250
X+006312Y-024625
X+006437Y-023313
X+004813Y-022438
X+005500Y-021062
X+006000Y-017500
X+005687Y-016938
X+005375Y-016438
X+006000Y-015937
X+005375Y-015500
X+006000Y-014937
X+005375Y-014438
X+005687Y-013938
X+004625Y-013063
X+007000Y-011563
X+006875Y-010687
X+007438Y-010375
X+006500Y-009688
X+005750Y-009688
X+005750Y-009000
X+007313Y-009063
X+008182Y-008559
X+009245Y-010192
X+010250Y-010500
X+010250Y-011250
X+010875Y-012062
X+010250Y-012687
X+010250Y-013437
X+009250Y-014000
X+008063Y-014875
X+007438Y-013563
X+007500Y-012937
X+007500Y-012313
X+011500Y-014125
X+012313Y-014188
X+013625Y-013250
X+013500Y-011938
X+013625Y-010625
X+012375Y-010000
X+012125Y-011813
X+012125Y-012500
X+011625Y-015750
X+011250Y-016250
X+011938Y-016312
X+010625Y-017500
X+012500Y-018250
X+010375Y-020875
X+011000Y-022937
X+008938Y-023313
X+008688Y-024625
X+011813Y-026688
X+013500Y-024688
X+013313Y-023250
X+015500Y-024688
X+015750Y-026250
X+016062Y-026938
X+015312Y-028500
X+015312Y-029625
X+017500Y-028875
X+018062Y-028750
X+018875Y-028813
X+018875Y-029313
X+018938Y-028188
X+020563Y-028125
X+022750Y-022188
X+024000Y-021500
X+021813Y-020250
X+023563Y-018625
X+022500Y-017500
X+025188Y-017938
X+025188Y-016750
X+027938Y-015875
X+028188Y-018313
X+026688Y-023000
X+019625Y-018375
X+020750Y-011875
X+022125Y-011875
X+025000Y-012500
X+025000Y-011125
X+028000Y-011750
X+028563Y-010688
X+028250Y-009000
X+026813Y-007500
X+024813Y-006437
X+023438Y-004875
X+022188Y-002938
X+022062Y-001438
X+024063Y-001063
X+018875Y-000813
X+015688Y-003188
X+015938Y-005625
X+016438Y-007625
X+016188Y-008875
X+016813Y-008875
X+014688Y-007813
X+011812Y-007562
X+011375Y-008250
X+009875Y-006250
X+009000Y-004875
X+010062Y-004438
X+010000Y-002500
X+008250Y-002875
X+006313Y-005250
X+007375Y-005875
X+006500Y-006875
X+003938Y-007375
X+003875Y-005875
X+001063Y-007000
X+000787Y-002362
X+003500Y-002625
X+003500Y-000813
X+010375Y-000625
X+013875Y-000688
X+012125Y-005562
X+019438Y-005313
X+028250Y-005688
X+033750Y-001063
X+038188Y-002000
X+038438Y-012375
X+038500Y-015875
X+031750Y-012500
X+029125Y-013063
X+033688Y-029563
X+031313Y-031938
X+034438Y-032938
X+032812Y-035500
X+013313Y-037625
X+011687Y-038750
X+009313Y-038250
X+009813Y-036375
X+007563Y-035938
X+008188Y-034375
X+007062Y-032687
X+003938Y-033500
X+003500Y-031750
X+003375Y-029688
X+001313Y-030313
X+000625Y-028063
X+001500Y-026875
X+001181Y-021654
X+001000Y-020000
X+001000Y-018500
X+001000Y-016500
X+001000Y-015000
X+003375Y-017875
X+001625Y-033000
X+001625Y-035563
X+002500Y-037625
X+006563Y-038313
T02
X+007375Y-025687
X+006375Y-025687
X+010688Y-022188
X+011688Y-022188
X+011500Y-002125
X+011500Y-001125
T03
X+007938Y-028688
X+007138Y-028688
X+007500Y-004925
X+007500Y-004125
X+005125Y-004125
X+005125Y-004925
X+033375Y-009188
X+033375Y-010188
T04
X+014500Y-038500
X+015500Y-038500
X+016500Y-038500
X+018500Y-038500
X+019500Y-038500
X+020500Y-038500
X+021500Y-038500
X+022500Y-038500
X+022500Y-037000
X+021500Y-037000
X+020500Y-037000
X+019500Y-037000
X+018500Y-037000
X+018500Y-035500
X+019500Y-035500
X+020500Y-035500
X+021500Y-035500
X+022500Y-035500
X+022500Y-034500
X+021500Y-034500
X+020500Y-034500
X+019500Y-034500
X+018500Y-034500
X+017500Y-034500
X+017500Y-035500
X+012000Y-035250
X+012000Y-034250
X+011000Y-034250
X+011000Y-035250
X+011000Y-036250
X+011000Y-037250
X+012000Y-037250
X+012000Y-036250
X+010500Y-026875
X+010500Y-025875
X+009000Y-020500
X+009000Y-019500
X+008000Y-019500
X+008000Y-018500
X+007000Y-018500
X+007000Y-019500
X+007000Y-020500
X+008000Y-020500
X+009000Y-018500
X+004000Y-019000
X+003000Y-019000
X+003000Y-020000
X+004000Y-020000
X+016500Y-025500
X+017500Y-025500
X+019000Y-025500
X+020000Y-025500
X+021500Y-025500
X+021500Y-026500
X+023500Y-026500
X+023500Y-025500
X+025500Y-025500
X+025500Y-026500
X+027500Y-026500
X+027500Y-025500
X+029500Y-025500
X+029500Y-026500
X+031500Y-026500
X+031500Y-025500
X+033500Y-025500
X+033500Y-026500
X+035500Y-026500
X+035500Y-025500
X+029500Y-032000
X+028500Y-032000
X+026500Y-032000
X+025500Y-032000
X+024500Y-032000
X+023500Y-032000
X+022500Y-032000
X+025500Y-034000
X+025500Y-035000
X+025500Y-036000
X+025500Y-037000
X+025500Y-038000
X+027500Y-038000
X+027500Y-037000
X+027500Y-036000
X+027500Y-035000
X+027500Y-034000
X+029500Y-034000
X+029500Y-035000
X+029500Y-036000
X+029500Y-037000
X+029500Y-038000
X+031500Y-038000
X+031500Y-037000
X+031500Y-036000
X+031500Y-035000
X+031500Y-034000
T05
X+020496Y-002308
X+025827Y-002308
X+026125Y-009687
X+026125Y-013937
X+031456Y-013937
X+031456Y-009687
X+025706Y-021437
X+020375Y-021437
T06
X+014870Y-003621
X+017870Y-003621
X+021496Y-006934
X+021496Y-009934
X+021559Y-013622
X+021559Y-016622
X+017870Y-019810
X+014870Y-019810
X+003869Y-016935
X+002869Y-016935
X+002869Y-015935
X+003869Y-015935
X+003869Y-014935
X+002869Y-014935
X+002869Y-013935
X+003869Y-013935
X+001806Y-011746
X+001806Y-010746
X+001806Y-009746
X+000806Y-009746
X+000806Y-008746
X+001806Y-008746
X+000806Y-010746
X+000806Y-011746
X+026750Y-005937
X+030750Y-005937
X+031102Y-001969
X+035102Y-001969
X+030812Y-017687
X+026812Y-017687
X+031102Y-022047
X+035102Y-022047
T07
X+005438Y-001438
X+006438Y-001438
X+007438Y-001438
T08
X+004437Y-025687
X+003437Y-025687
X+002813Y-004187
X+001813Y-004187
T09
X+037000Y-010000
X+037000Y-011559
X+037000Y-013118
X+037000Y-014677
X+037000Y-017500
X+037000Y-019059
X+037000Y-006559
X+037000Y-005000
T10
X+038189Y-025197
X+028740Y-022835
X+011220Y-019882
X+001181Y-022835
X+001181Y-025197
X+001181Y-038189
X+011220Y-004134
X+001181Y-001181
X+028740Y-001181
X+038189Y-038189
T00
M30
