G04 DipTrace 2.3.1.0*
%INamp_tas5631.gbs*%
%MOIN*%
%ADD30C,0.052*%
%ADD31C,0.124*%
%ADD32C,0.063*%
%ADD54C,0.126*%
%ADD61C,0.0479*%
%ADD64O,0.1654X0.126*%
%ADD66R,0.1654X0.126*%
%ADD68O,0.0866X0.126*%
%ADD70R,0.0866X0.126*%
%ADD72C,0.0827*%
%ADD73C,0.0669*%
%ADD74R,0.0827X0.0827*%
%ADD75R,0.0669X0.0669*%
%ADD84R,0.185X0.185*%
%ADD88R,0.0579X0.0579*%
%ADD90C,0.0579*%
%FSLAX44Y44*%
G04*
G70*
G90*
G75*
G01*
%LNBotMask*%
%LPD*%
D61*
X9688Y-29375D3*
X9245Y-10192D3*
X12500Y-18250D3*
X11375Y-8250D3*
X11938Y-16312D3*
X13625Y-13250D3*
X12375Y-10000D3*
X15312Y-11875D3*
X13500Y-11938D3*
X7438Y-10375D3*
X6875Y-10687D3*
X7500Y-12313D3*
Y-12937D3*
X7313Y-9063D3*
X11250Y-16250D3*
X11625Y-15750D3*
X8182Y-8559D3*
X9000Y-4875D3*
X9875Y-6250D3*
X12313Y-14188D3*
X10250Y-12687D3*
Y-13437D3*
X12125Y-11813D3*
X9250Y-14000D3*
X10250Y-10500D3*
Y-11250D3*
X11500Y-14125D3*
X15688Y-3188D3*
X10625Y-17500D3*
X20750Y-11875D3*
X7000Y-11563D3*
X13625Y-10625D3*
X11812Y-7562D3*
X12125Y-5562D3*
X10000Y-2500D3*
X3500Y-2625D3*
X25188Y-16750D3*
Y-17938D3*
X21813Y-20250D3*
X25000Y-11125D3*
X10062Y-4438D3*
X3500Y-813D3*
X10375Y-625D3*
X8250Y-2875D3*
X25000Y-12500D3*
X31750D3*
X28000Y-11750D3*
X22125Y-11875D3*
X15875Y-17938D3*
X15938Y-5625D3*
X3875Y-5875D3*
X22750Y-22188D3*
X6313Y-5250D3*
X6500Y-6875D3*
X7375Y-5875D3*
X1063Y-7000D3*
X3938Y-7375D3*
X19625Y-18375D3*
X16688Y-34250D3*
X15250Y-35938D3*
X7438Y-13563D3*
X6000Y-15937D3*
Y-14937D3*
X6437Y-23313D3*
X8938D3*
X11000Y-22937D3*
X5500Y-21062D3*
X14312Y-32813D3*
X10875Y-12062D3*
X19438Y-5313D3*
X27938Y-15875D3*
X21062Y-31313D3*
X4625Y-13063D3*
X5750Y-9000D3*
X16250Y-20125D3*
X28188Y-18313D3*
X16813Y-15063D3*
X16250D3*
X16813Y-8875D3*
X16188D3*
X28563Y-10688D3*
X29125Y-13063D3*
X28250Y-9000D3*
Y-5688D3*
X26813Y-7500D3*
X24063Y-1063D3*
X33750D3*
X38188Y-2000D3*
X18875Y-813D3*
X17500Y-23000D3*
X787Y-2362D3*
X1181Y-21654D3*
X5687Y-16938D3*
X5375Y-16438D3*
Y-15500D3*
X5687Y-13938D3*
X5375Y-14438D3*
X26563Y-34500D3*
X23438Y-4875D3*
X24813Y-6437D3*
X23563Y-18625D3*
X8063Y-14875D3*
X12125Y-12500D3*
X16500Y-12625D3*
Y-11188D3*
X16625Y-16188D3*
X14813D3*
X16438Y-7625D3*
X14688Y-7813D3*
X5750Y-9688D3*
X6500D3*
X26625Y-35500D3*
X13875Y-688D3*
X22062Y-1438D3*
X22188Y-2938D3*
X38438Y-12375D3*
X22500Y-17500D3*
X24000Y-21500D3*
X26688Y-23000D3*
X20000D3*
X13313Y-23250D3*
X10375Y-20875D3*
X3375Y-17875D3*
X4813Y-22438D3*
X6000Y-17500D3*
X1000Y-15000D3*
Y-16500D3*
Y-18500D3*
Y-20000D3*
X14313Y-33375D3*
X13438Y-33875D3*
Y-34438D3*
X15375Y-34938D3*
X15312Y-28500D3*
X17500Y-28875D3*
X20563Y-28125D3*
X18938Y-28188D3*
X19000Y-31438D3*
X17063Y-33000D3*
X10688Y-31500D3*
X10875Y-28813D3*
X15312Y-29625D3*
X28500Y-35563D3*
X30500D3*
X12313Y-30438D3*
X14063Y-31625D3*
X18875Y-28813D3*
X21625Y-31063D3*
X17875Y-33313D3*
X21250Y-32063D3*
X8750Y-28063D3*
X18875Y-29313D3*
X16062Y-26938D3*
X18062Y-28750D3*
X15750Y-26250D3*
X6312Y-24625D3*
X11813Y-26688D3*
X8688Y-24625D3*
X23062Y-31437D3*
X10688Y-30813D3*
X23938Y-38750D3*
X24312Y-35875D3*
X28500Y-37063D3*
X28563Y-34563D3*
X27500Y-32938D3*
X30500Y-37063D3*
X26500D3*
X31313Y-31938D3*
X1625Y-33000D3*
X3500Y-31750D3*
X7062Y-32687D3*
X1625Y-35563D3*
X38438Y-33688D3*
X33688Y-29563D3*
X23813Y-36938D3*
X24000Y-33813D3*
X13500Y-24688D3*
X15500D3*
X9813Y-36375D3*
X3938Y-33500D3*
X9313Y-38250D3*
X1313Y-30313D3*
X625Y-28063D3*
X1500Y-26875D3*
X18437Y-31438D3*
X13625Y-35750D3*
X32500Y-25375D3*
X34500D3*
X30438D3*
X28500D3*
X26563D3*
X24438D3*
X22500Y-25000D3*
X20750Y-24688D3*
X18125Y-24625D3*
X36625Y-25375D3*
X35563Y-28313D3*
X33625Y-23063D3*
X32813Y-38688D3*
X38500Y-15875D3*
X38000Y-22688D3*
X37563Y-28313D3*
X30500Y-34500D3*
X37250Y-36188D3*
X7250Y-30313D3*
X32812Y-35500D3*
X5938Y-28625D3*
X5563Y-26250D3*
X3375Y-29688D3*
X8188Y-34375D3*
X34438Y-32938D3*
X35750Y-37875D3*
X37250Y-31813D3*
X23688Y-34563D3*
X14438Y-35563D3*
X13313Y-37625D3*
X11687Y-38750D3*
X6563Y-38313D3*
X2500Y-37625D3*
X7563Y-35938D3*
D30*
X7938Y-28688D3*
G36*
X6897Y-28588D2*
X7038Y-28447D1*
X7237D1*
X7378Y-28588D1*
Y-28787D1*
X7237Y-28928D1*
X7038D1*
X6897Y-28787D1*
Y-28588D1*
G37*
G36*
X15608Y-27369D2*
Y-27881D1*
X15017D1*
Y-27369D1*
X15608D1*
G37*
G36*
Y-26700D2*
Y-27212D1*
X15017D1*
Y-26700D1*
X15608D1*
G37*
G36*
X14369Y-28330D2*
X14881D1*
Y-28920D1*
X14369D1*
Y-28330D1*
G37*
G36*
X13700D2*
X14212D1*
Y-28920D1*
X13700D1*
Y-28330D1*
G37*
G36*
X21443Y-28420D2*
X20932D1*
Y-27830D1*
X21443D1*
Y-28420D1*
G37*
G36*
X22113D2*
X21601D1*
Y-27830D1*
X22113D1*
Y-28420D1*
G37*
G36*
X18506Y-27795D2*
X17994D1*
Y-27205D1*
X18506D1*
Y-27795D1*
G37*
G36*
X19175D2*
X18663D1*
Y-27205D1*
X19175D1*
Y-27795D1*
G37*
G36*
X16420Y-29307D2*
Y-29818D1*
X15830D1*
Y-29307D1*
X16420D1*
G37*
G36*
Y-28637D2*
Y-29149D1*
X15830D1*
Y-28637D1*
X16420D1*
G37*
G36*
X19859Y-31733D2*
X19347D1*
Y-31142D1*
X19859D1*
Y-31733D1*
G37*
G36*
X20528D2*
X20016D1*
Y-31142D1*
X20528D1*
Y-31733D1*
G37*
G36*
X18705Y-30234D2*
Y-29722D1*
X19295D1*
Y-30234D1*
X18705D1*
G37*
G36*
Y-30903D2*
Y-30391D1*
X19295D1*
Y-30903D1*
X18705D1*
G37*
G36*
X16141Y-32955D2*
X16653D1*
Y-33545D1*
X16141D1*
Y-32955D1*
G37*
G36*
X15472D2*
X15984D1*
Y-33545D1*
X15472D1*
Y-32955D1*
G37*
G36*
X14234Y-29920D2*
X13722D1*
Y-29330D1*
X14234D1*
Y-29920D1*
G37*
G36*
X14903D2*
X14391D1*
Y-29330D1*
X14903D1*
Y-29920D1*
G37*
G36*
X16141Y-31955D2*
X16653D1*
Y-32545D1*
X16141D1*
Y-31955D1*
G37*
G36*
X15472D2*
X15984D1*
Y-32545D1*
X15472D1*
Y-31955D1*
G37*
D30*
X5125Y-4125D3*
G36*
X5225Y-5165D2*
X5365Y-5025D1*
Y-4826D1*
X5225Y-4685D1*
X5025D1*
X4885Y-4826D1*
Y-5025D1*
X5025Y-5165D1*
X5225D1*
G37*
G36*
X9608Y-3807D2*
Y-4318D1*
X9017D1*
Y-3807D1*
X9608D1*
G37*
G36*
Y-3137D2*
Y-3649D1*
X9017D1*
Y-3137D1*
X9608D1*
G37*
D30*
X7500Y-4125D3*
G36*
X7599Y-5165D2*
X7740Y-5025D1*
Y-4826D1*
X7599Y-4685D1*
X7400D1*
X7260Y-4826D1*
Y-5025D1*
X7400Y-5165D1*
X7599D1*
G37*
G36*
X11748Y-10343D2*
X12378D1*
Y-11406D1*
X11748D1*
Y-10343D1*
G37*
G36*
X10645D2*
X11275D1*
Y-11406D1*
X10645D1*
Y-10343D1*
G37*
D31*
X14870Y-3621D3*
G36*
X18443Y-3384D2*
X18108Y-3048D1*
X17633D1*
X17298Y-3384D1*
Y-3858D1*
X17633Y-4194D1*
X18108D1*
X18443Y-3858D1*
Y-3384D1*
G37*
D31*
X21496Y-9934D3*
G36*
X21259Y-6361D2*
X20923Y-6697D1*
Y-7172D1*
X21259Y-7507D1*
X21733D1*
X22069Y-7172D1*
Y-6697D1*
X21733Y-6361D1*
X21259D1*
G37*
D32*
X33375Y-10188D3*
G36*
X33254Y-8896D2*
X33084Y-9067D1*
Y-9308D1*
X33254Y-9479D1*
X33496D1*
X33666Y-9308D1*
Y-9067D1*
X33496Y-8896D1*
X33254D1*
G37*
G36*
X5455Y-7943D2*
Y-7432D1*
X6045D1*
Y-7943D1*
X5455D1*
G37*
G36*
Y-8613D2*
Y-8101D1*
X6045D1*
Y-8613D1*
X5455D1*
G37*
G36*
X10415Y-7365D2*
Y-7877D1*
X9825D1*
Y-7365D1*
X10415D1*
G37*
G36*
Y-6696D2*
Y-7208D1*
X9825D1*
Y-6696D1*
X10415D1*
G37*
G36*
X9045Y-11307D2*
Y-11818D1*
X8455D1*
Y-11307D1*
X9045D1*
G37*
G36*
Y-10637D2*
Y-11149D1*
X8455D1*
Y-10637D1*
X9045D1*
G37*
G36*
X12358Y-6744D2*
Y-7256D1*
X11767D1*
Y-6744D1*
X12358D1*
G37*
G36*
Y-6075D2*
Y-6587D1*
X11767D1*
Y-6075D1*
X12358D1*
G37*
G36*
X31380Y-1854D2*
X31217Y-1691D1*
X30988D1*
X30825Y-1854D1*
Y-2083D1*
X30988Y-2246D1*
X31217D1*
X31380Y-2083D1*
Y-1854D1*
G37*
G36*
X35380D2*
X35217Y-1691D1*
X34988D1*
X34825Y-1854D1*
Y-2083D1*
X34988Y-2246D1*
X35217D1*
X35380Y-2083D1*
Y-1854D1*
G37*
G36*
X33031Y-12940D2*
Y-12310D1*
X34094D1*
Y-12940D1*
X33031D1*
G37*
G36*
Y-14042D2*
Y-13412D1*
X34094D1*
Y-14042D1*
X33031D1*
G37*
D31*
X21559Y-13622D3*
G36*
X21796Y-17195D2*
X22131Y-16859D1*
Y-16385D1*
X21796Y-16049D1*
X21321D1*
X20986Y-16385D1*
Y-16859D1*
X21321Y-17195D1*
X21796D1*
G37*
G36*
X27027Y-5823D2*
X26865Y-5660D1*
X26635D1*
X26473Y-5823D1*
Y-6052D1*
X26635Y-6215D1*
X26865D1*
X27027Y-6052D1*
Y-5823D1*
G37*
G36*
X31027D2*
X30865Y-5660D1*
X30635D1*
X30473Y-5823D1*
Y-6052D1*
X30635Y-6215D1*
X30865D1*
X31027Y-6052D1*
Y-5823D1*
G37*
G36*
X14795Y-10994D2*
Y-11506D1*
X14205D1*
Y-10994D1*
X14795D1*
G37*
G36*
Y-10325D2*
Y-10837D1*
X14205D1*
Y-10325D1*
X14795D1*
G37*
G36*
X17031Y-10248D2*
Y-10878D1*
X15969D1*
Y-10248D1*
X17031D1*
G37*
G36*
Y-9145D2*
Y-9775D1*
X15969D1*
Y-9145D1*
X17031D1*
G37*
G36*
X11670Y-17369D2*
Y-17881D1*
X11080D1*
Y-17369D1*
X11670D1*
G37*
G36*
Y-16700D2*
Y-17212D1*
X11080D1*
Y-16700D1*
X11670D1*
G37*
G36*
X14795Y-12681D2*
Y-13193D1*
X14205D1*
Y-12681D1*
X14795D1*
G37*
G36*
Y-12012D2*
Y-12524D1*
X14205D1*
Y-12012D1*
X14795D1*
G37*
G36*
X30535Y-17802D2*
X30698Y-17965D1*
X30927D1*
X31090Y-17802D1*
Y-17573D1*
X30927Y-17410D1*
X30698D1*
X30535Y-17573D1*
Y-17802D1*
G37*
G36*
X26535D2*
X26698Y-17965D1*
X26927D1*
X27090Y-17802D1*
Y-17573D1*
X26927Y-17410D1*
X26698D1*
X26535Y-17573D1*
Y-17802D1*
G37*
G36*
X10330Y-15131D2*
Y-14619D1*
X10920D1*
Y-15131D1*
X10330D1*
G37*
G36*
Y-15800D2*
Y-15288D1*
X10920D1*
Y-15800D1*
X10330D1*
G37*
G36*
X17031Y-14100D2*
Y-14730D1*
X15969D1*
Y-14100D1*
X17031D1*
G37*
G36*
Y-12998D2*
Y-13628D1*
X15969D1*
Y-12998D1*
X17031D1*
G37*
G36*
X12330Y-17131D2*
Y-16619D1*
X12920D1*
Y-17131D1*
X12330D1*
G37*
G36*
Y-17800D2*
Y-17288D1*
X12920D1*
Y-17800D1*
X12330D1*
G37*
G36*
X34825Y-22162D2*
X34988Y-22324D1*
X35217D1*
X35380Y-22162D1*
Y-21932D1*
X35217Y-21770D1*
X34988D1*
X34825Y-21932D1*
Y-22162D1*
G37*
G36*
X30825D2*
X30988Y-22324D1*
X31217D1*
X31380Y-22162D1*
Y-21932D1*
X31217Y-21770D1*
X30988D1*
X30825Y-21932D1*
Y-22162D1*
G37*
D31*
X14870Y-19810D3*
G36*
X18443Y-19573D2*
X18108Y-19237D1*
X17633D1*
X17298Y-19573D1*
Y-20047D1*
X17633Y-20383D1*
X18108D1*
X18443Y-20047D1*
Y-19573D1*
G37*
G36*
X11748Y-12781D2*
X12378D1*
Y-13844D1*
X11748D1*
Y-12781D1*
G37*
G36*
X10645D2*
X11275D1*
Y-13844D1*
X10645D1*
Y-12781D1*
G37*
G36*
X2557Y-5830D2*
X3068D1*
Y-6420D1*
X2557D1*
Y-5830D1*
G37*
G36*
X1887D2*
X2399D1*
Y-6420D1*
X1887D1*
Y-5830D1*
G37*
D90*
X7375Y-25687D3*
D88*
X6375D3*
D90*
X11500Y-2125D3*
D88*
Y-1125D3*
D90*
X11688Y-22188D3*
D88*
X10688D3*
D54*
X38189Y-25197D3*
X1181Y-38189D3*
Y-25197D3*
X38189Y-38189D3*
D75*
X14500Y-38500D3*
D73*
X15500D3*
X16500D3*
D75*
X9000Y-18500D3*
D73*
X8000D3*
X7000D3*
D75*
X9000Y-19500D3*
D73*
X8000D3*
X7000D3*
D75*
X9000Y-20500D3*
D73*
X8000D3*
X7000D3*
D75*
X10500Y-25875D3*
D73*
Y-26875D3*
G36*
X20817Y-2629D2*
X20926Y-2610D1*
X21023Y-2554D1*
X21095Y-2469D1*
X21133Y-2364D1*
Y-2253D1*
X21095Y-2148D1*
X21023Y-2063D1*
X20927Y-2007D1*
X20817Y-1987D1*
X20175D1*
X20066Y-2007D1*
X19969Y-2062D1*
X19897Y-2148D1*
X19859Y-2252D1*
Y-2364D1*
X19897Y-2469D1*
X19969Y-2554D1*
X20065Y-2610D1*
X20175Y-2629D1*
X20817D1*
G37*
G36*
X26147D2*
X26257Y-2610D1*
X26354Y-2554D1*
X26425Y-2469D1*
X26464Y-2364D1*
Y-2253D1*
X26426Y-2148D1*
X26354Y-2063D1*
X26258Y-2007D1*
X26148Y-1987D1*
X25506D1*
X25396Y-2007D1*
X25300Y-2062D1*
X25228Y-2148D1*
X25190Y-2252D1*
Y-2364D1*
X25228Y-2469D1*
X25299Y-2554D1*
X25396Y-2610D1*
X25506Y-2629D1*
X26147D1*
G37*
G36*
X26446Y-10008D2*
X26555Y-9989D1*
X26652Y-9933D1*
X26724Y-9848D1*
X26762Y-9743D1*
Y-9632D1*
X26724Y-9527D1*
X26652Y-9442D1*
X26556Y-9386D1*
X26446Y-9367D1*
X25804D1*
X25695Y-9386D1*
X25598Y-9442D1*
X25526Y-9527D1*
X25488Y-9631D1*
Y-9743D1*
X25526Y-9848D1*
X25598Y-9933D1*
X25694Y-9989D1*
X25804Y-10008D1*
X26446D1*
G37*
G36*
X31776D2*
X31886Y-9989D1*
X31983Y-9933D1*
X32054Y-9848D1*
X32093Y-9743D1*
Y-9632D1*
X32055Y-9527D1*
X31983Y-9442D1*
X31887Y-9386D1*
X31777Y-9367D1*
X31135D1*
X31025Y-9386D1*
X30929Y-9442D1*
X30857Y-9527D1*
X30819Y-9631D1*
Y-9743D1*
X30857Y-9848D1*
X30928Y-9933D1*
X31025Y-9989D1*
X31135Y-10008D1*
X31776D1*
G37*
G36*
X26446Y-14258D2*
X26555Y-14239D1*
X26652Y-14183D1*
X26724Y-14098D1*
X26762Y-13993D1*
Y-13882D1*
X26724Y-13777D1*
X26652Y-13692D1*
X26556Y-13636D1*
X26446Y-13617D1*
X25804D1*
X25695Y-13636D1*
X25598Y-13692D1*
X25526Y-13777D1*
X25488Y-13881D1*
Y-13993D1*
X25526Y-14098D1*
X25598Y-14183D1*
X25694Y-14239D1*
X25804Y-14258D1*
X26446D1*
G37*
G36*
X31776D2*
X31886Y-14239D1*
X31983Y-14183D1*
X32054Y-14098D1*
X32093Y-13993D1*
Y-13882D1*
X32055Y-13777D1*
X31983Y-13692D1*
X31887Y-13636D1*
X31777Y-13617D1*
X31135D1*
X31025Y-13636D1*
X30929Y-13692D1*
X30857Y-13777D1*
X30819Y-13881D1*
Y-13993D1*
X30857Y-14098D1*
X30928Y-14183D1*
X31025Y-14239D1*
X31135Y-14258D1*
X31776D1*
G37*
G36*
X20696Y-21758D2*
X20805Y-21739D1*
X20902Y-21683D1*
X20974Y-21598D1*
X21012Y-21493D1*
Y-21382D1*
X20974Y-21277D1*
X20902Y-21192D1*
X20806Y-21136D1*
X20696Y-21117D1*
X20054D1*
X19945Y-21136D1*
X19848Y-21192D1*
X19776Y-21277D1*
X19738Y-21381D1*
Y-21493D1*
X19776Y-21598D1*
X19848Y-21683D1*
X19944Y-21739D1*
X20054Y-21758D1*
X20696D1*
G37*
G36*
X26026D2*
X26136Y-21739D1*
X26233Y-21683D1*
X26304Y-21598D1*
X26343Y-21493D1*
Y-21382D1*
X26305Y-21277D1*
X26233Y-21192D1*
X26137Y-21136D1*
X26027Y-21117D1*
X25385D1*
X25275Y-21136D1*
X25179Y-21192D1*
X25107Y-21277D1*
X25069Y-21381D1*
Y-21493D1*
X25107Y-21598D1*
X25178Y-21683D1*
X25275Y-21739D1*
X25385Y-21758D1*
X26026D1*
G37*
D84*
X28740Y-22835D3*
X11220Y-19882D3*
X28740Y-1181D3*
X1181D3*
Y-22835D3*
X11220Y-4134D3*
G36*
X9568Y-2190D2*
X9057D1*
Y-1560D1*
X9568D1*
Y-2190D1*
G37*
G36*
X10316D2*
X9805D1*
Y-1560D1*
X10316D1*
Y-2190D1*
G37*
G36*
X12560Y-22131D2*
Y-21619D1*
X13190D1*
Y-22131D1*
X12560D1*
G37*
G36*
Y-22879D2*
Y-22367D1*
X13190D1*
Y-22879D1*
X12560D1*
G37*
G36*
X11378Y-7369D2*
Y-7881D1*
X10748D1*
Y-7369D1*
X11378D1*
G37*
G36*
Y-6621D2*
Y-7133D1*
X10748D1*
Y-6621D1*
X11378D1*
G37*
G36*
X7627Y-8119D2*
Y-8631D1*
X6998D1*
Y-8119D1*
X7627D1*
G37*
G36*
Y-7371D2*
Y-7883D1*
X6998D1*
Y-7371D1*
X7627D1*
G37*
G36*
X3818Y-9127D2*
X3307D1*
Y-8498D1*
X3818D1*
Y-9127D1*
G37*
G36*
X4566D2*
X4055D1*
Y-8498D1*
X4566D1*
Y-9127D1*
G37*
G36*
X3818Y-10065D2*
X3307D1*
Y-9435D1*
X3818D1*
Y-10065D1*
G37*
G36*
X4566D2*
X4055D1*
Y-9435D1*
X4566D1*
Y-10065D1*
G37*
G36*
X3818Y-11002D2*
X3307D1*
Y-10373D1*
X3818D1*
Y-11002D1*
G37*
G36*
X4566D2*
X4055D1*
Y-10373D1*
X4566D1*
Y-11002D1*
G37*
G36*
X3818Y-11940D2*
X3307D1*
Y-11310D1*
X3818D1*
Y-11940D1*
G37*
G36*
X4566D2*
X4055D1*
Y-11310D1*
X4566D1*
Y-11940D1*
G37*
G36*
X9869Y-16310D2*
X10381D1*
Y-16940D1*
X9869D1*
Y-16310D1*
G37*
G36*
X9121D2*
X9633D1*
Y-16940D1*
X9121D1*
Y-16310D1*
G37*
G36*
X9690Y-15369D2*
Y-15881D1*
X9060D1*
Y-15369D1*
X9690D1*
G37*
G36*
Y-14621D2*
Y-15133D1*
X9060D1*
Y-14621D1*
X9690D1*
G37*
D74*
X5438Y-1438D3*
D72*
X6438D3*
X7438D3*
D70*
X4437Y-25687D3*
D68*
X3437D3*
D75*
X20000Y-25500D3*
D73*
X19000D3*
D75*
X21500D3*
D73*
Y-26500D3*
D75*
X17500Y-25500D3*
D73*
X16500D3*
D75*
X23500D3*
D73*
Y-26500D3*
D75*
X25500Y-25500D3*
D73*
Y-26500D3*
D75*
X27500Y-25500D3*
D73*
Y-26500D3*
D75*
X29500Y-25500D3*
D73*
Y-26500D3*
D75*
X31500Y-25500D3*
D73*
Y-26500D3*
D75*
X11000Y-34250D3*
D73*
X12000D3*
X11000Y-35250D3*
X12000D3*
X11000Y-36250D3*
X12000D3*
X11000Y-37250D3*
X12000D3*
D75*
X33500Y-25500D3*
D73*
Y-26500D3*
D75*
X22500Y-32000D3*
D73*
X23500D3*
X24500D3*
X25500D3*
X26500D3*
D75*
X35500Y-25500D3*
D73*
Y-26500D3*
D75*
X28500Y-32000D3*
D73*
X29500D3*
D75*
X25500Y-34000D3*
D73*
Y-35000D3*
Y-36000D3*
Y-37000D3*
Y-38000D3*
D75*
X22500Y-34500D3*
D73*
Y-35500D3*
X21500Y-34500D3*
Y-35500D3*
X20500Y-34500D3*
Y-35500D3*
X19500Y-34500D3*
Y-35500D3*
X18500Y-34500D3*
Y-35500D3*
X17500Y-34500D3*
Y-35500D3*
D75*
X27500Y-34000D3*
D73*
Y-35000D3*
Y-36000D3*
Y-37000D3*
Y-38000D3*
D75*
X22500Y-38500D3*
D73*
X21500D3*
X20500D3*
X19500D3*
X18500D3*
D75*
X22500Y-37000D3*
D73*
X21500D3*
X20500D3*
X19500D3*
X18500D3*
D75*
X29500Y-34000D3*
D73*
Y-35000D3*
Y-36000D3*
Y-37000D3*
Y-38000D3*
D75*
X31500Y-34000D3*
D73*
Y-35000D3*
Y-36000D3*
Y-37000D3*
Y-38000D3*
D70*
X2813Y-4187D3*
D68*
X1813D3*
D66*
X37000Y-10000D3*
D64*
Y-11559D3*
Y-13118D3*
Y-14677D3*
D75*
X3000Y-19000D3*
D73*
X4000D3*
D75*
X3000Y-20000D3*
D73*
X4000D3*
G36*
X1921Y-9024D2*
X2083Y-8861D1*
Y-8632D1*
X1921Y-8469D1*
X1691D1*
X1529Y-8632D1*
Y-8861D1*
X1691Y-9024D1*
X1921D1*
G37*
G36*
X921D2*
X1083Y-8861D1*
Y-8632D1*
X921Y-8469D1*
X691D1*
X529Y-8632D1*
Y-8861D1*
X691Y-9024D1*
X921D1*
G37*
G36*
X1921Y-10024D2*
X2083Y-9861D1*
Y-9632D1*
X1921Y-9469D1*
X1691D1*
X1529Y-9632D1*
Y-9861D1*
X1691Y-10024D1*
X1921D1*
G37*
G36*
X921D2*
X1083Y-9861D1*
Y-9632D1*
X921Y-9469D1*
X691D1*
X529Y-9632D1*
Y-9861D1*
X691Y-10024D1*
X921D1*
G37*
G36*
X1921Y-11024D2*
X2083Y-10861D1*
Y-10632D1*
X1921Y-10469D1*
X1691D1*
X1529Y-10632D1*
Y-10861D1*
X1691Y-11024D1*
X1921D1*
G37*
G36*
X921D2*
X1083Y-10861D1*
Y-10632D1*
X921Y-10469D1*
X691D1*
X529Y-10632D1*
Y-10861D1*
X691Y-11024D1*
X921D1*
G37*
G36*
X1921Y-12024D2*
X2083Y-11861D1*
Y-11632D1*
X1921Y-11469D1*
X1691D1*
X1529Y-11632D1*
Y-11861D1*
X1691Y-12024D1*
X1921D1*
G37*
G36*
X921D2*
X1083Y-11861D1*
Y-11632D1*
X921Y-11469D1*
X691D1*
X529Y-11632D1*
Y-11861D1*
X691Y-12024D1*
X921D1*
G37*
G36*
X2754Y-16658D2*
X2592Y-16820D1*
Y-17050D1*
X2754Y-17212D1*
X2984D1*
X3146Y-17050D1*
Y-16820D1*
X2984Y-16658D1*
X2754D1*
G37*
G36*
X3754D2*
X3592Y-16820D1*
Y-17050D1*
X3754Y-17212D1*
X3984D1*
X4146Y-17050D1*
Y-16820D1*
X3984Y-16658D1*
X3754D1*
G37*
G36*
X2754Y-15658D2*
X2592Y-15820D1*
Y-16050D1*
X2754Y-16212D1*
X2984D1*
X3146Y-16050D1*
Y-15820D1*
X2984Y-15658D1*
X2754D1*
G37*
G36*
X3754D2*
X3592Y-15820D1*
Y-16050D1*
X3754Y-16212D1*
X3984D1*
X4146Y-16050D1*
Y-15820D1*
X3984Y-15658D1*
X3754D1*
G37*
G36*
X2754Y-14658D2*
X2592Y-14820D1*
Y-15050D1*
X2754Y-15212D1*
X2984D1*
X3146Y-15050D1*
Y-14820D1*
X2984Y-14658D1*
X2754D1*
G37*
G36*
X3754D2*
X3592Y-14820D1*
Y-15050D1*
X3754Y-15212D1*
X3984D1*
X4146Y-15050D1*
Y-14820D1*
X3984Y-14658D1*
X3754D1*
G37*
G36*
X2754Y-13658D2*
X2592Y-13820D1*
Y-14050D1*
X2754Y-14212D1*
X2984D1*
X3146Y-14050D1*
Y-13820D1*
X2984Y-13658D1*
X2754D1*
G37*
G36*
X3754D2*
X3592Y-13820D1*
Y-14050D1*
X3754Y-14212D1*
X3984D1*
X4146Y-14050D1*
Y-13820D1*
X3984Y-13658D1*
X3754D1*
G37*
D66*
X37000Y-5000D3*
D64*
Y-6559D3*
D66*
Y-17500D3*
D64*
Y-19059D3*
M02*
